<?xml version="1.0" encoding="UTF-8"?>
<svg id="Group_1304" data-name="Group 1304" xmlns="http://www.w3.org/2000/svg" viewBox="0 0 111.04 83.2">
  <defs>
    <style>
      .cls-1 {
        fill: #6ba0cc;
        stroke-width: 0px;
      }
    </style>
  </defs>
  <path class="cls-1" d="M63.35,18.94c-2.01-.55-4.11-.83-6.22-.83-12.94,0-23.46,10.53-23.46,23.46s10.53,23.46,23.46,23.46,23.46-10.53,23.46-23.46c0-2.11-.28-4.2-.83-6.22-.38-1.38.44-2.81,1.82-3.19,1.38-.38,2.81.44,3.19,1.82.67,2.46,1.02,5.02,1.02,7.59,0,15.8-12.86,28.66-28.66,28.66s-28.66-12.86-28.66-28.66,12.86-28.66,28.66-28.66c2.57,0,5.13.34,7.59,1.02,1.15.32,1.91,1.36,1.91,2.5,0,.23-.03.46-.09.69-.38,1.38-1.81,2.2-3.19,1.82ZM93.77,28c-1.38.41-2.16,1.85-1.75,3.23.99,3.34,1.49,6.82,1.49,10.34,0,20.06-16.32,36.38-36.38,36.38S20.75,61.63,20.75,41.57,37.07,5.2,57.13,5.2c3.52,0,7,.5,10.34,1.49,1.38.41,2.82-.38,3.23-1.75.07-.25.11-.49.11-.74,0-1.12-.73-2.16-1.86-2.49C65.12.57,61.15,0,57.13,0,46.02,0,35.58,4.32,27.73,12.18c-7.85,7.85-12.18,18.29-12.18,29.4s4.32,21.54,12.18,29.4c7.85,7.85,18.29,12.18,29.4,12.18s21.54-4.32,29.4-12.18c7.85-7.85,12.18-18.29,12.18-29.4,0-4.02-.57-7.99-1.7-11.82-.41-1.38-1.85-2.16-3.23-1.75h0ZM57.13,31.18c.38,0,.77.02,1.15.06,1.43.16,2.71-.87,2.87-2.3.16-1.43-.87-2.71-2.3-2.87-.57-.06-1.14-.09-1.71-.09-8.6,0-15.59,6.99-15.59,15.59s6.99,15.59,15.59,15.59,15.59-6.99,15.59-15.59c0-1.44-1.16-2.6-2.6-2.6s-2.6,1.16-2.6,2.6c0,5.73-4.66,10.39-10.39,10.39s-10.39-4.66-10.39-10.39,4.66-10.39,10.39-10.39h0ZM70.4,24.63l1.29-12.98c.06-.6.32-1.16.75-1.58L81.75.76c.72-.72,1.79-.95,2.74-.6.95.35,1.61,1.22,1.69,2.23l.74,9.39,9.39.74c1.01.08,1.88.74,2.23,1.69.35.95.12,2.02-.6,2.74l-9.31,9.31c-.42.42-.98.69-1.58.75l-12.98,1.29-15.1,15.1c-.51.51-1.17.76-1.84.76s-1.33-.25-1.84-.76c-1.01-1.01-1.01-2.66,0-3.67l15.1-15.1ZM75.79,22.91l9.82-.98,4.67-4.67-5.99-.47c-1.27-.1-2.29-1.11-2.39-2.39l-.47-5.99-4.67,4.67-.98,9.82Z"/>
</svg>