<?xml version="1.0" encoding="UTF-8"?>
<svg id="Group_1304" data-name="Group 1304" xmlns="http://www.w3.org/2000/svg" xmlns:xlink="http://www.w3.org/1999/xlink" viewBox="0 0 111.04 83.85">
  <defs>
    <style>
      .cls-1 {
        fill: #000;
      }

      .cls-1, .cls-2 {
        stroke-width: 0px;
      }

      .cls-2 {
        fill: none;
      }

      .cls-3 {
        clip-path: url(#clippath);
      }
    </style>
    <clipPath id="clippath">
      <rect class="cls-2" x="15.72" y=".65" width="83" height="83.15"/>
    </clipPath>
  </defs>
  <g class="cls-3">
    <g id="Group_52" data-name="Group 52">
      <path id="Path_61" data-name="Path 61" class="cls-1" d="M86.39.65c1.33.45,2.14,1.8,1.91,3.18-.35,14.09-10.12,26.19-23.83,29.51-1.54.38-3.13.58-4.83.89v15.62c.07.94-.41,1.84-1.23,2.3-.76.47-1.72.45-2.46-.04-.8-.5-1.25-1.41-1.17-2.34.01-4.9,0-9.8,0-14.7v-.74c-2.28-.4-4.55-.92-6.78-1.54-11.13-3.74-18.19-11.36-21.06-22.76-.4-2.04-.67-4.1-.8-6.18-.3-1.39.53-2.78,1.89-3.18h2.76c.85.12,1.71.21,2.55.36,10.86,1.96,18.67,7.94,23.5,17.87.1.21.21.41.37.73.17-.34.28-.57.4-.8,3.91-8.63,11.58-14.98,20.79-17.22,1.71-.45,3.49-.63,5.24-.94h2.76ZM83.23,5.65c-12.4,1.3-22.19,11.11-23.45,23.51,12.44-1.21,22.28-11.07,23.45-23.51M54.65,29.15c-.58-6.06-3.28-11.72-7.62-15.98-4.24-4.28-9.84-6.94-15.84-7.51,1.18,12.44,11.02,22.3,23.46,23.5"/>
      <path id="Path_62" data-name="Path 62" class="cls-1" d="M15.72,28.59c.5-1.31,1.85-2.07,3.23-1.82,6.54.43,11.71,5.7,12.01,12.24.08,3.11.02,6.22.03,9.33v.92c.69-.46,1.42-.87,2.16-1.24,2.86-1.41,6.3-.85,8.57,1.39,3.23,3.03,6.33,6.2,9.4,9.4,2.16,2.26,3.35,5.27,3.32,8.4.05,4.65,0,9.3.02,13.96,0,1.16-.7,2.2-1.78,2.63h-19.46c-1.31-.43-2.11-1.75-1.9-3.11.05-.89-.02-1.78.02-2.67.04-.56-.18-1.11-.6-1.49-4.57-4.55-9.13-9.11-13.67-13.69-.49-.56-.94-1.15-1.35-1.77V28.59M49.58,78.89c0-3.72-.03-7.34,0-10.97.07-2.47-.92-4.84-2.71-6.53-2.66-2.61-5.28-5.27-7.91-7.91-.17-.17-.34-.35-.52-.51-1.27-1.14-3.22-1.03-4.36.24-.44.49-.71,1.1-.77,1.75-.11.99.26,1.96,1,2.63,2.11,2.1,4.21,4.2,6.3,6.31.75.68.99,1.75.61,2.68-.31.9-1.14,1.52-2.09,1.54-.82.03-1.61-.31-2.14-.95-3.22-3.24-6.43-6.49-9.69-9.69-.8-.74-1.24-1.79-1.2-2.88.03-4.92,0-9.85.02-14.77.02-1.63-.44-3.23-1.32-4.61-.96-1.54-2.45-2.67-4.18-3.18-.01.26-.03.44-.03.62,0,8.74,0,17.48.02,26.22.03.41.21.8.5,1.1,4.66,4.71,9.34,9.39,14.03,14.07.73.66,1.13,1.61,1.07,2.59-.04.75,0,1.5,0,2.26h13.38Z"/>
      <path id="Path_63" data-name="Path 63" class="cls-1" d="M61.75,83.8c-1.25-.59-1.98-1.92-1.79-3.29.07-4.25.03-8.5.02-12.74-.08-3.65,1.37-7.16,4-9.68,2.69-2.66,5.41-5.29,8.01-8.05,2.88-3.26,7.82-3.64,11.18-.88.08.04.16.07.24.09.01-.28.04-.53.04-.78v-8.6c-.16-6.5,4.58-12.09,11.03-12.99.56-.08,1.13-.12,1.7-.11,1.32-.08,2.46.93,2.54,2.25,0,.1,0,.19,0,.29.01,3.03,0,6.06,0,9.09,0,7.17-.01,14.34.01,21.51.03,1.03-.38,2.03-1.14,2.73-4.66,4.63-9.28,9.29-13.94,13.93-.39.34-.59.83-.56,1.35.04.92-.03,1.84.02,2.76.21,1.36-.59,2.68-1.9,3.12h-19.45ZM78.23,78.9c0-.69.05-1.29,0-1.87-.11-1.23.38-2.43,1.31-3.23,4.62-4.56,9.18-9.17,13.77-13.75.37-.34.57-.84.55-1.34-.02-8.89-.02-17.77-.01-26.66-3.35,1.02-5.62,4.15-5.53,7.65-.02,5.03-.02,10.07,0,15.1.03.95-.35,1.88-1.04,2.53-3.3,3.27-6.57,6.57-9.86,9.86-.15.16-.31.3-.48.44-.82.63-1.94.68-2.81.12-.89-.54-1.3-1.61-1.01-2.61.19-.53.49-1.01.89-1.41,2-2.05,4.03-4.07,6.06-6.09.74-.66,1.13-1.63,1.05-2.61-.14-1.7-1.63-2.96-3.33-2.83-.76.06-1.47.4-1.99.96-2.87,2.87-5.73,5.74-8.59,8.61-1.55,1.55-2.41,3.66-2.36,5.86v10.63c0,.21.03.41.05.65h13.33Z"/>
    </g>
  </g>
</svg>