<?xml version="1.0" encoding="UTF-8"?>
<svg id="Group_1304" data-name="Group 1304" xmlns="http://www.w3.org/2000/svg" viewBox="0 0 111.04 83.2">
  <defs>
    <style>
      .cls-1 {
        fill: #6ba0cc;
        stroke-width: 0px;
      }
    </style>
  </defs>
  <path class="cls-1" d="M34.54,38.09c-.28,0-.56-.07-.8-.2l-7.71-4.03-7.71,4.03c-.85.44-1.9.11-2.34-.74-.18-.34-.24-.72-.17-1.1l1.47-8.51-6.23-6.03c-.69-.67-.71-1.77-.04-2.45.27-.28.62-.46,1-.51l8.62-1.25,3.85-7.75c.51-.86,1.62-1.14,2.48-.63.26.15.48.37.63.63l3.85,7.75,8.62,1.25c.95.14,1.61,1.02,1.47,1.96-.05.38-.23.73-.51,1l-6.23,6.03,1.47,8.51c.16.94-.47,1.84-1.41,2-.1.02-.2.03-.29.03ZM26.02,30.18c.28,0,.56.07.8.2l5.4,2.82-1.03-5.96c-.1-.57.09-1.14.5-1.54l4.35-4.21-6.02-.87c-.56-.08-1.05-.43-1.3-.94l-2.7-5.44-2.7,5.44c-.25.51-.74.86-1.3.94l-6.02.87,4.35,4.21c.41.4.6.98.5,1.54l-1.03,5.96,5.4-2.82c.25-.13.52-.19.8-.19Z"/>
  <path class="cls-1" d="M93.53,38.09c-.28,0-.56-.07-.8-.2l-7.71-4.03-7.71,4.03c-.85.44-1.9.11-2.34-.74-.18-.34-.24-.72-.17-1.1l1.47-8.51-6.23-6.03c-.69-.67-.71-1.77-.04-2.45.27-.28.62-.46,1-.51l8.62-1.25,3.85-7.75c.51-.86,1.62-1.14,2.48-.63.26.15.48.37.63.63l3.85,7.75,8.62,1.25c.95.14,1.61,1.02,1.47,1.96-.05.38-.23.73-.51,1l-6.23,6.03,1.47,8.51c.16.94-.47,1.84-1.41,2-.1.02-.2.03-.29.03ZM85.01,30.18c.28,0,.56.07.8.2l5.4,2.82-1.03-5.96c-.1-.57.09-1.14.5-1.54l4.35-4.21-6.02-.87c-.56-.08-1.05-.43-1.3-.94l-2.7-5.44-2.7,5.44c-.25.51-.74.86-1.3.94l-6.02.87,4.35,4.21c.41.4.6.98.5,1.54l-1.03,5.96,5.4-2.82c.25-.13.52-.19.8-.19Z"/>
  <path class="cls-1" d="M64.03,29.42c-.28,0-.56-.07-.8-.2l-7.71-4.03-7.71,4.03c-.85.44-1.9.11-2.34-.74-.18-.34-.24-.72-.17-1.1l1.47-8.51-6.23-6.03c-.69-.67-.71-1.77-.04-2.45.27-.28.62-.46,1-.51l8.62-1.25,3.84-7.75c.51-.86,1.62-1.14,2.48-.63.26.15.48.37.63.63l3.85,7.75,8.62,1.25c.95.14,1.61,1.02,1.47,1.96-.05.38-.23.73-.51,1l-6.23,6.03,1.47,8.51c.16.94-.47,1.84-1.41,2-.09.02-.19.02-.29.03ZM55.52,21.5c.28,0,.56.07.8.2l5.4,2.82-1.03-5.96c-.1-.57.09-1.14.5-1.54l4.35-4.21-6.02-.87c-.56-.08-1.05-.43-1.3-.94l-2.7-5.44-2.7,5.44c-.25.51-.74.86-1.3.94l-6.02.87,4.35,4.21c.41.4.6.98.5,1.54l-1.03,5.96,5.4-2.82c.25-.13.52-.19.8-.19Z"/>
  <path class="cls-1" d="M55.52,58.91c-6.7,0-12.14-5.44-12.14-12.14v-3.47c0-6.71,5.44-12.14,12.14-12.14s12.14,5.44,12.14,12.14v3.47c0,6.7-5.44,12.14-12.14,12.14ZM55.52,34.62c-4.79,0-8.67,3.89-8.67,8.67v3.47c0,4.79,3.88,8.67,8.67,8.67s8.67-3.88,8.67-8.67v-3.47c0-4.79-3.89-8.67-8.67-8.67Z"/>
  <path class="cls-1" d="M74.6,83.2c-.96,0-1.73-.78-1.73-1.73v-12.14c0-2.87-2.33-5.2-5.2-5.2h-24.29c-2.87,0-5.2,2.33-5.2,5.2v12.14c0,.96-.78,1.73-1.73,1.73s-1.73-.78-1.73-1.73v-12.14c0-4.79,3.89-8.67,8.67-8.67h24.29c4.79,0,8.67,3.89,8.67,8.67v12.14c0,.96-.78,1.73-1.73,1.73Z"/>
  <path class="cls-1" d="M20.82,67.59c-6.7,0-12.14-5.44-12.14-12.14v-3.47c0-6.71,5.44-12.14,12.14-12.14s12.14,5.44,12.14,12.14v3.47c0,6.7-5.44,12.14-12.14,12.14ZM20.82,43.3c-4.79,0-8.67,3.89-8.67,8.67v3.47c0,4.79,3.88,8.67,8.67,8.67s8.67-3.88,8.67-8.67v-3.47c0-4.79-3.89-8.67-8.67-8.67Z"/>
  <path class="cls-1" d="M1.73,83.2c-.96,0-1.73-.78-1.73-1.73v-3.47c0-4.79,3.89-8.67,8.67-8.67h22.55c.96,0,1.73.78,1.73,1.73s-.78,1.73-1.73,1.73H8.67c-2.87,0-5.2,2.33-5.2,5.2v3.47c0,.96-.78,1.73-1.73,1.73Z"/>
  <path class="cls-1" d="M90.22,67.59c-6.7,0-12.14-5.44-12.14-12.14v-3.47c0-6.71,5.44-12.14,12.14-12.14s12.14,5.44,12.14,12.14v3.47c0,6.7-5.44,12.14-12.14,12.14ZM90.22,43.3c-4.79,0-8.67,3.89-8.67,8.67v3.47c0,4.79,3.88,8.67,8.67,8.67s8.67-3.88,8.67-8.67v-3.47c0-4.79-3.89-8.67-8.67-8.67Z"/>
  <path class="cls-1" d="M109.3,83.2c-.96,0-1.73-.78-1.73-1.73v-3.47c0-2.87-2.33-5.2-5.2-5.2h-22.55c-.96,0-1.73-.78-1.73-1.73s.78-1.73,1.73-1.73h22.55c4.79,0,8.67,3.89,8.67,8.67v3.47c0,.96-.78,1.73-1.73,1.73Z"/>
</svg>