<?xml version="1.0" encoding="UTF-8"?>
<svg id="Group_1304" data-name="Group 1304" xmlns="http://www.w3.org/2000/svg" viewBox="0 0 97.73 83.15">
  <defs>
    <style>
      .cls-1 {
        fill: #6ba0cc;
        stroke-width: 0px;
      }
    </style>
  </defs>
  <path class="cls-1" d="M68.47,37.69c6.51,0,11.81-5.3,11.81-11.81s-5.3-11.81-11.81-11.81-11.81,5.3-11.81,11.81,5.3,11.81,11.81,11.81ZM68.47,17.29c4.74,0,8.59,3.85,8.59,8.59s-3.85,8.59-8.59,8.59-8.59-3.85-8.59-8.59,3.85-8.59,8.59-8.59ZM97,38.3c-.45-.3-1.03-.34-1.53-.13l-6.03,2.65c0-.2-.04-.4-.11-.59l-1.76-4.35,1.48-3.57,4.32-1.83c.59-.25.98-.84.98-1.48v-6.24c0-.65-.39-1.23-.98-1.48l-4.32-1.83-1.48-3.58,1.76-4.35c.24-.6.1-1.28-.35-1.74l-4.41-4.41c-.46-.46-1.14-.6-1.74-.35l-4.35,1.76-3.57-1.48-1.83-4.32c-.25-.59-.84-.98-1.48-.98h-6.24c-.65,0-1.23.39-1.48.98l-1.83,4.32-3.58,1.48-4.34-1.76c-.6-.24-1.28-.1-1.74.35l-4.42,4.41c-.46.46-.6,1.14-.35,1.74l1.76,4.35-1.48,3.58-4.32,1.83c-.59.25-.98.84-.98,1.48v1.66l-7.32.98c1.31-1.67,2.11-3.87,2.11-6.28,0-5.2-3.73-9.44-8.32-9.44s-8.32,4.23-8.32,9.44c0,3.2,1.42,6.04,3.58,7.75l-.66.09c-2.28.31-4.06,1.8-4.76,3.99l-5.27,16.39-10.04,31.21-2.62,1.15c-.7.31-1.08,1.06-.93,1.8.16.74.81,1.28,1.57,1.28h94.51c.89,0,1.61-.72,1.61-1.61v-41.51c0-.54-.27-1.05-.73-1.35h0ZM29.07,12.91c2.81,0,5.1,2.79,5.1,6.22s-2.29,6.22-5.1,6.22-5.1-2.79-5.1-6.22,2.29-6.22,5.1-6.22ZM21.4,57.46l4.82,1.54-3.56,11.17-7.11,3.12,5.85-15.83ZM29.68,57.21c-.2-.38-.53-.66-.94-.79l-8.61-2.74c-2.14-.69-3.49-2.72-3.4-4.87l14.71,4.68c.92.3,1.57.85,1.99,1.71.41.83.46,1.67.15,2.66l-2.76,8.73-4.22,1.85,3.19-10c.13-.41.09-.85-.1-1.23h0ZM36.31,53.76c-.81-1.63-2.15-2.78-3.9-3.34l-5.08-1.62,4.11-12.76,14.31-3.71c.4-.1.76-.27,1.09-.47l1.05.45,1.48,3.57-1.76,4.35c-.24.6-.1,1.28.35,1.74l4.42,4.41c.46.46,1.14.6,1.74.35l4.34-1.76,3.58,1.48,1.83,4.32c.18.42.52.73.92.88l-30.06,13.21,1.91-6.03c.56-1.78.45-3.49-.33-5.06h0ZM49.75,22.16c.39-.16.7-.48.86-.87l1.98-4.79c.16-.39.16-.83,0-1.22l-1.61-3.97,2.91-2.91,3.97,1.61c.39.16.83.16,1.22,0l4.79-1.98c.39-.16.7-.47.87-.86l1.67-3.94h4.11l1.67,3.94c.16.39.48.7.87.86l4.79,1.98c.39.16.83.16,1.22,0l3.97-1.61,2.91,2.91-1.61,3.97c-.16.39-.16.83,0,1.22l1.98,4.79c.16.39.47.7.86.87l3.94,1.67v4.11l-3.94,1.67c-.39.16-.7.48-.86.87l-1.98,4.79c-.16.39-.16.83,0,1.22l1.61,3.97-2.91,2.91-3.97-1.61c-.39-.16-.83-.16-1.22,0l-4.79,1.98c-.39.16-.7.47-.87.86l-1.67,3.94h-4.11l-1.67-3.94c-.16-.39-.48-.7-.87-.86l-4.79-1.98c-.39-.16-.83-.16-1.22,0l-3.97,1.61-2.91-2.91,1.61-3.97c.16-.39.16-.83,0-1.22l-1.98-4.79c-.16-.39-.47-.7-.86-.86l-1.18-.5c.07-.5.06-1.03-.05-1.58-.31-1.6-1.37-2.78-2.71-3.19v-.51l3.94-1.67h0ZM79.26,45.3l-4.75,2.09.39-.93,3.57-1.48.79.32ZM21.96,31.93c.32-1,1.1-1.65,2.13-1.79l20.52-2.75c.53-.07.7.5.75.75,0,.04.17.92-.42,1.08l-16.02,4.15-4.65,14.45-6.73-2.14,4.43-13.75h0ZM14.97,53.66c.83,1.19,1.98,2.16,3.38,2.78l-6.89,18.64-3.94,1.73,7.45-23.15h0ZM94.51,79.56H9.27l85.24-37.44v37.44Z"/>
</svg>