<svg xmlns="http://www.w3.org/2000/svg" width="23.191" height="24.112" viewBox="0 0 23.191 24.112">
  <g id="folder" transform="translate(-0.5 0)">
    <path id="Path_841" data-name="Path 841" d="M22.146,6.924V3.91a.358.358,0,0,0-.358-.358H19.841V.358A.358.358,0,0,0,19.483,0H5.16A.358.358,0,0,0,4.8.358V3.552H2.855A.358.358,0,0,0,2.5,3.91V9.563H2.181A1.683,1.683,0,0,0,.5,11.244V22.431a1.683,1.683,0,0,0,1.681,1.681H22.01a1.682,1.682,0,0,0,1.681-1.681V8.6a1.683,1.683,0,0,0-1.545-1.675ZM5.518.716H19.125v6.2H17.537V3.91a.358.358,0,0,0-.358-.358H5.518Zm-4.3,21.715V11.244a.966.966,0,0,1,.965-.965h1.4a.358.358,0,0,0,0-.716H3.214v-5.3H16.82v2.65H13.189A1.682,1.682,0,0,0,11.509,8.6a.966.966,0,0,1-.965.965H5.015a.358.358,0,1,0,0,.716h5.529A1.683,1.683,0,0,0,12.225,8.6a.966.966,0,0,1,.965-.965h5.986a.966.966,0,0,1,.965.965V22.432a.966.966,0,0,1-.964.965h-17a.966.966,0,0,1-.965-.965Zm21.758,0a.966.966,0,0,1-.965.965H20.551a1.671,1.671,0,0,0,.3-.825h.937a.358.358,0,0,0,.358-.358V12.719a.358.358,0,0,0-.716,0v9.136h-.573V8.6a1.683,1.683,0,0,0-1.015-1.543V4.268h1.588v7.019a.358.358,0,0,0,.716,0V7.644a.965.965,0,0,1,.829.954Zm0,0" fill="#fff"/>
    <path id="Path_842" data-name="Path 842" d="M90.948,115.665h8.594a.358.358,0,0,0,0-.716H90.948a.358.358,0,0,0,0,.716Zm0,0" transform="translate(-85.847 -109.535)" fill="#fff"/>
    <path id="Path_843" data-name="Path 843" d="M90.948,153.685h4.916a.358.358,0,0,0,0-.716H90.948a.358.358,0,0,0,0,.716Zm0,0" transform="translate(-85.847 -145.765)" fill="#fff"/>
    <path id="Path_844" data-name="Path 844" d="M230.7,244.211h-7.448a.358.358,0,0,0-.358.358v2.65a.358.358,0,0,0,.358.358H230.7a.358.358,0,0,0,.358-.358v-2.65A.358.358,0,0,0,230.7,244.211Zm-.358,2.65h-6.732v-1.934h6.732Zm0,0" transform="translate(-211.917 -232.71)" fill="#fff"/>
  </g>
</svg>
