<svg xmlns="http://www.w3.org/2000/svg" xmlns:xlink="http://www.w3.org/1999/xlink" width="83" height="83.147" viewBox="0 0 83 83.147">
  <defs>
    <clipPath id="clip-path">
      <rect id="Rectangle_82" data-name="Rectangle 82" width="83" height="83.147" fill="#6ba0cc"/>
    </clipPath>
  </defs>
  <g id="Group_52" data-name="Group 52" clip-path="url(#clip-path)">
    <path id="Path_61" data-name="Path 61" d="M108.277,0a2.868,2.868,0,0,1,1.91,3.185A31.163,31.163,0,0,1,86.362,32.693c-1.541.381-3.127.58-4.829.888v.759q0,7.43,0,14.859A2.442,2.442,0,0,1,80.3,51.5a2.28,2.28,0,0,1-2.46-.042,2.513,2.513,0,0,1-1.169-2.344c.012-4.9.005-9.8.005-14.7v-.741A68.213,68.213,0,0,1,69.9,32.128C58.766,28.392,51.713,20.768,48.84,9.363a48.429,48.429,0,0,1-.8-6.18A2.731,2.731,0,0,1,49.928,0h2.755c.85.12,1.706.21,2.551.363,10.858,1.961,18.675,7.943,23.5,17.868.1.207.207.412.366.728.168-.34.283-.57.4-.8A30.82,30.82,0,0,1,100.285.941C102,.494,103.774.307,105.521,0Zm-3.161,5A26.322,26.322,0,0,0,81.666,28.512,26.083,26.083,0,0,0,105.116,5m-28.578,23.5a25.892,25.892,0,0,0-7.619-15.984A25.734,25.734,0,0,0,53.082,5.007a26.085,26.085,0,0,0,23.456,23.5" transform="translate(-37.61)" fill="#6ba0cc"/>
    <path id="Path_62" data-name="Path 62" d="M0,122.374a2.9,2.9,0,0,1,3.227-1.823,12.862,12.862,0,0,1,12.012,12.243c.076,3.109.022,6.22.027,9.331,0,.287,0,.573,0,.92a20.758,20.758,0,0,1,2.16-1.237,7.465,7.465,0,0,1,8.566,1.393c3.226,3.034,6.334,6.2,9.4,9.4a11.978,11.978,0,0,1,3.32,8.4c.049,4.652,0,9.3.022,13.956a2.844,2.844,0,0,1-1.776,2.635H17.5a2.819,2.819,0,0,1-1.9-3.112c.05-.889-.023-1.784.02-2.673a1.808,1.808,0,0,0-.6-1.488q-6.856-6.822-13.666-13.691A16.991,16.991,0,0,1,0,154.853V122.374M33.862,172.68c0-3.72-.025-7.344.009-10.967a8.633,8.633,0,0,0-2.713-6.533c-2.663-2.611-5.277-5.274-7.913-7.914-.172-.172-.339-.351-.525-.507a3.085,3.085,0,0,0-5.127,1.988,3.08,3.08,0,0,0,1,2.626q3.161,3.147,6.3,6.314a2.4,2.4,0,0,1,.615,2.682,2.268,2.268,0,0,1-2.093,1.54,2.649,2.649,0,0,1-2.143-.946c-3.219-3.242-6.435-6.486-9.688-9.693a3.743,3.743,0,0,1-1.2-2.878c.033-4.924.007-9.849.018-14.773a8.4,8.4,0,0,0-1.317-4.611A7.408,7.408,0,0,0,4.9,125.825c-.014.256-.034.439-.034.623q0,13.109.02,26.219a1.749,1.749,0,0,0,.5,1.1q6.991,7.058,14.03,14.067a3.228,3.228,0,0,1,1.074,2.594c-.04.747-.008,1.5-.008,2.256Z" transform="translate(0 -94.442)" fill="#6ba0cc"/>
    <path id="Path_63" data-name="Path 63" d="M206.092,177.639a3.168,3.168,0,0,1-1.794-3.286c.066-4.247.033-8.5.02-12.744a13.035,13.035,0,0,1,4-9.683c2.689-2.663,5.413-5.294,8.007-8.048A8.066,8.066,0,0,1,227.5,143a1.167,1.167,0,0,0,.241.093c.015-.279.041-.529.041-.779,0-2.868,0-5.736,0-8.6a12.8,12.8,0,0,1,11.026-12.991,10.588,10.588,0,0,1,1.695-.11,2.4,2.4,0,0,1,2.539,2.544c.014,3.03,0,6.061,0,9.091,0,7.17-.014,14.341.015,21.511a3.579,3.579,0,0,1-1.141,2.731c-4.658,4.631-9.284,9.295-13.937,13.931a1.648,1.648,0,0,0-.561,1.345c.04.918-.03,1.842.02,2.759a2.827,2.827,0,0,1-1.9,3.12Zm16.478-4.9c0-.689.047-1.285-.01-1.872a3.782,3.782,0,0,1,1.312-3.229c4.616-4.557,9.176-9.172,13.772-13.75a1.715,1.715,0,0,0,.55-1.344q-.025-13.328-.011-26.66a7.8,7.8,0,0,0-5.534,7.649q-.032,7.549,0,15.1a3.346,3.346,0,0,1-1.041,2.534c-3.3,3.275-6.575,6.575-9.86,9.864a4.65,4.65,0,0,1-.479.436,2.43,2.43,0,0,1-2.806.12,2.294,2.294,0,0,1-1.006-2.608,3.723,3.723,0,0,1,.886-1.41c2-2.052,4.031-4.073,6.063-6.092a3.142,3.142,0,0,0,1.05-2.613,3.088,3.088,0,0,0-5.324-1.867q-4.305,4.3-8.592,8.609a8.006,8.006,0,0,0-2.358,5.856q0,5.316,0,10.633c0,.207.033.414.053.645Z" transform="translate(-160.061 -94.492)" fill="#6ba0cc"/>
  </g>
</svg>
