<?xml version="1.0" encoding="UTF-8"?>
<svg id="Layer_1" data-name="Layer 1" xmlns="http://www.w3.org/2000/svg" viewBox="0 0 81 67.37">
  <defs>
    <style>
      .cls-1 {
        fill: #fff;
        stroke-width: 0px;
      }
    </style>
  </defs>
  <path class="cls-1" d="M17.39,27.05c-.87.05-1.76.13-2.65.24-.65.08-1.11.67-1.03,1.32.08.6.59,1.04,1.18,1.04.05,0,.1,0,.15,0,.83-.1,1.67-.18,2.49-.23.65-.04,1.15-.6,1.12-1.25-.04-.65-.6-1.15-1.25-1.12Z"/>
  <path class="cls-1" d="M14.26,20.04c.36.32.83.47,1.31.42,1.35-.15,2.69-.23,3.98-.23,8.19,0,13.42,2.63,15.3,3.76.27.16.57.24.87.24.28,0,.57-.07.82-.22.53-.3.85-.86.85-1.46v-4.67c0-.57-.28-1.09-.76-1.4-2.05-1.34-7.81-4.45-17.08-4.45-1.42,0-2.89.09-4.36.25-.85.1-1.49.81-1.49,1.67v4.84c0,.48.2.93.56,1.25ZM16.08,14.58c1.18-.11,2.34-.17,3.48-.17,8.19,0,13.36,2.56,15.47,3.87v3.09c-2.86-1.52-8.03-3.51-15.47-3.51-1.14,0-2.3.05-3.48.16v-3.44Z"/>
  <path class="cls-1" d="M42.49,47.22c2.43,2.63,5.75,3.96,9.08,3.96,3.01,0,6.02-1.09,8.4-3.29,5-4.63,5.3-12.48.67-17.48-2.25-2.42-5.3-3.83-8.6-3.95-3.3-.13-6.45,1.04-8.88,3.29-2.42,2.25-3.83,5.3-3.95,8.6-.13,3.3,1.04,6.45,3.29,8.88ZM41.57,38.43c.1-2.67,1.24-5.14,3.19-6.95,1.86-1.73,4.26-2.66,6.78-2.66.13,0,.26,0,.39,0,2.67.1,5.14,1.24,6.95,3.2,3.75,4.04,3.5,10.38-.54,14.13-4.04,3.75-10.38,3.5-14.13-.54-1.81-1.96-2.76-4.51-2.66-7.17Z"/>
  <path class="cls-1" d="M79.08,13.57h-2.45v-4.33c0-1.29-1.05-2.33-2.33-2.33h-2.7v-3.9c0-1.07-.76-2-1.82-2.2-9.91-1.9-17.53-.08-22.18,1.78-3.55,1.42-5.94,3.06-7.1,3.96-1.16-.9-3.55-2.54-7.1-3.96C28.76.72,21.13-1.1,11.23.81c-1.05.2-1.82,1.13-1.82,2.2v3.9h-3.16c-1.03,0-1.87.84-1.87,1.87v4.8H1.92c-1.06,0-1.92.86-1.92,1.92v46.06c0,1.06.86,1.93,1.92,1.93h31.56c.21,0,.41.1.53.27.57.77,1.48,1.22,2.43,1.22h8.1c.95,0,1.86-.46,2.43-1.22.12-.17.32-.27.53-.27h21.74l2.94,3.17c.45.48,1.05.72,1.66.72.55,0,1.1-.2,1.54-.6l2.23-2.07c.36-.33.59-.76.68-1.22h.78c1.06,0,1.92-.86,1.92-1.93V15.49c0-1.06-.86-1.92-1.92-1.92ZM70.79,52.66c.51-.43.81-1.05.81-1.72V9.28h2.66v47.69h-.71l-3.59-3.88c.3-.08.59-.23.83-.44ZM41.69,8.64c1.98-1.6,11.68-8.53,27.53-5.52v47.66c-1.87-.34-3.73-.55-5.56-.65h-.01c2.72-2.92,4.29-6.66,4.45-10.68.14-3.56-.85-6.98-2.81-9.88.23.02.46.05.68.08.65.08,1.24-.38,1.32-1.03s-.38-1.24-1.03-1.32c-1.04-.13-2.07-.22-3.1-.27-2.94-2.9-6.81-4.58-10.97-4.74-.94-.04-1.87,0-2.78.13,2.72-1.08,6.77-2.17,12.04-2.17,1.3,0,2.64.08,3.98.23.47.05.95-.1,1.31-.42.35-.32.56-.77.56-1.25v-4.84c0-.85-.64-1.57-1.49-1.67-1.47-.17-2.94-.25-4.36-.25-3.27,0-6.42.39-9.36,1.17-.63.17-1.01.82-.85,1.45.17.63.82,1.01,1.45.85,2.74-.72,5.69-1.09,8.76-1.09,1.13,0,2.3.06,3.48.17v3.44c-1.17-.11-2.34-.16-3.48-.16-7.44,0-12.6,1.98-15.47,3.51v-3.09c.51-.31,1.06-.62,1.66-.92.59-.29.83-1,.54-1.59-.29-.59-1-.83-1.59-.54-.81.4-1.55.82-2.22,1.26-.48.31-.76.84-.76,1.41v4.67c0,.55.27,1.06.71,1.37-.92.45-1.8.99-2.63,1.61V8.64h0ZM63.34,56.97h-19.14c1.04-.63,2.36-1.32,3.95-1.98,1.12.23,2.27.35,3.41.35,3.27,0,6.55-.96,9.37-2.9.55,0,1.09,0,1.65.01l1.48,1.6-.25.23c-.76.7-.93,1.81-.48,2.69ZM41.69,55.77v-3.68c.99.74,2.04,1.35,3.14,1.83-1.28.66-2.33,1.3-3.14,1.85ZM41.38,28.96s.07-.07.1-.1c.15-.15.3-.3.45-.44,2.64-2.45,6.04-3.77,9.62-3.77.18,0,.37,0,.55.01,3.78.14,7.28,1.75,9.85,4.53s3.91,6.39,3.76,10.17c-.14,3.78-1.75,7.28-4.53,9.85h0s0,0,0,0c-.15.13-.29.27-.44.39-.04.03-.08.07-.12.1-.15.12-.3.24-.45.36-.04.03-.08.06-.11.08-2.52,1.89-5.51,2.83-8.49,2.83-3.81,0-7.6-1.52-10.39-4.53h0s0,0,0,0c-5.13-5.54-4.98-14.12.21-19.48ZM11.78,3.12c9.23-1.75,16.31-.08,20.63,1.63,3.67,1.46,6.03,3.19,6.9,3.89v19.06c-1.06,1.16-1.92,2.44-2.59,3.8-1.76-1.17-6.33-3.7-13.64-4.36-.65-.06-1.23.42-1.29,1.08s.42,1.23,1.08,1.29c6.97.63,11.18,3.04,12.67,4.06.09.06.19.11.29.14-.31.97-.54,1.96-.67,2.96-2.83-1.53-8.04-3.58-15.62-3.58-1.57,0-3.19.1-4.81.31-.65.08-1.11.67-1.03,1.32s.68,1.11,1.32,1.03c1.53-.19,3.05-.29,4.52-.29,8.26,0,13.5,2.65,15.48,3.88.04,1.44.28,2.88.69,4.27-2.68-1.55-8.07-3.9-16.18-3.9-1.57,0-3.19.1-4.81.31-.65.08-1.11.68-1.03,1.33s.67,1.11,1.32,1.03c1.53-.19,3.05-.29,4.52-.29,9.1,0,14.54,3.22,15.99,4.2.2.14.44.21.67.21.21,0,.43-.06.61-.17.65,1.28,1.49,2.5,2.5,3.62v5.83c-3.89-2.64-13.37-7.53-27.53-4.99V3.12ZM6.75,9.28h2.66v41.66c0,.67.29,1.29.81,1.72.51.43,1.18.6,1.83.48,9.15-1.68,16.16,0,20.44,1.71,1.75.7,3.2,1.45,4.32,2.13H6.75V9.28ZM47.51,61.11c-.95,0-1.86.46-2.43,1.22-.12.17-.32.27-.53.27h-8.1c-.21,0-.41-.1-.53-.27-.57-.77-1.48-1.22-2.43-1.22H2.37V15.94h2.01v41.54c0,1.03.84,1.87,1.87,1.87h59.17l1.63,1.76h-19.54ZM73.85,64.96l-8.35-9.01,2.07-1.92,8.35,9.01-2.07,1.92ZM78.63,61.11h-1.25l-1.92-2.08c.7-.4,1.17-1.16,1.17-2.02V15.94h2.01v45.17Z"/>
</svg>