<svg xmlns="http://www.w3.org/2000/svg" xmlns:xlink="http://www.w3.org/1999/xlink" width="44.846" height="36.835" viewBox="0 0 44.846 36.835">
  <defs>
    <clipPath id="clip-path">
      <rect id="Rectangle_889" data-name="Rectangle 889" width="44.846" height="36.835" fill="#fff"/>
    </clipPath>
  </defs>
  <g id="Group_1106" data-name="Group 1106" clip-path="url(#clip-path)">
    <path id="Path_206" data-name="Path 206" d="M105.622,22.272c-.212.236-.414.483-.639.707Q98.345,29.625,91.7,36.266c-.755.755-1.077.758-1.817.017L69.355,15.752c-.725-.725-.723-1.054.008-1.785L82.8.527c.705-.705,1.045-.7,1.755.006q3.7,3.7,7.4,7.4a3.069,3.069,0,0,1,.353.387A.848.848,0,0,1,92.2,9.439a.887.887,0,0,1-1.124.081,3.563,3.563,0,0,1-.384-.357q-2.756-2.755-5.511-5.512c-.111-.111-.227-.217-.4-.381-.013.2-.03.34-.03.476,0,4.876.026,9.752-.017,14.627a2.444,2.444,0,0,0,2.537,2.537c4.86-.046,9.721-.018,14.582-.018h.546c-.174-.183-.275-.294-.381-.4L96.23,14.7a3.187,3.187,0,0,1-.326-.353.854.854,0,0,1,.1-1.151.892.892,0,0,1,1.126-.061,2.734,2.734,0,0,1,.289.267q3.871,3.87,7.741,7.742c.162.162.306.342.459.514Zm-22.66-6.483H72.115L89.86,33.534V22.681H87.214a4.161,4.161,0,0,1-2.473-.734,4.1,4.1,0,0,1-1.778-3.52c-.005-.872,0-1.744,0-2.638m-.032-1.844V3.055l-10.9,10.89Zm19.743,8.768H91.714V33.673l10.96-10.961" transform="translate(-60.776 0)" fill="#fff"/>
    <path id="Path_207" data-name="Path 207" d="M0,156.762a1.1,1.1,0,0,1,1.141-.62c1.573.025,3.148.008,4.721.01.621,0,1.037.355,1.037.873s-.415.873-1.036.874c-1.574,0-3.148-.015-4.721.01A1.1,1.1,0,0,1,0,157.288Z" transform="translate(0 -137.906)" fill="#fff"/>
    <path id="Path_208" data-name="Path 208" d="M0,78a1.09,1.09,0,0,1,1.143-.62c.816.032,1.634,0,2.451.01a.877.877,0,1,1,0,1.746c-.817,0-1.635-.022-2.451.01A1.09,1.09,0,0,1,0,78.525Z" transform="translate(0 -68.341)" fill="#fff"/>
    <path id="Path_209" data-name="Path 209" d="M27.346,245.476q3,0,5.993,0c.65,0,1.027.319,1.032.864s-.374.884-1.013.884q-6.037,0-12.073,0c-.638,0-1.017-.337-1.011-.887s.384-.86,1.035-.861q3.018,0,6.036,0" transform="translate(-17.907 -216.807)" fill="#fff"/>
    <path id="Path_210" data-name="Path 210" d="M54.476,199.208c-.8,0-1.6,0-2.4,0a.875.875,0,1,1-.02-1.745q2.4-.008,4.806,0a.874.874,0,1,1-.023,1.745c-.786.006-1.573,0-2.359,0" transform="translate(-45.147 -174.397)" fill="#fff"/>
    <path id="Path_211" data-name="Path 211" d="M51.075,77.45c.539,0,1.078-.006,1.617,0a.874.874,0,1,1,.02,1.744q-1.617.012-3.234,0a.875.875,0,1,1,.024-1.745c.524-.005,1.049,0,1.573,0" transform="translate(-42.886 -68.403)" fill="#fff"/>
    <path id="Path_212" data-name="Path 212" d="M279.718,90.321a.918.918,0,0,1,.872.912.886.886,0,0,1-.92.85.864.864,0,0,1-.838-.88.884.884,0,0,1,.886-.883" transform="translate(-246.268 -79.772)" fill="#fff"/>
    <path id="Path_213" data-name="Path 213" d="M67.014,157.974a.874.874,0,1,1,.028-1.747.874.874,0,1,1-.028,1.747" transform="translate(-58.401 -137.982)" fill="#fff"/>
  </g>
</svg>
