<svg xmlns="http://www.w3.org/2000/svg" xmlns:xlink="http://www.w3.org/1999/xlink" width="62.376" height="64.376" viewBox="0 0 62.376 64.376">
  <defs>
    <linearGradient id="linear-gradient" x1="0.673" y1="0.334" x2="0.258" y2="0.881" gradientUnits="objectBoundingBox">
      <stop offset="0" stop-color="#c000ff"/>
      <stop offset="1" stop-color="#0400fe"/>
    </linearGradient>
  </defs>
  <g id="Group_2561" data-name="Group 2561" transform="translate(20523 3540)">
    <circle id="Ellipse_7" data-name="Ellipse 7" cx="22.188" cy="22.188" r="22.188" transform="translate(-20514 -3530)" fill="url(#linear-gradient)"/>
    <path id="Subtract" d="M31.189,64.376A30.505,30.505,0,0,1,9.135,54.948,32.5,32.5,0,0,1,0,32.187,32.5,32.5,0,0,1,9.135,9.427a30.509,30.509,0,0,1,44.107,0,32.5,32.5,0,0,1,9.134,22.76,32.506,32.506,0,0,1-9.134,22.761A30.5,30.5,0,0,1,31.189,64.376ZM24.1,19.02V45.356L45.269,32.187Z" transform="translate(-20523 -3540)" fill="#fff"/>
  </g>
</svg>
