<svg id="Layer_1" viewBox="0 0 512 512" xmlns="http://www.w3.org/2000/svg" data-name="Layer 1"><path d="m353.487 237.594c32.375 0 58.714-26.339 58.714-58.713s-26.339-58.713-58.714-58.713-58.713 26.339-58.713 58.713 26.339 58.713 58.713 58.713zm0-101.427c23.553 0 42.714 19.161 42.714 42.713s-19.161 42.713-42.714 42.713-42.713-19.161-42.713-42.713 19.161-42.713 42.713-42.713zm141.888 104.502c-2.262-1.477-5.119-1.712-7.591-.626l-29.992 13.175c-.005-.995-.176-1.997-.563-2.954l-8.75-21.626 7.357-17.759 21.476-9.097c2.958-1.253 4.879-4.154 4.879-7.366v-31.041c0-3.212-1.921-6.113-4.879-7.366l-21.474-9.097-7.36-17.787 8.75-21.627c1.205-2.978.512-6.386-1.759-8.657l-21.941-21.941c-2.271-2.271-5.679-2.964-8.657-1.759l-21.626 8.75-17.759-7.357-9.097-21.476c-1.253-2.958-4.154-4.879-7.366-4.879h-31.041c-3.212 0-6.113 1.921-7.366 4.879l-9.097 21.474-17.785 7.358-21.598-8.749c-2.977-1.205-6.386-.515-8.657 1.754l-21.969 21.941c-2.274 2.271-2.968 5.682-1.763 8.661l8.75 21.627-7.36 17.787-21.474 9.097c-2.958 1.253-4.879 4.154-4.879 7.366v8.248l-36.385 4.882c6.534-8.3 10.516-19.238 10.516-31.215 0-25.872-18.556-46.921-41.365-46.921s-41.365 21.049-41.365 46.921c0 15.936 7.046 30.033 17.784 38.518l-3.285.441c-11.314 1.527-20.17 8.932-23.696 19.822l-26.221 81.499s-49.953 155.206-49.953 155.206l-13.031 5.724c-3.465 1.522-5.39 5.265-4.612 8.968.777 3.704 4.044 6.356 7.829 6.356h470c4.418 0 8-3.582 8-8v-206.454c0-2.702-1.364-5.221-3.626-6.699zm-337.825-126.301c13.986 0 25.365 13.871 25.365 30.921s-11.378 30.921-25.365 30.921-25.365-13.871-25.365-30.921 11.378-30.921 25.365-30.921zm-38.122 221.554 23.987 7.636-17.699 55.528-35.373 15.538zm41.147-1.232c-.975-1.886-2.658-3.307-4.68-3.95l-42.826-13.633c-10.667-3.407-17.366-13.525-16.915-24.223l73.146 23.272c4.564 1.469 7.806 4.248 9.917 8.508 2.049 4.118 2.28 8.325.725 13.241l-13.729 43.392-20.971 9.212 15.847-49.716c.645-2.022.459-4.217-.515-6.103zm32.973-17.143c-4.009-8.091-10.698-13.838-19.37-16.63l-25.259-8.036 20.426-63.45 71.146-18.428c1.985-.515 3.797-1.319 5.423-2.35l5.223 2.22 7.359 17.765-8.75 21.626c-1.205 2.979-.511 6.39 1.763 8.661l21.969 21.941c2.272 2.268 5.679 2.959 8.657 1.754l21.598-8.749 17.785 7.359 9.097 21.474c.875 2.066 2.562 3.608 4.59 4.361l-149.501 65.67 9.493-30.005c2.807-8.873 2.249-17.351-1.65-25.183zm66.849-157.182c1.934-.819 3.468-2.367 4.271-4.308l9.865-23.84c.802-1.938.811-4.114.024-6.059l-7.99-19.748 14.471-14.452 19.725 7.99c1.946.788 4.124.78 6.062-.023l23.84-9.864c1.941-.803 3.488-2.337 4.308-4.271l8.308-19.613h20.442l8.308 19.613c.819 1.933 2.365 3.467 4.305 4.271l23.812 9.864c1.939.803 4.117.812 6.062.025l19.751-7.991 14.449 14.449-7.991 19.751c-.787 1.945-.778 4.121.024 6.059l9.865 23.84c.803 1.941 2.337 3.488 4.271 4.308l19.613 8.308v20.442l-19.613 8.308c-1.933.819-3.467 2.365-4.271 4.304l-9.865 23.812c-.803 1.939-.812 4.117-.025 6.062l7.991 19.751-14.449 14.449-19.751-7.991c-1.945-.787-4.123-.777-6.062.025l-23.812 9.865c-1.939.804-3.485 2.337-4.304 4.271l-8.308 19.613h-20.442l-8.308-19.613c-.819-1.934-2.367-3.468-4.308-4.271l-23.84-9.865c-1.939-.803-4.116-.811-6.062-.023l-19.725 7.99-14.471-14.452 7.99-19.748c.787-1.946.778-4.123-.025-6.062l-9.865-23.812c-.802-1.936-2.333-3.48-4.261-4.3l-5.889-2.503c.353-2.49.298-5.132-.235-7.845-1.565-7.975-6.794-13.806-13.499-15.869v-2.536l19.613-8.308zm146.766 115.091-23.63 10.38 1.952-4.608 17.759-7.357zm-284.949-66.473c1.603-4.949 5.47-8.186 10.604-8.879l102.053-13.692c2.612-.359 3.466 2.503 3.71 3.748.037.187.864 4.583-2.106 5.354l-79.665 20.635-23.139 71.881-33.464-10.647 22.006-68.4zm-34.769 108.058c4.128 5.91 9.853 10.762 16.799 13.81l-34.265 92.718-19.59 8.605 37.055-115.133zm395.555 128.781h-423.896l423.896-186.202z"/></svg>