<svg id="Group_1105" data-name="Group 1105" xmlns="http://www.w3.org/2000/svg" xmlns:xlink="http://www.w3.org/1999/xlink" width="35.96" height="35.985" viewBox="0 0 35.96 35.985">
  <defs>
    <clipPath id="clip-path">
      <rect id="Rectangle_888" data-name="Rectangle 888" width="35.96" height="35.985" fill="#fff"/>
    </clipPath>
  </defs>
  <g id="Group_1104" data-name="Group 1104" clip-path="url(#clip-path)">
    <path id="Path_201" data-name="Path 201" d="M25.138,55.706c-.619-.109-1.243-.194-1.857-.33a23.911,23.911,0,0,1-6.4-2.618,34.866,34.866,0,0,1-8.72-6.844,33.928,33.928,0,0,1-7.1-11.064A15.017,15.017,0,0,1,.009,30.222,5.849,5.849,0,0,1,1.63,25.6c1-1,1.975-2.035,3.033-2.974a3.287,3.287,0,0,1,4.372-.01c.694.591,1.334,1.247,1.977,1.895,1.014,1.022,2.048,2.028,3,3.1a3.242,3.242,0,0,1-.034,4.334c-.811.906-1.69,1.752-2.551,2.612a.337.337,0,0,0-.078.471,19.642,19.642,0,0,0,3.406,4.659A23.9,23.9,0,0,0,19.3,43.537a14.451,14.451,0,0,0,1.382.758.39.39,0,0,0,.341-.09c.706-.684,1.4-1.384,2.1-2.076a3.957,3.957,0,0,1,2.324-1.267,3.067,3.067,0,0,1,2.48.732c.747.655,1.442,1.371,2.143,2.077.957.963,1.93,1.913,2.84,2.92A3.338,3.338,0,0,1,32.961,51c-.351.422-.741.813-1.126,1.2-.739.751-1.459,1.523-2.239,2.228a5.008,5.008,0,0,1-2.788,1.211.992.992,0,0,0-.194.067ZM2.077,29.73a12.155,12.155,0,0,0,.938,4.434,30.69,30.69,0,0,0,5.426,8.957,33.533,33.533,0,0,0,10.914,8.614,16.684,16.684,0,0,0,6.115,1.908,3.616,3.616,0,0,0,2.9-.866c.992-.942,1.944-1.929,2.875-2.933a1.379,1.379,0,0,0-.035-2.093c-.51-.548-1.05-1.069-1.579-1.6-.935-.936-1.864-1.878-2.811-2.8a1.325,1.325,0,0,0-1.947-.062c-.117.1-.224.206-.331.314-.812.81-1.62,1.625-2.437,2.432a1.562,1.562,0,0,1-1.954.331c-.479-.243-.96-.486-1.422-.76a25.189,25.189,0,0,1-5.679-4.715A20.017,20.017,0,0,1,9.3,35.5a1.664,1.664,0,0,1,.427-2.178c.8-.773,1.6-1.55,2.379-2.34.89-.9.88-1.56-.009-2.47l-.05-.05Q10.078,26.486,8.1,24.51a1.515,1.515,0,0,0-2.485,0c-.748.742-1.475,1.506-2.24,2.231a3.779,3.779,0,0,0-1.3,2.987" transform="translate(0 -19.721)" fill="#fff"/>
    <path id="Path_202" data-name="Path 202" d="M216.041,16.235c-.016.016-.04.029-.048.048a1.055,1.055,0,0,1-1.038.78,1.08,1.08,0,0,1-1.012-1,17.15,17.15,0,0,0-2.175-5.808,17.4,17.4,0,0,0-5.994-6A16.7,16.7,0,0,0,200.039,2.1a1.143,1.143,0,0,1-1.058-.834A1.025,1.025,0,0,1,200.2.018a19.53,19.53,0,0,1,15.038,12.864c.312.914.492,1.872.734,2.81a1.8,1.8,0,0,0,.073.192Z" transform="translate(-180.081 0.001)" fill="#fff"/>
    <path id="Path_203" data-name="Path 203" d="M197.07,67.914a26.587,26.587,0,0,1,2.718.881,11.641,11.641,0,0,1,6.832,7.991c.07.259.127.522.176.785a1.033,1.033,0,0,1-2.008.49,19.555,19.555,0,0,0-.862-2.616,9.473,9.473,0,0,0-6.8-5.337c-.125-.027-.252-.05-.376-.084a1.024,1.024,0,0,1,.293-2.016l.03-.095" transform="translate(-177.39 -61.473)" fill="#fff"/>
  </g>
</svg>
