<?xml version="1.0" encoding="UTF-8"?>
<svg xmlns="http://www.w3.org/2000/svg" id="Layer_1" data-name="Layer 1" viewBox="0 0 64 64" width="512" height="512"><path d="M19.908,30a1,1,0,0,1-.463-.114L15,27.565l-4.445,2.321A1,1,0,0,1,9.107,28.83l.847-4.906L6.363,20.448a1,1,0,0,1,.553-1.708l4.968-.718,2.22-4.467a1.042,1.042,0,0,1,1.792,0l2.22,4.467,4.968.718a1,1,0,0,1,.553,1.708l-3.591,3.476.847,4.906A1,1,0,0,1,19.908,30ZM15,25.438a1.008,1.008,0,0,1,.463.113l3.115,1.627-.593-3.435a1,1,0,0,1,.29-.889l2.507-2.426-3.471-.5a1,1,0,0,1-.752-.544L15,16.247l-1.559,3.136a1,1,0,0,1-.752.544l-3.471.5,2.507,2.426a1,1,0,0,1,.29.889l-.593,3.435,3.115-1.627A1.008,1.008,0,0,1,15,25.438Z"/><path d="M53.908,30a1,1,0,0,1-.463-.114L49,27.565l-4.445,2.321a1,1,0,0,1-1.448-1.056l.847-4.906-3.591-3.476a1,1,0,0,1,.553-1.708l4.968-.718,2.22-4.467a1.042,1.042,0,0,1,1.792,0l2.22,4.467,4.968.718a1,1,0,0,1,.553,1.708l-3.591,3.476.847,4.906A1,1,0,0,1,53.908,30ZM49,25.438a1.008,1.008,0,0,1,.463.113l3.115,1.627-.593-3.435a1,1,0,0,1,.29-.889l2.507-2.426-3.471-.5a1,1,0,0,1-.752-.544L49,16.247l-1.559,3.136a1,1,0,0,1-.752.544l-3.471.5,2.507,2.426a1,1,0,0,1,.29.889l-.593,3.435,3.115-1.627A1.008,1.008,0,0,1,49,25.438Z"/><path d="M36.908,25a1,1,0,0,1-.463-.114L32,22.565l-4.445,2.321a1,1,0,0,1-1.448-1.056l.847-4.906-3.591-3.476a1,1,0,0,1,.553-1.708l4.968-.718L31.1,8.555a1.042,1.042,0,0,1,1.792,0l2.22,4.467,4.968.718a1,1,0,0,1,.553,1.708l-3.591,3.476.847,4.906A1,1,0,0,1,36.908,25ZM32,20.438a1.008,1.008,0,0,1,.463.113l3.115,1.627-.593-3.435a1,1,0,0,1,.29-.889l2.507-2.426-3.471-.5a1,1,0,0,1-.752-.544L32,11.247l-1.559,3.136a1,1,0,0,1-.752.544l-3.471.5,2.507,2.426a1,1,0,0,1,.29.889l-.593,3.435,3.115-1.627A1.008,1.008,0,0,1,32,20.438Z"/><path d="M32,42a7.008,7.008,0,0,1-7-7V33a7,7,0,0,1,14,0v2A7.008,7.008,0,0,1,32,42Zm0-14a5.006,5.006,0,0,0-5,5v2a5,5,0,0,0,10,0V33A5.006,5.006,0,0,0,32,28Z"/><path d="M43,56a1,1,0,0,1-1-1V48a3,3,0,0,0-3-3H25a3,3,0,0,0-3,3v7a1,1,0,0,1-2,0V48a5.006,5.006,0,0,1,5-5H39a5.006,5.006,0,0,1,5,5v7A1,1,0,0,1,43,56Z"/><path d="M12,47a7.008,7.008,0,0,1-7-7V38a7,7,0,0,1,14,0v2A7.008,7.008,0,0,1,12,47Zm0-14a5.006,5.006,0,0,0-5,5v2a5,5,0,0,0,10,0V38A5.006,5.006,0,0,0,12,33Z"/><path d="M1,56a1,1,0,0,1-1-1V53a5.006,5.006,0,0,1,5-5H18a1,1,0,0,1,0,2H5a3,3,0,0,0-3,3v2A1,1,0,0,1,1,56Z"/><path d="M52,47a7.008,7.008,0,0,1-7-7V38a7,7,0,0,1,14,0v2A7.008,7.008,0,0,1,52,47Zm0-14a5.006,5.006,0,0,0-5,5v2a5,5,0,0,0,10,0V38A5.006,5.006,0,0,0,52,33Z"/><path d="M63,56a1,1,0,0,1-1-1V53a3,3,0,0,0-3-3H46a1,1,0,0,1,0-2H59a5.006,5.006,0,0,1,5,5v2A1,1,0,0,1,63,56Z"/></svg>
