<?xml version="1.0" encoding="UTF-8"?>
<svg id="Group_1304" data-name="Group 1304" xmlns="http://www.w3.org/2000/svg" viewBox="0 0 111.04 83.85">
  <defs>
    <style>
      .cls-1 {
        fill: #6ba0cc;
        stroke-width: 0px;
      }
    </style>
  </defs>
  <path class="cls-1" d="M98.62,61.03l-8.24-8.24c1.76-2.5,2.94-5.22,3.94-7.53.61-1.41,1.19-2.74,1.79-3.77l.45-.77.34.34c.24.24.55.36.86.36s.63-.12.86-.36c.48-.48.48-1.25,0-1.73l-.8-.8.51-.88c.8-1.39.71-2.53.49-3.24-.28-.92-.94-1.69-1.9-2.25-.65-.37-1.31-.58-1.96-.6.02-.46-.05-.85-.15-1.16-.28-.92-.94-1.69-1.9-2.25-.66-.38-1.32-.58-1.96-.61.02-.46-.06-.85-.15-1.15-.28-.92-.94-1.69-1.9-2.25-.66-.38-1.32-.58-1.96-.61.05-1.37-.66-2.6-2.05-3.4-.96-.55-1.96-.73-2.9-.52-.72.16-1.76.65-2.56,2.05-.01.02-.02.04-.04.07l-3.75-3.75c-.38-.96-1.84-4.28-4.7-7.14-3.08-3.08-7.03-4.79-10.21-6.17-1.41-.61-2.74-1.19-3.77-1.78l-.77-.44.33-.33c.48-.48.48-1.25,0-1.73-.48-.48-1.25-.48-1.73,0l-.8.8-.88-.51c-1.39-.8-2.53-.71-3.24-.49-.92.28-1.69.94-2.25,1.9-.38.66-.58,1.32-.61,1.96-.46-.02-.85.06-1.15.15-.92.28-1.69.94-2.25,1.9-.38.66-.58,1.32-.61,1.96-1.37-.05-2.6.66-3.4,2.05-.37.65-.58,1.31-.6,1.96-1.37-.05-2.6.65-3.41,2.05-.55.96-.73,1.96-.52,2.9.16.72.65,1.76,2.05,2.56.02.01.04.03.07.04l-3.75,3.75c-.96.38-4.28,1.84-7.14,4.7-.24.24-.47.49-.7.74l-8.03-8.03c-.48-.48-1.25-.48-1.73,0-.48.48-.48,1.25,0,1.73l8.23,8.23c-.77,1.1-1.5,2.34-2.21,3.76-.3.6-.06,1.34.55,1.64.18.09.36.13.55.13.45,0,.88-.25,1.09-.68,1.24-2.47,2.51-4.32,3.99-5.8,2.91-2.91,6.47-4.22,6.51-4.23.17-.06.32-.16.45-.29l4.3-4.3c1.24.82,3.15,2.1,6.1,4.09.95.64,1.82,1.39,2.58,2.22l-3.32,3.32c-.43.43-.48,1.11-.11,1.6,7.97,10.65,7.75,12.19,5.87,15.46l-1.75,3.03c-.52.37-1.06.77-1.62,1.19l-2.35-2.35c.87-.56,1.81-1.04,2.8-1.41.63-.24.95-.94.72-1.57s-.94-.95-1.57-.72c-3.34,1.25-6.15,3.47-8.14,6.42-3.35,4.97-5.23,7.8-5.59,8.41-.29.51-.62.8-.99.89-.41.09-.84-.09-1.13-.25-.29-.17-.66-.45-.79-.85-.11-.36-.02-.79.27-1.3l3.75-6.5c.34-.59.14-1.33-.45-1.67-.59-.34-1.33-.14-1.67.45l-3.02,5.23c-.55.96-1.21,1.15-2.11.63-.29-.17-.66-.45-.79-.85-.11-.36-.02-.79.27-1.3l3.96-6.86c.34-.59.14-1.33-.45-1.67-.59-.34-1.33-.14-1.67.45l-3.23,5.59c-.56.96-1.21,1.16-2.12.63-.91-.52-1.07-1.19-.51-2.15l4.03-6.97c.34-.59.14-1.33-.45-1.67-.59-.34-1.33-.14-1.67.45l-3.29,5.7c-.56.96-1.21,1.16-2.12.63-.91-.52-1.07-1.19-.51-2.15l2.22-3.84c.55-.95,1.06-2.08,1.53-3.15.27-.62-.01-1.34-.63-1.61-.62-.27-1.34.01-1.61.63-.44,1.01-.92,2.06-1.41,2.91l-.45.77-.34-.34c-.48-.48-1.25-.48-1.73,0-.48.48-.48,1.25,0,1.73l.8.8-.51.88c-1.23,2.13-.68,4.29,1.41,5.49.66.38,1.32.58,1.96.61-.05,1.37.66,2.6,2.05,3.4.66.38,1.32.58,1.96.61-.02.46.06.85.15,1.15.28.92.94,1.69,1.9,2.25.66.38,1.32.58,1.96.61-.02.46.06.85.15,1.15.28.92.94,1.69,1.9,2.25.7.4,1.42.61,2.12.61.26,0,.52-.03.78-.09.72-.16,1.76-.65,2.56-2.05.01-.02.02-.04.04-.07l3.75,3.75c.38.96,1.84,4.28,4.7,7.14.24.24.49.47.74.7l-8.03,8.03c-.48.48-.48,1.25,0,1.73.24.24.55.36.86.36s.63-.12.86-.36l8.23-8.23c2.5,1.76,5.22,2.94,7.54,3.94,1.41.61,2.74,1.19,3.77,1.78l.77.44-.33.33c-.48.48-.48,1.25,0,1.73.24.24.55.36.86.36s.63-.12.86-.36l.8-.8.88.51c.85.49,1.6.65,2.21.65.4,0,.75-.07,1.03-.15.92-.28,1.69-.94,2.25-1.9.37-.65.58-1.31.6-1.96.46.02.85-.05,1.16-.15.92-.28,1.69-.94,2.25-1.9.38-.66.58-1.32.61-1.96.46.01.85-.06,1.15-.15.92-.28,1.69-.94,2.25-1.9.38-.66.58-1.32.61-1.96,1.37.05,2.6-.66,3.4-2.05.55-.96.73-1.96.52-2.9-.16-.72-.65-1.76-2.05-2.56-.32-.18-1.81-1.14-8.27-5.5-.95-.64-1.82-1.39-2.58-2.22l3.32-3.32c.43-.43.48-1.11.11-1.6-3.47-4.63-5.26-7.36-6.19-9.41-.28-.62-1-.89-1.62-.61s-.89,1-.61,1.62c.38.84.89,1.77,1.56,2.87-2.89-1.32-5.36-.99-9.88,1.79,1.32-2.9,1-5.36-1.79-9.89,1.06.48,2.07.75,3.14.75,1.84,0,3.88-.78,6.74-2.54-.25.54-.43,1.04-.55,1.53-.16.66.24,1.32.9,1.48.1.02.2.04.29.04.55,0,1.05-.37,1.19-.93.15-.62.45-1.28.95-2.16l1.75-3.03c.52-.37,1.05-.77,1.62-1.18l2.35,2.35c-.87.56-1.81,1.04-2.8,1.41-.63.24-.95.94-.72,1.57s.94.95,1.57.72c3.34-1.25,6.15-3.47,8.14-6.42,3.35-4.97,5.23-7.8,5.59-8.41.29-.51.62-.8.99-.89.41-.09.84.09,1.13.25.91.52,1.07,1.19.51,2.15l-.72,1.25s-3.03,5.25-3.03,5.25c-.34.59-.14,1.33.45,1.67.58.34,1.33.14,1.67-.45l3.03-5.25c.55-.95,1.2-1.13,2.11-.61.29.17.66.45.79.85.11.36.02.79-.27,1.3l-3.96,6.86c-.34.59-.14,1.33.45,1.67.58.34,1.33.14,1.67-.45l3.23-5.59c.56-.96,1.21-1.16,2.12-.63.29.17.66.45.79.85.11.36.02.79-.27,1.3l-4.03,6.97c-.34.59-.14,1.33.45,1.67.58.34,1.33.14,1.67-.45l3.29-5.7c.29-.51.62-.8.99-.89.41-.09.84.09,1.13.25.29.17.66.45.79.85.11.36.02.79-.27,1.3l-2.22,3.84c-.67,1.16-1.27,2.55-1.91,4.02-1.36,3.14-2.91,6.7-5.66,9.45-2.91,2.91-6.47,4.22-6.51,4.23-.17.06-.32.16-.45.29l-1.33,1.33c-.48.48-.48,1.25,0,1.73.24.24.55.36.86.36s.63-.12.86-.36l1.14-1.14c.96-.38,4.28-1.84,7.14-4.7.24-.24.47-.49.7-.75l8.04,8.04c.24.24.55.36.86.36s.63-.12.86-.36c.48-.48.48-1.25,0-1.73h0ZM63.1,48.58l3.03,1.75c.37.51.76,1.05,1.18,1.62l-2.34,2.34c-.56-.87-1.03-1.81-1.4-2.8-.24-.63-.94-.95-1.57-.72-.63.24-.95.94-.72,1.57,1.25,3.34,3.47,6.15,6.42,8.14,4.97,3.35,7.8,5.23,8.41,5.59.51.29.8.62.89.99.09.41-.09.84-.25,1.13-.52.91-1.19,1.07-2.15.51l-6.5-3.75c-.59-.34-1.33-.14-1.67.45s-.14,1.33.45,1.67l5.25,3.03c.94.55,1.13,1.2.61,2.1-.17.29-.45.66-.85.79-.36.11-.79.02-1.3-.27l-6.86-3.96c-.59-.34-1.33-.14-1.67.45s-.14,1.33.45,1.67l5.59,3.23c.96.56,1.16,1.21.63,2.12-.17.29-.45.66-.85.79-.36.11-.79.02-1.3-.27l-6.97-4.03c-.59-.34-1.33-.14-1.67.45s-.14,1.33.45,1.67l5.7,3.29c.51.29.8.62.89.99.09.41-.09.84-.25,1.13s-.45.66-.85.79c-.36.11-.79.02-1.3-.27l-3.84-2.22c-1.16-.67-2.55-1.27-4.02-1.91-3.14-1.36-6.7-2.91-9.45-5.66-2.91-2.91-4.22-6.47-4.23-6.51-.06-.17-.16-.32-.29-.45l-4.3-4.3c.82-1.24,2.1-3.15,4.09-6.1.64-.95,1.39-1.82,2.21-2.58l3.32,3.32c.24.24.55.36.87.36.26,0,.51-.08.73-.24,10.65-7.97,12.19-7.75,15.46-5.87h0ZM73.93,29.91c-.64.95-1.39,1.82-2.21,2.58l-3.32-3.32c-.43-.43-1.11-.48-1.6-.11-10.65,7.97-12.19,7.75-15.46,5.87l-3.03-1.75c-.37-.52-.77-1.06-1.19-1.62l2.34-2.34c.56.87,1.03,1.81,1.4,2.8.18.49.65.8,1.15.8.14,0,.29-.02.43-.08.63-.24.95-.94.72-1.57-1.25-3.34-3.47-6.15-6.42-8.14-4.97-3.35-7.8-5.23-8.41-5.59-.51-.29-.8-.62-.89-.99-.09-.41.09-.84.25-1.13.52-.91,1.19-1.07,2.15-.51l1.26.73s5.24,3.03,5.24,3.03c.58.34,1.33.14,1.67-.45.34-.59.14-1.33-.45-1.67l-5.24-3.03c-.5-.29-.79-.62-.87-.98-.09-.41.09-.84.25-1.13.52-.91,1.19-1.07,2.15-.51l6.86,3.96c.58.34,1.33.14,1.67-.45s.14-1.33-.45-1.67l-5.59-3.23c-.96-.56-1.16-1.21-.63-2.12.17-.29.45-.66.85-.79.36-.11.79-.02,1.3.27l6.97,4.03c.58.34,1.33.14,1.67-.45s.14-1.33-.45-1.67l-5.7-3.29c-.96-.56-1.16-1.21-.63-2.12.17-.29.45-.66.85-.79.35-.11.79-.02,1.3.27l3.84,2.22c1.16.67,2.55,1.27,4.02,1.91,3.14,1.36,6.7,2.91,9.45,5.66,2.91,2.91,4.22,6.47,4.23,6.51.06.17.16.32.29.45l4.3,4.3c-.82,1.24-2.1,3.15-4.09,6.1Z"/>
  <path class="cls-1" d="M71.64,8.16c.31,0,.63-.12.86-.36l5.72-5.72c.48-.48.48-1.25,0-1.73-.48-.48-1.25-.48-1.73,0l-5.72,5.72c-.48.48-.48,1.25,0,1.73.24.24.55.36.86.36h0Z"/>
</svg>