<svg id="Capa_1" enable-background="new 0 0 512 512" height="512" viewBox="0 0 512 512" width="512" xmlns="http://www.w3.org/2000/svg"><g><path d="m509.803 374.168-50.5-50.5c10.766-15.321 18.022-32.013 24.166-46.189 3.739-8.626 7.271-16.774 10.945-23.138l2.729-4.726 2.055 2.055c1.464 1.465 3.384 2.197 5.303 2.197s3.839-.732 5.303-2.197c2.929-2.929 2.929-7.677 0-10.606l-4.896-4.897 3.099-5.367c4.935-8.546 4.367-15.527 3.022-19.879-1.738-5.624-5.765-10.391-11.645-13.786-3.958-2.286-8.035-3.532-12.028-3.705.102-2.811-.337-5.209-.924-7.107-1.738-5.624-5.765-10.391-11.645-13.786-4.037-2.331-8.107-3.559-12.027-3.737.097-2.796-.341-5.184-.925-7.075-1.738-5.624-5.765-10.391-11.645-13.786-4.034-2.329-8.101-3.557-12.018-3.736.321-8.372-4.025-15.922-12.579-20.861-5.879-3.394-12.019-4.499-17.762-3.192-4.441 1.011-10.771 4.01-15.704 12.556-.064.111-.146.249-.244.412l-22.983-22.981c-2.355-5.905-11.297-26.271-28.827-43.801-18.886-18.886-43.125-29.392-62.602-37.833-8.626-3.739-16.774-7.271-23.138-10.944l-4.703-2.715 2.039-2.039c2.929-2.929 2.929-7.677 0-10.606-2.928-2.929-7.677-2.929-10.606 0l-4.881 4.881-5.39-3.112c-8.547-4.934-15.527-4.367-19.879-3.022-5.624 1.738-10.391 5.765-13.786 11.645-2.331 4.036-3.559 8.107-3.737 12.027-2.798-.095-5.184.341-7.075.925-5.624 1.738-10.391 5.765-13.786 11.645-2.329 4.033-3.557 8.102-3.736 12.019-8.377-.323-15.922 4.025-20.861 12.579-2.284 3.956-3.531 8.029-3.704 12.02-8.389-.332-15.947 4.012-20.893 12.577-3.395 5.88-4.499 12.021-3.192 17.761 1.011 4.441 4.01 10.771 12.556 15.705.12.069.267.157.448.266l-22.981 22.981c-5.905 2.355-26.271 11.297-43.801 28.828-1.469 1.469-2.902 2.99-4.309 4.558l-49.252-49.252c-2.929-2.929-7.678-2.929-10.606 0-2.929 2.929-2.929 7.678 0 10.606l50.478 50.478c-4.734 6.732-9.197 14.321-13.569 23.051-1.855 3.704-.356 8.21 3.348 10.064 1.078.54 2.224.795 3.353.795 2.75 0 5.397-1.518 6.712-4.143 7.595-15.166 15.365-26.462 24.453-35.551 17.849-17.848 39.69-25.868 39.898-25.943 1.044-.374 1.992-.974 2.776-1.758l26.353-26.358c7.597 5.036 19.313 12.875 37.381 25.066 5.851 3.947 11.151 8.514 15.837 13.61l-20.327 20.327c-2.637 2.637-2.936 6.811-.701 9.797 48.872 65.302 47.542 74.758 35.968 94.804l-10.742 18.606c-3.173 2.297-6.469 4.713-9.911 7.266l-14.385-14.385c5.358-3.453 11.103-6.356 17.187-8.629 3.88-1.45 5.851-5.77 4.401-9.65s-5.771-5.849-9.651-4.401c-20.452 7.642-37.716 21.245-49.925 39.34-20.565 30.481-32.087 47.832-34.246 51.571-1.789 3.098-3.822 4.925-6.044 5.431-2.512.574-5.156-.53-6.932-1.556-1.776-1.025-4.053-2.765-4.814-5.225-.673-2.177-.107-4.852 1.681-7.949l23.005-39.847c2.071-3.587.842-8.174-2.745-10.245-3.588-2.072-8.174-.842-10.245 2.745l-18.525 32.087c-3.398 5.862-7.396 7.046-12.954 3.836-1.776-1.026-4.053-2.765-4.814-5.225-.673-2.177-.107-4.852 1.681-7.949l24.291-42.073c2.071-3.587.842-8.174-2.745-10.245-3.588-2.072-8.174-.842-10.245 2.745l-19.789 34.276c-3.403 5.895-7.405 7.091-12.976 3.874-5.57-3.216-6.536-7.279-3.133-13.174l24.684-42.754c2.071-3.587.842-8.174-2.745-10.245-3.587-2.073-8.174-.843-10.245 2.745l-20.183 34.957c-3.403 5.896-7.407 7.09-12.976 3.874-5.57-3.216-6.536-7.279-3.133-13.174l13.592-23.542c3.376-5.848 6.507-12.739 9.387-19.315 1.662-3.794-.067-8.217-3.861-9.879-3.796-1.662-8.217.066-9.879 3.861-2.707 6.18-5.626 12.618-8.637 17.833l-2.729 4.726-2.055-2.055c-2.929-2.929-7.678-2.929-10.606 0-2.929 2.929-2.929 7.678 0 10.606l4.897 4.897-3.099 5.367c-7.546 13.069-4.161 26.284 8.623 33.665 4.034 2.329 8.101 3.557 12.019 3.736-.321 8.372 4.024 15.922 12.579 20.861 4.037 2.331 8.107 3.559 12.027 3.737-.097 2.796.341 5.184.925 7.075 1.738 5.624 5.765 10.391 11.645 13.786 4.037 2.331 8.107 3.559 12.027 3.737-.097 2.796.341 5.184.925 7.075 1.738 5.624 5.765 10.391 11.645 13.786 4.275 2.468 8.689 3.726 12.986 3.726 1.613 0 3.209-.177 4.775-.534 4.441-1.011 10.771-4.01 15.705-12.557.064-.111.146-.249.244-.411l22.982 22.982c2.355 5.905 11.297 26.271 28.828 43.801 1.483 1.483 3.008 2.896 4.552 4.278l-49.254 49.254c-2.929 2.929-2.929 7.678 0 10.606 1.464 1.464 3.384 2.197 5.303 2.197s3.839-.732 5.303-2.197l50.486-50.486c15.327 10.775 32.028 18.034 46.211 24.181 8.626 3.739 16.774 7.27 23.138 10.944l4.703 2.715-2.039 2.039c-2.929 2.929-2.929 7.677 0 10.606 1.464 1.465 3.384 2.197 5.303 2.197s3.839-.732 5.303-2.197l4.881-4.881 5.39 3.112c5.181 2.991 9.787 3.96 13.58 3.96 2.464 0 4.586-.409 6.299-.938 5.624-1.738 10.391-5.765 13.786-11.645 2.285-3.958 3.532-8.035 3.705-12.028 2.818.107 5.209-.337 7.107-.924 5.624-1.738 10.391-5.765 13.786-11.645 2.331-4.036 3.559-8.107 3.737-12.027 2.793.089 5.184-.341 7.075-.925 5.624-1.738 10.391-5.765 13.786-11.645 2.329-4.033 3.557-8.102 3.736-12.018 8.382.325 15.922-4.025 20.861-12.579 3.395-5.88 4.499-12.022 3.192-17.762-1.011-4.441-4.01-10.771-12.556-15.704-1.935-1.117-11.093-6.98-50.682-33.691-5.851-3.947-11.151-8.514-15.837-13.61l20.327-20.327c2.637-2.637 2.936-6.811.702-9.797-21.262-28.41-32.259-45.123-37.959-57.687-1.711-3.772-6.157-5.442-9.929-3.731s-5.443 6.156-3.731 9.929c2.339 5.155 5.438 10.871 9.576 17.574-17.733-8.076-32.854-6.097-60.57 10.984 8.097-17.752 6.125-32.877-10.977-60.622 6.523 2.972 12.693 4.591 19.266 4.591 11.296 0 23.784-4.761 41.303-15.558-1.525 3.326-2.618 6.381-3.359 9.398-.987 4.023 1.473 8.084 5.496 9.072.601.147 1.202.218 1.794.218 3.373 0 6.438-2.292 7.278-5.714.927-3.776 2.729-7.865 5.842-13.258l10.743-18.607c3.173-2.297 6.468-4.712 9.911-7.265l14.385 14.385c-5.358 3.453-11.103 6.356-17.187 8.629-3.88 1.45-5.851 5.77-4.401 9.65s5.772 5.851 9.651 4.4c20.453-7.641 37.716-21.245 49.925-39.339 20.565-30.48 32.087-47.831 34.247-51.571 1.789-3.097 3.822-4.924 6.043-5.43 2.512-.571 5.156.531 6.932 1.556 5.57 3.216 6.536 7.279 3.133 13.174l-4.42 7.656c-.027.047-18.585 32.191-18.585 32.191-2.071 3.587-.842 8.174 2.745 10.245 3.585 2.07 8.174.841 10.245-2.745l18.57-32.164c3.389-5.796 7.375-6.956 12.909-3.76 1.776 1.026 4.053 2.765 4.814 5.225.673 2.177.107 4.852-1.681 7.949l-24.291 42.073c-2.071 3.587-.842 8.174 2.745 10.245 3.585 2.071 8.174.842 10.245-2.745l19.789-34.276c3.404-5.894 7.406-7.09 12.976-3.874 1.776 1.025 4.053 2.765 4.814 5.225.673 2.177.107 4.852-1.681 7.949l-24.684 42.754c-2.071 3.587-.842 8.174 2.745 10.245 3.586 2.071 8.174.842 10.245-2.745l20.183-34.957c1.789-3.098 3.822-4.925 6.044-5.431 2.51-.569 5.155.531 6.932 1.557 1.776 1.026 4.053 2.765 4.814 5.225.673 2.177.107 4.852-1.681 7.949l-13.592 23.542c-4.104 7.109-7.802 15.641-11.717 24.673-8.349 19.262-17.811 41.094-34.677 57.96-17.848 17.848-39.69 25.868-39.898 25.943-1.044.374-1.992.974-2.776 1.758l-8.134 8.134c-2.929 2.929-2.929 7.678 0 10.606 1.464 1.464 3.384 2.197 5.303 2.197s3.839-.732 5.303-2.197l7.008-7.008c5.905-2.355 26.271-11.297 43.801-28.828 1.489-1.489 2.908-3.021 4.296-4.571l49.266 49.266c1.464 1.464 3.384 2.197 5.303 2.197s3.839-.732 5.303-2.197c2.926-2.928 2.926-7.677-.004-10.605zm-217.72-76.296 18.578 10.726c2.27 3.138 4.683 6.432 7.258 9.906l-14.371 14.372c-3.443-5.348-6.338-11.081-8.606-17.152-1.45-3.88-5.771-5.848-9.65-4.401-3.88 1.45-5.851 5.771-4.401 9.651 7.642 20.453 21.245 37.716 39.34 49.925 30.48 20.565 47.831 32.087 51.571 34.247 3.097 1.789 4.924 3.822 5.43 6.043.572 2.511-.531 5.156-1.556 6.932-3.216 5.571-7.28 6.535-13.174 3.133l-39.847-23.005c-3.587-2.073-8.174-.842-10.245 2.745s-.842 8.174 2.745 10.245l32.169 18.573c5.792 3.389 6.949 7.374 3.755 12.906-1.026 1.776-2.765 4.053-5.225 4.814-2.177.672-4.853.107-7.949-1.681l-42.073-24.291c-3.588-2.073-8.174-.842-10.245 2.745s-.842 8.174 2.745 10.245l34.276 19.789c5.895 3.404 7.09 7.406 3.874 12.976-1.026 1.776-2.765 4.053-5.225 4.814-2.178.673-4.853.107-7.949-1.681l-42.754-24.684c-3.588-2.072-8.174-.842-10.245 2.745s-.842 8.174 2.745 10.245l34.957 20.183c3.098 1.789 4.925 3.822 5.43 6.044.572 2.511-.531 5.155-1.556 6.932s-2.765 4.053-5.225 4.814c-2.179.672-4.852.107-7.949-1.681l-23.542-13.592c-7.109-4.104-15.641-7.802-24.673-11.717-19.262-8.349-41.094-17.811-57.96-34.677-17.848-17.848-25.868-39.69-25.943-39.898-.374-1.044-.974-1.992-1.758-2.776l-26.356-26.356c5.035-7.596 12.879-19.32 25.088-37.415 3.94-5.839 8.496-11.13 13.58-15.81l20.336 20.336c1.454 1.454 3.374 2.197 5.306 2.197 1.572 0 3.151-.493 4.491-1.496 65.3-48.873 74.756-47.544 94.803-35.97zm66.352-114.484c-3.94 5.839-8.496 11.131-13.58 15.81l-20.337-20.337c-2.637-2.638-6.812-2.937-9.797-.701-65.301 48.871-74.758 47.541-94.804 35.968l-18.57-10.721c-2.297-3.173-4.714-6.469-7.266-9.912l14.371-14.371c3.443 5.348 6.338 11.081 8.606 17.152 1.127 3.015 3.987 4.877 7.027 4.877.872 0 1.759-.153 2.624-.476 3.88-1.45 5.851-5.771 4.4-9.651-7.642-20.453-21.245-37.716-39.34-49.925-30.48-20.565-47.831-32.087-51.571-34.247-3.097-1.789-4.924-3.822-5.43-6.043-.572-2.511.531-5.156 1.557-6.932 3.216-5.57 7.28-6.535 13.174-3.133l7.71 4.452c.029.017 32.137 18.554 32.137 18.554 3.586 2.071 8.173.842 10.245-2.745 2.071-3.587.842-8.174-2.745-10.245l-32.125-18.547c-3.052-1.778-4.854-3.796-5.355-6-.572-2.511.531-5.155 1.556-6.932 3.216-5.57 7.28-6.536 13.174-3.133l42.073 24.291c3.585 2.071 8.174.842 10.245-2.745s.842-8.174-2.745-10.245l-34.28-19.792c-5.891-3.403-7.085-7.404-3.87-12.973 1.026-1.776 2.765-4.053 5.225-4.814 2.177-.674 4.852-.107 7.949 1.681l42.754 24.684c3.586 2.072 8.174.842 10.245-2.745s.842-8.174-2.745-10.245l-34.957-20.182c-5.895-3.404-7.09-7.406-3.874-12.976 1.025-1.776 2.765-4.053 5.225-4.814 2.176-.673 4.851-.107 7.949 1.681l23.542 13.592c7.109 4.104 15.641 7.802 24.673 11.717 19.262 8.348 41.094 17.811 57.96 34.677 17.848 17.848 25.867 39.69 25.942 39.898.374 1.044.974 1.992 1.758 2.776l26.357 26.357c-5.034 7.596-12.878 19.32-25.087 37.415z"/><path d="m344.431 50.04c1.919 0 3.839-.732 5.303-2.197l35.04-35.04c2.929-2.929 2.929-7.678 0-10.606-2.929-2.929-7.678-2.929-10.606 0l-35.04 35.04c-2.929 2.929-2.929 7.678 0 10.606 1.464 1.465 3.383 2.197 5.303 2.197z"/></g></svg>