<svg width="82" height="82" viewBox="0 0 82 82" fill="none" xmlns="http://www.w3.org/2000/svg">
<path d="M34.7809 72.2516V77.6187C34.7809 79.5961 36.3928 81.2079 38.3701 81.2079H43.0727C45.05 81.2079 46.6619 79.5961 46.6619 77.6187V72.2516C46.6619 70.6896 47.6589 69.2772 49.1544 68.8285C51.0653 68.2635 52.8931 67.4992 54.6213 66.5686C56.0004 65.8209 57.712 66.1034 58.8087 67.2167L62.6139 71.0219C64.0097 72.4177 66.2862 72.4177 67.6986 71.0219L71.0219 67.6986C72.4177 66.3028 72.4177 64.0263 71.0219 62.6139L67.2333 58.8253C66.12 57.712 65.8375 56.0171 66.5853 54.6379C67.5158 52.9097 68.2802 51.0819 68.8451 49.171C69.2938 47.6755 70.7062 46.6785 72.2682 46.6785H77.6354C79.6128 46.6785 81.2246 45.0667 81.2246 43.0893V38.3868C81.2246 36.4094 79.6128 34.7975 77.6354 34.7975H72.2682C70.7062 34.7975 69.2938 33.8005 68.8451 32.305C68.2802 30.3941 67.5158 28.5663 66.5853 26.8382C65.8375 25.459 66.12 23.7475 67.2333 22.6508L71.0385 18.8455C72.4343 17.4497 72.4343 15.1732 71.0385 13.7608L67.7152 10.4375C66.3194 9.04169 64.0429 9.04169 62.6305 10.4375L58.8253 14.2427C57.712 15.356 56.0171 15.6385 54.6379 14.8908C52.9097 13.9602 51.0819 13.1959 49.171 12.6309C47.6755 12.1822 46.6785 10.7698 46.6785 9.20786V3.84067C46.6785 1.86328 45.0667 0.251465 43.0893 0.251465H38.3868C36.4094 0.251465 34.7975 1.86328 34.7975 3.84067V9.20786C34.7975 10.7698 33.8005 12.1822 32.305 12.6309C30.3941 13.1959 28.5663 13.9602 26.8382 14.8908C25.459 15.6385 23.7475 15.356 22.6508 14.2427L18.8455 10.4375C17.4497 9.04169 15.1732 9.04169 13.7608 10.4375L10.4375 13.7608C9.04169 15.1566 9.04169 17.4331 10.4375 18.8455L14.2427 22.6508C15.356 23.7641 15.6385 25.459 14.8908 26.8382C13.9602 28.5663 13.1959 30.3941 12.6309 32.305C12.1822 33.8005 10.7698 34.7975 9.20786 34.7975H3.84067C1.86328 34.7975 0.251465 36.4094 0.251465 38.3868V43.0893C0.251465 45.0667 1.86328 46.6785 3.84067 46.6785H9.20786C10.7698 46.6785 12.1822 47.6755 12.6309 49.171C13.1959 51.0819 13.9602 52.9097 14.8908 54.6379C15.6385 56.0171 15.356 57.7286 14.2427 58.8253L10.4375 62.6305C9.04169 64.0263 9.04169 66.3028 10.4375 67.7152L13.7608 71.0385C15.1566 72.4343 17.4331 72.4343 18.8455 71.0385L22.6508 67.2333C23.7641 66.12 25.459 65.8375 26.8382 66.5853C28.5663 67.5158 30.3941 68.2802 32.305 68.8451C33.8005 69.2938 34.7975 70.7062 34.7975 72.2682L34.7809 72.2516Z" stroke="#D9D9D9" stroke-width="0.502909" stroke-miterlimit="10"/>
<circle cx="40.8322" cy="40.8322" r="12.508" stroke="#D9D9D9" stroke-width="0.502909"/>
</svg>
