<svg width="161" height="217" viewBox="0 0 161 217" fill="none" xmlns="http://www.w3.org/2000/svg">
<path d="M106.681 82.6286V88.7437C106.681 90.9966 108.517 92.833 110.77 92.833H116.128C118.381 92.833 120.217 90.9966 120.217 88.7437V82.6286C120.217 80.849 121.353 79.2398 123.057 78.7286C125.234 78.0849 127.317 77.2141 129.286 76.1539C130.857 75.3019 132.807 75.6238 134.057 76.8922L138.392 81.2277C139.982 82.818 142.576 82.818 144.185 81.2277L147.972 77.4413C149.562 75.851 149.562 73.2573 147.972 71.648L143.655 67.3315C142.387 66.0631 142.065 64.132 142.917 62.5606C143.977 60.5917 144.848 58.5092 145.492 56.332C146.003 54.6281 147.612 53.4922 149.392 53.4922H155.507C157.76 53.4922 159.596 51.6558 159.596 49.4028V44.0451C159.596 41.7921 157.76 39.9557 155.507 39.9557H149.392C147.612 39.9557 146.003 38.8198 145.492 37.1159C144.848 34.9387 143.977 32.8562 142.917 30.8873C142.065 29.3159 142.387 27.3659 143.655 26.1164L147.991 21.7809C149.581 20.1906 149.581 17.597 147.991 15.9877L144.204 12.2013C142.614 10.611 140.02 10.611 138.411 12.2013L134.076 16.5368C132.807 17.8052 130.876 18.1271 129.305 17.2751C127.336 16.2149 125.253 15.344 123.076 14.7003C121.372 14.1892 120.236 12.58 120.236 10.8003V4.68528C120.236 2.43236 118.4 0.595947 116.147 0.595947H110.789C108.536 0.595947 106.7 2.43236 106.7 4.68528V10.8003C106.7 12.58 105.564 14.1892 103.86 14.7003C101.683 15.344 99.6002 16.2149 97.6313 17.2751C96.0599 18.1271 94.1099 17.8052 92.8604 16.5368L88.525 12.2013C86.9347 10.611 84.341 10.611 82.7317 12.2013L78.9453 15.9877C77.355 17.578 77.355 20.1717 78.9453 21.7809L83.2808 26.1164C84.5492 27.3848 84.8711 29.3159 84.0191 30.8873C82.9589 32.8562 82.0881 34.9387 81.4444 37.1159C80.9332 38.8198 79.324 39.9557 77.5444 39.9557H71.4293C69.1764 39.9557 67.34 41.7921 67.34 44.0451V49.4028C67.34 51.6558 69.1764 53.4922 71.4293 53.4922H77.5444C79.324 53.4922 80.9332 54.6281 81.4444 56.332C82.0881 58.5092 82.9589 60.5917 84.0191 62.5606C84.8711 64.132 84.5492 66.082 83.2808 67.3315L78.9453 71.667C77.355 73.2573 77.355 75.851 78.9453 77.4602L82.7317 81.2466C84.322 82.8369 86.9157 82.8369 88.525 81.2466L92.8604 76.9112C94.1289 75.6427 96.0599 75.3209 97.6313 76.1728C99.6002 77.233 101.683 78.1039 103.86 78.7476C105.564 79.2587 106.7 80.868 106.7 82.6476L106.681 82.6286Z" stroke="#C9C9C9" stroke-width="1.19186" stroke-miterlimit="10"/>
<circle cx="113.575" cy="46.8313" r="13.9414" stroke="#C9C9C9" stroke-width="1.19186"/>
<path d="M29.0673 100.487V104.912C29.0673 106.543 30.3964 107.872 32.0268 107.872H35.9043C37.5348 107.872 38.8638 106.543 38.8638 104.912V100.487C38.8638 99.199 39.6859 98.0344 40.919 97.6645C42.4947 97.1986 44.0018 96.5684 45.4268 95.8011C46.564 95.1845 47.9752 95.4175 48.8795 96.3355L52.0171 99.4731C53.168 100.624 55.0451 100.624 56.2097 99.4731L58.95 96.7328C60.1009 95.5819 60.1009 93.7048 58.95 92.5402L55.8261 89.4163C54.9081 88.4983 54.6752 87.1007 55.2917 85.9635C56.059 84.5386 56.6893 83.0314 57.1551 81.4558C57.525 80.2227 58.6897 79.4006 59.9776 79.4006H64.4031C66.0336 79.4006 67.3626 78.0716 67.3626 76.4411V72.5636C67.3626 70.9332 66.0336 69.6041 64.4031 69.6041H59.9776C58.6897 69.6041 57.525 68.782 57.1551 67.5489C56.6893 65.9733 56.059 64.4661 55.2917 63.0412C54.6752 61.904 54.9081 60.4927 55.8261 59.5884L58.9637 56.4508C60.1146 55.2999 60.1146 53.4228 58.9637 52.2582L56.2234 49.5179C55.0725 48.367 53.1954 48.367 52.0308 49.5179L48.8932 52.6556C47.9752 53.5735 46.5777 53.8065 45.4405 53.1899C44.0155 52.4226 42.5084 51.7924 40.9327 51.3265C39.6996 50.9566 38.8775 49.792 38.8775 48.504V44.0785C38.8775 42.448 37.5485 41.119 35.918 41.119H32.0405C30.4101 41.119 29.081 42.448 29.081 44.0785V48.504C29.081 49.792 28.259 50.9566 27.0258 51.3265C25.4502 51.7924 23.943 52.4226 22.5181 53.1899C21.3809 53.8065 19.9697 53.5735 19.0654 52.6556L15.9278 49.5179C14.7768 48.367 12.8998 48.367 11.7351 49.5179L8.99487 52.2582C7.84396 53.4091 7.84396 55.2862 8.99487 56.4508L12.1325 59.5884C13.0505 60.5064 13.2834 61.904 12.6668 63.0412C11.8996 64.4661 11.2693 65.9733 10.8035 67.5489C10.4335 68.782 9.2689 69.6041 7.98097 69.6041H3.55544C1.92498 69.6041 0.595947 70.9332 0.595947 72.5636V76.4411C0.595947 78.0716 1.92498 79.4006 3.55544 79.4006H7.98097C9.2689 79.4006 10.4335 80.2227 10.8035 81.4558C11.2693 83.0314 11.8996 84.5386 12.6668 85.9635C13.2834 87.1007 13.0505 88.512 12.1325 89.4163L8.99487 92.5539C7.84396 93.7048 7.84396 95.5819 8.99487 96.7465L11.7351 99.4868C12.8861 100.638 14.7631 100.638 15.9278 99.4868L19.0654 96.3492C19.9834 95.4312 21.3809 95.1982 22.5181 95.8148C23.943 96.5821 25.4502 97.2123 27.0258 97.6782C28.259 98.0481 29.081 99.2127 29.081 100.501L29.0673 100.487Z" stroke="#C9C9C9" stroke-width="1.19186" stroke-miterlimit="10"/>
<circle cx="34.0569" cy="74.58" r="9.92489" stroke="#C9C9C9" stroke-width="1.19186"/>
<path d="M84.4524 202.609V210.827C84.4524 213.854 86.9203 216.322 89.9479 216.322H97.148C100.176 216.322 102.643 213.854 102.643 210.827V202.609C102.643 200.217 104.17 198.055 106.46 197.368C109.386 196.503 112.184 195.332 114.83 193.908C116.942 192.763 119.562 193.195 121.241 194.9L127.068 200.726C129.205 202.863 132.69 202.863 134.853 200.726L139.941 195.638C142.078 193.501 142.078 190.015 139.941 187.852L134.141 182.052C132.436 180.347 132.003 177.752 133.148 175.64C134.573 172.994 135.743 170.196 136.608 167.27C137.295 164.98 139.458 163.454 141.849 163.454H150.067C153.095 163.454 155.563 160.986 155.563 157.958V150.758C155.563 147.731 153.095 145.263 150.067 145.263H141.849C139.458 145.263 137.295 143.736 136.608 141.446C135.743 138.521 134.573 135.722 133.148 133.076C132.003 130.964 132.436 128.344 134.141 126.665L139.967 120.838C142.104 118.701 142.104 115.216 139.967 113.053L134.878 107.965C132.741 105.828 129.256 105.828 127.093 107.965L121.267 113.791C119.562 115.496 116.967 115.928 114.856 114.783C112.21 113.358 109.411 112.188 106.485 111.323C104.195 110.636 102.669 108.474 102.669 106.082V97.8644C102.669 94.8368 100.201 92.3689 97.1734 92.3689H89.9733C86.9457 92.3689 84.4779 94.8368 84.4779 97.8644V106.082C84.4779 108.474 82.9514 110.636 80.6616 111.323C77.7358 112.188 74.9372 113.358 72.2912 114.783C70.1795 115.928 67.559 115.496 65.8798 113.791L60.0536 107.965C57.9165 105.828 54.431 105.828 52.2684 107.965L47.18 113.053C45.0429 115.19 45.0429 118.676 47.18 120.838L53.0062 126.665C54.7108 128.369 55.1433 130.964 53.9984 133.076C52.5737 135.722 51.4034 138.521 50.5383 141.446C49.8514 143.736 47.6889 145.263 45.2973 145.263H37.0796C34.052 145.263 31.5841 147.731 31.5841 150.758V157.958C31.5841 160.986 34.052 163.454 37.0796 163.454H45.2973C47.6889 163.454 49.8514 164.98 50.5383 167.27C51.4034 170.196 52.5737 172.994 53.9984 175.64C55.1433 177.752 54.7108 180.373 53.0062 182.052L47.18 187.878C45.0429 190.015 45.0429 193.501 47.18 195.663L52.2684 200.752C54.4055 202.889 57.8911 202.889 60.0536 200.752L65.8798 194.925C67.5844 193.221 70.1795 192.788 72.2912 193.933C74.9372 195.358 77.7358 196.528 80.6616 197.393C82.9514 198.08 84.4779 200.243 84.4779 202.634L84.4524 202.609Z" stroke="#C9C9C9" stroke-width="1.19186" stroke-miterlimit="10"/>
<circle cx="93.7174" cy="154.502" r="18.9401" stroke="#C9C9C9" stroke-width="1.19186"/>
</svg>
