<svg width="161" height="217" viewBox="0 0 161 217" fill="none" xmlns="http://www.w3.org/2000/svg">
<path d="M53.5111 82.6284V88.7435C53.5111 90.9964 51.6747 92.8328 49.4218 92.8328H44.064C41.8111 92.8328 39.9747 90.9964 39.9747 88.7435V82.6284C39.9747 80.8488 38.8387 79.2396 37.1348 78.7284C34.9577 78.0847 32.8751 77.2138 30.9062 76.1536C29.3348 75.3017 27.3848 75.6235 26.1353 76.892L21.7999 81.2274C20.2096 82.8177 17.6159 82.8177 16.0066 81.2274L12.2202 77.441C10.6299 75.8507 10.6299 73.257 12.2202 71.6478L16.5367 67.3313C17.8052 66.0628 18.127 64.1318 17.2751 62.5604C16.2149 60.5915 15.344 58.5089 14.7003 56.3317C14.1892 54.6279 12.5799 53.4919 10.8003 53.4919H4.68526C2.43234 53.4919 0.595932 51.6555 0.595932 49.4026V44.0448C0.595932 41.7919 2.43234 39.9555 4.68526 39.9555H10.8003C12.5799 39.9555 14.1892 38.8196 14.7003 37.1157C15.344 34.9385 16.2149 32.856 17.2751 30.887C18.127 29.3157 17.8052 27.3657 16.5367 26.1161L12.2013 21.7807C10.611 20.1904 10.611 17.5967 12.2013 15.9875L15.9877 12.2011C17.578 10.6108 20.1717 10.6108 21.7809 12.2011L26.1164 16.5365C27.3848 17.805 29.3159 18.1268 30.8873 17.2749C32.8562 16.2147 34.9387 15.3438 37.1159 14.7001C38.8198 14.1889 39.9557 12.5797 39.9557 10.8001V4.68503C39.9557 2.43211 41.7921 0.595703 44.0451 0.595703H49.4028C51.6558 0.595703 53.4922 2.43211 53.4922 4.68503V10.8001C53.4922 12.5797 54.6281 14.1889 56.332 14.7001C58.5092 15.3438 60.5917 16.2147 62.5606 17.2749C64.132 18.1268 66.082 17.805 67.3315 16.5365L71.667 12.2011C73.2573 10.6108 75.851 10.6108 77.4602 12.2011L81.2466 15.9875C82.8369 17.5778 82.8369 20.1715 81.2466 21.7807L76.9111 26.1161C75.6427 27.3846 75.3209 29.3157 76.1728 30.887C77.233 32.856 78.1039 34.9385 78.7476 37.1157C79.2587 38.8196 80.868 39.9555 82.6476 39.9555H88.7626C91.0155 39.9555 92.852 41.7919 92.852 44.0448V49.4026C92.852 51.6555 91.0155 53.4919 88.7626 53.4919H82.6476C80.868 53.4919 79.2587 54.6279 78.7476 56.3317C78.1039 58.5089 77.233 60.5915 76.1728 62.5604C75.3209 64.1318 75.6427 66.0818 76.9111 67.3313L81.2466 71.6667C82.8369 73.257 82.8369 75.8507 81.2466 77.4599L77.4602 81.2464C75.8699 82.8367 73.2762 82.8367 71.667 81.2464L67.3315 76.9109C66.0631 75.6425 64.132 75.3206 62.5606 76.1726C60.5917 77.2328 58.5092 78.1036 56.332 78.7473C54.6281 79.2585 53.4922 80.8677 53.4922 82.6473L53.5111 82.6284Z" stroke="#C9C9C9" stroke-width="1.19186" stroke-miterlimit="10"/>
<circle cx="14.5373" cy="14.5373" r="13.9414" transform="matrix(-1 0 0 1 61.154 32.2935)" stroke="#C9C9C9" stroke-width="1.19186"/>
<path d="M131.125 100.487V104.912C131.125 106.543 129.795 107.872 128.165 107.872H124.288C122.657 107.872 121.328 106.543 121.328 104.912V100.487C121.328 99.1987 120.506 98.0341 119.273 97.6641C117.697 97.1983 116.19 96.568 114.765 95.8007C113.628 95.1842 112.217 95.4171 111.312 96.3351L108.175 99.4727C107.024 100.624 105.147 100.624 103.982 99.4727L101.242 96.7324C100.091 95.5815 100.091 93.7044 101.242 92.5398L104.366 89.4159C105.284 88.4979 105.517 87.1004 104.9 85.9632C104.133 84.5382 103.503 83.0311 103.037 81.4554C102.667 80.2223 101.502 79.4002 100.214 79.4002H95.7887C94.1583 79.4002 92.8292 78.0712 92.8292 76.4407V72.5632C92.8292 70.9328 94.1583 69.6038 95.7887 69.6038H100.214C101.502 69.6038 102.667 68.7817 103.037 67.5486C103.503 65.9729 104.133 64.4657 104.9 63.0408C105.517 61.9036 105.284 60.4924 104.366 59.5881L101.228 56.4505C100.077 55.2995 100.077 53.4225 101.228 52.2578L103.968 49.5176C105.119 48.3667 106.996 48.3667 108.161 49.5176L111.299 52.6552C112.217 53.5732 113.614 53.8061 114.751 53.1895C116.176 52.4223 117.683 51.792 119.259 51.3262C120.492 50.9562 121.314 49.7916 121.314 48.5037V44.0781C121.314 42.4477 122.643 41.1187 124.274 41.1187H128.151C129.782 41.1187 131.111 42.4477 131.111 44.0781V48.5037C131.111 49.7916 131.933 50.9562 133.166 51.3262C134.742 51.792 136.249 52.4223 137.674 53.1895C138.811 53.8061 140.222 53.5732 141.126 52.6552L144.264 49.5176C145.415 48.3667 147.292 48.3667 148.457 49.5176L151.197 52.2578C152.348 53.4088 152.348 55.2858 151.197 56.4505L148.059 59.5881C147.141 60.5061 146.908 61.9036 147.525 63.0408C148.292 64.4657 148.923 65.9729 149.388 67.5486C149.758 68.7817 150.923 69.6038 152.211 69.6038H156.636C158.267 69.6038 159.596 70.9328 159.596 72.5632V76.4407C159.596 78.0712 158.267 79.4002 156.636 79.4002H152.211C150.923 79.4002 149.758 80.2223 149.388 81.4554C148.923 83.0311 148.292 84.5382 147.525 85.9632C146.908 87.1004 147.141 88.5116 148.059 89.4159L151.197 92.5535C152.348 93.7044 152.348 95.5815 151.197 96.7461L148.457 99.4864C147.306 100.637 145.429 100.637 144.264 99.4864L141.126 96.3488C140.208 95.4308 138.811 95.1979 137.674 95.8144C136.249 96.5817 134.742 97.212 133.166 97.6778C131.933 98.0478 131.111 99.2124 131.111 100.5L131.125 100.487Z" stroke="#C9C9C9" stroke-width="1.19186" stroke-miterlimit="10"/>
<circle cx="10.5208" cy="10.5208" r="9.92489" transform="matrix(-1 0 0 1 136.656 64.0586)" stroke="#C9C9C9" stroke-width="1.19186"/>
<path d="M75.7393 202.609V210.826C75.7393 213.854 73.2714 216.322 70.2438 216.322H63.0438C60.0162 216.322 57.5483 213.854 57.5483 210.826V202.609C57.5483 200.217 56.0218 198.054 53.732 197.368C50.8062 196.502 48.0076 195.332 45.3616 193.907C43.2499 192.763 40.6294 193.195 38.9502 194.9L33.124 200.726C30.9869 202.863 27.5014 202.863 25.3388 200.726L20.2504 195.637C18.1133 193.5 18.1133 190.015 20.2504 187.852L26.0512 182.051C27.7558 180.347 28.1883 177.752 27.0434 175.64C25.6187 172.994 24.4483 170.196 23.5833 167.27C22.8964 164.98 20.7338 163.453 18.3423 163.453H10.1245C7.09694 163.453 4.62907 160.986 4.62907 157.958V150.758C4.62907 147.73 7.09694 145.262 10.1245 145.262H18.3423C20.7338 145.262 22.8964 143.736 23.5833 141.446C24.4483 138.52 25.6187 135.722 27.0434 133.076C28.1883 130.964 27.7558 128.344 26.0512 126.664L20.225 120.838C18.0879 118.701 18.0879 115.216 20.225 113.053L25.3134 107.965C27.4505 105.827 30.936 105.827 33.0986 107.965L38.9248 113.791C40.6294 115.495 43.2245 115.928 45.3362 114.783C47.9821 113.358 50.7807 112.188 53.7066 111.323C55.9963 110.636 57.5229 108.473 57.5229 106.082V97.8641C57.5229 94.8365 59.9907 92.3687 63.0183 92.3687H70.2184C73.246 92.3687 75.7138 94.8365 75.7138 97.8641V106.082C75.7138 108.473 77.2404 110.636 79.5301 111.323C82.456 112.188 85.2546 113.358 87.9005 114.783C90.0122 115.928 92.6327 115.495 94.3119 113.791L100.138 107.965C102.275 105.827 105.761 105.827 107.923 107.965L113.012 113.053C115.149 115.19 115.149 118.676 113.012 120.838L107.186 126.664C105.481 128.369 105.048 130.964 106.193 133.076C107.618 135.722 108.788 138.52 109.653 141.446C110.34 143.736 112.503 145.262 114.894 145.262H123.112C126.14 145.262 128.608 147.73 128.608 150.758V157.958C128.608 160.986 126.14 163.453 123.112 163.453H114.894C112.503 163.453 110.34 164.98 109.653 167.27C108.788 170.196 107.618 172.994 106.193 175.64C105.048 177.752 105.481 180.372 107.186 182.051L113.012 187.878C115.149 190.015 115.149 193.5 113.012 195.663L107.923 200.751C105.786 202.888 102.301 202.888 100.138 200.751L94.3119 194.925C92.6073 193.22 90.0122 192.788 87.9005 193.933C85.2546 195.358 82.456 196.528 79.5301 197.393C77.2404 198.08 75.7138 200.242 75.7138 202.634L75.7393 202.609Z" stroke="#C9C9C9" stroke-width="1.19186" stroke-miterlimit="10"/>
<circle cx="19.536" cy="19.536" r="18.9401" transform="matrix(-1 0 0 1 86.0104 134.966)" stroke="#C9C9C9" stroke-width="1.19186"/>
</svg>
