<svg width="47" height="41" viewBox="0 0 47 41" fill="none" xmlns="http://www.w3.org/2000/svg">
<path d="M31.9385 40.9274C29.3473 41.0376 26.8959 40.9926 24.3249 40.9798L14.2407 40.931C12.3276 40.9219 11.0955 39.2924 11.0707 37.4847L11.0044 32.7057C10.9465 28.5066 11.4765 24.8498 14.6999 21.9925C18.0972 18.9808 21.5754 18.8659 25.8966 19.1177C31.149 19.4238 35.6818 24.291 35.8741 29.5819L35.9229 37.4727C35.9321 38.9349 35.1297 40.4697 33.9187 40.6434L31.9385 40.9274Z" fill="#B4B4B4"/>
<path d="M23.5005 15.9802C27.9208 15.9802 31.5042 12.4029 31.5042 7.99009C31.5042 3.57729 27.9208 0 23.5005 0C19.0801 0 15.4967 3.57729 15.4967 7.99009C15.4967 12.4029 19.0801 15.9802 23.5005 15.9802Z" fill="#B4B4B4"/>
<path d="M8.30278 31.5937L8.34603 38.0049H2.63448C1.32966 38.003 -0.00183845 36.936 1.90558e-06 35.5474L0.0128844 24.9123C0.0165651 21.5238 3.11389 19.0194 6.38697 19.0727C8.65797 19.1095 10.3769 18.9027 12.323 20.5101C10.3741 22.4493 9.11806 24.8287 8.65245 27.5141C8.4178 28.8724 8.29266 30.171 8.30186 31.5946L8.30278 31.5937Z" fill="#B4B4B4"/>
<path d="M44.1594 38.0132H38.6632L38.6963 31.875C38.7202 27.4002 37.9381 23.7498 34.6843 20.5184C36.5882 18.9019 38.3604 19.1096 40.6149 19.0719C43.8907 19.0186 46.8997 21.5211 46.989 24.9123L47.0009 35.4528C47.0028 36.937 45.5783 38.0132 44.1603 38.0132H44.1594Z" fill="#B4B4B4"/>
<path d="M7.32554 15.9784C10.1201 15.9784 12.3856 13.7166 12.3856 10.9264C12.3856 8.13634 10.1201 5.87451 7.32554 5.87451C4.53094 5.87451 2.26547 8.13634 2.26547 10.9264C2.26547 13.7166 4.53094 15.9784 7.32554 15.9784Z" fill="#B4B4B4"/>
<path d="M39.6763 15.9784C42.4709 15.9784 44.7363 13.7166 44.7363 10.9264C44.7363 8.13634 42.4709 5.87451 39.6763 5.87451C36.8817 5.87451 34.6162 8.13634 34.6162 10.9264C34.6162 13.7166 36.8817 15.9784 39.6763 15.9784Z" fill="#B4B4B4"/>
</svg>
