<svg xmlns="http://www.w3.org/2000/svg" viewBox="0 0 298.2 95.74"><defs><style>.cls-1{fill:#d8d7d6;}.cls-1,.cls-3,.cls-6{fill-rule:evenodd;}.cls-2{fill:#626869;}.cls-3{fill:#fff;}.cls-4{fill:#bbbab9;}.cls-5,.cls-6{fill:#414949;}.cls-7{fill:#2b2929;}.cls-8{fill:#e9802f;}.cls-9{fill:#747477;}</style></defs><g id="Layer_2" data-name="Layer 2"><g id="Layer_1-2" data-name="Layer 1"><polyline class="cls-1" points="0.4 58.03 11.78 49.04 22.7 55.55 23.15 68.26 0.4 68.26"/><path class="cls-2" d="M23.6,68.66H0V57.83l11.73-9.29L23.1,55.35M.79,67.87h22l-.44-12.08L11.82,49.48l-11,8.75Z"/><polyline class="cls-3" points="11.82 49.58 22.7 55.55 23.15 67.87 12.02 67.87"/><polyline class="cls-3" points="60.22 0.5 63.2 68.36 86.5 68.31 85.85 38.3 77.8 5.51"/><polyline class="cls-3" points="20.17 68.26 32.94 11.38 60.22 0.5 77.65 5.37 86.75 44.07 82.72 64.64 63.69 68.41"/><polyline class="cls-1" points="20.17 68.26 32.94 11.38 60.22 0.5 63.4 30.65 63.69 68.41"/><polyline class="cls-4" points="60.81 7.2 74.38 12.77 60.91 9.49 47.6 15.2"/><polyline class="cls-4" points="61.11 10.73 74.72 16.25 61.21 13.02 47.89 18.73"/><polyline class="cls-5" points="40.44 35.13 35.62 31.6 36.22 30.75 41.04 34.33"/><polyline class="cls-5" points="43.08 34.18 42.48 33.34 47.3 29.81 47.89 30.6"/><path class="cls-6" d="M44.61,37.21a1.89,1.89,0,1,1-1.88,1.89,1.89,1.89,0,0,1,1.88-1.89"/><path class="cls-6" d="M36.72,37.16a1.89,1.89,0,1,1-1.89,1.89,1.89,1.89,0,0,1,1.89-1.89"/><path class="cls-5" d="M48,59.52l-.69-.75C51,55.5,52.42,51.47,52,45.56c-5,5.66-12.62,12-22,12.17v-1C39.5,56.54,47.2,49.73,52,44l.74-.9.15,1.2c1,8.79-2.13,12.77-4.87,15.2"/><path class="cls-2" d="M32.14,11,60.46,0h.15L78.1,4.82l.15,0,0,.15,10,32.34-1.54,31v.25H86.5l-66.63.35h-.3l.05-.3L32,11.28l.05-.1M60.51.94,33,11.73,20.62,68l65.88-.1L85.21,37.36l-7.61-32Z"/><path class="cls-7" d="M76.31,63.84a9.57,9.57,0,0,0,4.32-2.33,4.67,4.67,0,0,0,1.74-3.28,3.59,3.59,0,0,0-1.83-2.83,13.28,13.28,0,0,0-4.92-2m-.3-5.62a10.84,10.84,0,0,0,4.87-2.18c1.34-1.09,2-2.09,2-3a3.25,3.25,0,0,0-.59-1.69,7.36,7.36,0,0,0-1.54-1.74,7.15,7.15,0,0,0-2.44-1.44,10,10,0,0,0-3-.65Zm-12.07,21c0-2.83,0-6.06,0-9.69s.05-5.81.05-6.51c0-3,0-6.45-.05-10.23s-.1-7.85-.2-12.17l19.77-.8h.55a6.93,6.93,0,0,1,4.42,2.09l.5.4a42.31,42.31,0,0,1,5.21,5.21c1.29,1.54,1.89,2.69,1.89,3.43l-.2.85a4.53,4.53,0,0,1-.5.94l-4.91,7.2v.7a34,34,0,0,1,5,4.92c1.3,1.64,2,2.78,2,3.48A3,3,0,0,1,96.38,60a10.37,10.37,0,0,1-1.19,1.69l-3.58,4.12A8.29,8.29,0,0,1,88.39,68a18.48,18.48,0,0,1-5.92.69H63.25Zm35.92-.05c.15-4.17.24-7.5.29-9.94s.1-4.57.1-6.4c0-2.54,0-5.37-.19-8.6s-.35-8-.7-14.41h14.16c-.55,4.62-1,8.9-1.24,12.87s-.4,7.75-.4,11.33c0,2.43,0,4.87.2,7.4s.35,5.07.59,7.7c-1.09,0-2.13,0-3.13,0h-6.21c-1.09,0-2.28,0-3.47.1m51.07-20.27c0,.15-.05.45-.1.85-.25,3.42-.4,5.91-.4,7.45q0,2,.15,4.77c.1,1.84.3,4.27.55,7.25H132.16a11,11,0,0,1-4.87-1.09,24.06,24.06,0,0,1-5.37-3.83,30.64,30.64,0,0,1-5.66-6.66c-1.49-2.38-2.24-4.32-2.24-5.76,0-1.94.85-4.32,2.59-7.1a34.11,34.11,0,0,1,7-8,32.32,32.32,0,0,1,7.9-5.22,38.75,38.75,0,0,1,9.24-2.83l7,8.15a76.73,76.73,0,0,0-15.26,7.45c-3.87,2.53-5.81,4.62-5.81,6.11a5.16,5.16,0,0,0,1.59,2.83,15.57,15.57,0,0,0,4,3.08,11.38,11.38,0,0,0,2.94,1.2,13.94,13.94,0,0,0,3.32.39h.4c0-2.18-.05-4.37-.1-6.56s-.15-4.42-.25-6.6c1.94.54,3.83,1.19,5.77,1.88s3.87,1.35,5.86,2.19"/><path class="cls-8" d="M166.64,51.87a19.94,19.94,0,0,0,6.4-3.73c1.64-1.49,2.49-2.93,2.49-4.22s-.9-2.34-2.68-3.38a19.25,19.25,0,0,0-7.06-2.14M155.06,68.71c.05-2.63.1-5.07.15-7.25s0-4.13,0-5.77c0-3.27-.15-6.95-.4-11.08s-.69-9.14-1.29-15l19.82-.15h.4a17.13,17.13,0,0,1,5.17.65A11.88,11.88,0,0,1,183,32.39a28.82,28.82,0,0,1,5.17,5.37c1.34,1.89,2,3.38,2,4.57a8.21,8.21,0,0,1-2.13,5A47,47,0,0,1,180.94,54a38.08,38.08,0,0,0,3.38,6.8,52.65,52.65,0,0,0,5,6.81l-10.78,1.64a55.78,55.78,0,0,1-5.37-6.06A54.31,54.31,0,0,1,169,56.64l-2.14-.15-.29,12.32Zm57.33-11.28a8.43,8.43,0,0,0,6.61-3,10.11,10.11,0,0,0,2.63-7.05,6.79,6.79,0,0,0-.59-2.93,8.16,8.16,0,0,0-1.94-2.54,12.4,12.4,0,0,0-3.53-2.18,8.91,8.91,0,0,0-3.57-.9,9.91,9.91,0,0,0-3.68.85,11,11,0,0,0-3.38,2.13,7.33,7.33,0,0,0-1.74,2.78,11.36,11.36,0,0,0-.59,3.78,8.3,8.3,0,0,0,2.93,6.41,9.87,9.87,0,0,0,6.85,2.63m-.59,11.33q-9.24,0-14.46-5.36t-5.22-14.91c0-6,1.74-10.68,5.12-14.06s8.2-5,14.31-5q9.84,0,15,5.07c3.43,3.38,5.17,8.3,5.17,14.76,0,6.16-1.74,10.93-5.27,14.35s-8.39,5.17-14.7,5.17m47.05-30.31q-6.42,2.17-9.39,4.62a7.2,7.2,0,0,0-3,5.62,7.71,7.71,0,0,0,2.93,6c2,1.74,5,3.18,8.94,4.42l-4.72,10.19c-6.81-2-12-4.77-15.75-8.25s-5.56-7.3-5.56-11.53a17,17,0,0,1,5.16-12c3.43-3.58,8.5-6.51,15.06-8.89Zm2.43,30.31c.1-3.92.2-7.3.25-10.13s.1-5.12.1-6.91q0-3.87-.15-9.24c-.1-3.58-.2-7.65-.4-12.17l12.42-.65c.05,1.94.15,4.57.25,7.9s.15,5.71.2,7.1l1.44.05c1.29-2.53,2.48-5.06,3.63-7.65s2.13-5.26,3.08-8l13.41,3.13c-1.69,2.54-3.38,5.17-5,7.95s-3.23,5.72-4.82,8.85l-.09.59c1.73,2.29,3.62,4.77,5.76,7.51s4.37,5.51,6.81,8.44L284.68,69c-1.34-2.19-2.83-4.42-4.37-6.76s-3.33-5-5.37-7.85h-1.19c0,.8-.05,1.69-.05,2.69v4.42c0,1.14,0,2.33.05,3.57s.05,2.49.1,3.78Z"/><path class="cls-9" d="M19.62,93.06V79.34h4.72a10.3,10.3,0,0,1,2.44.2,4.94,4.94,0,0,1,2,1,5.73,5.73,0,0,1,1.64,2.33A9.63,9.63,0,0,1,31,86.15a9.39,9.39,0,0,1-.35,2.78,5.94,5.94,0,0,1-.94,2,4.85,4.85,0,0,1-1.24,1.24,5,5,0,0,1-1.64.7,9.77,9.77,0,0,1-2.19.25m-3.18-1.69h2.93a7.82,7.82,0,0,0,2.14-.25,3,3,0,0,0,1.24-.7,4.2,4.2,0,0,0,1-1.74,8.48,8.48,0,0,0,.34-2.63,6.77,6.77,0,0,0-.69-3.33,3.26,3.26,0,0,0-1.74-1.54,6.78,6.78,0,0,0-2.34-.3H21.46Z"/><path class="cls-9" d="M32.64,88.09A5,5,0,0,1,34.18,84a4.58,4.58,0,0,1,3.13-1.09,4.43,4.43,0,0,1,3.33,1.34A5.26,5.26,0,0,1,41.93,88a6.55,6.55,0,0,1-.59,3,4.05,4.05,0,0,1-1.69,1.69,5,5,0,0,1-2.39.59A4.44,4.44,0,0,1,33.88,92a5.85,5.85,0,0,1-1.24-3.87m1.74,0A4.38,4.38,0,0,0,35.22,91a2.79,2.79,0,0,0,4.18,0A4.43,4.43,0,0,0,40.24,88a4.16,4.16,0,0,0-.84-2.78,2.77,2.77,0,0,0-4.18,0,3.88,3.88,0,0,0-.84,2.83"/><path class="cls-9" d="M43.92,93.06V83.12h1.49v1.39a3.62,3.62,0,0,1,1.24-1.19,3.4,3.4,0,0,1,1.79-.45,3.46,3.46,0,0,1,1.84.45,2.58,2.58,0,0,1,1,1.29,3.61,3.61,0,0,1,3.08-1.74,2.89,2.89,0,0,1,2.29.85,3.46,3.46,0,0,1,.79,2.53v6.81H55.74V86.8a4.87,4.87,0,0,0-.15-1.45L55,84.66a1.74,1.74,0,0,0-1-.25,2.37,2.37,0,0,0-1.74.7,3,3,0,0,0-.7,2.23v5.77H49.88V86.65a3.1,3.1,0,0,0-.4-1.69,1.52,1.52,0,0,0-1.34-.55,2.47,2.47,0,0,0-1.29.4A2.16,2.16,0,0,0,46,85.9,5.94,5.94,0,0,0,45.71,88v5.16"/><path class="cls-9" d="M66.38,91.81A7.79,7.79,0,0,1,64.59,93a6,6,0,0,1-1.84.34,3.58,3.58,0,0,1-2.53-.79,2.6,2.6,0,0,1-.9-2,2.47,2.47,0,0,1,.35-1.34,2.27,2.27,0,0,1,.84-.94,3.3,3.3,0,0,1,1.2-.55,14.5,14.5,0,0,1,1.49-.25,14.1,14.1,0,0,0,3-.59v-.45a1.68,1.68,0,0,0-.5-1.44,2.81,2.81,0,0,0-1.94-.55,3.1,3.1,0,0,0-1.74.4,2.55,2.55,0,0,0-.84,1.49L59.57,86a3.94,3.94,0,0,1,.74-1.69,3.29,3.29,0,0,1,1.5-1,7.35,7.35,0,0,1,4.32,0,2.86,2.86,0,0,1,1.19.74,2.74,2.74,0,0,1,.55,1.15A9.49,9.49,0,0,1,68,86.7v2.23c0,1.54,0,2.54.1,3a2.79,2.79,0,0,0,.44,1.2H66.77a3.91,3.91,0,0,1-.39-1.3M66.28,88a14,14,0,0,1-2.74.64,5.51,5.51,0,0,0-1.49.35l-.64.55-.25.79a1.45,1.45,0,0,0,.5,1.15,2.25,2.25,0,0,0,1.49.44,3.46,3.46,0,0,0,1.74-.44A2.72,2.72,0,0,0,66,90.37a3.85,3.85,0,0,0,.25-1.69V88Z"/><path class="cls-9" d="M70.6,79.29h1.69v1.94H70.6Zm0,3.83h1.69v9.94H70.6Z"/><path class="cls-9" d="M74.82,93.06V83.12h1.54v1.39a3.62,3.62,0,0,1,3.18-1.64,3.58,3.58,0,0,1,1.64.35,2.54,2.54,0,0,1,1.14.84,3.18,3.18,0,0,1,.55,1.25,10.48,10.48,0,0,1,.1,1.63v6.12H81.28V87a4.11,4.11,0,0,0-.2-1.54,1.6,1.6,0,0,0-.69-.79,2.38,2.38,0,0,0-1.2-.3,2.69,2.69,0,0,0-1.83.7,3.25,3.25,0,0,0-.8,2.58v5.42"/><path class="cls-9" d="M84.81,90.07l1.69-.24a2.37,2.37,0,0,0,.79,1.54,2.91,2.91,0,0,0,1.79.54,2.55,2.55,0,0,0,1.74-.49,1.32,1.32,0,0,0,.55-1.1,1,1,0,0,0-.5-.89,8,8,0,0,0-1.74-.6A18.76,18.76,0,0,1,86.55,88a2.59,2.59,0,0,1-1.1-1,2.5,2.5,0,0,1-.34-1.34,2.82,2.82,0,0,1,.29-1.24,2.49,2.49,0,0,1,.85-.94,3.71,3.71,0,0,1,1.09-.5,4.6,4.6,0,0,1,1.44-.2,5.13,5.13,0,0,1,2,.35,2.93,2.93,0,0,1,1.29.89,3.73,3.73,0,0,1,.6,1.54l-1.64.2a1.77,1.77,0,0,0-.65-1.19,2.27,2.27,0,0,0-1.54-.45,2.63,2.63,0,0,0-1.64.4,1,1,0,0,0-.49.89l.19.6.65.45,1.49.44a16.64,16.64,0,0,1,2.49.8,2.52,2.52,0,0,1,1.09.89,2.72,2.72,0,0,1,.4,1.44,2.7,2.7,0,0,1-.5,1.59,3.08,3.08,0,0,1-1.44,1.15,5.56,5.56,0,0,1-2.09.39,4.47,4.47,0,0,1-2.93-.79,4,4,0,0,1-1.29-2.39"/><path class="cls-9" d="M95.54,93.06V91.12h1.94v1.94a3.21,3.21,0,0,1-.4,1.68,2.43,2.43,0,0,1-1.19,1L95.44,95a1.8,1.8,0,0,0,.8-.69A4.11,4.11,0,0,0,96.53,93"/><path class="cls-9" d="M108.36,93.06l-3.63-13.72h1.84l2.09,9c.24.94.39,1.88.59,2.83.35-1.49.55-2.34.6-2.54l2.63-9.29h2.19l2,7a32.94,32.94,0,0,1,1,4.87c.15-.85.4-1.84.69-3l2.14-8.85h1.84l-3.78,13.72h-1.74L114,82.57c-.25-.89-.4-1.39-.45-1.59-.14.65-.29,1.15-.39,1.59L110.2,93.06"/><path class="cls-9" d="M130.32,89.83l1.74.19a4.4,4.4,0,0,1-1.54,2.39,4.67,4.67,0,0,1-2.84.84,4.56,4.56,0,0,1-3.47-1.34,5.22,5.22,0,0,1-1.3-3.77,5.44,5.44,0,0,1,1.3-3.88,4.73,4.73,0,0,1,6.65-.05A5.38,5.38,0,0,1,132.11,88v.44H124.7a3.66,3.66,0,0,0,1,2.54,2.67,2.67,0,0,0,2.08.84,2.55,2.55,0,0,0,1.59-.49,3.1,3.1,0,0,0,1-1.54m-5.57-2.74h5.57a3.23,3.23,0,0,0-.65-1.88,2.62,2.62,0,0,0-2.09-1,2.45,2.45,0,0,0-1.93.8,3.07,3.07,0,0,0-.9,2.08"/><path class="cls-9" d="M135.73,93.06h-1.54V79.34h1.69v4.92a3.36,3.36,0,0,1,2.73-1.34,4.14,4.14,0,0,1,1.74.35,3.4,3.4,0,0,1,1.34,1,5.5,5.5,0,0,1,.85,1.59,6.71,6.71,0,0,1,.3,2,6,6,0,0,1-1.24,4,3.88,3.88,0,0,1-3,1.39,3.26,3.26,0,0,1-2.78-1.44m-.1-3.87a4.91,4.91,0,0,0,.5,2.58,2.46,2.46,0,0,0,2.14,1.29,2.39,2.39,0,0,0,1.88-.94,5.58,5.58,0,0,0,0-5.76,2.26,2.26,0,0,0-1.88-1,2.42,2.42,0,0,0-1.89,1,5.14,5.14,0,0,0-.75,2.83"/><path class="cls-9" d="M144.13,90.07l1.69-.24a2.37,2.37,0,0,0,.79,1.54,2.91,2.91,0,0,0,1.79.54,2.55,2.55,0,0,0,1.74-.49,1.47,1.47,0,0,0,.55-1.1,1,1,0,0,0-.5-.89,7.8,7.8,0,0,0-1.74-.6,18.76,18.76,0,0,1-2.58-.79,2.5,2.5,0,0,1-1.09-1,2.42,2.42,0,0,1-.35-1.34,2.7,2.7,0,0,1,.3-1.24,2.39,2.39,0,0,1,.84-.94,3.83,3.83,0,0,1,1.09-.5,4.6,4.6,0,0,1,1.44-.2,5,5,0,0,1,2,.35,2.93,2.93,0,0,1,1.29.89,3.37,3.37,0,0,1,.6,1.54l-1.64.2a2,2,0,0,0-.65-1.19,2.25,2.25,0,0,0-1.54-.45,2.63,2.63,0,0,0-1.64.4,1.07,1.07,0,0,0-.49.89l.2.6.64.45,1.49.44a16.64,16.64,0,0,1,2.49.8,2.26,2.26,0,0,1,1.09.89,2.72,2.72,0,0,1,.4,1.44,2.7,2.7,0,0,1-.5,1.59,3.08,3.08,0,0,1-1.44,1.15,5.75,5.75,0,0,1-2.09.39,4.47,4.47,0,0,1-2.93-.79,4,4,0,0,1-1.29-2.39"/><path class="cls-9" d="M154.41,79.29h1.69v1.94h-1.69Zm0,3.83h1.69v9.94h-1.69Z"/><path class="cls-9" d="M162.36,91.52l.25,1.49a6.32,6.32,0,0,1-1.29.14,3,3,0,0,1-1.44-.29,1.44,1.44,0,0,1-.7-.75,5.73,5.73,0,0,1-.2-2V84.41h-1.24V83.12H159V80.63l1.69-1v3.48h1.69v1.29h-1.69v5.81a3.29,3.29,0,0,0,.1,1l.3.35.6.09.69-.09"/><path class="cls-9" d="M170.81,89.83l1.74.19a4.17,4.17,0,0,1-4.37,3.23,4.64,4.64,0,0,1-3.48-1.34,5.22,5.22,0,0,1-1.29-3.77,5.44,5.44,0,0,1,1.29-3.88,4.68,4.68,0,0,1,6.61-.05A5.42,5.42,0,0,1,172.55,88v.44h-7.4a3.61,3.61,0,0,0,.94,2.54,2.69,2.69,0,0,0,2.09.84,2.59,2.59,0,0,0,1.59-.49,2.9,2.9,0,0,0,1-1.54m-5.52-2.74h5.57a3.23,3.23,0,0,0-.65-1.88,2.61,2.61,0,0,0-2.08-1,2.47,2.47,0,0,0-1.94.8,3.07,3.07,0,0,0-.9,2.08"/><path class="cls-9" d="M174,90.07l1.69-.24a2.37,2.37,0,0,0,.79,1.54,2.91,2.91,0,0,0,1.79.54,2.55,2.55,0,0,0,1.74-.49,1.32,1.32,0,0,0,.55-1.1,1,1,0,0,0-.5-.89,8,8,0,0,0-1.74-.6,18.76,18.76,0,0,1-2.58-.79,2.59,2.59,0,0,1-1.1-1,2.5,2.5,0,0,1-.34-1.34,2.82,2.82,0,0,1,.29-1.24,2.49,2.49,0,0,1,.85-.94,3.83,3.83,0,0,1,1.09-.5,4.6,4.6,0,0,1,1.44-.2,5.13,5.13,0,0,1,2,.35,2.93,2.93,0,0,1,1.29.89,3.37,3.37,0,0,1,.6,1.54l-1.64.2a2,2,0,0,0-.65-1.19,2.27,2.27,0,0,0-1.54-.45,2.63,2.63,0,0,0-1.64.4,1.07,1.07,0,0,0-.49.89l.19.6.65.45,1.49.44a16.64,16.64,0,0,1,2.49.8,2.26,2.26,0,0,1,1.09.89,2.72,2.72,0,0,1,.4,1.44,2.7,2.7,0,0,1-.5,1.59,3.08,3.08,0,0,1-1.44,1.15,5.56,5.56,0,0,1-2.09.39,4.47,4.47,0,0,1-2.93-.79A4,4,0,0,1,174,90.07"/><path class="cls-9" d="M196.05,91.81A7.59,7.59,0,0,1,194.26,93a6,6,0,0,1-1.84.34,3.58,3.58,0,0,1-2.53-.79,2.6,2.6,0,0,1-.9-2,2.47,2.47,0,0,1,.35-1.34,2.38,2.38,0,0,1,.89-.94,3.3,3.3,0,0,1,1.2-.55,14.5,14.5,0,0,1,1.49-.25,14.1,14.1,0,0,0,3-.59v-.45a1.68,1.68,0,0,0-.5-1.44,2.81,2.81,0,0,0-1.94-.55,3.1,3.1,0,0,0-1.74.4,2.55,2.55,0,0,0-.84,1.49L189.29,86a3.83,3.83,0,0,1,.75-1.69,3.21,3.21,0,0,1,1.49-1,7.35,7.35,0,0,1,4.32,0A2.8,2.8,0,0,1,197,84a2.74,2.74,0,0,1,.55,1.15,9.49,9.49,0,0,1,.1,1.54v2.23c0,1.54.05,2.54.1,3a3.08,3.08,0,0,0,.44,1.2h-1.74a4.25,4.25,0,0,1-.44-1.3M196,88a14,14,0,0,1-2.73.64,5.31,5.31,0,0,0-1.49.35l-.65.55-.25.79a1.45,1.45,0,0,0,.5,1.15,2.26,2.26,0,0,0,1.49.44,3.46,3.46,0,0,0,1.74-.44,2.72,2.72,0,0,0,1.09-1.15,3.85,3.85,0,0,0,.25-1.69V88Z"/><path class="cls-9" d="M200.27,93.06V83.12h1.54v1.39A3.62,3.62,0,0,1,205,82.87a3.58,3.58,0,0,1,1.64.35,2.6,2.6,0,0,1,1.14.84,3.18,3.18,0,0,1,.55,1.25,10.48,10.48,0,0,1,.1,1.63v6.12h-1.69V87a4.11,4.11,0,0,0-.2-1.54,1.6,1.6,0,0,0-.69-.79,2.38,2.38,0,0,0-1.2-.3,2.65,2.65,0,0,0-1.84.7,3.29,3.29,0,0,0-.79,2.58v5.42"/><path class="cls-9" d="M217.36,93.06V91.81a3.06,3.06,0,0,1-2.78,1.49,3.75,3.75,0,0,1-2.19-.64,4.44,4.44,0,0,1-1.54-1.84,7.26,7.26,0,0,1,0-5.37,4,4,0,0,1,1.49-1.83,3.81,3.81,0,0,1,2.24-.65,3.26,3.26,0,0,1,1.59.4,3.63,3.63,0,0,1,1.14,1V79.44H219V93.15m-6.9-5.06a4.09,4.09,0,0,0,.79,2.83,2.4,2.4,0,0,0,1.89.94,2.45,2.45,0,0,0,1.89-.89,4.37,4.37,0,0,0,.79-2.78,4.58,4.58,0,0,0-.79-3,2.45,2.45,0,0,0-1.94-.95,2.28,2.28,0,0,0-1.89.95,4.42,4.42,0,0,0-.74,2.88"/><path class="cls-9" d="M226.9,93.06V83.12h1.49v1.39a3.62,3.62,0,0,1,1.24-1.19,3.42,3.42,0,0,1,1.79-.45,3.46,3.46,0,0,1,1.84.45,2.58,2.58,0,0,1,1,1.29,3.61,3.61,0,0,1,3.08-1.74,2.89,2.89,0,0,1,2.29.85,3.42,3.42,0,0,1,.79,2.53v6.81h-1.69V86.8a5,5,0,0,0-.14-1.45l-.6-.69a1.74,1.74,0,0,0-1-.25,2.37,2.37,0,0,0-1.74.7,3,3,0,0,0-.7,2.23v5.77h-1.74V86.65a3.19,3.19,0,0,0-.39-1.69,1.49,1.49,0,0,0-1.35-.55,2.64,2.64,0,0,0-1.34.4,2.16,2.16,0,0,0-.89,1.09,5.94,5.94,0,0,0-.25,2.09v5.16"/><path class="cls-9" d="M242.25,88.09A5,5,0,0,1,243.79,84a5,5,0,0,1,6.51.25A5.22,5.22,0,0,1,251.59,88a6.55,6.55,0,0,1-.59,3,4.05,4.05,0,0,1-1.69,1.69,5,5,0,0,1-2.39.59A4.44,4.44,0,0,1,243.54,92a5.61,5.61,0,0,1-1.29-3.87m1.74,0a4.32,4.32,0,0,0,.85,2.88A2.78,2.78,0,0,0,249,91a4.38,4.38,0,0,0,.84-2.93,4.1,4.1,0,0,0-.84-2.78,2.76,2.76,0,0,0-4.17,0,3.84,3.84,0,0,0-.85,2.83"/><path class="cls-9" d="M253.53,93.06V83.12h1.54v1.49a4.6,4.6,0,0,1,1-1.39,1.8,1.8,0,0,1,1.1-.35,3.56,3.56,0,0,1,1.74.55l-.6,1.54a2.37,2.37,0,0,0-1.24-.35,1.53,1.53,0,0,0-1,.35,1.93,1.93,0,0,0-.64.94,6.16,6.16,0,0,0-.3,2v5.22"/><path class="cls-9" d="M266.75,89.83l1.73.19a4.3,4.3,0,0,1-1.54,2.39,5.19,5.19,0,0,1-6.31-.5,5.26,5.26,0,0,1-1.29-3.77,5.48,5.48,0,0,1,1.29-3.88,4.68,4.68,0,0,1,6.61-.05A5.37,5.37,0,0,1,268.48,88v.44h-7.35a3.66,3.66,0,0,0,.95,2.54,2.67,2.67,0,0,0,2.08.84,2.55,2.55,0,0,0,1.59-.49,3.1,3.1,0,0,0,1-1.54m-5.57-2.74h5.57a3.23,3.23,0,0,0-.65-1.88,2.63,2.63,0,0,0-2.09-1,2.45,2.45,0,0,0-1.93.8,3.31,3.31,0,0,0-.9,2.08"/><rect class="cls-9" x="271.07" y="91.12" width="1.94" height="1.94"/><rect class="cls-9" x="276.38" y="91.12" width="1.94" height="1.94"/><rect class="cls-9" x="281.75" y="91.12" width="1.94" height="1.94"/></g></g></svg>