<svg xmlns="http://www.w3.org/2000/svg" viewBox="0 0 350.46 58.51"><defs><style>.cls-1{fill:#3776b9;}</style></defs><g id="Layer_2" data-name="Layer 2"><g id="Layer_1-2" data-name="Layer 1"><polygon id="Rectangle-path" class="cls-1" points="0 0 16.22 0 16.22 16.22 0 16.22 0 0"/><polygon id="Rectangle-path-2" data-name="Rectangle-path" class="cls-1" points="20.73 0 36.95 0 36.95 16.22 20.73 16.22 20.73 0"/><polygon id="Rectangle-path-3" data-name="Rectangle-path" class="cls-1" points="41.47 0 57.69 0 57.69 16.22 41.47 16.22 41.47 0"/><polygon id="Rectangle-path-4" data-name="Rectangle-path" class="cls-1" points="0 21 16.22 21 16.22 37.48 0 37.48 0 21"/><polygon id="Rectangle-path-5" data-name="Rectangle-path" class="cls-1" points="20.73 21 36.95 21 36.95 37.48 20.73 37.48 20.73 21"/><polygon id="Rectangle-path-6" data-name="Rectangle-path" class="cls-1" points="41.47 21 57.69 21 57.69 37.48 41.47 37.48 41.47 21"/><polygon id="Rectangle-path-7" data-name="Rectangle-path" class="cls-1" points="0 42.27 16.22 42.27 16.22 58.48 0 58.48 0 42.27"/><polygon id="Rectangle-path-8" data-name="Rectangle-path" class="cls-1" points="20.73 42.27 36.95 42.27 36.95 58.48 20.73 58.48 20.73 42.27"/><polygon id="Rectangle-path-9" data-name="Rectangle-path" class="cls-1" points="41.47 42.27 57.69 42.27 57.69 58.48 41.47 58.48 41.47 42.27"/><path class="cls-1" d="M100.85,20.2c8.24,0,16,5.59,16,18.88,0,13.82-8.78,19.14-18.35,19.14A27.37,27.37,0,0,1,84.63,54.5V.27h4V25A18.23,18.23,0,0,1,100.85,20.2ZM98.19,54.76c7.44,0,14.35-4.52,14.35-15.42,0-9.83-5.31-15.42-12.22-15.42a15.69,15.69,0,0,0-11.7,5.85v22.6A23.06,23.06,0,0,0,98.19,54.76ZM124,0h4V57.69h-4Zm38.55,46.52V21h4V58h-4V50.77c-3.19,4.52-8.24,7.71-13.82,7.71-5.85,0-11.43-3.19-11.43-14.62V21h4V43.33c0,8.77,4.26,11.17,8.51,11.17C154.81,54.5,159.33,51.57,162.52,46.52Zm30-26.05c9.84.26,16.48,8.24,15.42,19.94H178.47c0,6.91,4.79,14.09,14.36,14.35a20.36,20.36,0,0,0,11.43-2.92l1.33,3.45a23.6,23.6,0,0,1-13,3.19C180.33,58.22,174,48.38,174.22,38,174.75,26.32,183.52,19.94,192.56,20.47ZM178.47,37H204a12.06,12.06,0,0,0-12-12.76C184.85,23.66,179,29.24,178.47,37ZM234.56,20.2c7.44,0,11.7,5.59,11.7,13.83V57.69h-4V34.82c0-8-4-10.9-8.51-10.9-5.31,0-10.1,4.26-12.49,8.25V57.42h-4V.27h4V28.18C224.19,23.39,229,20.2,234.56,20.2Zm36.15,0c9.57,0,17.81,6.91,17.81,18.88,0,12.23-8.24,19.14-17.81,19.14-10.63,0-17.81-8.51-17.81-19.14C252.9,28.18,260.88,20.2,270.71,20.2Zm0,34.3c8.51,0,13.56-7.18,13.56-15.16,0-8.24-5-15.15-13.56-15.15-8.77,0-13.55,6.91-13.55,15.15C257.16,47.32,261.94,54.5,270.71,54.5ZM309.26,38c8.77,3.46,10.63,7.45,10.63,10.9,0,5.85-5.31,9.57-12.49,9.57A21.37,21.37,0,0,1,295.7,55l1.86-3.46a16.7,16.7,0,0,0,9.84,3.19c3.72,0,8.51-1.59,8.51-5.58,0-3.19-3.46-5.85-9-8-6.12-2.39-11.7-4.78-11.7-10.63s5.58-9.84,12.76-9.84A21.19,21.19,0,0,1,318,23.39l-1.59,3.19a17.56,17.56,0,0,0-8.51-2.12c-6.11,0-8.77,2.92-8.77,6.11C299.16,34,303.68,35.62,309.26,38ZM349.4,52.9l1.06,3.72a26.58,26.58,0,0,1-8.24,1.6c-6.64,0-12-4-12-13.56V24.19h-6.65V20.73h6.65V8.24h4V20.73h12.23v3.46H334.25v20.2c0,5.85,2.39,9.84,8,10.11A15.89,15.89,0,0,0,349.4,52.9Z"/></g></g></svg>