<svg xmlns="http://www.w3.org/2000/svg" viewBox="0 0 354.78 107.4"><defs><style>.cls-1{fill:#a81b8d;}.cls-2{fill:#d48cc7;}.cls-3{fill:#612166;}.cls-4{fill:#525254;}</style></defs><g id="Layer_2" data-name="Layer 2"><g id="Layer_1-2" data-name="Layer 1"><polygon class="cls-1" points="38.23 20.66 44.63 13.77 33.49 8.98 28.85 20.16 38.23 20.66 38.23 20.66"/><polygon class="cls-1" points="62.55 20.66 56.17 13.77 67.29 8.98 71.93 20.16 62.55 20.66 62.55 20.66"/><polygon class="cls-1" points="62.55 80.12 56.17 87.01 67.29 91.79 71.93 80.61 62.55 80.12 62.55 80.12"/><polygon class="cls-1" points="38.23 80.12 44.63 87.01 33.49 91.79 28.85 80.61 38.23 80.12 38.23 80.12"/><polygon class="cls-1" points="20.66 62.53 13.77 56.15 8.99 67.28 20.17 71.92 20.66 62.53 20.66 62.53"/><polygon class="cls-1" points="20.66 38.23 13.77 44.62 8.99 33.49 20.17 28.85 20.66 38.23 20.66 38.23"/><polygon class="cls-2" points="50.4 25.46 57.15 22.3 50.4 15.46 43.64 22.3 50.4 25.46 50.4 25.46"/><polygon class="cls-2" points="50.39 75.3 43.63 78.45 50.39 85.31 57.14 78.45 50.39 75.3 50.39 75.3"/><polygon class="cls-2" points="25.47 50.38 22.3 43.62 15.46 50.38 22.3 57.13 25.47 50.38 25.47 50.38"/><polygon class="cls-2" points="32.78 32.76 35.31 25.75 25.7 25.69 25.75 35.3 32.78 32.76 32.78 32.76"/><polygon class="cls-2" points="68.01 68.01 65.47 75.03 75.08 75.08 75.03 65.47 68.01 68.01 68.01 68.01"/><polygon class="cls-2" points="32.77 68.01 25.75 65.45 25.7 75.07 35.31 75.01 32.77 68.01 32.77 68.01"/><polygon class="cls-2" points="68.01 32.77 75.03 35.31 75.09 25.7 75.08 25.7 65.47 25.75 68.01 32.77 68.01 32.77"/><polygon class="cls-3" points="50.4 0 41.6 4.11 50.4 13.01 59.17 4.11 50.4 0 50.4 0"/><polygon class="cls-3" points="41.6 96.65 50.39 100.77 59.17 96.65 50.39 87.75 41.6 96.65 41.6 96.65"/><polygon class="cls-3" points="0 50.38 4.12 59.16 13.02 50.38 4.12 41.59 0 50.38 0 50.38"/><polygon class="cls-3" points="14.76 14.75 11.46 23.88 23.97 23.96 23.89 11.45 14.76 14.75 14.76 14.75"/><polygon class="cls-3" points="86.01 86.01 89.32 76.9 76.82 76.82 76.9 89.31 86.01 86.01 86.01 86.01"/><polygon class="cls-3" points="14.76 86.01 23.88 89.31 23.96 76.8 11.46 76.88 14.76 86.01 14.76 86.01"/><polygon class="cls-3" points="86.02 14.76 76.9 11.46 76.82 23.96 89.32 23.88 86.02 14.76 86.02 14.76"/><path class="cls-4" d="M120.7,59.23a14.15,14.15,0,0,1-8.42,3c-5.87,0-9.52-4.46-9.52-11.66s3.56-11.72,9.52-11.72a12.61,12.61,0,0,1,7.91,2.91l.69.52.81-5.48-.27-.19a15.48,15.48,0,0,0-9.1-2.65c-8.93,0-14.94,6.69-14.94,16.65s6,16.56,14.85,16.56a16.88,16.88,0,0,0,9.7-3.11l.25-.18-.81-5.14-.67.49Z"/><path class="cls-4" d="M137.15,52.53l4.21-11.13,4.25,11.13ZM139,34.41,126.44,66.59h5.38l3.5-9.31h12.11L151.12,67,156,65.26,143.91,34.41Z"/><path class="cls-4" d="M203.42,41.4l4.25,11.13h-8.45l4.2-11.13Zm6.07,15.88,3.7,9.76L218,65.26,206,34.41h-4.92L188.51,66.59h5.37l3.51-9.31Z"/><path class="cls-4" d="M167.6,39.3h3.53c2.62,0,5.74.83,5.74,4.8,0,3.07-2.25,4.84-6.18,4.84H167.6V39.3Zm0,14.2H170l9.33,13.19.25.31,4.9-1.78-8.85-12.48a8.83,8.83,0,0,0,6.47-8.87c0-5.84-4-9.32-10.81-9.32h-9v32h5.25V53.5Z"/><path class="cls-4" d="M281.26,52.53l4.21-11.13,4.25,11.13Zm1.59-18.12L270.32,66.59h5.37l3.51-9.31h12.1L295,67l4.86-1.76L287.77,34.41Z"/><polygon class="cls-4" points="330.06 34.55 325.12 34.55 325.12 56.69 309.45 34.55 304.89 34.55 304.89 66.59 309.83 66.59 309.83 43.54 326.09 66.59 330.06 66.59 330.06 34.55 330.06 34.55"/><polygon class="cls-4" points="240.91 34.55 217.14 34.55 217.14 39.44 227.03 39.44 227.03 66.59 232.32 66.59 232.32 39.44 242.69 39.44 240.91 34.55 240.91 34.55"/><polygon class="cls-4" points="264.45 61.7 254.25 61.7 254.25 34.55 249 34.55 249 66.59 266.23 66.59 264.45 61.7 264.45 61.7"/><polygon class="cls-4" points="341.84 61.7 341.84 52.29 352.38 52.29 350.59 47.4 341.84 47.4 341.84 39.44 354.33 39.44 354.33 34.55 336.59 34.55 336.59 66.59 354.78 66.59 354.78 61.7 341.84 61.7 341.84 61.7"/><path class="cls-4" d="M101.45,91.58l2.21-6c.28-.78.63-2.14.63-2.14h0s.35,1.36.63,2.14l2.16,6Zm2-9.83-6,16.49H99.1L101,93h6.64l1.9,5.25h1.71l-6-16.49Z"/><path class="cls-4" d="M223.89,90.31H220V83.2h3.89a3.31,3.31,0,0,1,3.62,3.52,3.35,3.35,0,0,1-3.64,3.59Zm.21-8.56h-5.7V98.24H220V91.77h4.08a4.82,4.82,0,0,0,5.09-5,4.77,4.77,0,0,0-5.09-5Z"/><path class="cls-4" d="M240.53,92.77c0,2-1.36,4.39-3.61,4.39a2.35,2.35,0,0,1-2.63-2.23c0-2.6,3.7-2.67,5.56-2.67h.68v.51Zm-2.81-6.61a6.78,6.78,0,0,0-4.2,1.34l.75,1.22a5.72,5.72,0,0,1,3.33-1.13c1.69,0,2.93.78,2.93,3V91h-.66c-2,0-7.22.09-7.22,4.08,0,2.34,2,3.49,4,3.49A4.25,4.25,0,0,0,240.6,96h.05a8.52,8.52,0,0,0-.05,1v1.29h1.53V90.69c0-3-1.58-4.53-4.41-4.53Z"/><path class="cls-4" d="M249,89.47H249a8.87,8.87,0,0,0,.05-.94V86.44h-1.58v11.8h1.6v-5a7.62,7.62,0,0,1,.33-2.3c.52-1.74,1.76-3,3.42-3a4.71,4.71,0,0,1,.59,0V86.39a3.26,3.26,0,0,0-.63-.07A4,4,0,0,0,249,89.47Z"/><path class="cls-4" d="M259.49,93.79V87.92h3V86.58h-3v-3.4h-1.57v3.4h-1.57v1.34h1.55v6c0,3.94,2.74,4.39,4.1,4.39a4,4,0,0,0,.68,0V96.86a3.18,3.18,0,0,1-.54,0c-.89,0-2.65-.35-2.65-3.11Z"/><path class="cls-4" d="M273.24,86.16a5,5,0,0,0-4.71,3h0a8.87,8.87,0,0,0,0-.94V86.44H267v11.8h1.59V92.59a5.9,5.9,0,0,1,.19-1.6A4.5,4.5,0,0,1,273,87.66c2.28,0,2.56,1.64,2.56,3.49v7.09h1.6V90.73c0-2.91-1-4.57-3.95-4.57Z"/><path class="cls-4" d="M283.41,91.11a4,4,0,0,1,4.06-3.61c1.75,0,3.26,1.15,3.35,3.61Zm4.1-5c-3.19,0-5.81,2.32-5.81,6.19a6,6,0,0,0,6.16,6.17,6.8,6.8,0,0,0,4.37-1.64l-.73-1.22a5.48,5.48,0,0,1-3.59,1.43,4.44,4.44,0,0,1-4.57-4.66h9.05s.05-.55.05-.83c0-2.93-1.67-5.44-4.93-5.44Z"/><path class="cls-4" d="M298.71,89.47h0a8.87,8.87,0,0,0,0-.94V86.44h-1.57v11.8h1.59v-5a7.62,7.62,0,0,1,.33-2.3c.52-1.74,1.76-3,3.43-3a4.65,4.65,0,0,1,.58,0V86.39a3.13,3.13,0,0,0-.63-.07,4,4,0,0,0-3.73,3.15Z"/><path class="cls-4" d="M308.21,89.42c0-1.32,1.15-1.83,2.34-1.83a4.19,4.19,0,0,1,3,1.08l.73-1.22a5,5,0,0,0-3.64-1.29c-2.13,0-4,1.15-4,3.26,0,3.85,6.36,3.22,6.36,5.79,0,1.25-1.11,1.88-2.38,1.88A5,5,0,0,1,307,95.66l-.87,1.15a6,6,0,0,0,4.36,1.71c2.37,0,4-1.38,4-3.31,0-3.89-6.36-3.18-6.36-5.79Z"/><path class="cls-4" d="M325.46,86.16a5,5,0,0,0-4.69,2.93h0a9,9,0,0,0,0-1V81.75h-1.6V98.24h1.6V92.59A5.55,5.55,0,0,1,321,91a4.49,4.49,0,0,1,4.3-3.36c2.27,0,2.55,1.64,2.55,3.49v7.09h1.6V90.73c0-2.91-1-4.57-3.94-4.57Z"/><polygon class="cls-4" points="334.68 83.74 336.35 83.74 336.35 81.75 334.68 81.75 334.68 83.74 334.68 83.74"/><polygon class="cls-4" points="334.73 98.24 336.33 98.24 336.33 86.44 334.73 86.44 334.73 98.24 334.73 98.24"/><path class="cls-4" d="M347.12,97.12c-2.44,0-3.75-2.37-3.75-4.74,0-3.36,1.85-4.77,3.82-4.77,2.21,0,3.73,1.85,3.73,4.74s-1.71,4.77-3.8,4.77Zm.3-11a4.28,4.28,0,0,0-4.08,2.34h0a7.94,7.94,0,0,0,0-.91V86.44h-1.52v16.49h1.59V97.3c0-.6,0-1,0-1h0a4.26,4.26,0,0,0,3.87,2.25c3.06,0,5.28-2.43,5.28-6.17s-2-6.19-5.14-6.19Z"/><path class="cls-4" d="M153,93.72c-.77-2-3.81-4.44-3.81-4.44A15.08,15.08,0,0,1,145,83.09l-.91-.28V98.3h1.41V87.8c.7,2,4.15,4.73,4.15,4.73a15.69,15.69,0,0,1,3.94,5.35l.84.42V83H153v10.7Z"/><polygon class="cls-4" points="159.38 98.3 161.36 98.3 161.36 83.02 159.38 83.02 159.38 98.3 159.38 98.3"/><path class="cls-4" d="M176.26,74.54a1.48,1.48,0,0,0-1.52,1.52,1.52,1.52,0,0,0,1.52,1.53,1.55,1.55,0,0,0,1.47-1.53,1.51,1.51,0,0,0-1.47-1.52Z"/><path class="cls-4" d="M174.18,89.85a32.84,32.84,0,0,1-5.43-3,1.63,1.63,0,0,1-.07-2.53,3.27,3.27,0,0,1,3.24-.07,11.81,11.81,0,0,1,1.9,1.82,1.59,1.59,0,0,0,1.48.5,5.3,5.3,0,0,0-1.69-2.68,5.37,5.37,0,0,0-6.62.07c-1.48,1.62-1,3.17.42,4.58,1.62,1.62,4.51,2.25,6.83,4.43,1.13,1.06,1.34,2.68-.21,3.67a5.49,5.49,0,0,1-4.51.21,5,5,0,0,1-2.39-2A2.24,2.24,0,0,0,165,93.51a5.44,5.44,0,0,0,3.59,4.22,8.05,8.05,0,0,0,7.39-.7c2.61-1.76,2-5.21-1.75-7.18Z"/><polygon class="cls-4" points="188.61 92.53 183.05 92.53 183.05 83.02 181 83.02 181 97.87 183.05 97.87 183.05 93.72 188.61 93.72 188.61 98.09 190.72 98.09 190.72 83.02 188.61 83.02 188.61 92.53 188.61 92.53"/><path class="cls-4" d="M126.43,85.34a5.6,5.6,0,0,1,2.46-3.8c-1.33-.14-2,.63-3,.56h-8.31c-1.69-.14-2.11,1.34-1.83,1.9.21-.49.5-.49,1-.56h7.88a5.7,5.7,0,0,0-1.2,2.67s-.84,9.44-.7,12.4c.14,5.91,4.58,9.15,6.62,8.87a12.78,12.78,0,0,1-4.23-11.13l1.34-10.91Z"/><path class="cls-4" d="M203.46,93.93a7,7,0,0,1-2.75,3.45,11.49,11.49,0,0,1-3.58-4.64,8.89,8.89,0,0,1-.64-5.92,7.94,7.94,0,0,1,2.82-3.94,12.67,12.67,0,0,1,3.59,3.66,7.36,7.36,0,0,1,.56,7.39Zm-3.58-12.81c-2,1.62-3.74,3-4.65,5.14a9.24,9.24,0,0,0,0,7.74,21.74,21.74,0,0,0,4.92,6.34c1.34,1.48,3.88,4.43,3,7,.64,0,1.48-1.55,1.62-2.11a5,5,0,0,0-.63-4.08,19,19,0,0,0-2.33-2.75,19.91,19.91,0,0,0,3.31-3.6,7.05,7.05,0,0,0,.43-7.6c-1.48-2.74-5.64-5.28-5.7-6.12Z"/><path class="cls-4" d="M138.05,93.72h-5.91c.91-2.46,4.43-3.94,5.91-6.69v6.69Zm-6.12-3c-2.26,2.25-3.94,4.79-3.11,7.61h2.61a4.37,4.37,0,0,1,.22-3.53h6.4V98.3h1.62V82.74a.92.92,0,0,0-.85.49c-2.39,3.8-4.22,4.79-6.89,7.46Z"/></g></g></svg>