<svg xmlns="http://www.w3.org/2000/svg" xmlns:xlink="http://www.w3.org/1999/xlink" viewBox="0 0 412.78 121.69"><defs><style>.cls-1{fill:none;}.cls-2{clip-path:url(#clip-path);}.cls-3{fill:#4480c5;}.cls-10,.cls-3,.cls-4,.cls-5,.cls-6,.cls-8,.cls-9{fill-rule:evenodd;}.cls-4{fill:#fbce3b;}.cls-5{fill:#eca93f;}.cls-6{fill:#2e578b;}.cls-7{fill:#f1f1f2;}.cls-11,.cls-8{fill:#ff8d4e;}.cls-9{fill:#ff6b17;}.cls-10{fill:#ebeef2;}</style><clipPath id="clip-path" transform="translate(16.05 -3.84)"><rect class="cls-1" width="395.87" height="74.78"/></clipPath></defs><g id="Layer_2" data-name="Layer 2"><g id="Layer_1-2" data-name="Layer 1"><g id="Short"><g id="Short-Default"><g class="cls-2"><g id="Snappy-Default"><g id="Back_Arm" data-name="Back Arm"><path class="cls-3" d="M57.87,55.61c-2.09,3-3,9.44,13.63,18.79,0,0-7,12.09-9.21,14.3s-3.63,8.11-1.4,11A25.92,25.92,0,0,0,64.72,104s5.53,1,7.89-.29c0,0,4.67-4.53,1.58-11.82,0,0,14-14.71,13.16-19.13S64.5,46,57.87,55.61Z" transform="translate(16.05 -3.84)"/></g><g id="Body"><path class="cls-3" d="M33,19.75s-17,8.75-16.83,11.53,4.78,2.4,6.65,6.14c0,0-10.39,7.17-9.72,10.46s7.33,2.1,9,4.71c0,0-1.64,6.54-.15,8.95s1.28.32,3.37,3.39C25.4,64.92,24.28,40.47,33,19.75Z" transform="translate(16.05 -3.84)"/><path class="cls-3" d="M29.46,27.7C35.41,33.39,43,37,49.88,41.35A45.64,45.64,0,0,1,62.23,52.21c4.12,5.52,1.75,12,2.69,18.79.32,2.3.48,4.63.57,7a89.65,89.65,0,0,1-.37,12.69c-1,10.09-1.58,18.33-8.69,25.85-8.89,9.44-18.67,11.58-29.76,3.43-4.3-3.16-7.15-5.08-10.61-9.09-2.27-2.65-5.08-4.36-7.55-6.83-2.83-2.87-7.07-6.4-10.89-7.87-4.29-1.63-7.26.6-9.36,1.56-1.09.5-2.58,1.45-3.79.5a1.25,1.25,0,0,1-.42-1.51,11.25,11.25,0,0,1,2.8-4c6.54-6,17.1-6.12,25-1.9,3,1.59,6.23,3.4,9.67,3.63A9.23,9.23,0,0,0,28.3,92.5a9,9,0,0,0,2.78-5.19A16,16,0,0,0,30.5,79c-1.29-3.86-3.59-7.35-5.08-11.15-5.08-13-6.73-27.72,1.45-39.83L28,26.3Z" transform="translate(16.05 -3.84)"/><path class="cls-4" d="M-1,96.71c5.72,2.86,11.79,9.27,17.64,16.21,7.63,9.06,26.7,22.41,42.43,1.45,14.82-19.76,7.84-47.45,7-50.6a1.31,1.31,0,0,0-.1-.32c-.5-.64-13.71-17.5-25.81-20-3.23,2.8-3.86,7.74.44,16.24,7.26,14.32,13,35.2.16,48a17.37,17.37,0,0,1-6.85,4.32c-9.14,3-14-2.52-19.69-7.87A27.66,27.66,0,0,0-1,96.71Z" transform="translate(16.05 -3.84)"/><path class="cls-5" d="M68.19,76.4c-.08-1-.18-2-.29-2.86h0c-12.35-.31-18.67,5.68-18.67,5.68C56.59,75.2,64.4,75.77,68.19,76.4Z" transform="translate(16.05 -3.84)"/><path class="cls-5" d="M63.35,60.26c-.48-.55-1-1.15-1.6-1.78-13.07,0-16.64,6.08-16.64,6.08A29,29,0,0,1,63.35,60.26Z" transform="translate(16.05 -3.84)"/><path class="cls-5" d="M68,74.52a79,79,0,0,0-1.46-8.79c-.32-.19-.63-.39-.93-.59-4.18-2.72-22.6-13.88-28-17.08a11.25,11.25,0,0,0-.06,2.46C43.32,58.39,56,71.8,68,74.52Z" transform="translate(16.05 -3.84)"/></g><g id="Front_Arm" data-name="Front Arm"><path class="cls-6" d="M25.24,67.63c1.46,3.07,2.7,5.45,2.76,5.66,0,0,8.79-10.89,7.15-12.68C33.34,58.63,26.62,65.22,25.24,67.63Z" transform="translate(16.05 -3.84)"/><path class="cls-3" d="M33.79,51.7c9.44,9.09-10.17,21.14-10.17,21.14,2.14,1.35,4.83,6,6.84,9.31s2.81,2.81,5.27,5.61-4.56,7-4.56,7S7.62,82,7.7,73.85c0-1,5.46-10.08,11-15.7C21.48,55.32,29.29,47.36,33.79,51.7Z" transform="translate(16.05 -3.84)"/></g><g id="Head-2"><path class="cls-3" d="M30.68,25.09S34.19,4.2,42.86,3.84c5.7-.23,8.57,7,8.57,7a18,18,0,0,1,9.85,2.9s1.59-2.9,4.32-1.95,5.64,7,4.56,16.93A8.67,8.67,0,0,1,76.37,33a4.57,4.57,0,0,1-3,1.9c-1.79.15-9.54-2.67-11.61-.82S58.72,37.35,59,40.72c0,0-8.52-.82-12.35-5.7S39.52,20.73,30.68,25.09Z" transform="translate(16.05 -3.84)"/><path class="cls-7" d="M60.13,26.59s2.13-7,6.23-9a73.74,73.74,0,0,0,1.1,10.16A60.84,60.84,0,0,0,60.13,26.59Z" transform="translate(16.05 -3.84)"/><path class="cls-7" d="M41.61,12.22s5.27,2.53,8.71,13.46c0,0-8.3-1.34-11.94-1.06C38.41,24.62,41.77,18.39,41.61,12.22Z" transform="translate(16.05 -3.84)"/><path class="cls-6" d="M43.79,17.07c1.29,0,2.33,1.45,2.33,3.21s-1,3.2-2.33,3.2-2.32-1.45-2.32-3.2,1-3.21,2.32-3.21" transform="translate(16.05 -3.84)"/><path class="cls-6" d="M63.45,25.59a2.19,2.19,0,0,0,1.84-2.42c0-1.34-.82-2.44-1.84-2.44a1.59,1.59,0,0,0-.56.14A6.67,6.67,0,0,0,61.64,23v.18A2.16,2.16,0,0,0,63.45,25.59Z" transform="translate(16.05 -3.84)"/><path class="cls-8" d="M42.1,30.3s-6.31-5.09-9.53-1.46c-3.82,4.3,0,11,0,11S33,37,34.47,36c0,0,.57,9,15.25,19.06s21.12,9,24.33,8.17,6.47-3.15,5.24-5.72-9.53-9.59-9.53-9.59-3.15.39-9.54-1.85-15-6.66-20.5-14.34a25.28,25.28,0,0,0,2.38-1.46" transform="translate(16.05 -3.84)"/><path class="cls-9" d="M38.41,42a24.92,24.92,0,0,1,23,6.2l-1.65-.9s7.56-.37,8.6.68,7,4.41,7.82,13.27c.22,2.58-5.89,4-19.48-2.73C48.26,54.34,38.41,42,38.41,42Z" transform="translate(16.05 -3.84)"/><path class="cls-8" d="M54.94,43.76l.32.15Z" transform="translate(16.05 -3.84)"/><path class="cls-10" d="M69.16,47.83s-1.85,7.51-4.68,6.69c-1-.28-.55-2.41-1-3.87s-1.45-4.26-1.45-4.26Z" transform="translate(16.05 -3.84)"/><path class="cls-10" d="M83.14,45s-.59,7.69-3.52,7.33c-1-.12-.94-2.29-1.57-3.63s-2.12-4-2.12-4Z" transform="translate(16.05 -3.84)"/><path class="cls-4" d="M86.24,38.24c-.37-5.42-7.53-7.8-12.77-4-4.29-1-9.06-3.81-13.35.48-3,3-1.3,6-1.3,6s-8.91-1.45-12-6S39.76,24.09,35.39,23.66c-2.31-.22-6.18-.56-8.42,3.81S23.6,39.76,40.21,52.27s23.92,15.87,27.5,15.86c4.62,0,4.9-1.72,10.21-2.46,2.7-.39,4.77-5,1.79-9S71,48.61,70.79,48.8s6.45,5.48,7.68,8.06-2.41,4.21-5.6,5.08-7.26,1.75-22-8.29S34.65,33.53,34.65,33.53c-1.86-.27-2.07,3.76-2.07,3.76s-2.18-4.68.72-7.46c3.48-3.37,7.07.79,7.07.79h-.22c-2.18-1.06-2.48.82-2.48.82C43.17,39.12,53.6,45.91,60,48.14s9.76-.28,9.76-.28,6.79-.11,9.09-.73S86.76,45.59,86.24,38.24Z" transform="translate(16.05 -3.84)"/><path class="cls-5" d="M64.94,37.67c1.45-.48,2.64,1.53.67,2.41-.28.72.17,1.55,1.38,1.84-3.82.78-4-3.56-2-4.25" transform="translate(16.05 -3.84)"/><path class="cls-5" d="M81.8,37.05c-1.23-.39-2.18,1.26-.55,2,.22.61-.14,1.28-1.14,1.52,3.16.65,3.28-2.91,1.69-3.51" transform="translate(16.05 -3.84)"/></g></g></g><path class="cls-11" d="M185,49.69c.44,2.71,2.91,3.72,5.6,3.72s4.75-1.14,4.81-2.52c.1-2.09-1.54-3.34-3.87-3.79-1.6-.3-6.42-1.25-6.42-1.25-5.85-1.07-9.18-2.76-9.18-7.73,0-6.48,5.6-10.7,13.58-10.7s13.07,3.59,14.35,9.06l-9.18,1.82c-.32-1.95-2.18-3.71-5.29-3.71-2.71,0-4.06,1.14-4.31,2.46-.17.86.25,1.58,3.11,2.18,1.85.4,7.43,1.51,7.43,1.51,6,1.25,8.71,4.84,8.71,9.49,0,7-6,10.64-14.34,10.64-7.42,0-13.79-2.71-14.84-9.19Z" transform="translate(16.05 -3.84)"/><path class="cls-11" d="M276.73,35.33a31,31,0,0,1,.26,3.85c0,12.83-9.16,22.06-21.93,22.06s-22.82-9.67-22.82-22.12S242.17,17,254.87,17c9.44,0,17.69,4.42,20.67,12.71l-10.05,2.9c-2.47-4.8-6.54-6.07-10.62-6.07-6.89,0-12.13,5.44-12.13,12.58a12.33,12.33,0,0,0,12.45,12.64c5.56,0,9.6-2.91,11.18-7.58h-13V35.33Z" transform="translate(16.05 -3.84)"/><g id="Text-Default"><path class="cls-11" d="M137,59.6H126.65V42.83H108.83V59.6H98.4V17.24h10.43V33.72h17.82V17.24H137Z" transform="translate(16.05 -3.84)"/><path class="cls-11" d="M174.54,43.71c0,10-8,16.75-17.37,16.75-9.6,0-17.59-6.67-17.59-16.75s8-16.7,17.57-16.7C166.58,27,174.54,33.72,174.54,43.71Zm-9.73,0a7.75,7.75,0,1,0-15.49-.21,1.48,1.48,0,0,0,0,.21,7.75,7.75,0,1,0,15.48,0Z" transform="translate(16.05 -3.84)"/><path class="cls-11" d="M232.58,58.18a17.23,17.23,0,0,1-8.66,2.34c-7.9,0-12.64-4.3-12.64-12.64v-12h-5.75v-8h5.75V19.41l10.11-2.17V27.85h9.35v8h-9.35v11c0,3.28,1.58,4.61,4.23,4.61a10.37,10.37,0,0,0,4.62-1.26Z" transform="translate(16.05 -3.84)"/><path class="cls-11" d="M309,39.47V59.6h-9.73V57.23a14,14,0,0,1-9.48,3.29c-7.08,0-11.82-4.11-11.82-10.37s4.74-10.23,13.21-10.23h8.09v-.65a4.22,4.22,0,0,0-4-4.42h-.46c-3,0-4.8,1.2-5.31,4l-9.54-2c1.39-6.13,7-10,14.52-10C303.34,26.93,309,31.39,309,39.47Zm-9.73,7.59v-.73h-6.95c-2.53,0-4.11,1.33-4.11,3.29s1.77,3.28,4.43,3.28C296.08,52.93,299.24,50.6,299.24,47.06Z" transform="translate(16.05 -3.84)"/><path class="cls-11" d="M337.53,58.18a17.23,17.23,0,0,1-8.66,2.34c-7.9,0-12.64-4.3-12.64-12.64v-12h-5.75v-8h5.75V19.41l10.11-2.17V27.85h9.35v8h-9.35v11c0,3.28,1.59,4.61,4.24,4.61a10.36,10.36,0,0,0,4.61-1.26Z" transform="translate(16.05 -3.84)"/><path class="cls-11" d="M370.89,43.71c0,10-8,16.75-17.38,16.75-9.6,0-17.56-6.71-17.56-16.75s8-16.7,17.56-16.7C362.93,27,370.89,33.72,370.89,43.71Zm-9.73,0a7.75,7.75,0,1,0-15.49-.2,1.34,1.34,0,0,0,0,.2,7.75,7.75,0,1,0,15.48,0Z" transform="translate(16.05 -3.84)"/><path class="cls-11" d="M396.73,27.65l-.44,10.11h-1.83c-7.08,0-10.94,3.63-10.94,11.88v10h-10.1V30l10.1-2.18v6.06c2.28-3.79,5.75-6.53,10.94-6.53A8.71,8.71,0,0,1,396.73,27.65Z" transform="translate(16.05 -3.84)"/></g></g></g></g></g></svg>