<svg xmlns="http://www.w3.org/2000/svg" viewBox="0 0 178.79 170.18"><defs><style>.cls-1{fill:#2c2b29;}.cls-2{fill:#2d2b29;}.cls-3{fill:#2d2c2a;}.cls-4{fill:#2d2c2b;}.cls-5{fill:#2e2d2b;}.cls-6{fill:#2c2b2a;}.cls-7{fill:#bc2221;}.cls-8{fill:#ececec;}.cls-9{fill:#f1f1f1;}.cls-10{fill:#ededed;}</style></defs><g id="Layer_2" data-name="Layer 2"><g id="Layer_1-2" data-name="Layer 1"><path class="cls-1" d="M122.05,79.79c-4.32,0-8.66.09-13,0a15.9,15.9,0,0,0-12.73,5.7,30,30,0,0,0-5.8,10c-.11.31,0,.88-.54.83-.36,0-.32-.54-.43-.83A29.13,29.13,0,0,0,83,84.67a15.72,15.72,0,0,0-11.73-4.9c-9.18.08-18.37,0-27.55,0a10.23,10.23,0,0,1-1.11,0,2.23,2.23,0,0,1-.19-4.39,3.44,3.44,0,0,1,.45,0c2.1-.15,2.09-.15,2.1-2.22,0-1-.34-2.34.17-2.93s2-.21,3-.21c8.1,0,16.2,0,24.29,0a16.15,16.15,0,0,1,9.73,3.51,30.36,30.36,0,0,1,7.23,7.72c.53.79.78.83,1.34,0A29.9,29.9,0,0,1,99,72.75a16.33,16.33,0,0,1,9.38-2.82c8.51.07,17,0,25.53,0,1.13,0,1.4.32,1.31,1.37s0,2.09,0,3.13c0,.66.15,1,.87.9a5.29,5.29,0,0,1,.89,0c1.56,0,2.55.89,2.56,2.22a2.29,2.29,0,0,1-2.54,2.24H122.05Z"/><path class="cls-2" d="M89.68,39.48c-.85-1.13-1.64-2.22-2.47-3.26a14.42,14.42,0,0,0-12-5.72c-4.62,0-9.25,0-13.88,0-.29,0-.59,0-.89,0-.73,0-1.24-.4-1.26-1.16a1.09,1.09,0,0,1,1.28-1.21c1.07.11,1.26-.36,1.19-1.28-.07-.77,0-1.57,0-2.34s.27-1,1-1c3.43,0,6.87,0,10.3,0,1,0,1.09-.22.85-1.13a17.9,17.9,0,0,1,7-19.64A16.41,16.41,0,0,1,105,10a17.7,17.7,0,0,1,1,12.44c-.29,1,0,1.15.94,1.14,3.46-.05,6.93,0,10.4,0,1,0,1.26.28,1.15,1.19-.07.59,0,1.2,0,1.79-.09,1,0,1.8,1.38,1.65.65-.07,1.08.48,1.07,1.19a1.12,1.12,0,0,1-1,1.13,5.65,5.65,0,0,1-1,0c-4.4,0-8.8.08-13.2,0a17,17,0,0,0-14.84,7.45Zm10.9-21.91a11.64,11.64,0,0,0-2.28-7A10.63,10.63,0,0,0,86.67,6.87a11.33,11.33,0,0,0-7.1,13.6c.38,1.67.94,3.46,2.51,4.35a23.83,23.83,0,0,1,6.74,6.26c.89,1.15.92,1.17,1.79,0a20.77,20.77,0,0,1,6.53-5.81,5.31,5.31,0,0,0,2.3-2.65A12,12,0,0,0,100.58,17.57Z"/><path class="cls-3" d="M118.08,61.9c-3.54,0-7.09,0-10.63,0a17.9,17.9,0,0,0-14.17,6.23c-.82.91-1.6,1.86-2.38,2.82s-.84,1.07-1.65,0A40.57,40.57,0,0,0,85.78,67,17.43,17.43,0,0,0,73.16,61.9H50.22a5.49,5.49,0,0,1-1.22,0,1.7,1.7,0,0,1,0-3.36,1.88,1.88,0,0,1,.33,0c2-.18,2-.18,2-2.13,0-.75.05-1.5,0-2.24s.2-1,.88-.87a5,5,0,0,0,.67,0c6.42,0,12.84.12,19.25,0A19.88,19.88,0,0,1,86.4,58.7a30.93,30.93,0,0,1,2.87,3c.6.72.9.82,1.55,0a25.65,25.65,0,0,1,7.58-6.36,17.55,17.55,0,0,1,8.47-2.16c6.86,0,13.73,0,20.59,0,1.2,0,1.46.36,1.36,1.43s0,1.94,0,2.91c0,.77.25,1,1,.93a5.61,5.61,0,0,1,1.23,0,1.7,1.7,0,0,1,1.58,1.72,1.74,1.74,0,0,1-1.61,1.7c-.33,0-.67,0-1,0Z"/><path class="cls-4" d="M90.08,47a20,20,0,0,1,7.51-7.59,14.53,14.53,0,0,1,7.46-2c5.75,0,11.5,0,17.24,0,.86,0,1.1.27,1,1.09s0,1.94,0,2.91c0,.69.14,1.06.92,1a2.23,2.23,0,0,1,.77.06,1.63,1.63,0,0,1,0,3.21,5.94,5.94,0,0,1-1.12,0c-5.78,0-11.57.16-17.34,0a16.72,16.72,0,0,0-15.43,8c-1,1.46-1,1.43-2,0-2.29-3.23-4.94-6-8.87-7.18a18.32,18.32,0,0,0-5.3-.77H56.42c-.29,0-.59,0-.89,0A1.68,1.68,0,0,1,53.76,44a1.58,1.58,0,0,1,1.74-1.64c1.24.09,1.44-.44,1.35-1.48s0-1.79,0-2.68c0-.53.08-.82.72-.82,6.05,0,12.1-.14,18.13.08s10.39,3.66,13.73,8.5C89.6,46.21,89.79,46.52,90.08,47Z"/><path class="cls-3" d="M143.14,120.79c0-4.06,0-8.13,0-12.19,0-1,.24-1.28,1.23-1.23,1.72.09,3.44,0,5.15,0,.68,0,1,.1,1,.9q0,11.64,0,23.28c0,.68-.18.9-.88.89-1.82,0-3.65-.06-5.48,0a1.58,1.58,0,0,1-1.53-.83c-2.56-3.81-5.16-7.59-7.75-11.38-.27-.4-.55-.78-.83-1.18-.42.22-.23.56-.23.81,0,3.84,0,7.68,0,11.53,0,.84-.23,1.08-1.07,1-1.75-.07-3.5,0-5.25,0-.7,0-1-.14-1-.91q0-11.64,0-23.28c0-.71.24-.88.9-.87q2.74.06,5.49,0a1.41,1.41,0,0,1,1.35.75c2.66,4,5.36,7.89,8,11.84l.63.88Z"/><path class="cls-5" d="M94.09,119.92c0,3.85,0,7.69,0,11.53,0,.78-.2,1-1,1-2-.06-4,0-5.93,0-.69,0-.9-.22-.89-.9,0-2.76,0-5.52,0-8.28,0-.71-.16-1-.93-1q-3.3.08-6.6,0c-.78,0-.92.28-.91,1,0,2.72,0,5.45,0,8.17,0,.78-.2,1-1,1-2-.06-4,0-5.94,0-.69,0-.88-.2-.88-.89q0-11.64,0-23.29c0-.67.17-.91.88-.89,2,0,4,0,6,0,.69,0,.9.19.89.88,0,2.32,0,4.63,0,6.94,0,.71.15,1,.91,1,2.2,0,4.41,0,6.61,0,.75,0,.93-.25.92-1,0-2.27,0-4.55,0-6.82,0-.8.24-1,1-1,1.93,0,3.88.05,5.82,0,.81,0,1,.27,1,1C94.07,112.24,94.09,116.08,94.09,119.92Z"/><path class="cls-1" d="M68.32,158.72a7.19,7.19,0,0,1,4.28,3.9c1.11,2,2.1,4.12,3.21,6.14.47.85.21,1-.62,1-2.24,0-4.47-.05-6.71,0a1.41,1.41,0,0,1-1.45-.92c-1.28-2.44-2.62-4.86-3.93-7.28a3.37,3.37,0,0,0-2.57-1.95c-.78-.1-1.14,0-1.12,1,.05,2.68,0,5.37,0,8,0,.88-.23,1.16-1.12,1.13-1.86-.06-3.73-.06-5.59,0-.8,0-1.09-.16-1.08-1q0-11.52,0-23c0-.7.15-1,.91-1,4.37,0,8.73,0,13.09,0a21.69,21.69,0,0,1,2.9.25,6.14,6.14,0,0,1,5.63,5.59c.4,3.54-1.19,6.39-4.24,7.58C69.49,158.32,69,158.47,68.32,158.72Zm-8.9-6.45c0,.63,0,1.27,0,1.9,0,.46.16.68.65.67a17.77,17.77,0,0,0,4.66-.33,2.3,2.3,0,0,0,1.77-2.39,2.18,2.18,0,0,0-1.84-2.2,11.92,11.92,0,0,0-2.67-.19C59.41,149.74,59.41,149.73,59.42,152.27Z"/><path class="cls-4" d="M155.69,120c0-3.88,0-7.75,0-11.63,0-.46-.16-1,.65-1,4.17.07,8.36-.21,12.52.13,5.41.44,8.38,3.18,9.48,8.48a19.13,19.13,0,0,1-.08,8.55,9.35,9.35,0,0,1-7.56,7.48,30.05,30.05,0,0,1-6.35.41c-2.46,0-4.92,0-7.38,0-1,0-1.34-.19-1.32-1.26C155.74,127.46,155.69,123.73,155.69,120Zm7.75-.13v3.58c0,3.67,0,3.67,3.71,3.19a3.7,3.7,0,0,0,3.52-3.2,16.25,16.25,0,0,0,.27-4.12c-.13-4.92-1.69-6.37-6.59-6.26-.77,0-.93.29-.92,1C163.47,116,163.45,117.93,163.44,119.87Z"/><path class="cls-3" d="M41,155.45c1.72,0,3.43,0,5.15,0,.62,0,.85.18.84.82q0,4.59,0,9.18a1.12,1.12,0,0,1-.52,1,19.73,19.73,0,0,1-16.07,3.22c-5.16-1.07-8.34-5-8.85-10.72a15.63,15.63,0,0,1,.85-7.27c1.81-4.57,5.31-6.87,10.1-7.31a24.36,24.36,0,0,1,7.57.34,8.37,8.37,0,0,1,6.32,5.88c.18.52.18.79-.49.89-2,.31-4,.69-5.94,1.06-.48.09-.85.1-1.07-.47-1.19-3.06-7-3.22-8.61.15a11.17,11.17,0,0,0,0,9.94c.81,1.75,2.5,2.38,4.36,2.48a8.94,8.94,0,0,0,5-1.33c1-.58.51-1.55.48-2.32s-.72-.31-1.11-.33c-1,0-2.09,0-3.13,0-.66,0-.93-.15-.9-.86.06-1.15,0-2.31,0-3.47,0-.67.19-.91.89-.89C37.56,155.48,39.28,155.45,41,155.45Z"/><path class="cls-6" d="M103.17,157.43c-.1.91-.15,2-.33,3.06a11,11,0,0,1-10.63,9.57,22.48,22.48,0,0,1-5.79-.28c-5.17-1-8.64-5-9.13-10.49a18.57,18.57,0,0,1,.29-5.9c1.24-5.37,5.21-8.68,10.92-9.06a18.94,18.94,0,0,1,5.67.36A11,11,0,0,1,103,154.8C103.09,155.62,103.11,156.44,103.17,157.43Zm-7.78-.21a10.21,10.21,0,0,0-.63-4.17,4.66,4.66,0,0,0-4.62-2.92A4.46,4.46,0,0,0,85.63,153a12.25,12.25,0,0,0,0,8.44,4.6,4.6,0,0,0,4.82,2.92,4.51,4.51,0,0,0,4.46-3.27A13.27,13.27,0,0,0,95.39,157.22Z"/><path class="cls-3" d="M131.28,153.29c0,2.38.08,4.77,0,7.15-.24,5.4-3.59,9-9,9.56a23,23,0,0,1-7.89-.41,8.54,8.54,0,0,1-6.45-6.05,14,14,0,0,1-.65-4.41c0-4.47,0-8.95,0-13.42,0-.77.18-1,1-1,1.93.06,3.88.06,5.81,0,.81,0,1,.25,1,1q0,7.17,0,14.32c0,2.62,1.44,4.13,3.9,4.26,2.89.17,4.6-1.39,4.62-4.31q0-7.11,0-14.21c0-.82.19-1.1,1-1.07,1.93.06,3.88.05,5.81,0,.69,0,.9.18.89.88,0,2.57,0,5.14,0,7.72Z"/><path class="cls-3" d="M18.06,114.74a7.21,7.21,0,0,0-1.23,0c-1.36.22-2.32.15-2.91-1.52s-3.66-2.14-5.09-1.07A1.55,1.55,0,0,0,9.07,115a9.27,9.27,0,0,0,2.36.69,36.54,36.54,0,0,1,6.22,1.8c2.91,1.19,4.89,3.17,5,6.49a7.5,7.5,0,0,1-4.54,7.59,16.48,16.48,0,0,1-13.69,0c-2.8-1.2-3.9-3.85-4.39-6.73-.09-.5.12-.65.6-.67,1.93-.11,3.87-.22,5.8-.39.71-.07.93.17,1.09.84a4.2,4.2,0,0,0,5.66,3.17,2.48,2.48,0,0,0,1.95-2.2,2.33,2.33,0,0,0-1.55-2.36,15.62,15.62,0,0,0-3.41-1,22,22,0,0,1-5.28-1.81c-2.52-1.3-4.09-3.24-4-6.2A6.45,6.45,0,0,1,5.29,108a16.61,16.61,0,0,1,12.34,0c2.47,1,3.64,3.08,4.12,5.61.11.61-.09.79-.68.81-1,0-2,.1-3,.16Z"/><path class="cls-3" d="M119.88,132.43c-1,0-2,0-3,0-.71,0-1.09-.17-1.25-.9s-.51-1.56-.69-2.35a1,1,0,0,0-1.15-.9q-3.51.06-7,0c-.69,0-1,.2-1.15.88s-.5,1.64-.71,2.47c-.13.55-.36.81-1,.8-2.12,0-4.25,0-6.37,0-.72,0-.7-.26-.5-.79q4.45-11.82,8.89-23.65a.82.82,0,0,1,.9-.62c2.35,0,4.7,0,7,0a.9.9,0,0,1,1,.67q4.41,11.79,8.85,23.55c.24.63.17.87-.56.84C122.05,132.4,121,132.43,119.88,132.43Zm-9.5-18.18-.21,0c-.81,2.66-1.62,5.33-2.44,8-.16.51,0,.67.52.67,1.34,0,2.68,0,4,0,.59,0,.71-.21.55-.73C112,119.52,111.19,116.88,110.38,114.25Z"/><path class="cls-3" d="M42,120a21.92,21.92,0,0,1,.46-4.23c1.29-5.4,5-8.31,11.24-8.73a16.17,16.17,0,0,1,5.54.56c3.43,1,5.44,3.35,6.67,6.55.21.54.06.72-.46.83q-2.74.56-5.47,1.19c-.5.12-.69,0-.91-.48a4.4,4.4,0,0,0-4.69-2.86,4.56,4.56,0,0,0-4.22,3.73,14.83,14.83,0,0,0,.09,7.31A4,4,0,0,0,53.94,127a4.32,4.32,0,0,0,4.7-2.28,4.86,4.86,0,0,0,.61-1.43c.17-.93.54-1.13,1.44-.81,1.55.55,3.12,1,4.71,1.43.84.21.92.57.68,1.34-1.46,4.64-4.65,7.17-9.72,7.55a19.43,19.43,0,0,1-5.89-.44,11.25,11.25,0,0,1-8.36-10.19C42,121.37,42,120.55,42,120Z"/><path class="cls-6" d="M144,144.73c2.05,0,4.1,0,6.15,0,5.36.15,8.32,3.78,7.48,9.11-.58,3.63-2.79,5.79-6.5,6.37a31.34,31.34,0,0,1-5.81.18c-.92,0-1.11.29-1.09,1.14,0,2.42,0,4.85,0,7.27,0,.68-.16.92-.87.91q-3.08-.06-6.15,0c-.66,0-.8-.24-.8-.85,0-7.79,0-15.59,0-23.38,0-.69.26-.8.85-.79,2.24,0,4.48,0,6.72,0Zm2.11,5v0a3.72,3.72,0,0,1-.67,0c-1-.17-1.29.24-1.22,1.22.09,1.22,0,2.45,0,3.68,0,.35,0,.68.5.67a13.68,13.68,0,0,0,3.44-.23,2.66,2.66,0,0,0-.19-5.19A16.62,16.62,0,0,0,146.06,149.76Z"/><path class="cls-5" d="M29.57,132.43c-1-.11-2.51.51-3.24-.24s-.17-2.2-.17-3.35-.46-2.48.16-3.13,2.12-.19,3.22-.23,2.09,0,3.13,0c.65,0,.93.14.91.86q-.06,2.63,0,5.25c0,.71-.24.9-.9.87C31.71,132.4,30.74,132.43,29.57,132.43Z"/><path class="cls-7" d="M100.58,17.57a12,12,0,0,1-1.14,5.07,5.31,5.31,0,0,1-2.3,2.65,20.77,20.77,0,0,0-6.53,5.81c-.87,1.15-.9,1.13-1.79,0a23.83,23.83,0,0,0-6.74-6.26c-1.57-.89-2.13-2.68-2.51-4.35a11.33,11.33,0,0,1,7.1-13.6A10.63,10.63,0,0,1,98.3,10.59,11.64,11.64,0,0,1,100.58,17.57Z"/><path class="cls-8" d="M59.42,152.27c0-2.54,0-2.53,2.56-2.54a11.92,11.92,0,0,1,2.67.19,2.18,2.18,0,0,1,1.84,2.2,2.3,2.3,0,0,1-1.77,2.39,17.77,17.77,0,0,1-4.66.33c-.49,0-.66-.21-.65-.67C59.43,153.54,59.42,152.9,59.42,152.27Z"/><path class="cls-9" d="M163.45,119.87c0-1.94,0-3.88,0-5.82,0-.7.15-1,.92-1,4.9-.11,6.46,1.34,6.59,6.26a16.25,16.25,0,0,1-.27,4.12,3.7,3.7,0,0,1-3.52,3.2c-3.71.48-3.71.48-3.71-3.19C163.44,122.26,163.44,121.06,163.45,119.87Z"/><path class="cls-9" d="M95.39,157.22a13.27,13.27,0,0,1-.5,3.87,4.51,4.51,0,0,1-4.46,3.27,4.6,4.6,0,0,1-4.82-2.92,12.25,12.25,0,0,1,0-8.44,4.46,4.46,0,0,1,4.51-2.87,4.66,4.66,0,0,1,4.62,2.92A10.21,10.21,0,0,1,95.39,157.22Z"/><path class="cls-10" d="M110.38,114.25c.81,2.63,1.62,5.27,2.44,7.9.16.52,0,.74-.55.73-1.34,0-2.68,0-4,0-.5,0-.68-.16-.52-.67.82-2.66,1.63-5.33,2.44-8Z"/><path class="cls-9" d="M146.06,149.76a16.62,16.62,0,0,1,1.88.17,2.66,2.66,0,0,1,.19,5.19,13.68,13.68,0,0,1-3.44.23c-.5,0-.5-.32-.5-.67,0-1.23.07-2.46,0-3.68-.07-1,.22-1.39,1.22-1.22a3.72,3.72,0,0,0,.67,0Z"/></g></g></svg>