<svg xmlns="http://www.w3.org/2000/svg" viewBox="0 0 365 88.64"><defs><style>.cls-1{fill:#ec2224;}.cls-1,.cls-2{fill-rule:evenodd;}.cls-2{fill:#fff;}</style></defs><g id="Layer_2" data-name="Layer 2"><g id="Layer_1-2" data-name="Layer 1"><path class="cls-1" d="M282.48.21h76.61A5.93,5.93,0,0,1,365,6.12V82.73a5.93,5.93,0,0,1-5.91,5.91H282.48a5.93,5.93,0,0,1-5.91-5.91V6.12A5.93,5.93,0,0,1,282.48.21"/><path class="cls-1" d="M98.11.21h76.61a5.93,5.93,0,0,1,5.91,5.91V82.73a5.93,5.93,0,0,1-5.91,5.91H98.11a5.93,5.93,0,0,1-5.91-5.91V6.12A5.93,5.93,0,0,1,98.11.21"/><path class="cls-1" d="M190.3.21h76.6a5.94,5.94,0,0,1,5.92,5.91V82.73a5.94,5.94,0,0,1-5.92,5.91H190.3a5.94,5.94,0,0,1-5.92-5.91V6.12A5.94,5.94,0,0,1,190.3.21"/><path class="cls-1" d="M5.91,0H82.52a5.93,5.93,0,0,1,5.91,5.91V82.52a5.93,5.93,0,0,1-5.91,5.91H5.91A5.93,5.93,0,0,1,0,82.52V5.91A5.93,5.93,0,0,1,5.91,0"/><path class="cls-2" d="M129.16,54.51H114a18.77,18.77,0,0,0,1.94,6.7,16.06,16.06,0,0,0,4.55,5.35,20.16,20.16,0,0,0,6.88,3.35,33.34,33.34,0,0,0,9,1.13,37.57,37.57,0,0,0,9.68-1.13,19.79,19.79,0,0,0,7.08-3.35,14.1,14.1,0,0,0,4.32-5.38,17.59,17.59,0,0,0,1.44-7.33,11.7,11.7,0,0,0-2.14-7.1,14.85,14.85,0,0,0-5.38-4.37,44.37,44.37,0,0,0-9.94-3.33c-1.43-.36-2.88-.72-4.34-1.15a14.69,14.69,0,0,1-5-2.18A4.32,4.32,0,0,1,130,32.5a3.89,3.89,0,0,1,.37-1.75,3.2,3.2,0,0,1,1.12-1.28h0a8.06,8.06,0,0,1,4.47-1,9.14,9.14,0,0,1,4.61,1.21A4.88,4.88,0,0,1,142,31.27a5.9,5.9,0,0,1,.67,1.75h14.78a17.23,17.23,0,0,0-1.87-6.21,14.79,14.79,0,0,0-4.31-4.92,19.68,19.68,0,0,0-6.6-3.05,37.45,37.45,0,0,0-17.61,0,19.47,19.47,0,0,0-6.68,3.2,13.56,13.56,0,0,0-4.18,5,15.08,15.08,0,0,0-1.39,6.62,11.77,11.77,0,0,0,3,8.52c2,2.06,4.73,3.47,8,4.64h0c1.11.4,2.42.82,3.92,1.26s3.21.91,5.08,1.39h0l.76.19L137,50h0a12.92,12.92,0,0,1,4.87,2.17,4.29,4.29,0,0,1,1.87,3.34,3.41,3.41,0,0,1-.48,1.8,3.91,3.91,0,0,1-1.4,1.33h0a10.37,10.37,0,0,1-5.21,1.08,9.62,9.62,0,0,1-5-1.33h0a5.59,5.59,0,0,1-1.6-1.74,9.21,9.21,0,0,1-.9-2.18"/><polygon class="cls-2" points="206.76 70.35 219.86 70.35 219.86 51.61 219.86 51.16 220.32 51.16 236.72 51.16 237.18 51.16 237.18 51.61 237.18 70.35 250.44 70.35 250.44 18.5 237.18 18.5 237.18 37.35 237.18 37.81 236.72 37.81 220.32 37.81 219.86 37.81 219.86 37.35 219.86 18.5 206.76 18.5 206.76 70.35"/><path class="cls-2" d="M35.59,18.29H22.36V51c0,4.24.05,7.57.33,10.16a12.34,12.34,0,0,0,1.71,5.72,6.59,6.59,0,0,0,4.11,2.6,33.84,33.84,0,0,0,7.93.65H52a38.27,38.27,0,0,0,7.79-.54,6.62,6.62,0,0,0,4.13-2.37,11.11,11.11,0,0,0,1.76-5.43,87.56,87.56,0,0,0,.38-10V18.29H52.88v36a.58.58,0,0,0,0,.1h0a2.48,2.48,0,0,1-.3,1,2.71,2.71,0,0,1-.65.82,3.24,3.24,0,0,1-.94.57,3,3,0,0,1-1.07.2H38.06v0a3.56,3.56,0,0,1-.68-.15,2.47,2.47,0,0,1-.93-.51,2.37,2.37,0,0,1-.63-.86,3.29,3.29,0,0,1-.23-1.09h0v-.12h0v-.44h0Z"/><path class="cls-2" d="M298.93,70.35h13.23V58.21h17.29V70.35h13.19V36.81a87.56,87.56,0,0,0-.38-10,11.1,11.1,0,0,0-1.77-5.43A6.57,6.57,0,0,0,336.37,19a38.32,38.32,0,0,0-7.8-.54H313a33.84,33.84,0,0,0-7.93.65,6.64,6.64,0,0,0-4.12,2.6,12.47,12.47,0,0,0-1.7,5.72c-.28,2.59-.33,5.92-.33,10.16Zm13.23-25.94V35h0v-.44h0v-.12h0a2.86,2.86,0,0,1,.23-1.09,2.37,2.37,0,0,1,.63-.86,2.47,2.47,0,0,1,.93-.51,2.93,2.93,0,0,1,.68-.14v0h11.85a3,3,0,0,1,1.07.2,3.24,3.24,0,0,1,.94.57,2.87,2.87,0,0,1,.65.82,2.48,2.48,0,0,1,.3,1v.1h0a.59.59,0,0,1,0,.11V44.86H312.16Z"/></g></g></svg>