<svg width="217" height="161" viewBox="0 0 217 161" fill="none" xmlns="http://www.w3.org/2000/svg">
<path d="M134.289 53.5112L128.174 53.5112C125.921 53.5112 124.085 51.6748 124.085 49.4219L124.085 44.0641C124.085 41.8112 125.921 39.9748 128.174 39.9748L134.289 39.9748C136.069 39.9748 137.678 38.8388 138.189 37.1349C138.833 34.9578 139.704 32.8752 140.764 30.9063C141.616 29.3349 141.294 27.3849 140.026 26.1354L135.69 21.8C134.1 20.2097 134.1 17.616 135.69 16.0067L139.477 12.2203C141.067 10.63 143.661 10.63 145.27 12.2203L149.586 16.5368C150.855 17.8053 152.786 18.1271 154.357 17.2752C156.326 16.215 158.409 15.3441 160.586 14.7004C162.29 14.1893 163.426 12.58 163.426 10.8004L163.426 4.68535C163.426 2.43243 165.262 0.596022 167.515 0.596023L172.873 0.596023C175.126 0.596023 176.962 2.43243 176.962 4.68535L176.962 10.8004C176.962 12.58 178.098 14.1893 179.802 14.7004C181.979 15.3441 184.062 16.215 186.031 17.2752C187.602 18.1271 189.552 17.8053 190.802 16.5368L195.137 12.2014C196.727 10.6111 199.321 10.6111 200.93 12.2014L204.717 15.9878C206.307 17.5781 206.307 20.1718 204.717 21.781L200.381 26.1165C199.113 27.3849 198.791 29.316 199.643 30.8873C200.703 32.8563 201.574 34.9388 202.218 37.116C202.729 38.8199 204.338 39.9558 206.118 39.9558L212.233 39.9558C214.486 39.9558 216.322 41.7922 216.322 44.0451L216.322 49.4029C216.322 51.6558 214.486 53.4923 212.233 53.4923L206.118 53.4923C204.338 53.4923 202.729 54.6282 202.218 56.3321C201.574 58.5093 200.703 60.5918 199.643 62.5607C198.791 64.1321 199.113 66.0821 200.381 67.3316L204.717 71.6671C206.307 73.2573 206.307 75.851 204.717 77.4603L200.93 81.2467C199.34 82.837 196.746 82.837 195.137 81.2467L190.802 76.9112C189.533 75.6428 187.602 75.3209 186.031 76.1729C184.062 77.2331 181.979 78.104 179.802 78.7477C178.098 79.2588 176.962 80.868 176.962 82.6477L176.962 88.7627C176.962 91.0156 175.126 92.8521 172.873 92.8521L167.515 92.8521C165.262 92.8521 163.426 91.0156 163.426 88.7627L163.426 82.6477C163.426 80.868 162.29 79.2588 160.586 78.7477C158.409 78.104 156.326 77.2331 154.357 76.1729C152.786 75.3209 150.836 75.6428 149.586 76.9112L145.251 81.2467C143.661 82.837 141.067 82.837 139.458 81.2467L135.671 77.4603C134.081 75.87 134.081 73.2763 135.671 71.6671L140.007 67.3316C141.275 66.0632 141.597 64.1321 140.745 62.5607C139.685 60.5918 138.814 58.5093 138.17 56.3321C137.659 54.6282 136.05 53.4923 134.27 53.4923L134.289 53.5112Z" stroke="#C9C9C9" stroke-width="1.19186" stroke-miterlimit="10"/>
<circle cx="14.5373" cy="14.5373" r="13.9414" transform="matrix(1.19249e-08 -1 -1 -1.19249e-08 184.624 61.1543)" stroke="#C9C9C9" stroke-width="1.19186"/>
<path d="M116.431 131.125L112.005 131.125C110.375 131.125 109.046 129.796 109.046 128.165L109.046 124.288C109.046 122.657 110.375 121.328 112.005 121.328L116.431 121.328C117.719 121.328 118.884 120.506 119.253 119.273C119.719 117.697 120.35 116.19 121.117 114.765C121.733 113.628 121.501 112.217 120.583 111.313L117.445 108.175C116.294 107.024 116.294 105.147 117.445 103.982L120.185 101.242C121.336 100.091 123.213 100.091 124.378 101.242L127.502 104.366C128.42 105.284 129.817 105.517 130.954 104.9C132.379 104.133 133.887 103.503 135.462 103.037C136.695 102.667 137.517 101.502 137.517 100.215L137.517 95.789C137.517 94.1586 138.846 92.8295 140.477 92.8295L144.354 92.8295C145.985 92.8295 147.314 94.1586 147.314 95.789L147.314 100.215C147.314 101.502 148.136 102.667 149.369 103.037C150.945 103.503 152.452 104.133 153.877 104.9C155.014 105.517 156.425 105.284 157.33 104.366L160.467 101.228C161.618 100.078 163.495 100.078 164.66 101.228L167.4 103.969C168.551 105.12 168.551 106.997 167.4 108.161L164.262 111.299C163.344 112.217 163.112 113.614 163.728 114.752C164.495 116.177 165.126 117.684 165.591 119.259C165.961 120.493 167.126 121.315 168.414 121.315L172.839 121.315C174.47 121.315 175.799 122.644 175.799 124.274L175.799 128.152C175.799 129.782 174.47 131.111 172.839 131.111L168.414 131.111C167.126 131.111 165.961 131.933 165.591 133.166C165.126 134.742 164.495 136.249 163.728 137.674C163.112 138.811 163.344 140.222 164.262 141.127L167.4 144.264C168.551 145.415 168.551 147.292 167.4 148.457L164.66 151.197C163.509 152.348 161.632 152.348 160.467 151.197L157.33 148.06C156.412 147.142 155.014 146.909 153.877 147.525C152.452 148.293 150.945 148.923 149.369 149.389C148.136 149.759 147.314 150.923 147.314 152.211L147.314 156.637C147.314 158.267 145.985 159.596 144.354 159.596L140.477 159.596C138.846 159.596 137.517 158.267 137.517 156.637L137.517 152.211C137.517 150.923 136.695 149.759 135.462 149.389C133.887 148.923 132.379 148.293 130.954 147.525C129.817 146.909 128.406 147.142 127.502 148.06L124.364 151.197C123.213 152.348 121.336 152.348 120.171 151.197L117.431 148.457C116.28 147.306 116.28 145.429 117.431 144.264L120.569 141.127C121.487 140.209 121.72 138.811 121.103 137.674C120.336 136.249 119.706 134.742 119.24 133.166C118.87 131.933 117.705 131.111 116.417 131.111L116.431 131.125Z" stroke="#C9C9C9" stroke-width="1.19186" stroke-miterlimit="10"/>
<circle cx="10.5208" cy="10.5208" r="9.92489" transform="matrix(1.19249e-08 -1 -1 -1.19249e-08 152.859 136.656)" stroke="#C9C9C9" stroke-width="1.19186"/>
<path d="M14.3092 75.7396L6.09143 75.7396C3.06384 75.7396 0.595974 73.2717 0.595974 70.2441L0.595974 63.044C0.595974 60.0165 3.06384 57.5486 6.09143 57.5486L14.3092 57.5486C16.7007 57.5486 18.8633 56.0221 19.5502 53.7323C20.4152 50.8065 21.5856 48.0079 23.0103 45.3619C24.1552 43.2502 23.7227 40.6297 22.0181 38.9505L16.1919 33.1243C14.0548 30.9872 14.0548 27.5017 16.1919 25.3391L21.2803 20.2507C23.4174 18.1136 26.9029 18.1136 29.0655 20.2507L34.8663 26.0515C36.5709 27.7561 39.1659 28.1886 41.2776 27.0437C43.9236 25.619 46.7222 24.4486 49.648 23.5836C51.9378 22.8967 53.4643 20.7341 53.4643 18.3426L53.4643 10.1248C53.4643 7.09723 55.9322 4.62936 58.9598 4.62936L66.1598 4.62936C69.1874 4.62936 71.6553 7.09723 71.6553 10.1248L71.6553 18.3426C71.6553 20.7341 73.1818 22.8967 75.4716 23.5836C78.3974 24.4486 81.196 25.619 83.842 27.0437C85.9537 28.1886 88.5742 27.7561 90.2533 26.0515L96.0796 20.2253C98.2167 18.0881 101.702 18.0881 103.865 20.2253L108.953 25.3137C111.09 27.4508 111.09 30.9363 108.953 33.0989L103.127 38.9251C101.422 40.6297 100.99 43.2248 102.135 45.3365C103.559 47.9824 104.73 50.781 105.595 53.7069C106.282 55.9966 108.444 57.5231 110.836 57.5231L119.054 57.5231C122.081 57.5231 124.549 59.991 124.549 63.0186L124.549 70.2187C124.549 73.2463 122.081 75.7141 119.054 75.7141L110.836 75.7141C108.444 75.7141 106.282 77.2407 105.595 79.5304C104.73 82.4562 103.559 85.2549 102.135 87.9008C100.99 90.0125 101.422 92.633 103.127 94.3122L108.953 100.138C111.09 102.276 111.09 105.761 108.953 107.924L103.865 113.012C101.728 115.149 98.2421 115.149 96.0796 113.012L90.2533 107.186C88.5487 105.481 85.9537 105.049 83.842 106.194C81.196 107.618 78.3974 108.789 75.4716 109.654C73.1818 110.341 71.6553 112.503 71.6553 114.895L71.6553 123.112C71.6553 126.14 69.1874 128.608 66.1598 128.608L58.9598 128.608C55.9322 128.608 53.4643 126.14 53.4643 123.112L53.4643 114.895C53.4643 112.503 51.9378 110.341 49.648 109.654C46.7222 108.789 43.9236 107.618 41.2776 106.194C39.1659 105.049 36.5454 105.481 34.8663 107.186L29.0401 113.012C26.9029 115.149 23.4174 115.149 21.2548 113.012L16.1664 107.924C14.0293 105.786 14.0293 102.301 16.1664 100.138L21.9926 94.3122C23.6972 92.6076 24.1298 90.0125 22.9849 87.9008C21.5601 85.2549 20.3898 82.4562 19.5248 79.5304C18.8378 77.2406 16.6753 75.7141 14.2837 75.7141L14.3092 75.7396Z" stroke="#C9C9C9" stroke-width="1.19186" stroke-miterlimit="10"/>
<circle cx="19.536" cy="19.536" r="18.9401" transform="matrix(1.19249e-08 -1 -1 -1.19249e-08 81.9517 86.0107)" stroke="#C9C9C9" stroke-width="1.19186"/>
</svg>
