<svg width="38" height="38" viewBox="0 0 38 38" fill="none" xmlns="http://www.w3.org/2000/svg">
<path d="M34.2292 38.0001H3.81802C1.87931 37.8505 0.0391412 36.3027 0.0348933 34.2562L6.10352e-05 13.5778H37.9987L37.9758 34.1755C37.9732 36.2211 36.2282 37.814 34.2283 38.0001H34.2292ZM10.9077 23.0636C11.6935 23.0645 12.2296 22.3645 12.2075 21.6789C12.1871 21.0392 11.6604 20.3766 10.9425 20.374L8.13978 20.3647C7.38451 20.3621 6.81445 20.9772 6.79066 21.6806C6.76687 22.384 7.3072 23.0594 8.05992 23.0602L10.9068 23.0636H10.9077ZM20.4075 23.0636C21.1934 23.0645 21.7295 22.3645 21.7074 21.6789C21.687 21.0392 21.1603 20.3766 20.4424 20.374L17.6397 20.3647C16.8844 20.3621 16.3143 20.9772 16.2905 21.6806C16.2676 22.3509 16.8071 23.0594 17.5598 23.0602L20.4067 23.0636H20.4075ZM29.9083 23.0636C30.6941 23.0645 31.2302 22.3645 31.2081 21.6789C31.1877 21.0392 30.661 20.3766 29.9431 20.374L27.1404 20.3647C26.3851 20.3621 25.8151 20.9772 25.7913 21.6806C25.7675 22.384 26.3078 23.0594 27.0605 23.0602L29.9074 23.0636H29.9083ZM10.9077 29.848C11.6935 29.8488 12.2296 29.1488 12.2075 28.4632C12.1871 27.8235 11.6604 27.1609 10.9425 27.1584L8.13978 27.149C7.38451 27.1465 6.81445 27.7615 6.79066 28.4649C6.76687 29.1683 7.3072 29.8437 8.05992 29.8446L10.9068 29.848H10.9077ZM20.4075 29.848C21.1934 29.8488 21.7295 29.1488 21.7074 28.4632C21.687 27.8235 21.1603 27.1609 20.4424 27.1584L17.6397 27.149C16.8844 27.1465 16.3143 27.7615 16.2905 28.4649C16.2667 29.1683 16.8071 29.8437 17.5598 29.8446L20.4067 29.848H20.4075ZM29.9083 29.848C30.6941 29.8488 31.2302 29.1488 31.2081 28.4632C31.1877 27.8235 30.661 27.1609 29.9431 27.1584L27.1404 27.149C26.3851 27.1465 25.8151 27.7615 25.7913 28.4649C25.7675 29.1683 26.3078 29.8437 27.0605 29.8446L29.9074 29.848H29.9083Z" fill="#B4B4B4"/>
<path d="M29.8464 2.7233L29.8668 1.27655C29.877 0.547655 30.5142 0.0217956 31.1769 0.00225639C31.8395 -0.0172828 32.5566 0.523868 32.5642 1.2757L32.5778 2.72415L34.2022 2.7199C36.1723 2.87622 37.8655 4.41897 37.9717 6.45954L37.9998 10.8644H0.00280762L0.0214981 6.53769C0.0308434 4.43935 1.84552 2.83034 3.88449 2.71821L5.42305 2.725L5.44684 1.19924C5.45789 0.50263 6.13159 0.0200965 6.74583 0.00140686C7.39915 -0.0172828 8.11194 0.475445 8.12383 1.19924L8.14847 2.72245H13.5662L13.5789 1.2757C13.5857 0.547655 14.2305 0.0209461 14.8889 0.00140686C15.5805 -0.0189819 16.2686 0.522169 16.2771 1.27485L16.2924 2.7216H21.7101L21.7229 1.27485C21.7297 0.546805 22.3745 0.0200965 23.0329 0.000557327C23.7236 -0.0198314 24.4135 0.52132 24.4203 1.274L24.4347 2.72075H29.8464V2.7233Z" fill="#B4B4B4"/>
</svg>
