<svg width="37" height="42" viewBox="0 0 37 42" fill="none" xmlns="http://www.w3.org/2000/svg">
<path d="M2.70021 16.0787H34.3006C33.522 11.0611 30.4663 6.66927 25.9373 4.2697L22.094 12.8538C21.7985 13.4788 21.1319 13.7489 20.5295 13.5141C19.927 13.2792 19.5419 12.559 19.8324 11.9102L24.0922 2.3998C24.3613 1.79949 24.1901 0.915872 23.47 0.705642C20.2431 -0.235466 16.8227 -0.225611 13.5834 0.677721C12.8864 0.872348 12.6049 1.72066 12.8831 2.34396L17.1643 11.9102C17.4449 12.5376 17.0968 13.2349 16.5256 13.4878C15.9545 13.7407 15.2582 13.5215 14.929 12.9088L11.0585 4.26559C6.57074 6.66024 3.50016 10.9782 2.69857 16.0779L2.70021 16.0787Z" fill="#B4B4B4"/>
<path d="M14.7941 38.9462L14.8114 40.8448C14.818 41.5683 15.4467 42.0002 16.1125 42.0002H20.8867C21.5517 42.0002 22.1854 41.5658 22.1895 40.8464L22.201 38.9519C23.2108 38.6349 24.1433 38.2645 25.0996 37.7332L26.3217 38.9527C26.7884 39.4183 27.5727 39.489 28.0673 38.9946L31.6382 35.4297C32.0621 35.0068 32.0522 34.225 31.6407 33.8119L30.3503 32.5177C30.8399 31.598 31.2448 30.6445 31.5576 29.6188L33.3657 29.6139C34.029 29.5573 34.5245 29.0571 34.5343 28.3878L34.5319 25.1055C32.0193 25.6803 29.5808 26.1427 27.0641 26.4974C26.7488 31.0683 22.9121 34.6093 18.3338 34.5198C13.8806 34.4328 10.2462 30.9435 9.9368 26.5015C7.41845 26.1451 4.97828 25.6861 2.46734 25.1088L2.46487 28.3049C2.43442 29.0358 2.98006 29.6 3.71005 29.6147L5.4408 29.6172C5.75683 30.6339 6.13129 31.5577 6.65389 32.5111L5.43998 33.7167C4.92232 34.2308 4.92397 35.0027 5.44163 35.5192L8.8916 38.9585C9.34507 39.411 10.1154 39.4898 10.5919 39.0217L11.8972 37.7406C12.8337 38.2547 13.7448 38.6292 14.7949 38.947L14.7941 38.9462Z" fill="#B4B4B4"/>
<path d="M0.911045 22.1884C7.30733 23.8842 14.6542 25.0019 21.3072 24.6094C26.3291 24.3129 31.2424 23.4704 36.0898 22.186C36.6445 22.0398 36.9984 21.5487 36.9992 21.0149V19.77C37.0008 19.0728 36.4741 18.525 35.7384 18.525H1.26247C0.526711 18.525 -0.000823975 19.0736 0 19.77L0.00164413 21.0141C0.00164413 21.5504 0.354706 22.0414 0.911045 22.1884Z" fill="#B4B4B4"/>
</svg>
