<svg width="48" height="48" viewBox="0 0 48 48" fill="none" xmlns="http://www.w3.org/2000/svg">
<path d="M23.628 29.6513L30.8438 29.67C31.7382 29.6719 32.3874 30.4726 32.377 31.2479C32.3658 32.119 31.679 32.8202 30.7508 32.8042H21.3667V35.6164L30.8438 35.6127C33.0769 35.5385 34.8196 33.9719 35.1559 31.7886L40.9917 27.7693C41.8081 26.687 42.7241 25.8187 43.8166 25.0443C44.3465 24.7233 44.8857 24.453 45.4673 24.2493C46.3588 23.9837 47.2531 24.1151 48 24.6961L41.6418 34.8495L32.2446 41.6998H17.764L11.5101 30.0737C12.5416 28.8684 13.8681 27.9983 15.4088 27.5862C17.1928 27.1713 18.9796 27.2033 20.7561 27.5965C21.8731 27.9363 23.1855 28.4432 23.6308 29.6494L23.628 29.6513Z" fill="#B4B4B4"/>
<path d="M25.1612 26.8813C24.1428 25.9267 22.9732 25.3156 21.6373 24.9411C20.1041 24.529 18.5597 24.4352 16.9655 24.5347C15.3073 24.6388 13.7695 25.0021 12.225 25.7887L12.2184 19.1975L22.6867 19.1993L25.6262 13.7495L28.5545 19.1975H39.0133L39.0171 25.7267L34.4814 28.8534C33.6716 27.6848 32.4597 26.9508 31.0383 26.8766L25.1602 26.8794L25.1612 26.8813Z" fill="#B4B4B4"/>
<path d="M15.8851 44.1131L8.45031 47.9982L0 31.8279L7.23748 28.0452L15.8851 44.1131Z" fill="#B4B4B4"/>
<path d="M21.0314 16.3992L10.4401 16.402L12.6947 12.1847L23.2795 12.1837L21.0314 16.3992Z" fill="#B4B4B4"/>
<path d="M40.8048 16.3993L30.222 16.4021L27.9683 12.1857L38.5492 12.1829L40.8048 16.3993Z" fill="#B4B4B4"/>
<path d="M20.1335 0.889632L17.4421 1.87476L19.3006 6.94353L21.9919 5.95841L20.1335 0.889632Z" fill="#B4B4B4"/>
<path d="M31.1171 0.888404L29.259 5.9563L31.9521 6.94207L33.8102 1.87417L31.1171 0.888404Z" fill="#B4B4B4"/>
<path d="M27.0391 0H24.2001V5.34752H27.0391V0Z" fill="#B4B4B4"/>
</svg>
