<svg width="169" height="146" viewBox="0 0 169 146" fill="none" xmlns="http://www.w3.org/2000/svg">
<g clip-path="url(#clip0_832_290)">
<path d="M28.6113 169.565C27.6932 173.889 26.9216 177.887 26.5491 182.211C26.11 187.334 25.2386 192.236 24.3671 197.305L23.5622 204.244L23.1099 210.956C22.9436 213.404 22.9036 215.872 22.4047 218.253L20.755 226.149C20.7018 226.389 20.2161 226.715 20.0764 226.588L22.0987 216.324L22.5777 209.772L22.3449 195.163C22.2783 190.846 21.9125 186.708 22.8105 182.358C23.2695 183.063 22.877 183.874 22.8504 184.646C22.6509 190.56 22.744 196.367 23.0833 202.195L23.509 199.474L25.6444 186.382L26.0901 182.59C26.3362 178.133 27.0546 173.923 28.0724 169.585C28.6578 167.104 28.3518 164.516 29.0969 162.075L30.9795 157.625L32.1635 152.868C33.4541 147.68 37.5119 144.194 37.8978 135.526C37.9843 133.663 38.543 131.974 39.1218 130.237L41.3636 123.505L41.643 123.439L41.0975 126.027L38.8424 132.679L37.8512 139.697L39.5941 149.775L46.3727 137.854L51.7677 128.455C53.0516 126.213 54.2091 124.164 55.2934 121.643L53.0715 121.53C51.5016 121.45 49.8918 121.59 48.3684 121.157C46.845 120.725 45.2551 120.252 43.8449 119.501C40.3857 117.658 37.033 115.935 33.2944 114.645L27.9793 112.809C25.3916 111.911 22.5976 111.418 19.8636 111.199L16.3512 110.926C15.513 113.095 14.728 115.463 14.8212 117.911C14.9077 120.346 15.1272 122.68 14.5085 125.082C12.7856 131.761 11.7878 138.499 12.0871 145.418C12.2068 148.192 12.4862 150.859 12.1004 153.567L11.1957 159.853C10.8631 162.155 10.9961 163.978 11.8476 166.153C12.3 167.317 11.5815 169.166 11.0494 170.237C10.3974 171.548 9.97835 172.765 9.9717 174.222C9.96505 176.956 9.55261 179.497 8.68117 182.098C7.2975 186.243 5.54131 190.201 4.64326 194.511C4.07782 197.232 4.18426 200.019 3.77847 202.807L2.33493 208.953L0.878096 215.998C-0.0665215 220.568 0.738399 222.657 4.89604 225.058L4.86944 225.597L1.66971 223.282C1.03775 224.493 0.957922 226.143 1.95576 227.3C4.58339 228.617 7.67668 229.349 10.5837 228.651L16.737 227.18C17.4289 227.014 18.4932 227.054 19.1252 227.214C19.3181 227.786 19.8702 228.205 20.3425 228.351C20.5487 228.418 20.3026 228.97 20.1164 228.963C19.1318 228.923 18.7859 227.061 16.2048 227.713L10.444 229.169C9.56591 229.389 8.30864 229.422 7.37733 229.396C5.48809 229.342 3.97804 228.757 1.99567 228.325C1.90254 228.857 1.85597 229.542 1.88258 230.041C3.27955 230.939 4.78296 231.591 5.60783 233.001L2.41476 230.926L1.94245 230.779C1.29719 230.586 2.33493 232.303 4.45035 233.414L8.66121 237.112C11.9873 238.656 15.7991 238.922 19.338 237.831C21.4202 237.192 22.9169 235.05 22.3315 232.915L21.7994 230.959L22.1386 230.852C23.5556 232.875 23.2496 235.15 21.7528 236.846C20.4556 238.323 18.766 239.021 16.8168 239.128C13.8832 239.287 11.0627 239.068 8.36186 237.744C7.86959 237.505 7.46381 236.74 7.07798 236.307C5.78744 234.87 4.1776 233.806 2.56111 232.815C0.192916 231.358 1.7961 228.87 1.1841 227.653C0.765008 226.821 0.532179 226.176 0.65192 225.311L1.0444 222.517C0.239481 221.02 -0.159653 219.577 0.0532186 217.927C0.618658 213.557 1.69632 209.466 2.77398 205.195C3.93147 200.571 3.45916 195.556 4.82952 191.584L8.6346 180.575C10.0582 176.457 8.81421 173.384 10.3442 170.37C10.9895 169.1 11.8476 167.277 11.2755 165.834C10.5238 163.944 10.3575 162.275 10.6968 160.206C11.1159 157.631 11.6547 155.05 11.6481 152.409L11.6215 140.761C11.6081 136.131 12.3732 131.681 13.4907 127.211C14.2358 124.224 14.5817 121.417 14.3489 118.323C14.2491 116.98 14.3755 115.549 14.7081 114.272L15.5928 110.926C14.8478 110.886 13.8167 110.853 13.2779 110.301C12.6193 109.629 14.1094 106.269 15.054 105.059L20.0565 98.6393L23.948 92.4993L20.0498 90.3905C19.185 89.9249 18.0409 89.3661 17.5419 88.5146C16.278 86.3393 16.2714 83.9445 16.4111 81.5032C16.7703 75.3166 19.2383 71.3518 21.8992 66.203L23.489 63.123C25.5845 59.0718 27.3606 55.0007 29.5958 51.0359C30.6269 49.2066 31.7378 47.5834 32.882 45.8405C37.1328 39.3613 43.3127 34.9109 51.2422 34.0727C51.4883 34.0528 51.5415 34.2324 51.3885 34.5384C49.3862 34.9708 47.4703 35.1504 45.5611 35.8888C40.8048 37.7315 36.8201 41.0376 33.9663 45.2152C31.791 48.4016 29.8419 51.4284 28.1256 54.861L26.2298 58.6727L24.447 62.3979L21.0277 68.9171C18.0874 74.5183 16.0119 79.5141 17.216 86.0666C17.4155 87.1376 18.0209 88.3416 18.9655 88.9736C21.1341 90.4371 23.3626 91.6412 25.7708 92.7388C30.2876 94.8076 34.7779 96.5771 39.8602 97.4619C40.7649 92.7521 42.9468 88.5346 45.4614 84.2971L41.7893 82.654L42.3548 85.6874C42.1219 85.7273 41.7361 85.428 41.7095 85.2484C41.4035 83.1529 40.6984 81.3502 39.328 79.7603L35.4364 78.8489C33.0816 80.8313 30.9595 83.0731 29.4494 85.7805L29.1767 86.2728C29.1235 86.3659 28.7709 86.2063 28.6911 86.1131C29.7687 83.5986 31.7777 81.7958 33.5472 79.5341L27.8862 81.104L27.8662 80.6118L33.627 78.8223L29.9084 77.8178C29.0636 77.5916 28.1389 77.2723 27.8329 76.3477C30.1679 77.4652 32.3099 78.2103 34.8111 78.0307C35.4697 76.8932 35.9886 75.7623 36.4476 74.4717C35.2568 74.7578 34.718 75.7955 33.4009 75.4696C39.2349 72.2699 40.7383 70.2077 43.0932 64.2938C43.918 62.2316 45.2818 60.5952 46.3993 58.7126L50.4838 51.7876C48.9405 57.289 44.8693 60.6484 42.9335 66.07C42.2284 68.0324 41.164 69.8019 39.8668 71.4583L37.4321 73.6336L35.5429 78.1438C37.7581 79.2813 39.3879 78.3633 40.5853 80.4587C40.9711 81.1306 41.5232 81.8757 42.2217 82.1883L45.8139 83.7982L47.0113 82.634C48.6744 83.2593 50.2576 83.9778 51.7411 84.9623L59.298 89.9914C61.154 85.6874 62.8303 81.7692 64.3338 77.5318L67.2674 69.2564C68.2719 66.4159 69.7287 58.5463 69.5025 55.9187L69.2431 52.8453C69.0103 50.0913 68.8174 47.4371 67.9792 44.8028C67.7131 43.9779 66.8084 43.8316 66.1498 43.4657L63.2295 41.8492L59.8102 43.6519C59.5508 43.785 58.9454 43.4391 58.8324 43.1796C57.635 40.5254 56.3777 38.0441 54.5151 35.8555C54.076 35.3367 53.5904 34.9841 53.5239 34.2257C54.8477 35.177 55.8921 36.3345 56.6371 37.7514L59.5441 43.2528C60.6285 42.7938 61.613 42.102 62.5177 41.2971C60.1828 39.7271 60.2692 36.9132 60.3358 34.0395L58.7791 32.2168C58.207 31.5449 57.8013 30.873 57.5485 29.955C56.4708 31.199 55.4131 32.3365 54.1159 33.188C53.6769 33.474 53.484 33.6736 53.0117 34.1925L52.6524 33.9064C52.5327 33.8133 52.8453 33.3809 52.9518 33.2811C54.6681 32.4163 55.9852 31.159 57.1028 29.5958C58.6328 28.5713 59.451 25.6576 58.6062 24.2607L58.992 21.3603C58.247 20.0498 59.2581 18.9123 58.839 16.8834L58.9854 15.1072C58.2403 13.657 58.9321 10.8498 60.0697 9.74551L61.1673 8.68115L62.6574 7.23096C64.2273 5.70095 66.2429 4.54346 68.518 3.97802C67.1609 5.36834 65.1653 5.51469 63.8814 6.99148L66.5889 6.24643C66.9481 6.14665 67.3539 5.44151 67.6532 5.23529L71.6579 2.45466L68.691 2.68749C67.4204 2.78727 66.396 3.7851 65.0123 3.63876C66.3494 2.80723 67.733 2.48792 69.1034 2.00231L71.0459 1.30382C71.6778 1.07765 72.4428 0.492249 73.2078 0.365857C75.2235 0.0199407 77.3322 -0.186279 79.3545 0.206203C80.9909 0.52551 82.5742 0.85147 84.2173 0.85147C87.8028 0.858122 90.4704 3.22632 91.5148 6.49922C92.2864 8.92063 92.8851 11.1558 92.9184 13.7701C92.9384 15.5063 93.1978 17.5552 92.3796 19.1252L87.8028 27.8928C87.244 28.9638 86.3726 30.0814 86.1464 31.2389C85.9602 32.1702 86.0134 32.9685 85.3282 33.6936L79.9066 39.4278C81.8624 40.5121 83.4257 41.6031 84.6896 43.3659C88.641 48.8606 91.0691 55.0539 92.4128 61.6928C93.1512 65.3249 93.8431 68.7774 94.0825 72.3962C95.9119 73.3143 97.6814 74.1524 98.8855 75.7091L102.218 80.013C102.997 79.86 103.808 79.7669 104.387 79.9L107.48 84.0709L112.243 89.885L114.605 92.5259L114.418 92.9317L112.07 90.4837L107.394 84.7761L104.034 80.2858C103.096 80.2991 101.992 80.6118 101.32 81.2304L97.5883 84.6896C95.5593 86.5722 94.4351 89.1665 94.4418 92.0336C94.6812 92.6523 95.6658 93.4572 96.3443 93.6967L103.209 96.1514C104.447 96.5904 105.591 97.2224 106.649 98.014C108.105 99.1116 107.6 101.832 108.91 104.254C111.777 102.644 115.077 101.939 117.478 103.954C119.474 105.624 121.31 107.686 122.541 110.048L123.725 113.121C124.689 110.873 124.35 108.312 123.306 106.11L121.144 102.365C123.073 103.449 123.406 105.445 124.523 107.194C124.41 102.531 122.8 99.7702 119.168 97.1425C117.798 96.1514 116.141 95.3797 115.483 93.6435L119.441 96.6636C119.986 97.076 120.545 97.2956 121.204 96.8831L126.06 93.8697L143.695 82.7604L152.995 76.9331C153.114 76.9131 153.374 76.9929 153.64 77.1393L146.655 81.4832L134.209 89.3328L121.117 97.6415C121.23 98.187 121.756 98.7657 122.308 98.8788L138.533 88.3882L148.85 81.7626L153.5 78.8489L153.906 79.2281L150.121 81.563L139.298 88.4946L135.805 90.7498L122.634 99.1715C122.647 99.6771 122.94 100.143 123.339 100.515L131.308 95.5128L143.928 87.2108L150.513 82.7804L150.813 82.9467C150.873 82.9799 150.813 83.1396 150.766 83.2859L132.306 95.4728L123.685 100.841C123.612 101.254 123.885 101.786 124.237 102.059L129.033 98.9653L135.107 95.1003L143.103 89.998C143.196 89.9914 143.509 89.9714 143.475 90.0446L143.316 90.4238L136.737 94.6413L125.135 102.065C124.836 102.258 124.503 102.538 124.43 102.764C124.357 102.99 124.643 103.555 124.869 103.715L136.956 95.7988C137.222 95.699 137.428 96.1048 137.176 96.2112L125.208 104.081C124.849 104.32 124.796 104.826 124.876 105.345L125.282 105.524L129.719 102.591L133.444 100.169C133.517 100.123 134.023 100.129 133.969 100.183L133.597 100.548L129.911 103.01L125.089 106.243L125.122 109.449L124.383 113.101C124.337 113.347 123.898 113.786 123.672 113.786C122.727 113.8 122.7 110.753 121.357 108.937L119.275 110.088L119.128 109.835L120.751 108.591C120.904 108.212 120.272 107.374 119.813 107.294L115.948 109.742L115.729 109.456L119.561 106.762L118.376 105.564L111.904 109.682L111.578 109.356L117.851 105.245C117.618 104.826 117.066 104.387 116.667 104.367C113.873 105.817 111.777 108.145 108.644 109.037L116.254 103.881C115.476 103.409 114.791 103.589 114.026 103.881L106.19 108.751L105.691 108.691C105.584 108.678 105.87 108.352 105.95 108.265L113.487 103.595C111.99 103.203 110.527 103.768 109.25 104.606L104.274 107.886L99.2114 110.939C99.2114 110.939 98.7524 110.64 98.8322 110.573L99.2247 110.254L103.369 107.64L108.258 104.58L107.367 101.447C107.154 100.688 107.181 99.4642 106.642 98.8522C105.611 97.6814 104.167 97.1226 102.75 96.5904L95.8055 93.9894L93.7632 92.4527L93.7366 90.6234L89.4193 88.0889C87.4037 86.9048 85.7074 85.0554 84.5965 83.0066C84.2306 82.3347 84.1508 81.3502 83.4523 80.9776C82.3613 80.3922 81.4965 79.6937 80.9111 78.6161L78.2236 73.6735L74.4318 81.0375L70.68 88.2951L68.192 93.1778C71.4051 93.4306 74.0726 94.1557 76.7335 95.719L81.257 91.9006L80.3124 90.2508L80.1195 89.8517C80.0663 89.7453 80.6251 89.4193 80.7049 89.4991L82.2482 91.242C83.4988 90.5236 84.7561 90.9626 85.4479 91.9937C86.2196 93.1512 85.9069 94.3287 84.8426 95.3132L87.8827 100.016L91.3418 105.471L93.3641 108.538L97.4818 114.545L100.169 119.068C99.5041 119.128 99.0584 118.729 98.7191 118.197L95.7988 113.7L90.7631 106.243L84.1108 96.1514C82.8935 96.943 82.0021 97.6814 81.0907 98.5794C81.5497 100.841 81.4766 102.877 80.4787 104.939L78.217 107.194L74.199 109.156C72.1834 110.141 70.2276 110.327 68.0856 109.296L63.8614 112.729L63.7883 118.13C63.775 119.188 63.2694 119.946 62.1585 120.239C61.9722 121.031 61.7327 122.108 61.7793 122.96L62.4046 134.608C62.664 139.477 62.2716 144.141 61.7993 148.99L61.0076 157.139L59.6705 167.423C59.1117 171.727 59.1517 175.872 58.1671 180.096L57.4021 184.367L57.1893 193.254L56.9365 202.773L56.7436 205.301L56.5573 213.138L56.5107 217.814L61.3735 218.566C66.4558 218.952 71.3851 218.659 76.4142 217.881L85.7406 216.437L94.3553 214.847L101.872 212.871L101.972 210.37L101.999 188.611C101.999 185.245 102.185 182.165 102.87 178.918C103.742 174.787 106.176 171.122 110.194 169.519C112.223 168.707 114.425 168.508 116.567 168.035L125.082 166.153L131.96 164.769L146.868 162.368C150.38 161.802 163.153 162.161 165.86 163.871C168.295 165.408 168.82 168.348 168.854 171.022L169 183.622L168.92 190.726L168.86 207.869C164.071 211.095 159.042 213.636 154.026 216.517L143.682 222.451L136.384 226.821C136.238 226.868 135.805 226.974 135.785 226.848L135.666 226.063L135.526 225.118L129.087 223.755L112.463 220.694L105.331 219.331C104.46 219.164 103.336 219.916 102.544 220.222L102.092 220.395C102.019 220.422 101.812 220.122 101.812 219.996L101.779 216.317L101.533 215.958C94.6546 217.714 87.876 219.384 80.8113 220.275L71.5049 221.134C68.4315 221.42 65.4447 221.213 62.398 220.874L57.1759 220.302C57.0895 220.262 56.8566 220.162 56.8566 220.222V220.708L56.697 222.484C58.2802 224.566 60.389 226.595 62.8703 227.633L67.5202 229.582C68.5114 230.001 68.691 231.092 68.3184 231.93C67.8195 233.068 66.8616 233.48 65.7773 233.859C62.0986 235.156 58.4931 234.964 54.8543 233.62L50.0315 232.329L43.3526 231.87L37.2991 231.052C35.7358 230.839 35.7491 227.54 36.3478 225.218C37.0263 222.564 36.5939 220.016 35.9021 217.415C35.0373 214.169 35.2435 210.836 35.636 207.53L32.5361 201.736C30.5803 197.166 29.2898 192.522 28.9572 187.54L28.8108 185.384L28.8241 179.564C28.8308 175.486 30.7932 167.51 32.576 163.612L35.3699 157.498L38.9555 150.939C39.1817 150.52 39.0819 149.635 39.002 149.136L38.1772 144.214L37.7049 141.659C37.5652 141.327 37.4521 141.333 37.4454 141.732C36.4742 144.526 35.2103 146.915 33.9197 149.502C32.6292 152.09 32.3166 154.704 31.5848 157.352L29.6091 162.088C28.904 164.483 29.1634 166.991 28.6246 169.532L28.6113 169.565ZM76.5073 1.65639L77.299 1.28386C75.8022 0.844818 74.4917 0.7916 73.1613 1.13086L76.5073 1.66304V1.65639ZM85.4746 31.9773C80.0929 32.0305 75.3565 31.4384 71.2521 28.4516C70.0879 27.6068 69.4227 26.436 69.7952 24.9392C70.5203 21.9856 71.8175 19.0653 73.8531 16.7437C74.4518 16.0651 76.0151 16.4177 76.7269 16.8102C81.2371 19.3314 86.3327 20.3492 91.435 19.3314C92.027 18.8058 92.1268 17.9011 92.2332 17.1694C92.7321 13.6304 92.1667 10.3974 91.1622 7.058C90.0779 3.45915 87.0445 0.997819 83.1197 1.37034C79.594 0.824861 76.341 1.96239 73.5205 4.17093C71.4516 6.23978 69.2431 8.17558 67.5335 10.6303C66.1365 12.6459 64.8659 14.9342 64.0876 17.2692C62.5243 21.9257 61.2272 30.4539 60.8946 35.5562C60.7815 37.2724 61.1207 39.308 62.378 40.4323C65.1786 42.9268 72.4096 45.9536 74.0992 44.3105L79.3612 39.1949L84.8359 33.4474C85.1819 33.0882 85.4479 32.4296 85.4679 31.9839L85.4746 31.9773ZM72.5892 2.77397L75.29 2.05552C74.1258 1.64974 73.2677 1.67635 72.0437 1.88257L73.2278 2.22848L72.5892 2.77397ZM73.8664 3.30614C72.7887 3.10658 71.5647 3.51236 70.6135 4.17759C71.7377 4.04454 72.7222 3.90484 73.8664 3.30614ZM68.4981 5.93378C68.671 6.53248 68.6045 6.48591 68.4648 6.99148L70.3008 6.18656C71.0858 5.84065 71.7377 5.24194 72.1767 4.5102C69.4161 4.82951 65.6176 6.62561 64.9923 8.92728L63.6419 11.2689C64.2872 11.0893 64.5333 10.7766 64.8992 10.3309L68.5047 5.92712L68.4981 5.93378ZM69.4294 7.66336C69.4759 7.3507 69.4626 7.13783 69.3761 7.20435C68.0191 7.68331 67.2208 7.97601 66.6687 9.1335L69.4227 7.66336H69.4294ZM63.01 11.8742C63.1097 10.5039 63.9878 9.95838 63.8082 9.71224L63.3359 9.04702L61.7726 10.6901L63.01 11.8742ZM67.6998 9.36633C66.6886 9.49937 65.6709 10.118 65.3249 11.1624C66.4159 10.9429 67.2142 10.3974 67.6998 9.36633ZM64.7329 14.1094C63.2162 13.0251 61.9057 11.6747 60.4821 10.1579C59.5441 11.2423 58.7924 13.1714 59.3845 14.4486C60.0963 15.9986 61.7261 17.043 63.01 18.1074L64.7329 14.1027V14.1094ZM65.917 11.668C64.979 11.9274 64.8061 12.1004 64.3071 12.4995L64.4202 13.1049C64.4402 13.198 64.8992 13.1248 64.9524 13.045L65.917 11.6613V11.668ZM85.408 30.9927L87.5367 27.2608L91.262 20.103C86.0466 20.8946 80.7781 19.7106 76.3144 17.2293C75.2434 16.6705 74.1458 16.8767 73.4939 17.8945C72.1767 19.9766 71.1057 22.1785 70.4339 24.5467C69.5957 27.5203 72.4162 28.9106 75.3432 30.0548C78.5429 31.312 81.9688 31.7977 85.4014 30.9927H85.408ZM60.4555 24.3937L61.2006 17.5419L60.6351 17.5286V20.888C60.6484 22.0787 59.7903 23.1498 60.4555 24.3871V24.3937ZM62.1252 18.4466C62.1319 18.3601 61.766 17.9411 61.6928 17.9211L61.3669 21.7794L61.7394 21.7461L62.1186 18.4466H62.1252ZM60.4755 33.0948L61.1473 28.9971C61.2139 28.5979 60.9544 27.6999 60.828 27.5868C60.4023 28.1123 60.1229 28.272 59.7304 28.3052L58.3268 30.4206C58.9454 31.5715 59.5308 32.2833 60.4755 33.0948ZM81.563 66.3427L78.6494 72.8486C79.2813 74.7046 80.3124 76.3477 81.2903 78.0506C81.7693 78.8822 82.3214 79.7736 83.1995 80.1394C85.3349 81.0375 84.1774 82.7937 87.2906 85.6076L89.2863 87.4103L94.016 89.8983C95.4196 85.4213 98.1604 83.113 101.633 80.2592L99.4642 77.2324C98.1071 75.3432 96.2312 73.8065 94.0692 73.1413L93.8031 75.5494C92.9982 73.9196 93.5238 72.4894 93.3441 70.8795C92.7787 65.917 91.9139 61.1141 90.5236 56.3444C89.8318 53.9762 88.9204 51.9007 87.8228 49.7254C85.7673 45.6476 83.6917 41.776 79.4676 39.9799L74.658 44.8294C72.6557 45.6543 70.7864 45.335 68.538 44.3172C69.4959 47.6898 69.7088 50.9494 69.9017 54.3953C70.0081 56.3244 70.0281 58.0607 69.7021 59.9632L68.7708 65.3715C67.8062 70.9527 63.6685 80.4454 61.3669 86.3327L59.7836 90.3706C62.0786 92.2731 64.7063 93.1645 67.6599 93.1113L72.2765 83.9312L75.0705 78.9154L78.9288 71.1323L81.1839 65.9569L82.7737 61.4001L83.7716 57.1294C84.2106 57.6549 84.2439 58.3866 84.0443 59.0186L82.94 62.4911L81.5697 66.3294L81.563 66.3427ZM79.288 105.298C80.5652 105.019 81.1905 101.247 80.6251 98.9387L78.6893 100.276C77.7047 100.775 76.993 99.717 76.4076 99.2779L72.8619 96.5838C73.7134 96.6237 74.066 96.9164 74.8177 97.4086L76.2679 96.0982C74.3853 95.107 72.6557 94.2688 70.6334 94.0493L65.0455 93.4506C63.5488 93.2909 62.0786 92.5924 60.8347 91.7343L54.1758 87.1842C51.8941 85.6275 49.7055 84.1308 47.0978 83.2061C45.2019 85.4346 43.9846 87.8693 42.7539 90.4171C41.4634 93.098 40.1728 96.4108 40.5321 99.3311C42.6674 100.269 44.8294 100.522 47.171 100.688L51.7012 101.001C55.3266 101.254 58.533 102.564 61.5797 104.546L67.8461 108.624C69.8618 109.935 72.3164 109.742 74.2788 108.431L72.7289 108.059L73.3874 107.72C75.3365 107.839 77.2191 107.427 78.6361 106.09C76.6537 106.003 74.9773 105.997 73.3409 105.292C75.3232 104.992 76.2679 105.943 79.2813 105.292L79.288 105.298ZM76.9264 99.1116C77.3854 99.5107 78.217 100.096 78.8157 99.6039L84.51 94.9407C85.4679 94.1557 85.6808 93.0847 85.0089 92.1933C84.2905 91.242 83.0664 91.1356 82.1551 91.9272L78.197 95.3797L75.3964 97.7878L76.9264 99.1116ZM42.4945 118.051C43.9314 115.203 45.6543 112.809 47.324 110.247L51.2488 104.221C51.8542 103.422 52.2799 102.684 52.6923 101.706C50.251 101.3 48.2087 101.227 45.8738 101.154C43.9247 101.094 41.9889 100.515 40.1396 100.01L39.7338 98.0273C34.3056 96.943 29.802 95.1469 24.6266 92.812L21.9457 96.6902C20.9412 98.147 20.123 99.6039 18.9788 100.954C16.8834 103.429 14.2424 106.449 13.7302 109.409C13.5706 110.334 14.8744 110.367 15.4132 110.394C19.8569 110.6 24.101 111.225 28.3651 112.33L33.6403 114.299C36.6538 115.423 39.5342 116.62 42.4945 118.064V118.051ZM55.5728 120.991C56.8034 118.543 57.8345 116.387 58.6328 113.946C58.8789 113.194 59.1517 112.629 59.5974 111.884C59.6173 111.611 59.5574 110.52 59.8635 110.227L63.5687 106.682C60.8214 104.287 56.9032 102.165 53.4041 101.866L46.9781 111.578L43.5588 117.086C43.3526 117.419 43.326 118.243 43.4457 118.643C47.4969 120.785 50.9162 121.29 55.5595 120.984L55.5728 120.991ZM62.2583 113.108C64.234 111.804 65.8106 110.633 67.4337 109.037L64.1475 106.948L60.389 110.44C59.9433 110.853 60.2892 111.877 60.5952 112.243C60.9478 112.662 61.5199 113.048 62.2516 113.115L62.2583 113.108ZM59.8102 114.392C60.1096 114.571 60.7482 114.046 60.8812 113.693C60.9943 113.394 60.4289 112.755 60.0165 112.742C59.471 112.722 58.992 113.9 59.8102 114.392ZM63.2162 118.835L63.296 113.241C61.9922 113.534 60.8347 114.192 60.2958 115.403L57.8811 120.831C59.8834 120.652 61.7793 120.186 63.2162 118.842V118.835ZM88.335 218.426C95.6125 217.242 102.424 215.359 109.276 213.058C109.662 212.931 109.968 212.359 109.955 212.06C109.941 211.794 109.456 211.149 109.157 211.235L103.808 212.871C98.034 214.634 92.3397 216.151 86.326 216.943L69.8352 219.111L62.1984 219.125L56.0384 218.273C52.719 217.541 49.5126 216.563 46.559 214.814C43.3726 212.925 40.6784 210.443 38.3169 207.63C37.3523 206.479 36.7137 205.295 35.9753 203.997C32.6026 198.064 30.7134 191.638 30.3741 184.786L30.4273 181.832C30.0747 175.333 31.811 169.479 34.432 163.638L38.4499 154.664C39.9134 151.392 42.1219 148.657 43.8848 145.544L48.1688 137.981L49.7188 135.286L55.2734 124.563L57.4287 120.346L59.5441 115.656C59.6107 115.509 59.6705 115.004 59.5175 114.964L58.8989 114.804L56.2446 120.818C54.994 123.652 53.5239 126.2 52.0271 128.9L49.4594 133.544L44.4369 142.285L38.8224 152.117C36.9332 155.423 35.3034 158.649 33.7867 162.122C32.9552 164.031 31.9108 165.774 31.4651 167.829L29.3962 177.375L29.2166 179.717V185.817L29.4029 188.185L29.6157 190.261L31.3187 197.232L33.321 202.434L35.3566 206.119C36.9798 209.066 39.4145 211.474 41.9689 213.623C48.3218 218.972 57.1893 220.109 65.3449 220.595L70.8396 220.621L79.4543 219.856L88.3084 218.413L88.335 218.426ZM37.2592 205.394C39.7005 208.98 43.938 213.031 47.6566 214.787C50.3441 216.051 52.852 217.189 55.8921 217.661L56.1182 211.035L56.3178 205.348L56.4708 203L56.6238 195.163L56.8433 187.334C56.9032 185.065 57.0363 182.99 57.5219 180.768C58.5197 176.258 59.0053 171.827 59.1384 167.197L61.1274 150.507L61.8059 142.65C62.0653 139.644 62.0587 136.763 61.8724 133.77L61.1806 122.767L61.3669 120.731L57.2358 121.609L55.7457 124.816L51.3952 133.131L49.1201 137.202L46.0335 142.803L39.9467 153.041C40.3059 156.687 41.1507 160.046 42.2284 163.519C42.5344 164.51 43.0333 165.667 42.561 166.625C41.2638 169.259 44.0977 169.812 42.847 172.639L41.5499 175.559C40.9911 177.734 40.7649 179.976 40.8115 182.238C40.9112 186.875 40.1063 191.185 38.696 195.556L36.7669 203.006C36.554 203.824 36.7469 204.643 37.2459 205.381L37.2592 205.394ZM39.9334 188.498L40.3658 182.89C40.5653 180.335 40.3325 177.794 41.0908 175.32L42.4812 172.053C43.346 170.031 40.4256 169.073 42.3149 165.893L40.4589 158.935L39.5076 153.993L37.1793 158.756L33.1082 167.776C31.6314 171.049 30.7001 177.043 30.8331 180.774L31.0792 187.786C31.5582 193.207 33.321 198.343 36.1283 203.159L38.8224 193.64L39.9267 188.504L39.9334 188.498ZM146.635 220.209L157.758 213.896L168.268 207.676L168.455 203.612L168.554 186.475V182.178L168.401 176.53L168.288 171.661C168.202 167.849 167.284 163.911 163.312 163.425C157.971 162.767 152.715 162.654 147.267 162.76L128.761 165.92L113.574 169.213L119.408 169.639C123.971 169.971 128.428 170.53 132.779 171.92C134.894 173.517 135.726 175.852 135.819 178.466L135.872 192.815L136.051 196.86L136.125 214.395V221.812C136.125 223.302 136.125 224.613 136.404 226.129L146.629 220.196L146.635 220.209ZM104.573 215.04L105.059 218.606L128.721 223.256L135.659 224.606L135.672 214.421L135.566 196.873L135.439 185.225C135.38 179.856 136.125 172.852 130.81 171.867L123.186 170.457L113.001 169.938C111.97 169.885 111.072 170.324 110.241 170.803C107.806 172.213 106.23 174.415 105.611 177.196L104.813 183.096L104.433 189.529L104.374 200.651L104.566 202.993L104.686 207.869L104.713 211.88C108.205 211.508 107.387 209.332 109.077 208.847C109.855 208.627 110.853 208.82 111.505 209.372C112.496 210.217 112.795 211.601 112.449 212.885C112.19 213.869 111.325 215.087 109.995 215.266C109.15 215.379 108.225 214.594 107.533 214.155L104.566 215.033L104.573 215.04ZM104.068 212.013L104.001 200.372V189.356L104.247 185.005C104.54 179.87 104.513 175.699 107.999 171.448C103.901 174.089 102.877 179.63 102.677 184.367L102.451 189.688V212.386C102.87 212.725 104.048 212.499 104.074 212.02L104.068 212.013ZM56.1648 221.646C56.3577 221.2 56.2712 220.309 55.9386 220.096C52.0537 219.371 48.4682 218.227 45.0356 216.384L41.5232 213.942L36.1349 208.355C35.6493 211.947 35.7757 215.379 36.7935 218.672C37.8113 221.965 36.6472 223.362 38.104 223.735C42.4812 224.865 46.9448 224.386 51.0492 222.544C52.699 221.799 54.229 221.606 56.1715 221.639L56.1648 221.646ZM108.465 214.042C108.817 214.295 109.396 214.654 109.722 214.694C110.986 214.86 112.742 212.392 111.644 210.244C111.285 209.545 110.394 209.259 109.589 209.399C109.037 209.492 108.372 210.024 108.119 210.716C109.097 210.616 109.769 210.663 110.208 211.222C110.587 211.707 110.6 212.845 110.068 213.138L108.458 214.036L108.465 214.042ZM104.181 218.832L104.014 215.273C103.409 215.426 102.844 215.579 102.564 215.759C102.285 215.938 102.345 216.73 102.345 217.089V219.643L104.181 218.832ZM43.5788 231.411L49.6988 231.79C52.7456 231.977 57.0895 234.611 61.9722 234.292C64.6198 234.119 68.6377 232.888 67.773 230.626C66.4292 229.302 64.234 229.116 62.5709 228.225C60.7282 227.24 58.9255 226.109 57.6017 224.526L55.7524 222.318C54.0494 222.052 52.3797 222.424 50.7965 223.143C46.5989 225.052 41.9357 225.324 37.3523 224.12C36.7602 225.404 36.4609 226.888 36.6205 228.398C39.1417 229.522 41.7827 229.582 44.4835 229.801C45.641 229.895 46.8251 229.761 47.7431 230.533L43.5788 230.134L41.0044 229.974C39.5409 229.888 38.2304 229.635 36.7802 229.269C36.401 230.966 40.9179 231.245 43.5721 231.411H43.5788Z" fill="#CDCFD0"/>
<path d="M46.2197 69.5424C44.5633 70.4538 43.3127 71.9705 41.4035 72.496C43.3193 70.7665 45.4148 69.5491 47.5302 68.3184C49.0004 67.4669 50.5038 66.6953 52.0936 66.3228L46.2264 69.5424H46.2197Z" fill="#CDCFD0"/>
<path d="M16.8967 138.978L14.0096 142.923C13.9165 142.544 14.1027 141.852 14.4087 141.466C16.3978 138.985 18.134 136.404 20.8082 134.488C19.644 136.184 18.287 137.482 16.8967 138.978Z" fill="#CDCFD0"/>
<path d="M16.0851 143.675C15.2802 144.606 15.0806 146.056 13.7302 146.329C15.4864 143.548 17.3557 140.941 19.8636 138.938L16.0918 143.675H16.0851Z" fill="#CDCFD0"/>
<path d="M14.3888 139.956C14.3422 139.364 14.6482 138.726 15.0141 138.253C16.7104 136.032 18.4333 133.969 20.4955 131.98C19.9234 133.484 18.6861 134.335 17.7814 135.519L14.3888 139.956Z" fill="#CDCFD0"/>
<path d="M41.4168 48.1023L32.2434 50.7499C35.0772 49.1001 38.1306 48.2154 41.4168 48.1023Z" fill="#CDCFD0"/>
<path d="M49.8851 69.6289L42.6209 74.0593C44.5766 71.9173 47.1045 70.4538 49.8851 69.6289Z" fill="#CDCFD0"/>
<path d="M42.5344 45.8273L34.5184 48.4483C36.86 46.7253 39.8336 46.0468 42.5344 45.8273Z" fill="#CDCFD0"/>
<path d="M14.7746 136.151C15.0806 134.595 16.3445 133.49 17.3623 132.353C18.2604 131.348 18.9456 130.224 20.2494 129.559L14.7746 136.151Z" fill="#CDCFD0"/>
<path d="M42.9136 43.9247L35.3899 46.1532C37.1195 44.9292 38.9754 44.6764 40.8115 43.9979C41.3702 43.7917 42.102 43.7651 42.9136 43.9314V43.9247Z" fill="#CDCFD0"/>
<path d="M37.1926 52.7655L29.8153 55.4264C31.9041 53.7367 34.4918 53.0116 37.1926 52.7655Z" fill="#CDCFD0"/>
<path d="M34.8045 55.6659L28.0325 58.3135C30.0348 56.4841 32.4629 56.1981 34.9575 55.1404C34.9708 55.2269 34.8644 55.5927 34.8045 55.6659Z" fill="#CDCFD0"/>
<path d="M51.1158 64.7462L49.1201 65.6709C47.4371 66.4492 46.0268 67.4936 44.2374 68.5446C45.5212 66.6354 47.7231 65.9303 49.6988 64.9591C50.1978 64.7129 50.6102 64.5001 51.1158 64.7396V64.7462Z" fill="#CDCFD0"/>
<path d="M14.4154 149.436C15.2735 147.081 16.7437 144.992 18.8258 143.509L14.4154 149.436Z" fill="#CDCFD0"/>
<path d="M38.4632 50.69L31.3054 52.9185C33.2678 51.5614 35.7558 50.6767 38.4632 50.69Z" fill="#CDCFD0"/>
<path d="M33.6803 57.8212L27.181 61.0076C28.9173 59.1982 31.3719 58.187 33.6803 57.8212Z" fill="#CDCFD0"/>
<path d="M101.28 87.3239C99.5041 89.0003 98.6327 90.6367 97.6215 92.8253C97.6016 90.4504 99.3179 88.661 101.054 86.9979C101.121 87.0179 101.287 87.2507 101.28 87.3239Z" fill="#CDCFD0"/>
<path d="M64.6065 5.5147C64.4269 5.5147 64.041 5.50139 64.0677 5.41491C64.4136 4.45034 68.2253 2.58771 69.8751 3.2862C67.8794 3.78512 66.1165 4.04455 64.6065 5.5147Z" fill="#CDCFD0"/>
<path d="M48.5946 72.3363C46.7253 73.5337 45.2019 74.7178 43.2994 75.5227C44.6165 74.0393 46.3594 73.2809 47.8761 72.2432C48.0424 72.1301 48.7143 72.2099 48.5946 72.3297V72.3363Z" fill="#CDCFD0"/>
<path d="M96.351 91.8873L96.0383 91.588C96.6969 89.9781 97.1891 88.1488 98.779 86.9314L96.351 91.8873Z" fill="#CDCFD0"/>
<path d="M101.6 89.4392L99.1848 93.4106C99.2181 91.5347 100.455 90.3705 101.58 89.0068L101.6 89.4392Z" fill="#CDCFD0"/>
<path d="M46.5523 65.3981C47.5834 64.2805 48.9871 63.4823 50.5171 63.1896C49.2731 64.1608 48.069 64.8393 46.5523 65.3981Z" fill="#CDCFD0"/>
<path d="M42.0288 42.4745C40.8248 43.0865 39.7205 43.4524 38.3435 43.5721C39.3879 42.7938 40.6052 42.2882 42.0288 42.4745Z" fill="#CDCFD0"/>
<path d="M48.0092 74.0327C47.0379 74.984 46.0002 75.7956 44.6498 76.514C45.4015 75.4097 46.5191 74.4585 48.0092 74.0327Z" fill="#CDCFD0"/>
<path d="M101.014 93.231C100.941 91.8873 101.886 90.9227 102.877 90.1444C102.424 91.2886 101.852 92.2465 101.014 93.231Z" fill="#CDCFD0"/>
<path d="M30.72 60.8946L27.9593 62.5044C28.3053 61.4001 29.6357 60.848 30.72 60.8946Z" fill="#CDCFD0"/>
<path d="M17.981 129.293C17.1761 130.47 16.7703 131.169 15.7658 131.934C16.298 130.823 16.8834 130.091 17.5952 129.14L17.981 129.293Z" fill="#CDCFD0"/>
<path d="M85.1686 68.1455C83.5654 70.088 82.7205 72.1236 81.5364 74.3853C81.6362 72.0304 83.4057 69.9017 84.6763 68.0923L84.9756 67.7597C85.0488 67.6799 85.2085 68.1189 85.1752 68.1455H85.1686Z" fill="#CDCFD0"/>
<path d="M82.5542 76.4009C82.7006 74.2988 83.9911 72.1102 85.6143 70.5669L82.5542 76.4009Z" fill="#CDCFD0"/>
<path d="M83.8181 77.9908C83.9778 76.1348 84.8692 74.4784 86.0866 72.9883C85.5544 74.6713 84.8426 76.2878 83.8181 77.9908Z" fill="#CDCFD0"/>
<path d="M81.0109 70.507C81.4433 68.8905 82.2682 67.2674 83.8314 66.2429L81.0109 70.507Z" fill="#CDCFD0"/>
<path d="M85.1819 78.8556L84.9557 78.503L86.6853 75.2966C86.499 76.5872 85.9003 77.4919 85.1819 78.8489V78.8556Z" fill="#CDCFD0"/>
<path d="M29.6157 100.715L24.7263 100.788C23.5689 100.808 22.3914 101.526 21.1541 101.207C23.4225 100.07 25.7774 100.409 28.1256 100.316C28.6911 100.296 29.1966 100.276 29.6224 100.715H29.6157Z" fill="#CDCFD0"/>
<path d="M25.9836 102.81L19.7039 103.455C21.4934 102.371 23.5556 102.491 25.5712 102.444L27.8529 102.391C27.1943 102.657 26.589 102.744 25.9836 102.804V102.81Z" fill="#CDCFD0"/>
<path d="M23.8882 104.985C22.2717 105.032 20.8414 105.338 19.1318 105.611C19.8636 104.892 20.9678 104.586 21.9923 104.593L25.4182 104.62C24.9193 104.892 24.4802 104.972 23.8948 104.985H23.8882Z" fill="#CDCFD0"/>
<path d="M24.1144 106.309C22.6642 106.715 21.3204 106.868 19.7571 106.842C21.0543 106.083 22.5311 105.91 24.1144 106.309Z" fill="#CDCFD0"/>
<path d="M27.4671 98.6725L23.9613 99.1448C24.0279 99.1914 23.7684 98.9985 23.662 98.912C24.9459 98.473 26.1167 98.1337 27.4671 98.6725Z" fill="#CDCFD0"/>
<path d="M45.1221 98.5927C44.9891 97.9741 45.1687 97.1093 45.4813 96.3509C46.0933 94.8741 46.3195 93.2842 47.5834 92.027L45.1221 98.5927Z" fill="#CDCFD0"/>
<path d="M46.8251 98.7457C46.9116 96.8764 47.8695 95.24 49.0403 93.7366C48.4815 95.4129 47.7963 97.0294 46.8251 98.7457Z" fill="#CDCFD0"/>
<path d="M43.9314 97.6814C43.7251 96.0649 44.3571 94.3553 45.3616 92.792C45.0157 94.4417 44.6498 95.9451 43.9314 97.6814Z" fill="#CDCFD0"/>
<path d="M50.7699 99.1449C51.0825 97.6814 51.8076 96.3843 53.0582 95.4197L50.7699 99.1449Z" fill="#CDCFD0"/>
<path d="M48.6478 98.586C48.6677 97.0294 49.5259 95.9318 50.6102 95.0271L48.6478 98.586Z" fill="#CDCFD0"/>
<path d="M52.7522 99.2978C52.8254 98.3 53.5372 97.249 54.4951 96.4374C54.1159 97.4352 53.6902 98.3532 52.7522 99.2978Z" fill="#CDCFD0"/>
<path d="M86.7717 24.1343C84.337 25.4381 81.9821 26.3162 79.3412 27.1677C79.2414 27.0546 79.0618 26.8351 79.135 26.7885L79.4676 26.5624C81.9821 25.7974 84.204 24.9592 86.5855 23.6886L86.7784 24.1343H86.7717Z" fill="#CDCFD0"/>
<path d="M81.7892 24.5401C79.8867 25.212 78.2901 25.9637 76.3144 25.977L81.3701 24.2541L81.7959 24.1077C81.8823 24.0811 81.8291 24.4736 81.7959 24.5468L81.7892 24.5401Z" fill="#CDCFD0"/>
</g>
<defs>
<clipPath id="clip0_832_290">
<rect width="169" height="239.174" fill="white"/>
</clipPath>
</defs>
</svg>
