<svg width="235" height="203" viewBox="0 0 235 203" fill="none" xmlns="http://www.w3.org/2000/svg">
<path d="M195.215 235.786C196.492 241.799 197.565 247.358 198.083 253.371C198.693 260.493 199.905 267.311 201.117 274.359L202.236 284.007L202.865 293.341C203.096 296.745 203.152 300.177 203.845 303.488L206.14 314.468C206.214 314.801 206.889 315.254 207.083 315.079L204.271 300.806L203.605 291.694L203.929 271.381C204.021 265.378 204.53 259.624 203.281 253.574C202.643 254.555 203.189 255.683 203.226 256.756C203.503 264.98 203.374 273.055 202.902 281.158L202.31 277.375L199.341 259.171L198.721 253.898C198.379 247.701 197.38 241.845 195.964 235.814C195.15 232.364 195.576 228.765 194.54 225.371L191.922 219.182L190.276 212.568C188.481 205.353 182.838 200.506 182.302 188.453C182.182 185.863 181.405 183.514 180.6 181.099L177.483 171.738L177.094 171.646L177.853 175.244L180.988 184.494L182.367 194.253L179.943 208.267L170.517 191.691L163.015 178.62C161.23 175.503 159.621 172.654 158.113 169.148L161.202 168.991C163.385 168.88 165.624 169.074 167.742 168.473C169.86 167.872 172.071 167.215 174.032 166.17C178.842 163.607 183.504 161.212 188.703 159.417L196.094 156.864C199.692 155.615 203.577 154.931 207.379 154.626L212.263 154.246C213.429 157.262 214.52 160.555 214.391 163.959C214.27 167.344 213.965 170.591 214.825 173.931C217.221 183.218 218.609 192.588 218.192 202.208C218.026 206.066 217.637 209.775 218.174 213.54L219.432 222.281C219.894 225.482 219.709 228.016 218.525 231.041C217.896 232.66 218.895 235.231 219.635 236.721C220.542 238.543 221.125 240.236 221.134 242.261C221.143 246.063 221.717 249.597 222.929 253.214C224.853 258.976 227.295 264.48 228.543 270.474C229.33 274.258 229.182 278.133 229.746 282.009L231.753 290.556L233.779 300.352C235.092 306.707 233.973 309.612 228.192 312.951L228.229 313.7L232.678 310.481C233.557 312.165 233.668 314.459 232.28 316.068C228.627 317.9 224.325 318.917 220.283 317.946L211.727 315.902C210.765 315.671 209.285 315.726 208.406 315.948C208.138 316.744 207.37 317.326 206.713 317.53C206.426 317.622 206.769 318.39 207.028 318.381C208.397 318.325 208.878 315.735 212.467 316.642L220.477 318.668C221.698 318.973 223.447 319.019 224.742 318.982C227.369 318.908 229.468 318.094 232.225 317.493C232.354 318.233 232.419 319.186 232.382 319.879C230.44 321.128 228.349 322.035 227.202 323.996L231.642 321.11L232.299 320.906C233.196 320.638 231.753 323.024 228.812 324.569L222.956 329.712C218.331 331.858 213.031 332.228 208.11 330.711C205.214 329.823 203.133 326.845 203.947 323.875L204.687 321.156L204.215 321.008C202.245 323.82 202.671 326.984 204.752 329.342C206.556 331.396 208.905 332.367 211.616 332.515C215.695 332.737 219.617 332.432 223.373 330.591C224.057 330.258 224.621 329.194 225.158 328.593C226.952 326.595 229.191 325.115 231.439 323.737C234.732 321.711 232.502 318.251 233.353 316.559C233.936 315.402 234.26 314.505 234.093 313.303L233.548 309.417C234.667 307.336 235.222 305.329 234.926 303.035C234.14 296.958 232.641 291.269 231.143 285.33C229.533 278.901 230.19 271.927 228.284 266.404L222.993 251.095C221.014 245.369 222.744 241.096 220.616 236.906C219.719 235.139 218.525 232.604 219.321 230.597C220.366 227.97 220.597 225.648 220.126 222.771C219.543 219.192 218.794 215.602 218.803 211.93L218.84 195.733C218.858 189.295 217.795 183.107 216.241 176.891C215.205 172.737 214.724 168.834 215.047 164.532C215.186 162.664 215.01 160.675 214.548 158.899L213.318 154.246C214.354 154.191 215.787 154.145 216.537 153.377C217.452 152.442 215.38 147.771 214.067 146.088L207.111 137.161L201.699 128.623L207.12 125.691C208.323 125.044 209.914 124.267 210.607 123.083C212.365 120.058 212.374 116.728 212.18 113.333C211.68 104.73 208.249 99.2171 204.548 92.0575L202.338 87.7747C199.424 82.1414 196.954 76.4803 193.846 70.9672C192.412 68.4234 190.868 66.1664 189.276 63.7428C183.366 54.7332 174.772 48.5448 163.746 47.3793C163.404 47.3516 163.33 47.6013 163.543 48.0268C166.327 48.6281 168.991 48.8778 171.646 49.9046C178.26 52.4669 183.8 57.0642 187.769 62.8733C190.794 67.3041 193.504 71.5129 195.89 76.286L198.527 81.5864L201.006 86.7664L205.76 95.8316C209.849 103.62 212.735 110.567 211.061 119.678C210.783 121.168 209.941 122.842 208.628 123.721C205.612 125.756 202.513 127.43 199.165 128.956C192.884 131.833 186.64 134.294 179.573 135.524C178.315 128.975 175.281 123.11 171.784 117.218L176.891 114.933L176.104 119.151C176.428 119.207 176.965 118.79 177.002 118.541C177.427 115.627 178.408 113.12 180.313 110.909L185.724 109.642C188.999 112.399 191.95 115.516 194.05 119.281L194.429 119.965C194.503 120.095 194.993 119.873 195.104 119.743C193.606 116.247 190.812 113.74 188.351 110.595L196.223 112.778L196.251 112.093L188.24 109.605L193.411 108.208C194.586 107.894 195.872 107.45 196.297 106.164C193.051 107.718 190.072 108.754 186.594 108.504C185.678 106.923 184.957 105.35 184.318 103.555C185.974 103.953 186.723 105.396 188.555 104.943C180.443 100.494 178.352 97.6261 175.078 89.4027C173.93 86.5352 172.034 84.2597 170.48 81.6419L164.801 72.0125C166.947 79.6623 172.608 84.3336 175.3 91.8725C176.28 94.6013 177.76 97.0619 179.564 99.3651L182.949 102.39L185.576 108.662C182.496 110.243 180.23 108.967 178.565 111.881C178.028 112.815 177.261 113.851 176.289 114.286L171.294 116.524L169.629 114.905C167.317 115.775 165.115 116.774 163.052 118.143L152.544 125.136C149.963 119.151 147.632 113.703 145.542 107.811L141.462 96.3033C140.066 92.3535 138.04 81.4106 138.354 77.7568L138.715 73.4832C139.039 69.6537 139.307 65.9629 140.473 62.2998C140.843 61.1528 142.101 60.9493 143.016 60.4405L147.077 58.1927L151.832 60.6995C152.193 60.8845 153.034 60.4035 153.192 60.0428C154.857 56.352 156.605 52.9017 159.195 49.8584C159.806 49.1368 160.481 48.6466 160.573 47.5921C158.732 48.9148 157.28 50.5244 156.244 52.4946L152.202 60.1445C150.694 59.5063 149.325 58.5442 148.067 57.425C151.314 55.2419 151.194 51.3291 151.101 47.3331L153.266 44.7985C154.061 43.8643 154.625 42.93 154.977 41.6535C156.475 43.3832 157.946 44.965 159.75 46.149C160.361 46.5468 160.629 46.8243 161.286 47.5458L161.785 47.1481C161.952 47.0186 161.517 46.4173 161.369 46.2785C158.982 45.076 157.151 43.3278 155.597 41.154C153.469 39.7294 152.331 35.6779 153.506 33.7353L152.97 29.7023C154.006 27.88 152.6 26.2982 153.182 23.4769L152.979 21.0071C154.015 18.9906 153.053 15.087 151.471 13.5515L149.945 12.0715L147.873 10.055C145.69 7.92743 142.887 6.31791 139.723 5.53165C141.61 7.46493 144.386 7.66843 146.171 9.72196L142.406 8.68595C141.906 8.54719 141.342 7.56668 140.926 7.27992L135.357 3.41336L139.483 3.73712C141.25 3.87587 142.674 5.26339 144.598 5.05989C142.739 3.90362 140.815 3.45961 138.909 2.78435L136.208 1.81309C135.33 1.49858 134.266 0.684568 133.202 0.508815C130.399 0.0278076 127.467 -0.258947 124.655 0.286812C122.379 0.730819 120.178 1.18408 117.893 1.18408C112.907 1.19333 109.198 4.48638 107.746 9.03745C106.673 12.4045 105.84 15.5126 105.794 19.1479C105.766 21.5622 105.405 24.4112 106.543 26.5942L112.907 38.7859C113.684 40.2752 114.896 41.8292 115.211 43.4387C115.47 44.7338 115.396 45.8438 116.348 46.8521L123.887 54.8257C121.168 56.3335 118.994 57.8505 117.236 60.3018C111.742 67.9424 108.365 76.5543 106.497 85.7859C105.47 90.8365 104.508 95.6373 104.175 100.669C101.631 101.946 99.1708 103.111 97.4965 105.276L92.8622 111.261C91.7799 111.048 90.6514 110.919 89.8466 111.104L85.5453 116.903L78.9222 124.988L75.6384 128.66L75.8974 129.225L79.1627 125.821L85.6656 117.884L90.3369 111.64C91.6412 111.659 93.1767 112.093 94.111 112.954L99.3003 117.764C102.122 120.381 103.685 123.989 103.676 127.976C103.343 128.836 101.974 129.955 101.03 130.288L91.4839 133.702C89.7634 134.312 88.1724 135.191 86.7016 136.292C84.6758 137.818 85.3788 141.601 83.5565 144.968C79.5697 142.73 74.9817 141.749 71.6423 144.552C68.8673 146.874 66.3143 149.741 64.603 153.025L62.9565 157.299C61.6152 154.172 62.087 150.611 63.5392 147.549L66.5455 142.341C63.863 143.849 63.4005 146.624 61.8465 149.057C62.0037 142.573 64.2422 138.734 69.2928 135.08C71.1983 133.702 73.5016 132.629 74.4174 130.214L68.9136 134.414C68.155 134.987 67.3781 135.293 66.4623 134.719L59.7097 130.529L35.1875 115.081L22.2558 106.978C22.0893 106.95 21.7286 107.061 21.3586 107.265L31.0712 113.305L48.3782 124.22L66.5825 135.774C66.4253 136.532 65.6945 137.337 64.9268 137.494L42.3656 122.907L28.0187 113.694L21.5528 109.642L20.9886 110.169L26.2519 113.416L41.3019 123.055L46.1582 126.191L64.4735 137.901C64.455 138.604 64.048 139.252 63.493 139.77L52.4113 132.814L34.8638 121.269L25.7061 115.109L25.2899 115.34C25.2066 115.386 25.2899 115.608 25.3546 115.812L51.0238 132.758L63.012 140.223C63.1137 140.797 62.7345 141.537 62.2442 141.916L55.5749 137.615L47.1295 132.24L36.0108 125.145C35.8813 125.136 35.4465 125.108 35.4928 125.21L35.7148 125.737L44.8632 131.602L60.9954 141.925C61.4117 142.193 61.8742 142.582 61.976 142.896C62.0777 143.211 61.6799 143.997 61.3654 144.219L44.5579 133.211C44.1879 133.073 43.9012 133.637 44.2527 133.785L60.8937 144.728C61.3932 145.061 61.4672 145.764 61.3562 146.485L60.7919 146.735L54.6221 142.656L49.442 139.289C49.3403 139.224 48.6372 139.233 48.7112 139.307L49.2292 139.816L54.3538 143.239L61.0602 147.734L61.0139 152.193L62.0407 157.271C62.1055 157.613 62.716 158.224 63.0305 158.224C64.344 158.242 64.381 154.006 66.2495 151.48L69.1448 153.081L69.3483 152.729L67.0913 150.999C66.8785 150.472 67.7573 149.307 68.3956 149.196L73.7699 152.6L74.0751 152.202L68.7471 148.456L70.3936 146.791L79.394 152.516L79.8472 152.063L71.1243 146.347C71.4481 145.764 72.2159 145.153 72.7709 145.126C76.6559 147.142 79.5697 150.38 83.9265 151.619L73.3444 144.45C74.4267 143.794 75.3794 144.043 76.4432 144.45L87.3399 151.221L88.0336 151.138C88.1816 151.12 87.7839 150.666 87.6729 150.546L77.1924 144.053C79.2737 143.507 81.3088 144.293 83.0848 145.459L90.0039 150.019L97.0433 154.265C97.0433 154.265 97.6815 153.849 97.5705 153.756L97.0248 153.312L91.2619 149.677L84.4631 145.422L85.7026 141.065C85.9986 140.01 85.9616 138.308 86.7108 137.457C88.1446 135.829 90.1519 135.052 92.1222 134.312L101.779 130.695L104.619 128.559L104.656 126.015L110.659 122.491C113.462 120.844 115.821 118.272 117.366 115.423C117.875 114.489 117.986 113.12 118.957 112.602C120.474 111.788 121.676 110.817 122.49 109.318L126.227 102.445L131.5 112.685L136.717 122.777L140.177 129.567C135.709 129.918 132 130.927 128.3 133.1L122.009 127.791L123.323 125.497L123.591 124.942C123.665 124.794 122.888 124.341 122.777 124.452L120.631 126.875C118.892 125.876 117.144 126.487 116.182 127.92C115.109 129.53 115.544 131.167 117.024 132.536L112.796 139.076L107.986 146.661L105.174 150.925L99.4483 159.278L95.7112 165.568C96.6363 165.652 97.256 165.097 97.7278 164.357L101.789 158.104L108.791 147.734L118.041 133.702C119.734 134.802 120.973 135.829 122.241 137.078C121.602 140.223 121.704 143.054 123.092 145.921L126.237 149.057L131.824 151.786C134.627 153.155 137.346 153.414 140.325 151.98L146.199 156.753L146.3 164.264C146.319 165.735 147.022 166.789 148.567 167.196C148.826 168.297 149.159 169.796 149.094 170.98L148.224 187.177C147.864 193.948 148.409 200.432 149.066 207.176L150.167 218.507L152.026 232.808C152.803 238.793 152.748 244.555 154.117 250.429L155.18 256.368L155.476 268.726L155.828 281.963L156.096 285.478L156.355 296.375L156.42 302.878L149.658 303.923C142.591 304.459 135.737 304.052 128.744 302.97L115.775 300.963L103.796 298.752L93.3432 296.005L93.2045 292.527L93.1674 262.269C93.1674 257.589 92.9084 253.306 91.9557 248.792C90.7439 243.048 87.3584 237.951 81.7713 235.722C78.95 234.593 75.8882 234.316 72.9096 233.659L61.0694 231.041L51.5048 229.117L30.7752 225.778C25.8911 224.991 8.13084 225.491 4.36604 227.868C0.980484 230.005 0.249725 234.094 0.203476 237.812L-3.05176e-05 255.332L0.110977 265.211L0.194229 289.049C6.85432 293.535 13.8474 297.069 20.8221 301.074L35.206 309.325L45.3534 315.402C45.5569 315.467 46.1582 315.615 46.186 315.439L46.3524 314.348L46.5467 313.034L55.5009 311.138L78.617 306.883L88.5331 304.987C89.7449 304.755 91.3082 305.801 92.409 306.226L93.0379 306.467C93.1397 306.504 93.4265 306.087 93.4265 305.912L93.4727 300.796L93.815 300.297C103.38 302.739 112.806 305.061 122.629 306.3L135.57 307.493C139.844 307.891 143.997 307.604 148.234 307.133L155.495 306.337C155.615 306.282 155.939 306.143 155.939 306.226V306.901L156.161 309.371C153.959 312.267 151.027 315.088 147.577 316.531L141.111 319.241C139.733 319.824 139.483 321.341 140.001 322.506C140.695 324.088 142.027 324.662 143.535 325.189C148.65 326.993 153.663 326.725 158.723 324.856L165.43 323.061L174.717 322.423L183.134 321.285C185.308 320.989 185.29 316.401 184.457 313.173C183.514 309.482 184.115 305.939 185.077 302.323C186.279 297.809 185.993 293.174 185.447 288.577L189.757 280.52C192.477 274.165 194.272 267.709 194.734 260.78L194.938 257.783L194.919 249.689C194.91 244.019 192.181 232.928 189.702 227.507L185.817 219.007L180.831 209.886C180.517 209.303 180.655 208.073 180.766 207.379L181.913 200.534L182.57 196.982C182.764 196.519 182.922 196.529 182.931 197.084C184.281 200.969 186.039 204.29 187.833 207.888C189.628 211.486 190.063 215.121 191.08 218.803L193.828 225.389C194.808 228.719 194.447 232.207 195.197 235.74L195.215 235.786ZM128.614 2.30334L127.513 1.78534C129.595 1.17483 131.417 1.10082 133.267 1.57258L128.614 2.31259V2.30334ZM116.145 44.4655C123.628 44.5395 130.214 43.7163 135.922 39.5629C137.54 38.3882 138.465 36.7601 137.947 34.6789C136.939 30.5718 135.135 26.511 132.305 23.2827C131.472 22.3392 129.299 22.8294 128.309 23.3752C122.037 26.881 114.952 28.2963 107.857 26.881C107.033 26.1502 106.895 24.8922 106.747 23.8747C106.053 18.9536 106.839 14.458 108.236 9.81446C109.744 4.81013 113.962 1.38758 119.419 1.90559C124.322 1.14708 128.845 2.72885 132.767 5.7999C135.644 8.6767 138.715 11.3685 141.092 14.7818C143.035 17.5846 144.802 20.7666 145.884 24.0134C148.058 30.4885 149.862 42.3472 150.324 49.4421C150.481 51.8286 150.01 54.6592 148.261 56.2225C144.367 59.6913 134.312 63.9001 131.963 61.6153L124.646 54.5019L117.033 46.5098C116.552 46.0103 116.182 45.0945 116.154 44.4748L116.145 44.4655ZM134.062 3.85737L130.307 2.85835C131.926 2.29409 133.119 2.33109 134.821 2.61785L133.174 3.09886L134.062 3.85737ZM132.286 4.59738C133.785 4.31988 135.487 4.88414 136.81 5.80915C135.246 5.62415 133.877 5.42989 132.286 4.59738ZM139.751 8.25119C139.511 9.0837 139.603 9.01895 139.797 9.72196L137.244 8.60269C136.153 8.12169 135.246 7.28917 134.636 6.27166C138.475 6.71566 143.757 9.2132 144.626 12.4138L146.504 15.6698C145.607 15.4201 145.264 14.9853 144.756 14.3655L139.742 8.24194L139.751 8.25119ZM138.456 10.6562C138.391 10.2215 138.41 9.92547 138.53 10.018C140.417 10.684 141.527 11.091 142.295 12.7005L138.465 10.6562H138.456ZM147.383 16.5116C147.244 14.606 146.023 13.8475 146.273 13.5053L146.929 12.5803L149.103 14.865L147.383 16.5116ZM140.861 13.0243C142.267 13.2093 143.683 14.0695 144.164 15.5218C142.646 15.2165 141.536 14.458 140.861 13.0243ZM144.987 19.6196C147.096 18.1118 148.918 16.2341 150.898 14.125C152.202 15.6328 153.247 18.3153 152.424 20.0914C151.434 22.2467 149.168 23.6989 147.383 25.179L144.987 19.6104V19.6196ZM143.34 16.2248C144.645 16.5856 144.885 16.8261 145.579 17.3811L145.422 18.2228C145.394 18.3524 144.756 18.2506 144.682 18.1396L143.34 16.2156V16.2248ZM116.237 43.0965L113.277 37.9072L108.097 27.954C115.349 29.0548 122.675 27.4082 128.882 23.9579C130.372 23.1809 131.898 23.4677 132.804 24.883C134.636 27.7782 136.125 30.8401 137.059 34.1331C138.225 38.2679 134.303 40.2012 130.233 41.7922C125.783 43.5405 121.02 44.2158 116.247 43.0965H116.237ZM150.935 33.9203L149.899 24.3927L150.685 24.3742V29.0455C150.666 30.7013 151.86 32.1906 150.935 33.9111V33.9203ZM148.613 25.6507C148.604 25.5305 149.112 24.9477 149.214 24.92L149.667 30.285L149.149 30.2388L148.622 25.6507H148.613ZM150.907 46.0195L149.973 40.3214C149.88 39.7664 150.241 38.5177 150.417 38.3604C151.009 39.0912 151.397 39.3132 151.943 39.3594L153.895 42.301C153.034 43.9013 152.22 44.891 150.907 46.0195ZM121.584 92.2518L125.635 101.298C124.757 103.879 123.323 106.164 121.963 108.532C121.297 109.688 120.529 110.928 119.308 111.437C116.339 112.685 117.949 115.127 113.62 119.04L110.844 121.547L104.268 125.007C102.316 118.781 98.5048 115.571 93.6762 111.603L96.6918 107.394C98.5788 104.767 101.187 102.63 104.194 101.705L104.564 105.054C105.683 102.788 104.952 100.799 105.202 98.5604C105.988 91.6598 107.191 84.9812 109.124 78.3488C110.086 75.0557 111.353 72.1697 112.88 69.1449C115.738 63.4746 118.624 58.091 124.498 55.5934L131.186 62.3368C133.97 63.4838 136.569 63.0398 139.696 61.6245C138.364 66.3144 138.068 70.8469 137.799 75.6385C137.651 78.3211 137.624 80.7353 138.077 83.3809L139.372 90.9013C140.713 98.6621 146.467 111.862 149.667 120.048L151.869 125.663C148.678 128.309 145.024 129.548 140.917 129.474L134.497 116.709L130.612 109.735L125.247 98.9119L122.111 91.7153L119.9 85.3789L118.513 79.4403C117.902 80.1711 117.856 81.1886 118.134 82.0674L119.669 86.8959L121.575 92.2333L121.584 92.2518ZM124.747 146.421C122.971 146.032 122.102 140.787 122.888 137.577L125.58 139.437C126.949 140.131 127.939 138.66 128.753 138.049L133.683 134.303C132.499 134.358 132.009 134.765 130.964 135.45L128.947 133.628C131.565 132.249 133.97 131.084 136.782 130.779L144.552 129.946C146.633 129.724 148.678 128.753 150.407 127.56L159.667 121.232C162.84 119.068 165.883 116.987 169.509 115.701C172.145 118.8 173.838 122.185 175.549 125.728C177.344 129.456 179.138 134.062 178.639 138.123C175.67 139.428 172.663 139.779 169.407 140.01L163.108 140.445C158.066 140.797 153.608 142.619 149.371 145.375L140.658 151.046C137.855 152.868 134.442 152.6 131.713 150.777L133.868 150.259L132.952 149.788C130.242 149.954 127.624 149.381 125.654 147.521C128.411 147.401 130.742 147.392 133.017 146.411C130.261 145.995 128.947 147.318 124.757 146.411L124.747 146.421ZM128.031 137.818C127.393 138.373 126.237 139.187 125.404 138.503L117.486 132.018C116.154 130.927 115.858 129.437 116.792 128.198C117.791 126.875 119.493 126.727 120.761 127.828L126.264 132.629L130.159 135.977L128.031 137.818ZM175.91 164.153C173.912 160.194 171.516 156.864 169.194 153.303L163.737 144.922C162.895 143.812 162.303 142.785 161.73 141.426C165.124 140.861 167.964 140.76 171.211 140.658C173.921 140.575 176.613 139.77 179.185 139.067L179.749 136.31C187.297 134.802 193.559 132.305 200.756 129.058L204.484 134.451C205.881 136.477 207.018 138.503 208.609 140.38C211.523 143.821 215.195 148.021 215.908 152.137C216.13 153.423 214.317 153.469 213.567 153.506C207.388 153.793 201.487 154.663 195.557 156.198L188.222 158.936C184.032 160.499 180.026 162.164 175.91 164.172V164.153ZM157.724 168.242C156.013 164.838 154.579 161.841 153.469 158.446C153.127 157.401 152.748 156.614 152.128 155.578C152.1 155.199 152.183 153.682 151.758 153.275L146.606 148.345C150.426 145.015 155.874 142.064 160.74 141.648L169.675 155.153L174.43 162.812C174.717 163.274 174.754 164.421 174.587 164.976C168.954 167.955 164.199 168.658 157.743 168.232L157.724 168.242ZM148.428 157.28C145.681 155.467 143.488 153.839 141.231 151.619L145.801 148.715L151.027 153.571C151.647 154.145 151.166 155.569 150.74 156.078C150.25 156.661 149.455 157.197 148.437 157.29L148.428 157.28ZM151.832 159.066C151.416 159.315 150.528 158.585 150.343 158.094C150.185 157.678 150.972 156.79 151.545 156.772C152.304 156.744 152.97 158.381 151.832 159.066ZM147.096 165.245L146.985 157.465C148.798 157.872 150.407 158.788 151.157 160.472L154.514 168.02C151.73 167.77 149.094 167.122 147.096 165.254V165.245ZM112.167 303.729C102.048 302.082 92.5754 299.464 83.0478 296.264C82.5113 296.088 82.0858 295.293 82.1043 294.876C82.1228 294.506 82.798 293.609 83.2143 293.729L90.6514 296.005C98.6805 298.456 106.599 300.565 114.961 301.666L137.892 304.681L148.511 304.7L157.077 303.516C161.693 302.498 166.151 301.139 170.258 298.706C174.689 296.079 178.435 292.628 181.719 288.716C183.06 287.115 183.948 285.469 184.975 283.665C189.665 275.414 192.292 266.478 192.764 256.951L192.69 252.844C193.18 243.806 190.766 235.666 187.121 227.544L181.534 215.066C179.499 210.515 176.428 206.713 173.977 202.384L168.02 191.867L165.864 188.12L158.14 173.209L155.143 167.344L152.202 160.823C152.109 160.62 152.026 159.917 152.239 159.861L153.099 159.639L156.79 168.001C158.529 171.942 160.573 175.485 162.655 179.24L166.225 185.697L173.209 197.851L181.016 211.523C183.643 216.12 185.909 220.607 188.018 225.435C189.175 228.09 190.627 230.514 191.247 233.372L194.124 246.646L194.373 249.902V258.384L194.114 261.677L193.818 264.564L191.45 274.258L188.666 281.491L185.835 286.616C183.578 290.714 180.193 294.062 176.641 297.05C167.807 304.487 155.476 306.069 144.136 306.744L136.495 306.781L124.516 305.717L112.204 303.71L112.167 303.729ZM183.19 285.608C179.795 290.593 173.903 296.227 168.732 298.669C164.995 300.426 161.508 302.008 157.28 302.665L156.966 293.452L156.688 285.543L156.475 282.278L156.263 271.381L155.957 260.493C155.874 257.339 155.689 254.453 155.014 251.364C153.626 245.092 152.951 238.931 152.766 232.493L150 209.285L149.057 198.36C148.696 194.179 148.705 190.174 148.964 186.011L149.926 170.712L149.667 167.881L155.412 169.102L157.484 173.561L163.533 185.123L166.697 190.784L170.989 198.573L179.453 212.809C178.953 217.878 177.779 222.549 176.28 227.378C175.855 228.756 175.161 230.366 175.818 231.698C177.621 235.361 173.681 236.129 175.42 240.06L177.224 244.121C178.001 247.145 178.315 250.263 178.25 253.408C178.112 259.855 179.231 265.849 181.192 271.927L183.874 282.287C184.17 283.425 183.902 284.562 183.208 285.589L183.19 285.608ZM179.471 262.112L178.87 254.314C178.593 250.762 178.916 247.229 177.862 243.788L175.929 239.246C174.726 236.434 178.787 235.102 176.16 230.68L178.741 221.005L180.063 214.132L183.301 220.755L188.962 233.298C191.016 237.849 192.311 246.183 192.126 251.373L191.783 261.122C191.117 268.661 188.666 275.802 184.762 282.5L181.016 269.263L179.481 262.121L179.471 262.112ZM31.099 306.208L15.6327 297.429L1.01749 288.78L0.758484 283.129L0.61972 259.3V253.325L0.832489 245.471L0.989731 238.7C1.10999 233.4 2.38651 227.924 7.90884 227.248C15.3367 226.333 22.6443 226.175 30.2202 226.323L55.9541 230.717L77.0722 235.296L68.9598 235.888C62.6142 236.351 56.4166 237.128 50.367 239.061C47.4255 241.281 46.2692 244.528 46.1397 248.163L46.0657 268.116L45.8159 273.74L45.7142 298.123V308.437C45.7142 310.509 45.7142 312.331 45.3257 314.44L31.1082 306.189L31.099 306.208ZM89.5876 299.02L88.9124 303.978L56.0096 310.444L46.3617 312.322L46.3432 298.16L46.4912 273.758L46.667 257.561C46.7502 250.096 45.7142 240.356 53.1051 238.987L63.7057 237.026L77.8677 236.304C79.3015 236.23 80.5502 236.841 81.7065 237.507C85.0921 239.468 87.2844 242.53 88.1446 246.396L89.2546 254.601L89.7819 263.546L89.8652 279.012L89.5969 282.268L89.4304 289.049L89.3934 294.626C84.5371 294.108 85.6748 291.084 83.3253 290.408C82.243 290.103 80.8555 290.371 79.949 291.139C78.5707 292.314 78.1545 294.238 78.6355 296.023C78.9962 297.392 80.1987 299.085 82.0488 299.335C83.2235 299.492 84.5093 298.401 85.4713 297.79L89.5969 299.011L89.5876 299.02ZM90.2906 294.811L90.3832 278.624V263.306L90.0409 257.256C89.6339 250.115 89.6709 244.315 84.8238 238.404C90.5219 242.076 91.9464 249.782 92.2239 256.368L92.5385 263.768V295.329C91.9557 295.801 90.3184 295.487 90.2814 294.821L90.2906 294.811ZM156.901 308.206C156.633 307.586 156.753 306.346 157.215 306.05C162.618 305.042 167.603 303.451 172.376 300.889L177.261 297.494L184.753 289.724C185.428 294.719 185.253 299.492 183.837 304.071C182.422 308.65 184.041 310.592 182.015 311.11C175.929 312.683 169.722 312.017 164.014 309.454C161.72 308.418 159.593 308.15 156.892 308.196L156.901 308.206ZM84.1763 297.633C83.6861 297.984 82.8813 298.484 82.428 298.539C80.6705 298.771 78.2285 295.339 79.7547 292.351C80.2542 291.38 81.4938 290.982 82.613 291.176C83.3808 291.306 84.3058 292.046 84.6573 293.008C83.2975 292.869 82.3633 292.934 81.7528 293.711C81.2255 294.386 81.207 295.968 81.947 296.375L84.1856 297.624L84.1763 297.633ZM90.1334 304.293L90.3647 299.344C91.2064 299.557 91.9927 299.77 92.3812 300.019C92.7697 300.269 92.6864 301.37 92.6864 301.869V305.421L90.1334 304.293ZM174.402 321.785L165.892 322.312C161.656 322.571 155.615 326.234 148.826 325.79C145.144 325.55 139.557 323.838 140.759 320.693C142.628 318.853 145.681 318.594 147.993 317.354C150.555 315.985 153.062 314.413 154.903 312.211L157.474 309.14C159.843 308.77 162.164 309.288 164.366 310.287C170.203 312.942 176.687 313.321 183.06 311.647C183.884 313.432 184.3 315.495 184.078 317.595C180.572 319.158 176.9 319.241 173.144 319.546C171.535 319.676 169.888 319.491 168.612 320.564L174.402 320.009L177.982 319.787C180.017 319.667 181.839 319.315 183.856 318.806C184.383 321.165 178.102 321.554 174.411 321.785H174.402Z" fill="#CDCFD0"/>
</svg>
