<?xml version="1.0" encoding="UTF-8"?>
<svg id="Layer_1" xmlns="http://www.w3.org/2000/svg" viewBox="0 0 100 100">
  <defs>
    <style>
      .cls-1 {
        fill: #fff;
      }
    </style>
  </defs>
  <path class="cls-1" d="M4.43,31.85c0,3.88,2.03,6.98,4.73,7.4l1.26,8.42c.07.47.47.81.94.81h0l5.01,18.85-.67.99c-.23.33-.22.77.02,1.1l11.62,15.97s0,.01.02.02c1.44,1.88,2.22,4.18,2.22,6.54v3.8c0,.53.43.95.95.95h55.14c.4,0,.76-.25.9-.63l.29-.79c.3.06.6.1.9.1.82,0,1.62-.22,2.34-.63,1.5-.84,2.66-2.39,3.19-4.25.82-2.9-.13-5.8-2.14-7.06l4.38-12.1c.18-.49-.08-1.04-.57-1.22-.04-.02-.09-.03-.13-.04l-15.28-3.17c-.47-.1-.93.17-1.09.62l-1.31,3.72c-.31-.61-.68-1.18-1.11-1.7-.64-.74-1.38-1.41-2.18-1.98l.69-.25c.82-.29,1.28-1.15,1.07-2l-4.23-16.58c.32.01.63.06.94.13.51.12,1.03-.2,1.15-.71.04-.17.03-.35-.02-.52l-.66-2,9.27-2.78c.84-.25,1.31-1.13,1.06-1.97-.16-.54-.6-.96-1.16-1.09l-11.12-2.56c-.44-1.47-1.05-2.89-1.83-4.22l6.91-11.32s.02-.03.03-.04c.41-.77.13-1.73-.64-2.14-.5-.27-1.1-.25-1.58.05l-11.52,7.07c-.85-.42-1.74-.78-2.65-1.06-.13-.04-.27-.08-.41-.12l-3.1-13.22s0-.04-.01-.05c-.25-.84-1.13-1.31-1.96-1.06-.54.16-.96.6-1.09,1.15l-3.1,12.92c-.47.11-.93.23-1.39.37-.92.28-1.82.64-2.68,1.07l-11.51-7.06c-.74-.46-1.71-.24-2.18.5-.3.48-.32,1.09-.05,1.59,0,.02.02.03.03.04l6.91,11.31c-.77,1.33-1.39,2.74-1.83,4.22l-11.12,2.56c-.85.2-1.38,1.04-1.18,1.89.13.55.54.99,1.09,1.16l9.26,2.77-.64,1.93c-.17.5.1,1.04.6,1.2.05.02.1.03.15.04l-2.64,9.3-6.09-3.55-6.41-21.4.84-8.72h.2c.53,0,.95-.43.95-.95v-4.43c0-.53-.43-.95-.95-.95h-1.2c1.36-1.96,1.75-4.44,1.05-6.72-.15-.51-.68-.79-1.19-.64-.23.07-.43.22-.55.43-.26.44-.78.66-1.28.55-.52-.1-.92-.52-1-1.04-.47-2.95-1.9-6.62-1.97-6.78-.19-.49-.75-.73-1.24-.54-.13.05-.25.13-.34.23-4.23,4.47-6.12,8.45-5.6,11.81.15.97.51,1.89,1.07,2.7h-2.42c-.53,0-.95.43-.95.95v4.43c0,.53.43.95.95.95h.39l.14.95c-1.6,1.28-2.65,3.66-2.65,6.46ZM11.06,39.09c2.37-.77,4.09-3.68,4.09-7.24,0-3.9-2.05-7.01-4.78-7.41h8.73l-.83,8.71h0s-1.29,13.43-1.29,13.43h-4.8l-1.12-7.48ZM48.96,94.8l12.49-21.17,3.06.64c.65.14,1.32.21,1.99.21,1.15,0,2.29-.2,3.37-.59l-6.64,20.92h-14.28ZM43.13,51.65v-3.98c1.74-.84,3.75-2.34,6.12-5,.44-.11.87-.27,1.28-.47,1.83-.9,3.18-2.64,4.03-5.19,1,3.51,2.78,5.14,4.44,5.88,2.82,3.15,4.93,4.65,6.79,5.35v3.41c0,6.26-5.07,11.34-11.33,11.34-6.26,0-11.34-5.07-11.34-11.33h0s0,0,0,0ZM46.06,61.9l-.93,3.67c-.76-.56-1.53-1.06-2.28-1.53l.51-5.18c.74,1.14,1.65,2.17,2.7,3.04ZM44.5,40.33c1.71-3.39,5.03-5.66,8.8-6.04-.61,3.24-1.82,5.32-3.6,6.2-1.89.93-4.07.3-5.21-.16h0ZM55.95,34.34c3.78.51,7.03,2.92,8.6,6.39-1.26.81-2.81,1.03-4.25.63-2.29-.7-3.79-3.12-4.36-7.02h0ZM47.73,63.07c4.15,2.47,9.32,2.47,13.47,0l2.3,9.04-14.68-3.07c-.62-.78-1.31-1.5-2.06-2.16l.97-3.81ZM65.13,70.78l6.45-2.38c.63.33,1.23.72,1.78,1.18l-2.42,1.63c-1.58,1.06-3.48,1.52-5.36,1.29l-.44-1.73ZM91.44,89.98c-.39,1.36-1.24,2.53-2.28,3.11-.61.37-1.35.48-2.04.3-1.72-.49-2.57-2.81-1.9-5.18.39-1.36,1.24-2.53,2.28-3.11.43-.25.91-.38,1.4-.39.22,0,.43.03.64.09,1.72.49,2.57,2.81,1.9,5.18h0ZM77.64,78.65c.49-1.39.64-2.88.45-4.35l1.88-5.35,13.38,2.78-4.02,11.1c-.96-.08-1.93.13-2.76.61-1.5.84-2.66,2.39-3.19,4.25-.77,2.7,0,5.41,1.74,6.78l-.12.34h-13.04l5.68-16.15ZM74.72,70.96c1.54,2.01,1.96,4.66,1.13,7.05l-5.91,16.79h-4.7l7.04-22.19,2.44-1.65ZM73.71,65.58l-9.05,3.34-1.79-7.03c3.06-2.52,4.84-6.28,4.83-10.24v-2.94c.57.07,1.14.09,1.71.07l4.29,16.8ZM71.49,40.34c-.03-.23-.07-.58-.15-1.01l8.99,2.07-8.14,2.44-.88-2.67c.16-.25.23-.54.19-.83ZM71.16,46.82c-.43,0-.84.01-1.25.03-1.97.1-4.01.2-7.75-3.41,1.66-.11,3.13-.79,3.95-1.53l3.37-.14,1.67,5.05ZM73.56,21.92l-5.73,9.38c-1.05-1.38-2.32-2.58-3.76-3.56l9.49-5.82ZM54.52,14.07l2.56,10.93c-1.7-.29-3.44-.34-5.15-.14l2.59-10.79ZM34.45,21.92l9.49,5.82c-1.44.97-2.71,2.17-3.77,3.56l-5.73-9.38ZM49.06,27.4c3.23-1.01,6.7-1.01,9.93,0,8.11,2.54,10.06,9.81,10.51,12.46l-3.18.13c-2.97-6.56-10.69-9.48-17.26-6.51-2.84,1.28-5.12,3.54-6.44,6.35h-4.1c.45-2.67,2.42-9.92,10.54-12.44ZM38.52,41.75h4.48c1.1.55,2.28.92,3.49,1.07-4.09,4.05-6.68,4.03-9,4.01-.22,0-.44,0-.65,0l1.68-5.08ZM41.78,55.45l-.74,7.52-.16-.09-2.48-1.44,2.07-12.88c.25-.04.5-.1.76-.17v3.27c0,1.28.19,2.56.55,3.79h0ZM27.69,41.4l8.99-2.07c-.08.43-.13.78-.15,1.01-.03.28.03.57.18.81l-.89,2.68-8.13-2.43ZM37.33,48.73h.14c.33,0,.68,0,1.03,0l-1.87,11.67-2.25-1.31,2.95-10.37ZM39.19,64.1l-5.82,8.46c-.3.43-.2,1.02.23,1.33.43.3,1.02.2,1.33-.23,0,0,.01-.02.02-.02l5.9-8.58c3.74,2.21,7.98,5.06,8.89,10.57.09.52.58.87,1.1.78.52-.09.87-.58.78-1.1-.23-1.4-.68-2.76-1.33-4.03l9.2,1.93-12.74,21.58h-13.66l11.04-10.54c.38-.37.39-.97.02-1.35-.36-.37-.96-.39-1.34-.03l-11.33,10.82v-1.74c0-1.08-.14-2.15-.42-3.2l3.49-4.9c.31-.43.21-1.02-.22-1.33-.43-.31-1.02-.21-1.33.22h0l-2.73,3.83c-.38-.82-.85-1.6-1.4-2.32l-4.87-6.7,4.64-6.81c.3-.44.18-1.03-.25-1.32-.44-.3-1.03-.18-1.32.25l-4.25,6.25-5.15-7.08,8.42-12.38,13.11,7.63ZM24.75,55.03l-6.95,10.22-4.46-16.77h4.51c.49,0,.9-.37.95-.86l.9-9.43,5.05,16.85ZM13.84,6.06c.45,1.31,1.06,3.27,1.33,4.92.27,1.73,1.89,2.91,3.62,2.64.24-.04.48-.11.71-.2.13,2.54-1.41,4.16-2,4.69h-5.91c-.98-.73-1.63-1.82-1.8-3.03-.36-2.44,1.04-5.54,4.06-9.01ZM7.51,20h12.76v2.53H7.51v-2.53ZM9.21,24.44c-.11.02-.22.04-.33.06v-.06s.33,0,.33,0ZM9.79,26.3c1.87,0,3.45,2.54,3.45,5.54s-1.58,5.54-3.45,5.54-3.45-2.54-3.45-5.54,1.58-5.54,3.45-5.54Z"/>
</svg>