<svg width="68" height="68" viewBox="0 0 68 68" fill="none" xmlns="http://www.w3.org/2000/svg">
<path d="M29.0673 59.9639V64.3894C29.0673 66.0199 30.3964 67.3489 32.0268 67.3489H35.9043C37.5348 67.3489 38.8638 66.0199 38.8638 64.3894V59.9639C38.8638 58.676 39.6859 57.5113 40.919 57.1414C42.4947 56.6756 44.0018 56.0453 45.4268 55.278C46.564 54.6615 47.9752 54.8944 48.8795 55.8124L52.0171 58.95C53.168 60.1009 55.0451 60.1009 56.2097 58.95L58.95 56.2097C60.1009 55.0588 60.1009 53.1817 58.95 52.0171L55.8261 48.8932C54.9081 47.9752 54.6752 46.5777 55.2917 45.4405C56.059 44.0155 56.6893 42.5084 57.1551 40.9327C57.525 39.6996 58.6897 38.8775 59.9776 38.8775H64.4031C66.0336 38.8775 67.3626 37.5485 67.3626 35.918V32.0405C67.3626 30.4101 66.0336 29.081 64.4031 29.081H59.9776C58.6897 29.081 57.525 28.259 57.1551 27.0258C56.6893 25.4502 56.059 23.943 55.2917 22.5181C54.6752 21.3809 54.9081 19.9697 55.8261 19.0654L58.9637 15.9278C60.1146 14.7768 60.1146 12.8998 58.9637 11.7351L56.2234 8.99487C55.0725 7.84396 53.1954 7.84396 52.0308 8.99487L48.8932 12.1325C47.9752 13.0505 46.5777 13.2834 45.4405 12.6668C44.0155 11.8996 42.5084 11.2693 40.9327 10.8035C39.6996 10.4335 38.8775 9.2689 38.8775 7.98097V3.55544C38.8775 1.92498 37.5485 0.595947 35.918 0.595947H32.0405C30.4101 0.595947 29.081 1.92498 29.081 3.55544V7.98097C29.081 9.2689 28.259 10.4335 27.0258 10.8035C25.4502 11.2693 23.943 11.8996 22.5181 12.6668C21.3809 13.2834 19.9697 13.0505 19.0654 12.1325L15.9278 8.99487C14.7768 7.84396 12.8998 7.84396 11.7351 8.99487L8.99487 11.7351C7.84396 12.8861 7.84396 14.7631 8.99487 15.9278L12.1325 19.0654C13.0505 19.9834 13.2834 21.3809 12.6668 22.5181C11.8996 23.943 11.2693 25.4502 10.8035 27.0258C10.4335 28.259 9.2689 29.081 7.98097 29.081H3.55544C1.92498 29.081 0.595947 30.4101 0.595947 32.0405V35.918C0.595947 37.5485 1.92498 38.8775 3.55544 38.8775H7.98097C9.2689 38.8775 10.4335 39.6996 10.8035 40.9327C11.2693 42.5084 11.8996 44.0155 12.6668 45.4405C13.2834 46.5777 13.0505 47.9889 12.1325 48.8932L8.99487 52.0308C7.84396 53.1817 7.84396 55.0588 8.99487 56.2234L11.7351 58.9637C12.8861 60.1146 14.7631 60.1146 15.9278 58.9637L19.0654 55.8261C19.9834 54.9081 21.3809 54.6752 22.5181 55.2917C23.943 56.059 25.4502 56.6893 27.0258 57.1551C28.259 57.5251 29.081 58.6897 29.081 59.9776L29.0673 59.9639Z" stroke="#C9C9C9" stroke-width="1.19186" stroke-miterlimit="10"/>
<circle cx="34.0569" cy="34.0569" r="9.92489" stroke="#C9C9C9" stroke-width="1.19186"/>
</svg>
