<svg width="126" height="126" viewBox="0 0 126 126" fill="none" xmlns="http://www.w3.org/2000/svg">
<path d="M53.4643 110.836V119.054C53.4643 122.081 55.9322 124.549 58.9597 124.549H66.1598C69.1874 124.549 71.6553 122.081 71.6553 119.054V110.836C71.6553 108.444 73.1818 106.282 75.4716 105.595C78.3974 104.73 81.196 103.559 83.842 102.135C85.9536 100.99 88.5742 101.422 90.2533 103.127L96.0795 108.953C98.2166 111.09 101.702 111.09 103.865 108.953L108.953 103.865C111.09 101.728 111.09 98.2421 108.953 96.0795L103.152 90.2788C101.448 88.5742 101.015 85.9791 102.16 83.8674C103.585 81.2214 104.755 78.4228 105.62 75.497C106.307 73.2072 108.47 71.6807 110.861 71.6807H119.079C122.107 71.6807 124.574 69.2128 124.574 66.1853V58.9852C124.574 55.9576 122.107 53.4897 119.079 53.4897H110.861C108.47 53.4897 106.307 51.9632 105.62 49.6734C104.755 46.7476 103.585 43.949 102.16 41.303C101.015 39.1914 101.448 36.5708 103.152 34.8917L108.979 29.0655C111.116 26.9283 111.116 23.4428 108.979 21.2802L103.89 16.1919C101.753 14.0547 98.2675 14.0547 96.105 16.1919L90.2788 22.0181C88.5742 23.7227 85.9791 24.1552 83.8674 23.0103C81.2214 21.5855 78.4228 20.4152 75.497 19.5502C73.2072 18.8633 71.6807 16.7007 71.6807 14.3091V6.0914C71.6807 3.06381 69.2128 0.595947 66.1853 0.595947H58.9852C55.9576 0.595947 53.4897 3.06381 53.4897 6.0914V14.3091C53.4897 16.7007 51.9632 18.8633 49.6734 19.5502C46.7476 20.4152 43.949 21.5855 41.303 23.0103C39.1914 24.1552 36.5708 23.7227 34.8917 22.0181L29.0655 16.1919C26.9283 14.0547 23.4428 14.0547 21.2802 16.1919L16.1919 21.2802C14.0547 23.4174 14.0547 26.9029 16.1919 29.0655L22.0181 34.8917C23.7227 36.5963 24.1552 39.1914 23.0103 41.303C21.5855 43.949 20.4152 46.7476 19.5502 49.6734C18.8633 51.9632 16.7007 53.4897 14.3091 53.4897H6.0914C3.06381 53.4897 0.595947 55.9576 0.595947 58.9852V66.1853C0.595947 69.2128 3.06381 71.6807 6.0914 71.6807H14.3091C16.7007 71.6807 18.8633 73.2072 19.5502 75.497C20.4152 78.4228 21.5855 81.2214 23.0103 83.8674C24.1552 85.9791 23.7227 88.5996 22.0181 90.2788L16.1919 96.105C14.0547 98.2421 14.0547 101.728 16.1919 103.89L21.2802 108.979C23.4174 111.116 26.9029 111.116 29.0655 108.979L34.8917 103.152C36.5963 101.448 39.1914 101.015 41.303 102.16C43.949 103.585 46.7476 104.755 49.6734 105.62C51.9632 106.307 53.4897 108.47 53.4897 110.861L53.4643 110.836Z" stroke="#C9C9C9" stroke-width="1.19186" stroke-miterlimit="10"/>
<circle cx="62.7293" cy="62.7294" r="18.9401" stroke="#C9C9C9" stroke-width="1.19186"/>
</svg>
