<svg width="94" height="94" viewBox="0 0 94 94" fill="none" xmlns="http://www.w3.org/2000/svg">
<path d="M39.9368 82.6286V88.7437C39.9368 90.9966 41.7732 92.833 44.0261 92.833H49.3839C51.6368 92.833 53.4732 90.9966 53.4732 88.7437V82.6286C53.4732 80.849 54.6092 79.2398 56.3131 78.7286C58.4902 78.0849 60.5728 77.2141 62.5417 76.1539C64.1131 75.3019 66.0631 75.6238 67.3126 76.8922L71.648 81.2277C73.2383 82.818 75.832 82.818 77.4413 81.2277L81.2277 77.4413C82.818 75.851 82.818 73.2573 81.2277 71.648L76.9112 67.3315C75.6427 66.0631 75.3209 64.132 76.1728 62.5606C77.233 60.5917 78.1039 58.5092 78.7476 56.332C79.2587 54.6281 80.868 53.4922 82.6476 53.4922H88.7626C91.0156 53.4922 92.852 51.6558 92.852 49.4028V44.0451C92.852 41.7921 91.0156 39.9557 88.7626 39.9557H82.6476C80.868 39.9557 79.2587 38.8198 78.7476 37.1159C78.1039 34.9387 77.233 32.8562 76.1728 30.8873C75.3209 29.3159 75.6427 27.3659 76.9112 26.1164L81.2466 21.7809C82.8369 20.1906 82.8369 17.597 81.2466 15.9877L77.4602 12.2013C75.8699 10.611 73.2762 10.611 71.667 12.2013L67.3315 16.5368C66.0631 17.8052 64.132 18.1271 62.5606 17.2751C60.5917 16.2149 58.5092 15.344 56.332 14.7003C54.6281 14.1892 53.4922 12.58 53.4922 10.8003V4.68528C53.4922 2.43236 51.6558 0.595947 49.4028 0.595947H44.0451C41.7921 0.595947 39.9557 2.43236 39.9557 4.68528V10.8003C39.9557 12.58 38.8198 14.1892 37.1159 14.7003C34.9387 15.344 32.8562 16.2149 30.8873 17.2751C29.3159 18.1271 27.3659 17.8052 26.1164 16.5368L21.7809 12.2013C20.1906 10.611 17.597 10.611 15.9877 12.2013L12.2013 15.9877C10.611 17.578 10.611 20.1717 12.2013 21.7809L16.5368 26.1164C17.8052 27.3848 18.1271 29.3159 17.2751 30.8873C16.2149 32.8562 15.344 34.9387 14.7003 37.1159C14.1892 38.8198 12.58 39.9557 10.8003 39.9557H4.68528C2.43236 39.9557 0.595947 41.7921 0.595947 44.0451V49.4028C0.595947 51.6558 2.43236 53.4922 4.68528 53.4922H10.8003C12.58 53.4922 14.1892 54.6281 14.7003 56.332C15.344 58.5092 16.2149 60.5917 17.2751 62.5606C18.1271 64.132 17.8052 66.082 16.5368 67.3315L12.2013 71.667C10.611 73.2573 10.611 75.851 12.2013 77.4602L15.9877 81.2466C17.578 82.8369 20.1717 82.8369 21.7809 81.2466L26.1164 76.9112C27.3848 75.6427 29.3159 75.3209 30.8873 76.1728C32.8562 77.233 34.9387 78.1039 37.1159 78.7476C38.8198 79.2587 39.9557 80.868 39.9557 82.6476L39.9368 82.6286Z" stroke="#C9C9C9" stroke-width="1.19186" stroke-miterlimit="10"/>
<circle cx="46.8311" cy="46.8313" r="13.9414" stroke="#C9C9C9" stroke-width="1.19186"/>
</svg>
