<?xml version="1.0" encoding="UTF-8"?>
<svg version="1.1" xmlns="http://www.w3.org/2000/svg" width="229" height="138">
<path d="M0 0 C0.6909375 -0.01224609 1.381875 -0.02449219 2.09375 -0.03710938 C6.84508765 -0.050506 10.73802571 0.69335144 15.25 2.1875 C15.25 1.5275 15.25 0.8675 15.25 0.1875 C19.21 0.1875 23.17 0.1875 27.25 0.1875 C26.69606641 6.28076949 25.32044316 11.42626685 23.25 17.1875 C19.62 17.1875 15.99 17.1875 12.25 17.1875 C11.59 15.8675 10.93 14.5475 10.25 13.1875 C5.30632739 11.27286462 5.30632739 11.27286462 0.25 12.1875 C0.25 12.8475 0.25 13.5075 0.25 14.1875 C1.46236328 14.55101563 1.46236328 14.55101563 2.69921875 14.921875 C15.13452458 18.82197092 15.13452458 18.82197092 18.625 24.375 C19.84124236 29.8480906 19.0957388 34.52734605 16.5625 39.5 C13.11093802 43.51127473 9.48709184 46.22520751 4.25 47.1875 C2.12735425 47.30542476 0.00088282 47.36261141 -2.125 47.375 C-3.22585937 47.38917969 -4.32671875 47.40335938 -5.4609375 47.41796875 C-8.86475276 47.17945913 -11.57416186 46.40122666 -14.75 45.1875 C-15.41 45.8475 -16.07 46.5075 -16.75 47.1875 C-20.76194366 47.46533543 -24.72447362 47.2731495 -28.75 47.1875 C-27.43 41.5775 -26.11 35.9675 -24.75 30.1875 C-13.77074689 29.57754149 -13.77074689 29.57754149 -10.828125 31.3359375 C-10.34859375 31.80257812 -9.8690625 32.26921875 -9.375 32.75 C-8.50875 33.554375 -7.6425 34.35875 -6.75 35.1875 C-3.45590396 35.14117452 -3.45590396 35.14117452 -0.75 34.1875 C-0.75 33.5275 -0.75 32.8675 -0.75 32.1875 C-1.63042969 31.94515625 -2.51085937 31.7028125 -3.41796875 31.453125 C-5.16013672 30.95039062 -5.16013672 30.95039062 -6.9375 30.4375 C-8.08605469 30.11265625 -9.23460937 29.7878125 -10.41796875 29.453125 C-14.49491862 27.90455319 -17.49024764 25.92715802 -20.0625 22.375 C-21.57005041 17.57824869 -21.14883072 13.52832123 -19.125 9 C-14.90841512 1.25708968 -8.15875908 0.00744412 0 0 Z " fill="#4B669C" transform="translate(150.75,62.8125)"/>
<path d="M0 0 C0.91644287 0.00523682 1.83288574 0.01047363 2.77709961 0.01586914 C3.76645508 0.0190918 4.75581055 0.02231445 5.77514648 0.02563477 C6.81606445 0.03401367 7.85698242 0.04239258 8.92944336 0.05102539 C10.49662109 0.05779297 10.49662109 0.05779297 12.09545898 0.06469727 C14.68600996 0.07652627 17.27644895 0.0930085 19.86694336 0.11352539 C19.55772452 1.57255797 19.24445536 3.03073261 18.92944336 4.48852539 C18.6684082 5.70668945 18.6684082 5.70668945 18.40209961 6.94946289 C17.86694336 9.11352539 17.86694336 9.11352539 16.86694336 11.11352539 C16.20694336 11.11352539 15.54694336 11.11352539 14.86694336 11.11352539 C15.19694336 15.40352539 15.52694336 19.69352539 15.86694336 24.11352539 C17.84694336 19.82352539 19.82694336 15.53352539 21.86694336 11.11352539 C21.20694336 11.11352539 20.54694336 11.11352539 19.86694336 11.11352539 C20.36054345 6.83565791 20.91477901 4.01785408 22.86694336 0.11352539 C30.78694336 0.11352539 38.70694336 0.11352539 46.86694336 0.11352539 C45.63743516 7.49057457 45.63743516 7.49057457 42.86694336 11.11352539 C41.87694336 11.11352539 40.88694336 11.11352539 39.86694336 11.11352539 C39.60051025 11.82597412 39.33407715 12.53842285 39.05957031 13.27246094 C37.83069585 16.19987385 36.39009554 18.83235847 34.78491211 21.57055664 C34.18227539 22.60116211 33.57963867 23.63176758 32.95874023 24.69360352 C32.01611328 26.29365234 32.01611328 26.29365234 31.05444336 27.92602539 C30.43762695 28.98112305 29.82081055 30.0362207 29.18530273 31.12329102 C27.97708222 33.18407095 26.75812235 35.23859875 25.52758789 37.28613281 C24.49717323 39.0405039 23.50958439 40.82173718 22.59301758 42.63818359 C19.89077098 47.76903877 19.89077098 47.76903877 16.99853516 48.7421875 C14.81160581 48.93913664 12.80335113 48.86674621 10.61694336 48.67602539 C9.88475586 48.64831055 9.15256836 48.6205957 8.39819336 48.59204102 C3.09503192 48.34161395 3.09503192 48.34161395 1.86694336 47.11352539 C1.49302262 44.45468115 1.17520069 41.80996903 0.89428711 39.14086914 C0.80691788 38.34322647 0.71954865 37.5455838 0.62953186 36.72377014 C0.35039412 34.16661571 0.07735793 31.60885075 -0.19555664 29.05102539 C-0.38330731 27.32116418 -0.57145315 25.59134581 -0.76000977 23.86157227 C-1.22228537 19.61270755 -1.67908851 15.36328541 -2.13305664 11.11352539 C-3.12305664 11.11352539 -4.11305664 11.11352539 -5.13305664 11.11352539 C-4.82523168 9.46681127 -4.5116643 7.82116963 -4.19555664 6.17602539 C-4.0215332 5.25950195 -3.84750977 4.34297852 -3.66821289 3.39868164 C-2.90853411 0.1547978 -2.90853411 0.1547978 0 0 Z " fill="#4A669C" transform="translate(86.133056640625,61.886474609375)"/>
<path d="M0 0 C0.66 0 1.32 0 2 0 C2.5878125 1.546875 2.5878125 1.546875 3.1875 3.125 C4.36703538 5.93992985 5.70823585 7.9864286 7.75 10.25 C8.4925 11.1575 9.235 12.065 10 13 C9.67 13.99 9.34 14.98 9 16 C4.36618175 15.56284733 2.23285535 15.23285535 -1 12 C-3.65466049 12.23043864 -3.65466049 12.23043864 -6 13 C-5.505 14.485 -5.505 14.485 -5 16 C-2.50729038 16.95954235 -0.13831245 17.71639795 2.4296875 18.41015625 C3.17582306 18.62312851 3.92195862 18.83610077 4.69070435 19.05552673 C7.08230945 19.73635033 9.47818032 20.40029036 11.875 21.0625 C14.26388389 21.73072431 16.65165271 22.40250704 19.03787231 23.08018494 C20.52417805 23.50144063 22.01216273 23.9168265 23.50192261 24.32569885 C26.75579755 25.24035372 29.1609066 26.10727107 32 28 C32 28.66 32 29.32 32 30 C28.04 30.33 24.08 30.66 20 31 C20 30.01 20 29.02 20 28 C10.43781777 24.78066811 1.05767199 23.25009652 -8.6796875 26.5078125 C-14.36406493 28.30231653 -19.64232553 28.37554379 -25.5625 28.25 C-26.53896484 28.24484375 -27.51542969 28.2396875 -28.52148438 28.234375 C-33.66006993 28.1793801 -38.6633221 27.85225714 -43.76000977 27.22265625 C-47.89648981 26.81148788 -52.03443844 26.85613674 -56.1875 26.875 C-57.05052734 26.87113281 -57.91355469 26.86726563 -58.80273438 26.86328125 C-63.34069217 26.87022533 -67.52095335 27.23267328 -72 28 C-74.95916516 28.16776369 -77.911633 28.1850264 -80.875 28.1875 C-81.63941406 28.19974609 -82.40382813 28.21199219 -83.19140625 28.22460938 C-88.451002 28.23800393 -92.94446359 27.45677758 -98 26 C-98 25.34 -98 24.68 -98 24 C-94.82681857 22.41340928 -91.41487975 22.99086236 -87.9375 23.0625 C-76.8538519 23.13869214 -69.1951628 21.64456111 -60 15 C-59.13375 14.05125 -58.2675 13.1025 -57.375 12.125 C-55 10 -55 10 -51.3125 9.5 C-48.0198404 9.6918655 -45.18216913 10.52099555 -42.0625 11.5625 C-35.59936019 13.64099825 -30.22412338 13.22737475 -24.0625 10.375 C-20.8002548 8.62389423 -17.95236936 6.47667246 -15 4.25 C-10.33335955 0.87964856 -7.67411851 0.18941164 -2 1 C-1.01 1.495 -1.01 1.495 0 2 C0 1.34 0 0.68 0 0 Z " fill="#D4534C" transform="translate(185,29)"/>
<path d="M0 0 C15.18 0 30.36 0 46 0 C43.75 11.25 43.75 11.25 41 17 C37.7 17 34.4 17 31 17 C31.33 15.02 31.66 13.04 32 11 C30.68 11 29.36 11 28 11 C27.88785156 12.1034375 27.77570312 13.206875 27.66015625 14.34375 C27.0147243 19.50720561 25.74258395 24.46976048 24.4375 29.5 C24.20353516 30.4178125 23.96957031 31.335625 23.72851562 32.28125 C23.15666285 34.52197923 22.58041707 36.76147688 22 39 C23.32 39.33 24.64 39.66 26 40 C25.01 42.64 24.02 45.28 23 48 C14.75 48 6.5 48 -2 48 C-1.01 44.7 -0.02 41.4 1 38 C2.32 38 3.64 38 5 38 C5.25394531 36.88882813 5.50789063 35.77765625 5.76953125 34.6328125 C7.60510344 26.67419369 9.47806461 18.77596745 12 11 C10.68 11 9.36 11 8 11 C7.34 12.98 6.68 14.96 6 17 C3.03 17 0.06 17 -3 17 C-4 14 -4 14 0 0 Z " fill="#49659B" transform="translate(34,62)"/>
<path d="M0 0 C2.4375 1.375 2.4375 1.375 4 3 C4 3.66 4 4.32 4 5 C3.05253906 5.05994141 3.05253906 5.05994141 2.0859375 5.12109375 C-6.01783172 6.06692272 -11.30591807 9.35778611 -17.8359375 13.90625 C-22.74451347 17.1543941 -26.11542039 18.27370138 -32 18 C-29.2180632 14.72713318 -25.72045933 13.03572303 -22 11 C-22.33 10.01 -22.66 9.02 -23 8 C-20.48743702 6.64870562 -17.96682058 5.31925796 -15.4375 4 C-14.38079102 3.42765625 -14.38079102 3.42765625 -13.30273438 2.84375 C-8.69570813 0.46593 -5.30702921 -0.57050564 0 0 Z " fill="#D65D56" transform="translate(180,23)"/>
<path d="M0 0 C0.72832031 0.48855469 1.45664063 0.97710937 2.20703125 1.48046875 C5.93398384 3.50813946 9.13353759 3.55679072 13.3125 3.6875 C14.05306641 3.72166016 14.79363281 3.75582031 15.55664062 3.79101562 C17.37058164 3.87293554 19.18526353 3.93815822 21 4 C17.18202888 8.21986281 12.4813727 9.53474262 7 10.5625 C3.07902943 9.82731802 1.01324701 7.89063458 -2.03125 5.40234375 C-4.60004977 3.5725836 -6.87987303 3.15600635 -10 3 C-7.28862457 -0.82782413 -4.40940337 -0.45614518 0 0 Z " fill="#D65E58" transform="translate(109,33)"/>
<path d="M0 0 C1.60681641 -0.01836914 1.60681641 -0.01836914 3.24609375 -0.03710938 C4.26832031 -0.03904297 5.29054688 -0.04097656 6.34375 -0.04296875 C7.28412109 -0.04707764 8.22449219 -0.05118652 9.19335938 -0.05541992 C11.5 0.1875 11.5 0.1875 13.5 2.1875 C16.07061311 2.83517793 16.07061311 2.83517793 18.5 3.1875 C18.5 3.5175 18.5 3.8475 18.5 4.1875 C13.4982974 5.18624253 8.70178634 5.37076228 3.625 5.375 C2.47837891 5.39336914 2.47837891 5.39336914 1.30859375 5.41210938 C-3.951002 5.42550393 -8.44446359 4.64427758 -13.5 3.1875 C-13.5 2.5275 -13.5 1.8675 -13.5 1.1875 C-9.49700128 -0.81399936 -4.40083269 0.00264791 0 0 Z " fill="#D0453E" transform="translate(100.5,51.8125)"/>
<path d="M0 0 C5.80463108 1.09307988 11.53628865 2.78916629 17.1875 4.5 C17.90292969 4.7165625 18.61835938 4.933125 19.35546875 5.15625 C21 6 21 6 22 9 C16.06 9.495 16.06 9.495 10 10 C10 9.01 10 8.02 10 7 C2.65896942 4.74231361 -4.3299717 3.4302337 -12 3 C-12 2.67 -12 2.34 -12 2 C-11.21753906 1.93941406 -10.43507812 1.87882812 -9.62890625 1.81640625 C-8.61699219 1.73261719 -7.60507813 1.64882813 -6.5625 1.5625 C-5.55316406 1.48128906 -4.54382813 1.40007813 -3.50390625 1.31640625 C-1.06359221 1.26788532 -1.06359221 1.26788532 0 0 Z " fill="#D8655F" transform="translate(195,50)"/>
<path d="M0 0 C15.18 0 30.36 0 46 0 C45.67 0.99 45.34 1.98 45 3 C45 2.34 45 1.68 45 1 C39.09112254 1.01940206 33.18373819 1.0710635 27.27539062 1.15258789 C25.26570777 1.17577903 23.25590318 1.19016622 21.24609375 1.19555664 C18.35599817 1.20483807 15.46782011 1.24581012 12.578125 1.29296875 C11.23104462 1.28706978 11.23104462 1.28706978 9.85675049 1.28105164 C4.54994138 1.35731096 4.54994138 1.35731096 0.40136719 4.54418945 C-0.06108398 5.35460693 -0.52353516 6.16502441 -1 7 C-0.67 4.69 -0.34 2.38 0 0 Z " fill="#536DA0" transform="translate(34,62)"/>
<path d="M0 0 C2.03448779 0.41740567 4.05401678 0.90895178 6.0625 1.4375 C7.16722656 1.72496094 8.27195313 2.01242188 9.41015625 2.30859375 C10.26480469 2.53675781 11.11945313 2.76492187 12 3 C11.01 4.485 11.01 4.485 10 6 C9.33355469 5.86722656 8.66710937 5.73445313 7.98046875 5.59765625 C1.33222984 4.32379789 -5.25031187 3.49610861 -12 3 C-12 2.67 -12 2.34 -12 2 C-11.21753906 1.93941406 -10.43507812 1.87882812 -9.62890625 1.81640625 C-8.61699219 1.73261719 -7.60507813 1.64882813 -6.5625 1.5625 C-5.55316406 1.48128906 -4.54382813 1.40007813 -3.50390625 1.31640625 C-1.06359221 1.26788532 -1.06359221 1.26788532 0 0 Z " fill="#DC7974" transform="translate(195,50)"/>
<path d="M0 0 C0.33 0.66 0.66 1.32 1 2 C3.02463255 2.65213292 3.02463255 2.65213292 5 3 C-4.22551253 7.59225513 -4.22551253 7.59225513 -10 7 C-7.2180632 3.72713318 -3.72045933 2.03572303 0 0 Z " fill="#DB736D" transform="translate(158,34)"/>
<path d="M0 0 C2.875 -0.125 2.875 -0.125 6 0 C6.66 0.66 7.32 1.32 8 2 C10.57061311 2.64767793 10.57061311 2.64767793 13 3 C13 3.33 13 3.66 13 4 C7.82682579 5.06309567 2.87630664 5.11693938 -2.375 5.0625 C-3.20644531 5.05798828 -4.03789063 5.05347656 -4.89453125 5.04882812 C-6.92971897 5.03713164 -8.96486923 5.01919935 -11 5 C-11 4.67 -11 4.34 -11 4 C-6.05 3.67 -1.1 3.34 4 3 C2.68 2.01 1.36 1.02 0 0 Z " fill="#E18984" transform="translate(106,52)"/>
<path d="M0 0 C6.35051546 -0.36637589 6.35051546 -0.36637589 9.4375 1.375 C11 3 11 3 11 5 C8.69 5 6.38 5 4 5 C3.67 4.34 3.34 3.68 3 3 C2.01 2.67 1.02 2.34 0 2 C0 1.34 0 0.68 0 0 Z " fill="#DA6F69" transform="translate(173,23)"/>
<path d="M0 0 C0.70640625 0.05220703 1.4128125 0.10441406 2.140625 0.15820312 C3.88579987 0.28791207 5.63045725 0.42454954 7.375 0.5625 C7.375 0.8925 7.375 1.2225 7.375 1.5625 C6.47007813 1.65337891 6.47007813 1.65337891 5.546875 1.74609375 C4.34804687 1.87177734 4.34804687 1.87177734 3.125 2 C2.33609375 2.08121094 1.5471875 2.16242187 0.734375 2.24609375 C-1.60920509 2.51171706 -1.60920509 2.51171706 -3.78125 3.125 C-6.02549412 3.6575325 -7.45482681 3.26005567 -9.625 2.5625 C-9.625 1.9025 -9.625 1.2425 -9.625 0.5625 C-6.5270403 -0.98647985 -3.36283448 -0.26989539 0 0 Z " fill="#DE7D78" transform="translate(96.625,52.4375)"/>
<path d="M0 0 C5.61 0.33 11.22 0.66 17 1 C14.1709277 3.8290723 13.61855575 4.37611108 10 5 C10 4.01 10 3.02 10 2 C6.7 2 3.4 2 0 2 C0 1.34 0 0.68 0 0 Z " fill="#DA6F6A" transform="translate(113,36)"/>
<path d="M0 0 C0.66 0.66 1.32 1.32 2 2 C-1.9813783 3.3271261 -5.85045227 3.06915913 -10 3 C-7.30045271 -0.81112559 -4.38454651 -0.39859514 0 0 Z " fill="#DC7771" transform="translate(109,33)"/>
<path d="M0 0 C2.97 0 5.94 0 9 0 C9 0.99 9 1.98 9 3 C7.68 3 6.36 3 5 3 C5 2.34 5 1.68 5 1 C3.35 1 1.7 1 0 1 C0 0.67 0 0.34 0 0 Z " fill="#D0463F" transform="translate(114,38)"/>
</svg>
