<?xml version="1.0" encoding="UTF-8"?>
<svg version="1.1" xmlns="http://www.w3.org/2000/svg" width="143" height="89">
<path d="M0 0 C3.12603632 1.24280551 3.79695509 2.17558345 6 5 C8.06849624 13.06413752 4.18569725 20.74116127 1 28 C1.721875 27.05125 2.44375 26.1025 3.1875 25.125 C5.5935458 22.29002124 7.25034224 20.76697545 11 20 C15.36761604 19.94511075 18.83316163 20.2123841 22.5 22.6875 C24.38724197 25.59699804 24.92914231 27.52797325 25 31 C23.39588152 34.52906067 22.25840638 35.82772908 19 38 C16.39167535 38.01436302 13.84996297 37.94474153 11.25 37.8125 C4.48149744 37.60312349 4.48149744 37.60312349 -1.5 40.5 C-2.325 41.325 -3.15 42.15 -4 43 C-3.67 41.35 -3.34 39.7 -3 38 C-3.99 38.495 -3.99 38.495 -5 39 C-5 39.99 -5 40.98 -5 42 C-7.46800047 40.84826645 -9.04783565 39.95216435 -11 38 C-14.55895613 37.98140566 -18.0657607 38.10396106 -21.61523438 38.34179688 C-25.92570599 38.48785108 -27.46353375 38.42523046 -30.9765625 35.640625 C-33.13235286 32.82727696 -34.08634824 31.54027793 -34 28 C-31.89555139 24.0249304 -30.20153085 21.62963789 -26 20 C-21.90946161 19.63706868 -18.31582517 20.13318817 -14.859375 22.41015625 C-13.15434809 23.87606353 -11.54907851 25.37122613 -10 27 C-10.3609375 26.154375 -10.721875 25.30875 -11.09375 24.4375 C-16.02564103 12.38176638 -16.02564103 12.38176638 -15 6 C-11.04580583 -0.1949042 -7.0171585 -0.98733889 0 0 Z " fill="#E78228" transform="translate(71,6)"/>
<path d="M0 0 C5.16631401 2.64369975 7.38191205 6.28152407 9.375 11.625 C10.37335958 14.7242554 11.24189506 17.833797 12 21 C9.53199953 19.84826645 7.95216435 18.95216435 6 17 C2.44104387 16.98140566 -1.0657607 17.10396106 -4.61523438 17.34179688 C-8.92570599 17.48785108 -10.46353375 17.42523046 -13.9765625 14.640625 C-16.13235286 11.82727696 -17.08634824 10.54027793 -17 7 C-12.91335086 -0.71922616 -8.17549899 -2.29245411 0 0 Z " fill="#759D3E" transform="translate(54,27)"/>
<path d="M0 0 C3.08801918 2.08441295 3.80909636 3.40183526 4.9375 6.9375 C5.0128328 10.62880732 4.24574926 12.1126081 2 15 C-2.21075157 17.80716771 -6.15307469 17.09915939 -11.01953125 16.921875 C-15.17281158 16.82906427 -18.26782388 17.12659395 -22 19 C-21.42385251 12.08623007 -19.55500834 6.43037378 -14.4375 1.5625 C-9.57881275 -1.55204311 -5.45273895 -1.26211679 0 0 Z " fill="#739C3B" transform="translate(91,27)"/>
<path d="M0 0 C2.88437779 1.29299694 4.87219421 2.65941363 7 5 C7.6496875 3.7625 7.6496875 3.7625 8.3125 2.5 C8.869375 1.675 9.42625 0.85 10 0 C10.99 0 11.98 0 13 0 C13 3.3 13 6.6 13 10 C12.34 10 11.68 10 11 10 C10.67 8.68 10.34 7.36 10 6 C9.34 7.32 8.68 8.64 8 10 C7.01 10 6.02 10 5 10 C4.34 8.68 3.68 7.36 3 6 C2.67 7.32 2.34 8.64 2 10 C1.01 9.67 0.02 9.34 -1 9 C-1.125 2.25 -1.125 2.25 0 0 Z " fill="#999897" transform="translate(54,54)"/>
<path d="M0 0 C0.66 0 1.32 0 2 0 C2 1.32 2 2.64 2 4 C3.98 4 5.96 4 8 4 C8.33 2.68 8.66 1.36 9 0 C9.66 0 10.32 0 11 0 C11 3.3 11 6.6 11 10 C10.01 9.67 9.02 9.34 8 9 C8 8.34 8 7.68 8 7 C5.03 6.505 5.03 6.505 2 6 C2 7.32 2 8.64 2 10 C1.01 10 0.02 10 -1 10 C-1.02689216 8.52093108 -1.04634621 7.04172517 -1.0625 5.5625 C-1.07410156 4.73878906 -1.08570313 3.91507813 -1.09765625 3.06640625 C-1 1 -1 1 0 0 Z " fill="#939190" transform="translate(38,54)"/>
<path d="M0 0 C3.3 0 6.6 0 10 0 C10 0.66 10 1.32 10 2 C7.36 2 4.72 2 2 2 C2 2.66 2 3.32 2 4 C4.31 4 6.62 4 9 4 C9 4.66 9 5.32 9 6 C6.69 6 4.38 6 2 6 C2 6.66 2 7.32 2 8 C4.64 8 7.28 8 10 8 C10 8.66 10 9.32 10 10 C6.7 10 3.4 10 0 10 C0 6.7 0 3.4 0 0 Z " fill="#92908E" transform="translate(72,54)"/>
<path d="M0 0 C0.99 0.33 1.98 0.66 3 1 C2.690625 1.680625 2.38125 2.36125 2.0625 3.0625 C0.85539125 6.05539263 0.85539125 6.05539263 0.5625 9.625 C0.00020287 12.99878278 -0.3206867 14.019638 -3 16 C-2.67 14.35 -2.34 12.7 -2 11 C-3.32 11 -4.64 11 -6 11 C-6.99 8.03 -7.98 5.06 -9 2 C-8.01 2 -7.02 2 -6 2 C-5.01 3.98 -4.02 5.96 -3 8 C-2.01 5.36 -1.02 2.72 0 0 Z " fill="#D9D7B5" transform="translate(70,33)"/>
<path d="M0 0 C0.66 0.33 1.32 0.66 2 1 C2 3.31 2 5.62 2 8 C3.98 8 5.96 8 8 8 C8 8.66 8 9.32 8 10 C5.03 10 2.06 10 -1 10 C-1.09765625 3.06640625 -1.09765625 3.06640625 -1 1 C-0.67 0.67 -0.34 0.34 0 0 Z " fill="#8F8C8C" transform="translate(87,54)"/>
<path d="M0 0 C0.99 0 1.98 0 3 0 C6 5.625 6 5.625 6 9 C5.01 9 4.02 9 3 9 C2.01 6.03 1.02 3.06 0 0 Z " fill="#E3D2AF" transform="translate(61,35)"/>
<path d="M0 0 C0.99 0 1.98 0 3 0 C3 3.3 3 6.6 3 10 C2.34 10 1.68 10 1 10 C0.67 6.7 0.34 3.4 0 0 Z " fill="#848382" transform="translate(64,54)"/>
<path d="M0 0 C0.66 0 1.32 0 2 0 C2 3.3 2 6.6 2 10 C1.01 9.67 0.02 9.34 -1 9 C-0.67 6.03 -0.34 3.06 0 0 Z " fill="#83817F" transform="translate(47,54)"/>
<path d="M0 0 C0.99 0.33 1.98 0.66 3 1 C3 1.66 3 2.32 3 3 C2.34 3 1.68 3 1 3 C1 4.98 1 6.96 1 9 C0.34 9 -0.32 9 -1 9 C-1.125 2.25 -1.125 2.25 0 0 Z " fill="#878584" transform="translate(54,54)"/>
<path d="M0 0 C2.0625 0.4375 2.0625 0.4375 4 1 C4 1.99 4 2.98 4 4 C2.68 4.33 1.36 4.66 0 5 C-0.5625 3.0625 -0.5625 3.0625 -1 1 C-0.67 0.67 -0.34 0.34 0 0 Z " fill="#BDBCBA" transform="translate(91,47)"/>
</svg>
