<svg xmlns="http://www.w3.org/2000/svg" viewBox="0 0 350.42 87.66"><defs><style>.cls-1{fill:#252122;}.cls-2{fill:#262223;}.cls-3{fill:#eb058c;}.cls-4{fill:#eb048b;}</style></defs><g id="Layer_2" data-name="Layer 2"><g id="Layer_1-2" data-name="Layer 1"><path class="cls-1" d="M274.13,50.45c.36.15.39.46.39.79a2.55,2.55,0,0,0,.17,1.32,8.73,8.73,0,0,0-2,1.21A.85.85,0,0,1,272,54h-.54c-2.87,0-2.46.05-4.36,1.77-1.57,1.44-2.53,3.31-3.8,4.94-.85,1.09-1.67,2.19-2.52,3.27a4.9,4.9,0,0,0-.53.91q-2.42,4.84-4.84,9.67a5.42,5.42,0,0,1-4.23,3,3.36,3.36,0,0,1-3.18-1.1,3.61,3.61,0,0,0-2.84-1.34,2.17,2.17,0,0,1-1.56-.78c-4-4-8-7.93-11.9-11.94a1.81,1.81,0,0,0-2.32-.54,23.47,23.47,0,0,1-2.6.9,3,3,0,0,1-1,.16c-1.16,0-2.33,0-3.5,0a2.66,2.66,0,0,1-.93-.14,9.06,9.06,0,0,0-2.84-.19c-.33,0-.43.18-.4.47a4.34,4.34,0,0,1-.39,2c-.63,1.9-1.28,3.8-1.89,5.71a3.6,3.6,0,0,1-1,1.59c-.77.73-1.54,1.46-2.25,2.25a18.32,18.32,0,0,1-10,5.64,15.64,15.64,0,0,1-3.48.19,20.79,20.79,0,0,1-8.54-2.06,13.58,13.58,0,0,1-3.07-2.58,5.1,5.1,0,0,0-1.62-1.15,11.31,11.31,0,0,1-3.65-2.65,2.64,2.64,0,0,0-3-.4A28.46,28.46,0,0,0,175,74a39.06,39.06,0,0,1-8.92,4.31,18.52,18.52,0,0,1-5.39,1,35.06,35.06,0,0,1-7.17-.57,17.08,17.08,0,0,1-4.1-1.38c-1.09-.51-2.15-1.07-3.23-1.6-.22-.12-.5-.19-.63-.37-.53-.77-1.3-.68-2.08-.73a16.22,16.22,0,0,0-6.6,1.07c-4,1.44-8,2.7-12.05,4-1.61.52-3.29.77-4.94,1.15C114.93,82,109.94,83,105,84.25c-1.54.41-3.09.75-4.65,1-1.11.2-2.25.12-3.37.24-5.75.66-11.51,1.25-17.26,1.93a29.46,29.46,0,0,1-3.38.19c-5.79,0-11.59,0-17.39,0a63.39,63.39,0,0,1-8-.47c-3-.35-6-.76-8.94-1a70,70,0,0,1-13.09-2.39,62,62,0,0,1-14-5.61,36.14,36.14,0,0,1-9-7.45A24.16,24.16,0,0,1,1.46,63.1a25.11,25.11,0,0,1-1.36-11A26.48,26.48,0,0,1,4.73,39.17a33.37,33.37,0,0,1,9.09-9.37c2.3-1.52,4.6-3,7-4.35a25,25,0,0,1,3.09-1.36c3.83-1.44,7.64-2.91,11.57-4,2.68-.77,5.35-1.54,8-2.25a40.34,40.34,0,0,1,5-.72q4.09-.54,8.19-1a83.42,83.42,0,0,1,12-1c4.14.11,8.28,0,12.41,0a5.79,5.79,0,0,1,2.16.45,1.92,1.92,0,0,1,1.27,1.78A2.16,2.16,0,0,1,83,19a6.68,6.68,0,0,1-1.67.18c-4.49-.05-9,.25-13.45.22a27.17,27.17,0,0,0-4.71.69c-4.31.74-8.62,1.47-12.92,2.26a110.07,110.07,0,0,0-14.42,3.81,26.62,26.62,0,0,0-4.63,2.07,38.08,38.08,0,0,1-3.52,1.71A43.75,43.75,0,0,0,19.09,35a30.88,30.88,0,0,0-6,6.24,29.25,29.25,0,0,0-4,7.41,9.5,9.5,0,0,0-.54,3c-.21,4.1.38,8,2.75,11.52a23.33,23.33,0,0,0,2.12,2.64,37.71,37.71,0,0,0,4.2,3.88,10.46,10.46,0,0,0,1.88,1.16c2.36,1.13,4.46,2.69,6.87,3.74A74.51,74.51,0,0,0,34,77c4.38,1.34,8.91,1.79,13.42,2.38q4.73.61,9.45,1.19a13.61,13.61,0,0,0,1.8.12c8.52,0,17,0,25.56,0a59.55,59.55,0,0,0,8.55-.61c2-.27,3.92-.5,5.88-.73a7.62,7.62,0,0,0,2.16-.49,8.66,8.66,0,0,1,2.8-.51,53.7,53.7,0,0,0,8.9-1.76c5-1.2,9.89-2.57,14.78-4.06a38,38,0,0,0,6.62-2.49,7.35,7.35,0,0,0,3.31-3.58,2.84,2.84,0,0,0,.13-1,57.68,57.68,0,0,0-.83-11.29c-.38-2.59-.43-5.2-.81-7.79-.12-.84-.22-1.68-.32-2.52a3.39,3.39,0,0,1,0-.95,15.27,15.27,0,0,0-.28-4.62c-.07-.74-.13-1.47-.13-2.21,0-4.46,0-8.91,0-13.36a43.9,43.9,0,0,1,.55-7.6,35.65,35.65,0,0,0,.2-6.45,6.84,6.84,0,0,1,.91-3.83,26.79,26.79,0,0,0,1.52-3c1-2.36,3.75-2.11,5.2-1a1.35,1.35,0,0,1,.52.9,2.63,2.63,0,0,0,1,1.76,5.66,5.66,0,0,1,1.65,2.64,54.42,54.42,0,0,1,2.38,10.38l.48,2.82a31.27,31.27,0,0,1,.42,5.8c0,4,0,8.06,0,12.09a28.91,28.91,0,0,1-.37,5.8,47.43,47.43,0,0,0-.7,11,4.3,4.3,0,0,1-.54,2.22c-.85,1.63-1.64,3.29-2.47,4.92a3.12,3.12,0,0,0-.38,1.52c0,1.59,0,3.18,0,4.77a1.54,1.54,0,0,0,.56,1.29A9.91,9.91,0,0,0,149,71.15a13.2,13.2,0,0,0,1.49.53,18.9,18.9,0,0,1,2.16.52c2.37.85,4.82.64,7.23.51a28.26,28.26,0,0,0,4.72-1.09,10.82,10.82,0,0,0,2.38-.88,56,56,0,0,0,7.67-4.28,9.32,9.32,0,0,0,3.55-4.61c.71-2.1,1.41-4.2,2.1-6.32a4.89,4.89,0,0,1,1.31-2.13c1.35-1.29,2.67-2.63,4-4a4.18,4.18,0,0,1,1.77-1.12c1.34-.43,2.67-.9,4-1.34a4,4,0,0,1,1.34-.22c1.74,0,3.47,0,5.2,0a3,3,0,0,1,1,.15c2.56.9,5.24,1.37,7.85,2.09a10,10,0,0,1,1.58.59c2.11,1.07,4.23,2.12,6.35,3.18a2.73,2.73,0,0,0,1.31.32c2.37,0,4.74,0,7.11,0a1.6,1.6,0,0,0,1.72-1.1c.08-.23.18-.46.28-.68.69-1.54,3-3.1,4.59-2.85a4.38,4.38,0,0,1,3.57,2.32,1.85,1.85,0,0,1,.2.6,7.69,7.69,0,0,0,2.53,5,14.23,14.23,0,0,1,3.26,4.5c1.38,2.94,2.89,5.83,4.33,8.74a3,3,0,0,0,1.32,1.46,1.21,1.21,0,0,0,1.83-.43,21.4,21.4,0,0,0,1.35-2.26c1.71-3.37,3.39-6.76,5.08-10.14a4,4,0,0,1,.84-1.33,1,1,0,0,0,.26-.88c0-.81,0-1.63,0-2.44a2.55,2.55,0,0,1,1.5-2.46A4.11,4.11,0,0,1,259.9,51a2.39,2.39,0,0,1,.82.79,1.65,1.65,0,0,0,1.62.79,8.44,8.44,0,0,1,1.59,0,2.94,2.94,0,0,0,1.72-.39,2.12,2.12,0,0,1,1.1-.36c.51,0,.73-.35.79-.82l.37.19a5.06,5.06,0,0,0,5.85-.57A.4.4,0,0,1,274.13,50.45ZM196.2,71a9.76,9.76,0,0,0,4.62-.6c2.86-1,2.87-1,5-3.18.05-.06.11-.1.15-.16a7,7,0,0,0,1.2-3.1,8.45,8.45,0,0,0-1.31-5.54,9.09,9.09,0,0,1-.67-1.32,4,4,0,0,0-.8-1.11,12,12,0,0,0-2.72-1.6A9.53,9.53,0,0,0,196,53a8.25,8.25,0,0,0-4.23,1c-.5.3-1,.66-1.68.35-.21-.09-.4.09-.58.19a8.19,8.19,0,0,0-3.63,3.73,8.89,8.89,0,0,0-1,3.3c-.07,1,0,2.05,0,3.07a2.22,2.22,0,0,0,.64,1.63,9.28,9.28,0,0,0,3.57,2.75,7.21,7.21,0,0,1,1,.52A9.37,9.37,0,0,0,196.2,71Z"/><path class="cls-2" d="M298.92,69.19c-4,2-7.88,3.94-11.78,5.91a12.22,12.22,0,0,1-3.61,1.13,5,5,0,0,1-5-2.18,8.27,8.27,0,0,1-.8-1.25c-.86-1.66-1.68-3.34-2.53-5a2.4,2.4,0,0,1-.26-1.12V54.17a.73.73,0,0,1,.15-.57l2.65,8c.65,1.94,1.27,3.89,1.95,5.82a7,7,0,0,0,1.52,2.75,2,2,0,0,0,2.3.36c3.25-1.63,6.5-3.28,9.75-4.89a32.34,32.34,0,0,0,3.36-2c.06,0,.1-.11.17-.13,1.66-.6,2.74-1.94,3.93-3.14a5.23,5.23,0,0,1,1.54-1.1c2.4-1.19,4.79-2.41,7.2-3.59a2.7,2.7,0,0,0,1.22-1.12c.62-1.06,1.32-2.08,1.95-3.14a2.45,2.45,0,0,1,1-.9A32.8,32.8,0,0,1,319.83,48c.3-.1.76-.05.63-.62,0-.14.18-.19.32-.18,1.78.05,3.62-.3,5.27.7a11,11,0,0,1,3.87,4c.68,1.19,1.24,2.45,1.87,3.68a2.58,2.58,0,0,1,.26,1.22c0,2-.14,4,0,6,.2,2.37,1,4.54,3.15,5.92.27.17.52.36.79.53a7.19,7.19,0,0,0,4.47,1.33c1.43-.14,2.89,0,4.34,0a10.91,10.91,0,0,0,2.72-.26,2.42,2.42,0,0,1,2.49.46,1,1,0,0,1,.26,1.23,4.58,4.58,0,0,1-2,2.14c-1.39.76-2.84,1.42-4.25,2.15a2.33,2.33,0,0,1-1.12.23c-2.44,0-4.88,0-7.32,0a9.1,9.1,0,0,1-2.21-.65,7.42,7.42,0,0,0-5,.25c-1.85.86-3.79,1.52-5.59,2.53a1.68,1.68,0,0,1-.83.11c-3.74,0-7.49,0-11.23,0a8.77,8.77,0,0,1-2.24-.57c-.58-.15-1.13-.41-1.71-.54a12,12,0,0,1-4.69-2.6,7.34,7.34,0,0,1-2.15-3.22A12.44,12.44,0,0,0,298.92,69.19Zm18.78-15c-1.87,1.88-3.59,3.71-5.42,5.42a14.53,14.53,0,0,0-3.68,5.09,21.45,21.45,0,0,1-1.52,3,5.2,5.2,0,0,0-.46,2.87.66.66,0,0,0,.18.48,9,9,0,0,0,1.81,1.61,11.77,11.77,0,0,0,6.85,1.74,13.18,13.18,0,0,0,2.1-.08c2.3-.67,4.64-1.3,6.13-3.43a5.19,5.19,0,0,1,.52-.53,9.1,9.1,0,0,0,1.53-3.74c0-1.63,0-3.25,0-4.87a3,3,0,0,0-.36-1.42c-.7-1.38-1.45-2.75-2.06-4.17a1.86,1.86,0,0,0-2.16-1.27,2.74,2.74,0,0,0-.9.25c-.52.27-1,.52-1.6.79Z"/><path class="cls-3" d="M279.88,46.54a5.2,5.2,0,0,1,5.29-5.16,5.21,5.21,0,1,1-5.29,5.16Z"/><path class="cls-4" d="M274.13,50.45a.4.4,0,0,0-.37.12,5.06,5.06,0,0,1-5.85.57l-.37-.19a5.28,5.28,0,0,1-2.33-4.6,5.2,5.2,0,1,1,9.4,3.29A1.81,1.81,0,0,0,274.13,50.45Z"/></g></g></svg>