<svg id="Component_38_4" data-name="Component 38 – 4" xmlns="http://www.w3.org/2000/svg" width="368" height="673" viewBox="0 0 368 673">
  <rect id="Rectangle_991" data-name="Rectangle 991" width="368" height="463" rx="3" transform="translate(0 210)" fill="#505085"/>
  <g id="Rectangle_89" data-name="Rectangle 89" fill="#fff" stroke="#ccc" stroke-width="1">
    <path d="M20,0H348a20,20,0,0,1,20,20V232a0,0,0,0,1,0,0H0a0,0,0,0,1,0,0V20A20,20,0,0,1,20,0Z" stroke="none"/>
    <path d="M20,.5H348A19.5,19.5,0,0,1,367.5,20V231a.5.5,0,0,1-.5.5H1a.5.5,0,0,1-.5-.5V20A19.5,19.5,0,0,1,20,.5Z" fill="none"/>
  </g>
  <text id="Leading-edge_scientific_capabilities" data-name="Leading-edge scientific capabilities" transform="translate(39 157.574)" fill="#3c3c3b" font-size="22" font-family="IBMPlexSans-Medium, IBM Plex Sans" font-weight="500"><tspan x="0" y="23">Leading-edge scientific </tspan><tspan x="0" y="52">capabilities</tspan></text>
  <rect id="Rectangle_79" data-name="Rectangle 79" width="83" height="4" transform="translate(39 139.574)" fill="#505085"/>
  <g id="experience" transform="translate(38 16.234)">
    <path id="Path_242" data-name="Path 242" d="M2.651,64.116H5.16a14.859,14.859,0,0,0,.593,1.433L3.978,67.323a1.65,1.65,0,0,0,0,2.334l4.678,4.678a1.7,1.7,0,0,0,2.334,0l1.776-1.776a14.577,14.577,0,0,0,1.431.591v2.514a1.651,1.651,0,0,0,1.651,1.651h6.616a1.651,1.651,0,0,0,1.651-1.651V73.146a14.729,14.729,0,0,0,1.426-.591l1.781,1.781a1.65,1.65,0,0,0,2.334,0l4.678-4.678a1.65,1.65,0,0,0,0-2.334L32.55,65.542a14.69,14.69,0,0,0,.589-1.424h2.524a1.651,1.651,0,0,0,1.651-1.651V55.851A1.651,1.651,0,0,0,35.663,54.2H33.141a14.688,14.688,0,0,0-.589-1.424l1.783-1.783a1.65,1.65,0,0,0,0-2.334l-4.678-4.678a1.7,1.7,0,0,0-2.334,0l-1.781,1.781a15.161,15.161,0,0,0-1.426-.591V42.651A1.651,1.651,0,0,0,22.465,41H15.849A1.651,1.651,0,0,0,14.2,42.651v2.512a14.993,14.993,0,0,0-1.431.591l-1.776-1.776a1.65,1.65,0,0,0-2.334,0L3.979,48.656a1.65,1.65,0,0,0,0,2.334l1.774,1.774A15.079,15.079,0,0,0,5.16,54.2H2.651A1.651,1.651,0,0,0,1,55.849v6.616a1.651,1.651,0,0,0,1.651,1.651ZM4.3,57.5H6.379a1.651,1.651,0,0,0,1.6-1.238A11.465,11.465,0,0,1,9.2,53.3,1.65,1.65,0,0,0,8.949,51.3L7.479,49.824,9.823,47.48l1.471,1.472a1.65,1.65,0,0,0,2.006.254,11.446,11.446,0,0,1,2.96-1.223,1.649,1.649,0,0,0,1.238-1.6V44.3h3.314v2.086a1.65,1.65,0,0,0,1.236,1.6,11.511,11.511,0,0,1,2.958,1.226,1.653,1.653,0,0,0,2.006-.254l1.476-1.477,2.344,2.344L29.351,51.3a1.65,1.65,0,0,0-.254,2.006,11.463,11.463,0,0,1,1.221,2.956,1.651,1.651,0,0,0,1.6,1.238h2.1v3.314H31.921a1.649,1.649,0,0,0-1.6,1.238A11.545,11.545,0,0,1,29.1,65.012a1.65,1.65,0,0,0,.254,2.006l1.477,1.477L28.49,70.839l-1.476-1.481a1.65,1.65,0,0,0-2.006-.254,11.487,11.487,0,0,1-2.958,1.226,1.65,1.65,0,0,0-1.236,1.6v2.085H17.5V71.93a1.651,1.651,0,0,0-1.238-1.6,11.479,11.479,0,0,1-2.96-1.223,1.654,1.654,0,0,0-2.006.254L9.826,70.834,7.482,68.49l1.469-1.469a1.648,1.648,0,0,0,.254-2.006,11.489,11.489,0,0,1-1.226-2.961,1.651,1.651,0,0,0-1.6-1.238H4.3Z" transform="translate(0 26.026)" fill="#6ba0cc"/>
    <path id="Path_243" data-name="Path 243" d="M15.253,63.506A8.253,8.253,0,1,0,7,55.253,8.263,8.263,0,0,0,15.253,63.506Zm0-13.205A4.952,4.952,0,1,1,10.3,55.253,4.958,4.958,0,0,1,15.253,50.3Z" transform="translate(3.904 29.929)" fill="#6ba0cc"/>
    <path id="Path_245" data-name="Path 245" d="M65.978,13.567a3.323,3.323,0,0,0-2.542.662L50.485,24.361a8.264,8.264,0,1,0-13.336,1.807A8.183,8.183,0,0,0,32.4,29.407L19.39,47.158a3.3,3.3,0,0,0,2.984,5.183l3.955-.335A3.27,3.27,0,0,0,28.7,50.678l7.852-10.33.594,7.048-3.9,26.754c-1.472.3-2.951.573-4.439.781l.457,3.268A74.186,74.186,0,0,0,67.429,60.949l.37-.111-.051-.172A77.2,77.2,0,0,0,79.9,47.415a1.651,1.651,0,0,0-.943-2.562l-2.545-.637,9.268-5.148,2.189,9.851-2.185-.728a1.65,1.65,0,0,0-1.9.657l-.274.413C62.762,80.852,39.7,88.511,24,89.373l.18,3.3c16.346-.9,40.266-8.75,61.663-40.947l3.749,1.25a1.65,1.65,0,0,0,2.133-1.923l-3.3-14.856a1.651,1.651,0,0,0-2.413-1.084L71.153,43.361a1.651,1.651,0,0,0,.4,3.044l4.2,1.05a74.53,74.53,0,0,1-9.05,9.726l-2.943-9.872a3.3,3.3,0,0,0-1.654-1.935l-6.786-3.534-1.061-8.068L69.375,22.256a3.3,3.3,0,0,0,.728-4.485l-1.908-2.8A3.3,3.3,0,0,0,65.978,13.567ZM42.752,15.642c.142-.012.284-.018.426-.018a4.959,4.959,0,1,1-.426.018Zm2.243,55.022L48.43,50.842,54.5,53.787l3.587,10.069A70.722,70.722,0,0,1,44.995,70.664ZM51.5,31.726a1.654,1.654,0,0,0-.637,1.528l1.3,9.869a1.649,1.649,0,0,0,.875,1.248l7.573,3.915,3.354,11.252c-.976.8-2,1.585-3.073,2.367l-3.3-9.277a3.29,3.29,0,0,0-1.618-1.753L47.9,46.918a1.651,1.651,0,0,0-2.354,1.2L41.42,71.957c-1.555.517-3.126.992-4.716,1.4l3.744-25.669a1.7,1.7,0,0,0,.012-.378L39.487,35.8a1.65,1.65,0,0,0-2.958-.86L26.054,48.719l-3.976.363L35.083,31.331a4.948,4.948,0,0,1,3.641-2.1l5.138-.434h0l6.578-.556a1.656,1.656,0,0,0,.878-.345L65.473,16.83l1.91,2.8Z" transform="translate(11.574 7.366)" fill="#6ba0cc"/>
  </g>
  <text id="Leading_scientific_resources_with_a_wealth_of_expertise_accumulated_over_decades_and_supported_by_a_comprehensive_team_of_dedicated_Physicians_and_other_health_care_professionals._Wide-ranging_proficiency_in_a_variety_of_healthcare_products_such_as_Drug" data-name="Leading scientific resources, with a wealth of expertise accumulated over decades, and supported by a comprehensive team of dedicated Physicians and other health care professionals.
Wide-ranging proficiency in a variety of healthcare products, such as Drug" transform="translate(25 265)" fill="#fff" font-size="16" font-family="IBMPlexSans-Regular, IBM Plex Sans"><tspan x="0" y="16">Leading scientific resources, with a wealth </tspan><tspan x="0" y="44">of expertise accumulated over decades, and </tspan><tspan x="0" y="72">supported by a comprehensive team of </tspan><tspan x="0" y="100">dedicated Physicians and other health care </tspan><tspan x="0" y="128">professionals.</tspan><tspan x="0" y="166">Wide-ranging proficiency in a variety of </tspan><tspan x="0" y="194">healthcare products, such as Drugs, Medical </tspan><tspan x="0" y="222">devices, Vaccines, Biologicals, Biosimilars, </tspan><tspan x="0" y="250">Genetic Therapies and Hybrid products.</tspan><tspan x="0" y="288">Expertise in crafting medical and scientific </tspan><tspan x="0" y="316">content crucial for the worldwide approval </tspan><tspan x="0" y="344">of products and compliance with post </tspan><tspan x="0" y="372">marketing needs.</tspan></text>
  <path id="Path_254" data-name="Path 254" d="M3.983,0,0,4.172,3.983,8.344l.7-.73L1.892,4.694H7.966V3.651H1.892L4.679.73Z" transform="translate(22 280.344) rotate(180)" fill="#fff"/>
  <path id="Path_255" data-name="Path 255" d="M3.983,0,0,4.172,3.983,8.344l.7-.73L1.892,4.694H7.966V3.651H1.892L4.679.73Z" transform="translate(22 430.344) rotate(180)" fill="#fff"/>
  <path id="Path_256" data-name="Path 256" d="M3.983,0,0,4.172,3.983,8.344l.7-.73L1.892,4.694H7.966V3.651H1.892L4.679.73Z" transform="translate(22 552.344) rotate(180)" fill="#fff"/>
</svg>
