<svg xmlns="http://www.w3.org/2000/svg" width="41.102" height="26.929" viewBox="0 0 41.102 26.929">
  <g id="india" transform="translate(0 -88.276)">
    <path id="Path_279" data-name="Path 279" d="M38.024,88.276H3.078A3.078,3.078,0,0,0,0,91.354v5.9H41.1v-5.9A3.078,3.078,0,0,0,38.024,88.276Z" fill="#fab446"/>
    <path id="Path_280" data-name="Path 280" d="M0,317.806a3.078,3.078,0,0,0,3.078,3.078H38.024a3.078,3.078,0,0,0,3.078-3.078v-5.9H0Z" transform="translate(0 -205.679)" fill="#73af00"/>
    <rect id="Rectangle_995" data-name="Rectangle 995" width="41.102" height="8.976" transform="translate(0 97.252)" fill="#f5f5f5"/>
    <g id="Group_1224" data-name="Group 1224" transform="translate(16.742 97.931)">
      <path id="Path_281" data-name="Path 281" d="M212.361,216.17a3.809,3.809,0,1,1,3.809-3.809A3.813,3.813,0,0,1,212.361,216.17Zm0-6.909a3.1,3.1,0,1,0,3.1,3.1A3.1,3.1,0,0,0,212.361,209.261Z" transform="translate(-208.552 -208.552)" fill="#41479b"/>
      <circle id="Ellipse_21" data-name="Ellipse 21" cx="0.432" cy="0.432" r="0.432" transform="translate(3.377 3.377)" fill="#41479b"/>
      <path id="Path_282" data-name="Path 282" d="M216.421,254.053l-1.1.111-2.357-.111v-.13l2.357-.111,1.1.111Z" transform="translate(-212.612 -250.18)" fill="#41479b"/>
      <path id="Path_283" data-name="Path 283" d="M256,254.053l1.1.111,2.357-.111v-.13l-2.357-.111-1.1.111Z" transform="translate(-252.191 -250.18)" fill="#41479b"/>
      <path id="Path_284" data-name="Path 284" d="M253.924,216.421l-.111-1.1.111-2.357h.13l.111,2.357-.111,1.1Z" transform="translate(-250.18 -212.612)" fill="#41479b"/>
      <path id="Path_285" data-name="Path 285" d="M253.924,256l-.111,1.1.111,2.357h.13l.111-2.357-.111-1.1Z" transform="translate(-250.18 -252.191)" fill="#41479b"/>
      <path id="Path_286" data-name="Path 286" d="M227.443,227.534l-.854-.7L225,225.092l.092-.092,1.745,1.589.7.854Z" transform="translate(-223.68 -223.68)" fill="#41479b"/>
      <path id="Path_287" data-name="Path 287" d="M255.43,255.521l.7.854,1.745,1.589.092-.092-1.589-1.745-.854-.7Z" transform="translate(-251.667 -251.667)" fill="#41479b"/>
      <path id="Path_288" data-name="Path 288" d="M255.43,227.443l.7-.854L257.873,225l.092.092-1.589,1.745-.854.7Z" transform="translate(-251.667 -223.68)" fill="#41479b"/>
      <path id="Path_289" data-name="Path 289" d="M227.443,255.43l-.854.7L225,257.873l.092.092,1.745-1.589.7-.854Z" transform="translate(-223.68 -251.667)" fill="#41479b"/>
      <path id="Path_290" data-name="Path 290" d="M219.174,255.374l-.972.522-2.22.8-.05-.12,2.135-1,1.056-.318Z" transform="translate(-215.34 -251.505)" fill="#41479b"/>
      <path id="Path_291" data-name="Path 291" d="M255.741,240.228l1.056-.318,2.135-1-.05-.12-2.22.8-.971.522Z" transform="translate(-251.907 -236.359)" fill="#41479b"/>
      <path id="Path_292" data-name="Path 292" d="M240.108,219.174l-.522-.972-.8-2.22.12-.05,1,2.135.318,1.056Z" transform="translate(-236.359 -215.34)" fill="#41479b"/>
      <path id="Path_293" data-name="Path 293" d="M255.254,255.741l.318,1.056,1,2.135.12-.05-.8-2.22-.522-.971Z" transform="translate(-251.505 -251.907)" fill="#41479b"/>
      <path id="Path_294" data-name="Path 294" d="M219.125,240.228l-1.056-.318-2.135-1,.05-.12,2.22.8.972.522Z" transform="translate(-215.34 -236.359)" fill="#41479b"/>
      <path id="Path_295" data-name="Path 295" d="M255.691,255.374l.971.522,2.22.8.05-.12-2.135-1-1.056-.318Z" transform="translate(-251.907 -251.505)" fill="#41479b"/>
      <path id="Path_296" data-name="Path 296" d="M255.254,219.125l.318-1.056,1-2.135.12.05-.8,2.22-.522.972Z" transform="translate(-251.505 -215.34)" fill="#41479b"/>
      <path id="Path_297" data-name="Path 297" d="M240.108,255.691l-.522.971-.8,2.22.12.05,1-2.135.318-1.056Z" transform="translate(-236.359 -251.907)" fill="#41479b"/>
    </g>
    <circle id="Ellipse_22" data-name="Ellipse 22" cx="0.582" cy="0.582" r="0.582" transform="translate(19.969 101.158)" fill="#f5f5f5"/>
    <circle id="Ellipse_23" data-name="Ellipse 23" cx="0.349" cy="0.349" r="0.349" transform="translate(20.202 101.391)" fill="#41479b"/>
  </g>
</svg>
