<svg id="Group_240" data-name="Group 240" xmlns="http://www.w3.org/2000/svg" xmlns:xlink="http://www.w3.org/1999/xlink" width="25.843" height="32.344" viewBox="0 0 25.843 32.344">
  <defs>
    <clipPath id="clip-path">
      <rect id="Rectangle_39" data-name="Rectangle 39" width="25.843" height="32.344" fill="#e51e25"/>
    </clipPath>
  </defs>
  <g id="Group_32" data-name="Group 32" clip-path="url(#clip-path)">
    <path id="Path_38" data-name="Path 38" d="M13.808,0c.622.1,1.255.155,1.864.308a12.574,12.574,0,0,1,9.823,9.757,12.786,12.786,0,0,1-7.679,14.729,1,1,0,0,0-.512.43q-2.088,3.408-4.191,6.806c-.059.1-.124.189-.206.313-.079-.125-.14-.218-.2-.314q-2.021-3.393-4.046-6.782a.873.873,0,0,0-.381-.339A12.69,12.69,0,0,1,.156,14.736,12.876,12.876,0,0,1,11.856.05.92.92,0,0,0,12.034,0Zm-.873,28.674c.082-.125.145-.217.2-.312q1.451-2.352,2.9-4.707a.882.882,0,0,1,.49-.4,10.98,10.98,0,1,0-14.471-8.7,10.738,10.738,0,0,0,7.431,8.761.858.858,0,0,1,.487.4q1.364,2.312,2.744,4.615c.063.106.131.21.216.346" transform="translate(0)" fill="#e51e25"/>
    <path id="Path_39" data-name="Path 39" d="M64.44,56.009a8.156,8.156,0,1,1-8.193,8.105,8.16,8.16,0,0,1,8.193-8.105m-.027,1.9a6.256,6.256,0,1,0,6.275,6.239,6.262,6.262,0,0,0-6.275-6.239" transform="translate(-51.497 -51.279)" fill="#e51e25"/>
    <path id="Path_40" data-name="Path 40" d="M111.432,121.042l-2.808-2.813,1.326-1.332,1.492,1.536,3.363-3.359,1.3,1.3-4.675,4.664" transform="translate(-99.451 -105.355)" fill="#e51e25"/>
  </g>
</svg>