<?xml version="1.0" encoding="utf-8"?>
<!-- Generator: Adobe Illustrator 26.5.0, SVG Export Plug-In . SVG Version: 6.00 Build 0)  -->
<svg version="1.1" id="Layer_1" xmlns="http://www.w3.org/2000/svg" xmlns:xlink="http://www.w3.org/1999/xlink" x="0px" y="0px"
	 viewBox="0 0 250 250" style="enable-background:new 0 0 250 250;" xml:space="preserve">
<style type="text/css">
	.st0{clip-path:url(#SVGID_00000009550252293281061600000013221525848339957913_);}
	.st1{fill-rule:evenodd;clip-rule:evenodd;fill:#00869A;}
	.st2{clip-path:url(#SVGID_00000151512116769145332830000001840927358997873561_);}
	.st3{fill:#150E44;}
	.st4{clip-path:url(#SVGID_00000093856137971881785420000008082737424274060703_);}
	.st5{fill-rule:evenodd;clip-rule:evenodd;fill:#FFFFFF;}
</style>
<g id="Group_376" transform="translate(-0.385 0.386)">
	<g id="Group_361" transform="translate(36.809 36.414)">
		<g>
			<defs>
				<rect id="SVGID_1_" x="-32" y="-32.3" width="242.1" height="241.1"/>
			</defs>
			<clipPath id="SVGID_00000118390254009355304240000010796330306663843738_">
				<use xlink:href="#SVGID_1_"  style="overflow:visible;"/>
			</clipPath>
			<g id="Group_360" style="clip-path:url(#SVGID_00000118390254009355304240000010796330306663843738_);">
				<path id="Path_470" class="st1" d="M89-32.3c66.9,0,121.1,54,121.1,120.5S155.9,208.7,89,208.7S-32,154.8-32,88.2
					S22.2-32.3,89-32.3"/>
			</g>
		</g>
	</g>
	<g id="Group_363" transform="translate(0.385 -0.386)">
		<g>
			<defs>
				<path id="SVGID_00000113317411121233461880000008312842292920025254_" d="M39.9,39.8c47.4-47.1,123.8-47.1,171.2,0
					c47.1,46.8,47.3,122.9,0.5,170c-0.2,0.2-0.3,0.3-0.5,0.5c-47.4,47.1-123.8,47.1-171.2,0c-47.1-46.8-47.3-122.9-0.5-170
					C39.5,40.1,39.7,39.9,39.9,39.8z"/>
			</defs>
			<clipPath id="SVGID_00000123407151816578633320000001120475293242999196_">
				<use xlink:href="#SVGID_00000113317411121233461880000008312842292920025254_"  style="overflow:visible;"/>
			</clipPath>
			
				<g id="Group_362" transform="translate(0 0)" style="clip-path:url(#SVGID_00000123407151816578633320000001120475293242999196_);">
				<path id="Path_477" class="st3" d="M-116.7,125l242.1-241l242.1,241L125.4,366L-116.7,125z"/>
			</g>
		</g>
	</g>
	<g id="Group_375" transform="translate(34.319 38.023)">
		<g>
			<defs>
				<rect id="SVGID_00000037663645402176209440000000438963067453307063_" x="-32.9" y="-31.7" width="239.9" height="238.9"/>
			</defs>
			<clipPath id="SVGID_00000054256308846483327850000005436905753880674468_">
				<use xlink:href="#SVGID_00000037663645402176209440000000438963067453307063_"  style="overflow:visible;"/>
			</clipPath>
			<g id="Group_374" style="clip-path:url(#SVGID_00000054256308846483327850000005436905753880674468_);">
				<path id="Path_476" class="st5" d="M143.1,19.5c0,0,0.1,0,0.1,0.1c-0.1,0.1-0.2,0.2-0.3,0.3c-0.6,0.4-1,1-1.4,1.6
					c-0.2,0.3-0.2,0.7,0.1,0.9c0.1,0.1,0.2,0.1,0.3,0.1c0.5,0.1,0.9,0.3,1.4,0.4c0,0,0,0,0,0l0.1-0.1l0,0.1c0,0,0,0,0,0
					c0,0.1,0.1,0.2,0.1,0.3c0.1,0.2,0,0.4-0.1,0.5c-0.3,0.1-0.5,0.4-0.5,0.7c-0.1,0.2-0.2,0.5-0.3,0.6c-0.4,0.4-0.7,0.8-1.1,1.2
					c-0.2,0.2-0.4,0.3-0.7,0.2c-0.8-0.3-1.6-0.4-2.4-0.3c-0.3,0-0.6,0.1-0.9,0.3c-0.4,0.3-0.8,0.4-1.2,0.5c-0.9,0.1-1.7,0.3-2.5,0.5
					c-0.7,0.1-1.2,0.6-1.5,1.2c-0.3,0.3-0.3,0.8,0,1.2c0.5,0.5,0.6,1.2,1,1.6c0,0,0.1,0,0.1,0c0.1,0,0.1-0.1,0.2-0.1
					c0,0.1-0.1,0.1-0.2,0.1c0,0-0.1,0-0.1,0.1c0,0,0,0,0,0c0.1,0.3,0.3,0.7,0.5,1c0.2,0.3,0.5,0.5,0.9,0.5c0.3,0,0.6-0.3,0.9-0.1
					c0.4,0.1,0.7,0.1,1.1,0c0.1,0,0.2,0,0.3,0.1c0.1,0.1,0.1,0.2,0.2,0.3c0,0.1-0.1,0.2-0.2,0.3c-0.2,0-0.4,0-0.5,0
					c-0.7-0.3-1.5-0.3-2.2,0c-0.3,0.1-0.6,0.1-0.9,0.1c-0.4-0.1-0.8,0-1.1,0.2c-0.5,0.3-0.7,1.1-0.4,1.4c0.4,0.4,0.7,0.9,1.2,1.1
					c0.2,0.1,0.2,0.2,0,0.3c-0.2,0.1-0.4,0.2-0.6,0.4c-0.1,0.1-0.2,0.3-0.2,0.5c0.3,0.8,0.8,1.4,1.5,1.8c0.5,0.3,0.7,0.3,1-0.3
					c0.2-0.3,0.2-0.3,0.6-0.2c0.2,0.1,0.5,0.2,0.6,0.4c0.1,0.1,0.2,0.2,0.3,0.1c0.8-0.3,1.6,0.3,2.3-0.3c0.1,0,0.1,0,0.2,0
					c0.7,0.3,1.5,0.7,2.1,1.1c0.6,0.4,1.1,0.8,1.6,1.3c0.2,0.2,0.4,0.3,0.5,0.5c0.1,0.2,0.1,0.3,0.1,0.5c0,0.3-0.1,0.6-0.3,0.9
					c-0.3,0.4-0.2,1,0.2,1.4c0.1,0.2,0.2,0.4,0.3,0.7c0.1,0.3,0,0.6-0.3,0.8c-0.2,0.1-0.2,0.2,0,0.3c0.2,0.1,0.3,0.1,0.5,0.2
					c0.2,0,0.3,0.2,0.2,0.4c0,0,0,0,0,0.1c-0.1,0.1-0.1,0.2-0.2,0.3c-0.2,0.3-0.3,0.5,0,0.8c0.1,0.1,0.1,0.2,0.1,0.3
					c0,0.2-0.2,0.3-0.2,0.5c0,0.2,0.2,0.4,0.3,0.7c0.1,0.4,0,0.8,0.1,1.1c0.1,0.4,0,0.7-0.2,1.1c0,0.1,0,0.2,0,0.3
					c0.1,0.1,0.2,0.2,0.3,0.3c0.2,0.3,0.1,0.5-0.2,0.6c-0.2,0-0.5,0.1-0.7,0.3c-0.1,0.1-0.1,0.2,0,0.3c0.1,0.1,0.6,0.1,0.1,0.4
					c-0.5,0.2-0.5,0.7-0.5,1.1c0,0,0,0,0,0v0.1c0,0-0.1,0-0.1,0.1c0,0.1,0,0.2,0.1,0.2v0.1l0,0c-0.1,0.5-0.3,0.9-0.6,1.3
					c-0.2,0.3-0.1,0.6,0.1,0.8c0.6,0.7,1.2,0.7,1.8,0.1c0.1-0.1,0.2-0.3,0.3-0.4c0.2-0.2,0.5-0.2,0.7-0.1c0.1,0,0.2,0.1,0.3,0.2v0
					c-0.1,0-0.2,0-0.3,0c-0.1,0-0.2,0.1-0.3,0.2c0.1,0.1,0.2,0.1,0.3,0.2c0.1,0,0.2,0,0.3,0v0c0,0,0,0,0,0c-0.2,0.3-0.4,0.6-0.6,0.8
					c-0.1,0.1-0.1,0.3,0,0.4c0,0,0,0,0,0c0.2,0.1,0.3,0.1,0.5,0.2c0.2,0.1,0.3,0.4,0.2,0.6c0,0,0,0,0,0c-0.1,0.1-0.1,0.3-0.2,0.4h0
					c0,0,0,0,0,0.1c0.4,0,0.7,0.3,0.8,0.7c0,0.1,0,0.1-0.1,0.1c0,0-0.1,0-0.2,0c-0.2-0.3-0.3-0.6-0.5-0.8c0,0-0.1,0-0.1,0
					c0,0,0,0,0,0c-0.5,0-1-0.1-1.4-0.3c-0.3-0.1-0.6-0.2-0.9-0.2c-0.3,0-0.6,0.2-0.7,0.5c0,0.1,0,0.1,0,0.2c0,0.1,0,0.1,0,0.2
					c0,0.2,0.1,0.4,0.1,0.5c-0.1,0.1-0.3,0.2-0.4,0.3c-0.2,0.1-0.4,0.3-0.5,0.5c-0.1,0.3-0.2,0.7-0.2,1.1c0,0.7,0.4,1.3,0.9,1.7
					c0.1,0,0.1,0.1,0.2,0.1c0.7,0.1,1.4,0,2-0.3c0.3-0.2,0.4-0.6,0.3-1c-0.1-0.1-0.2-0.3-0.4-0.4c-0.3-0.2-0.4-0.6-0.4-0.9l-0.1,0
					l0-0.1l0.1,0.1c0,0,0,0.1,0,0.1c0.8,0.5,1.6,0.8,2.5,0.9c0.1,0,0.2,0.1,0.2,0.3c0,0.1,0,0.1-0.1,0.2c-0.1,0.2-0.3,0.3-0.5,0.5
					c0,0,0,0,0,0c0-0.1,0-0.2,0-0.3c0-0.1,0-0.1,0-0.2c0-0.1-0.1-0.2-0.3-0.1c-0.1,0-0.1,0.1-0.1,0.1c0,0.1,0,0.3,0,0.3
					c0.1,0.1,0.3,0.2,0.4,0.2v0.1l0.1,0c-0.1,0.2-0.2,0.5-0.3,0.7c-0.1,0.2-0.1,0.4,0,0.5c0.1,0.4,0.1,0.4-0.3,0.4
					c-0.2,0-0.4,0-0.5,0.2c0,0.6-0.5,1.1-1.1,1.1c-0.1,0-0.2,0-0.3,0c-0.3,0-0.6,0-0.9,0.1c0,0,0,0,0,0l0,0c0,0,0,0,0,0
					c0,0.4,0.1,0.7,0.3,1c0,0,0,0,0.1,0l0,0.1l-0.1,0c0,0,0,0,0-0.1c-0.2,0-0.3,0-0.5-0.1c-0.4-0.1-0.4-0.1-0.5,0.3
					c-0.1,0.2-0.1,0.3-0.2,0.5c-0.2,0.3-0.6,0.5-0.7,0.8c-0.1,0.3-0.2,0.7-0.4,1c-0.1,0.2-0.2,0.5-0.2,0.7c0,0.2,0.1,0.5,0.3,0.6
					c0.1,0.1,0.3,0.2,0.4,0.3c0,0,0,0,0,0c0,0,0.1,0,0.1,0c0,0,0.1-0.1,0.1-0.1c0,0,0.1,0,0.1,0l-0.2,0.1c0,0-0.1,0.1-0.1,0.1
					c0,0,0,0-0.1,0c-0.3,0.3-0.5,0.5-0.8,0.8c-0.3,0.3-0.4,0.8-0.1,1.2c0.2,0.2,0.3,0.5,0.3,0.8c0,0.2,0,0.5,0.1,0.7
					c0.3,0.8,0.4,1.7,0.3,2.5c0,0.1,0,0.2,0,0.4c0,0.2,0.2,0.3,0.4,0.3c0.4-0.1,0.8-0.2,1.1-0.4c0,0,0,0,0-0.1c0,0,0.1,0,0.1,0
					c0.1,0,0.1-0.1,0.2-0.1c0,0.2-0.1,0.1-0.2,0.1c0,0-0.1,0-0.1,0.1c0,0-0.1,0-0.1,0c-0.2,0.4-0.5,0.6-0.8,0.8
					c-0.4,0.2-0.5,0.7-0.4,1.1c0.1,0.6,0.3,1.2,0.6,1.8l0,0v0.1c0,0,0,0,0,0v0c0.1,0.2,0.2,0.3,0.3,0.4c0.3,0.2,0.4,0.5,0.2,0.8
					c0,0,0,0,0,0c-0.1,0.2-0.2,0.4,0,0.5c0.4,0.4,0.4,0.9,0.6,1.3c0.1,0.3,0.1,0.6,0,0.9c0,0.1-0.1,0.2,0,0.3
					c0.2,0.3,0.5,0.5,0.7,0.8c0.5,0,0.8,0.4,0.8,0.8c0,0.1,0,0.1,0,0.1c0.1,0.1,0.2,0.1,0.3,0.1c0.4-0.1,0.7-0.1,1.1-0.2
					c0.2,0,0.3-0.1,0.5-0.2c0.3-0.1,0.7,0,0.7,0.3c0,0.5,0.2,1,0.6,1.3c0.1,0.1,0.2,0.3,0.3,0.5c0.1,0.1,0.3,0.3,0.4,0.3
					c0.5-0.1,0.8,0.2,1.3,0.2c0.3,0,0.6-0.2,0.8-0.4c0.4-0.7,0.4-1.5,0.8-2.2c0.1-0.6,0.3-1.1,0.7-1.5c0.3-0.3,0.5-0.7,0.5-1.1
					c0.1-0.4,0.2-0.7,0.3-1c0,0,0,0,0,0c0,0,0,0,0-0.1c-0.1,0-0.2,0-0.2-0.1c0,0-0.1-0.1-0.1-0.1c0-0.1,0.1-0.1,0.2,0
					c0,0.1,0.1,0.1,0.1,0.2l0.1,0c0,0,0,0,0,0c0.3-0.1,0.6-0.4,0.8-0.7c0.2-0.6,0.7-1.2,1.2-1.6c0.6-0.4,0.8-1.2,0.5-1.8
					c-0.1-0.3,0-0.5,0.2-0.6c0.1-0.1,0.2-0.1,0.3-0.2c0.1-0.1,0.2-0.3,0.2-0.5c0-0.1-0.1-0.2-0.2-0.3c-0.2-0.4-0.2-0.5,0.3-0.5
					c0.3,0,0.6-0.1,0.7-0.4c0.2-0.5,0.5-0.7,1-0.7c0.7,0.1,1.3-0.3,2-0.1c0.2,0.1,0.3-0.1,0.5-0.2s0.3-0.3,0.4-0.3
					c0.9,0,1.8-0.4,2.5-1.1c0.1-0.1,0.2-0.1,0.4-0.1c0.5-0.2,1-0.5,1.3-1c0.3-0.8,1.1-1.2,1.5-1.9c0.4-0.7,1.3-0.9,1.8-1.6
					c0.4-0.2,0.9,0,1.3-0.1c0.2-0.1,0.5-0.1,0.7-0.2c0.2-0.1,0.3-0.1,0.5-0.1c0.4,0.1,0.7,0,1.1-0.1c0.6-0.3,1.3-0.5,1.9-0.6
					c1.1-0.1,2.2-0.6,3.1-1.3c1.2-0.9,2.4-1.7,3.6-2.6c0.1,0,0.1-0.2,0-0.3c0,0-0.1-0.1-0.1-0.1c-0.7-0.2-1.5-0.1-2.2-0.5
					c-0.5-0.3-1.1-0.3-1.6-0.1c-0.1,0-0.2,0-0.4,0c-0.1,0-0.1-0.1-0.1-0.1c-0.1-0.1-0.1-0.3,0-0.3c0.3-0.1,0.6-0.2,0.9-0.3
					c0.4-0.1,0.6-0.5,0.5-0.9c0-0.4-0.1-0.7-0.2-1.1c0-0.1,0.2-0.4,0.4-0.4c0.1,0,0.3,0.1,0.3,0.2c0.2,0.7,0.5,1.4,0.9,2
					c0.2,0.4,0.7,0.7,1.2,0.7c0.2,0,0.5,0,0.7,0c0.7,0,0.8-0.1,0.8-0.7c0-0.6,0-1.1,0.1-1.7c0.1-0.6-0.5-1-0.3-1.6
					c0-0.1-0.1-0.3-0.2-0.5c-0.3-0.7-0.8-1.2-1.5-1.6c-0.3-0.2-0.5-0.4-0.7-0.6c-0.1-0.1-0.2-0.3-0.3-0.4c-0.1-0.4-0.2-0.8-0.2-1.3
					c0-0.1,0.1-0.2,0.2-0.3c0.1,0,0.2,0,0.3,0c0.1,0.2,0.1,0.3,0.1,0.5c0,0.6,0.3,1.2,0.8,1.5c0.4,0.2,0.6,0.6,1.1,0.7
					c0.2,0,0.4,0,0.4-0.2c0-0.3,0.1-0.6,0.3-0.8c-0.1-0.3,0.1-0.6,0.2-0.8c0.1-0.2,0.1-0.5-0.1-0.7c-0.4-0.3-0.8-0.5-1.2-0.8
					c-0.1-0.1-0.1-0.3-0.2-0.4l-0.1,0c0,0,0,0-0.1-0.1c-0.4-0.1-0.8-0.2-1.1-0.5c0,0,0-0.1,0-0.1c0,0,0.1-0.1,0.2-0.1
					c0.1,0,0.3,0,0.3,0c0.2,0.2,0.4,0.4,0.5,0.6c0,0,0.1,0,0.1,0c0,0,0,0.1,0,0.1c0.1,0.1,0.3,0.1,0.4,0.2c0.4,0.3,0.8,0.3,1.2,0
					c0.4-0.3,0.9-0.4,1.4-0.5c0.2-0.1,0.3-0.2,0.4-0.3c0.1-0.2,0.2-0.5,0.2-0.7c0.1-0.2,0-0.5-0.3-0.6c0,0,0,0,0,0
					c-0.5-0.1-0.9-0.3-1.3-0.6c0,0-0.1-0.1,0-0.2c0-0.1,0.1-0.2,0.2-0.2c0,0,0.1,0,0.1,0c0.6,0.3,1.1,0.5,1.7,0
					c0.1-0.1,0.4-0.1,0.5-0.1c0.5-0.1,0.8-0.6,0.7-1.1c0-0.1-0.1-0.3-0.2-0.4c-0.3-0.2-0.5-0.5-0.5-0.9c-0.1-0.2-0.2-0.3-0.3-0.4
					c-0.1-0.1-0.2-0.1-0.2-0.3c0.1-0.1,0.2-0.2,0.3-0.1c0.2,0,0.3,0,0.5,0c0.2-0.1,0.4-0.3,0.4-0.6c0.1-0.4,0.1-0.9,0.1-1.3
					c0-0.3-0.1-0.6-0.4-0.8c-0.4-0.3-0.1-0.5,0.1-0.7c0.1-0.2,0.1-0.4-0.1-0.5c0,0,0,0,0,0c-0.3-0.2-0.7-0.1-0.9-0.5
					c-0.1,0-0.2,0-0.3-0.1c-0.2-0.1-0.4-0.3-0.4-0.5c0-0.2,0.1-0.4,0.3-0.5c0.1,0.1,0.3,0.3,0.4,0.4l0,0v-0.1
					c-0.1-0.1-0.3-0.3-0.4-0.4l-0.1,0c0.3-0.3,0.6-0.6,0.9-0.9c0.2-0.1,0.5-0.1,0.7,0c0.1,0,0.1,0.1,0.2,0.1
					c0.4,0.4,0.9,0.7,0.8,1.4c-0.1,0.5,0,1.1,0.3,1.6c0,0,0.1,0,0.1,0c0.1-0.2,0.1-0.3,0.1-0.5c-0.1-0.7,0-1.4,0.4-1.9
					c0.3-0.5,0.4-1.1,0.4-1.6c0-0.3-0.2-0.6-0.5-0.7c-0.2,0-0.5-0.1-0.7-0.1c-0.2-0.1-0.3-0.2-0.4-0.3c0,0-0.1-0.1-0.1-0.2
					c0.1-0.1,0.1-0.2,0.2-0.2c0.7-0.1,0.8-0.2,0.5-0.7c-0.1-0.3-0.3-0.5-0.6-0.7c-0.2-0.2-0.4-0.3-0.5-0.5c0,0,0-0.1,0-0.1
					c0,0,0.1-0.1,0.1-0.1c0.5,0.3,0.8,0,1-0.5c0.2-0.8,4.7-10,4.6-10.1c-0.2-0.1-0.3-0.1-0.5-0.2c-0.2,0-0.5-0.1-0.7-0.1
					c0,0-0.1-0.1-0.1-0.1c0.1-0.1,0.1-0.2,0.2-0.3c0.3-0.1,0.6-0.1,0.9,0.1c0.5,0.2,1,0.1,1.4-0.1c0.2-0.1,0.3-0.2,0.5-0.3
					c0.2-0.1,0.2-0.3,0.2-0.5c0-0.1-0.1-0.2-0.1-0.4c0-0.2,0.1-0.4,0.3-0.4c0.4,0.1,0.9,0,1.2-0.4c0.2-0.2,0.4-0.4,0.6-0.5
					c0.9-0.7,0.9-1.1,0.2-2c-0.1-0.1-0.2-0.2-0.2-0.3c-0.7-0.8-1.7-1.3-2.8-1.2c-0.6,0-1.2,0.2-1.8,0.4c-0.1,0-0.2,0.2-0.2,0.3
					c-0.1,0.2-0.1,0.4-0.2,0.5c-0.1,0.3-0.3,0.3-0.6,0.3c-0.2,0-0.5-0.1-0.6-0.3c-0.1-0.1-0.3-0.1-0.4,0c0,0-0.1,0.1-0.1,0.1
					c-0.6,0.9-1.6,1.6-2.7,1.9c-0.6,0.1-1.1,0.4-1.6,0.7c0,0,0,0.1,0,0.1c-0.1,0.1-0.3,0.2-0.4,0.4c-0.1,0.1-0.3,0.2-0.4,0.4
					l-0.1,0.1l0.1-0.1c0.1-0.1,0.2-0.3,0.4-0.4l0.4-0.3c0,0,0,0,0.1,0c0-0.2,0-0.3,0.1-0.4c0.4-0.5,0.9-0.9,1.4-1.1
					c0.7-0.2,1.2-0.8,1.4-1.4c0.1-0.2,0.1-0.3,0.2-0.5c0.6-1.4-0.1-1.7-1.2-1.6c-0.1,0-0.1,0-0.2,0c-0.1,0.1-0.2,0.1-0.3,0.2
					c-0.1,0.3-0.2,0.6-0.3,0.9c-0.1,0.4-0.5,0.6-0.9,0.6c-0.1,0-0.1,0-0.2,0c-0.7-0.2-1.3-0.2-2-0.1c0,0-0.1-0.1-0.1-0.1
					s0-0.2,0.1-0.2c0.3-0.1,0.7-0.2,1-0.4c0.3-0.1,0.5-0.4,0.6-0.7c0.1-0.2-0.1-0.5-0.3-0.6c-0.4-0.1-0.8-0.2-1.3-0.3
					c-1.4-0.4-3-0.3-4.3,0.4c-0.2,0.1-0.4,0.2-0.7,0.3c-0.3,0.1-0.7,0.2-1.1,0.3c-0.1,0-0.2-0.1-0.2-0.2c0-0.1,0-0.1,0.1-0.2
					c0.2-0.1,0.4-0.3,0.6-0.4c0.6-0.3,1.3-0.4,1.9-0.7c1.1-0.5,2.3-0.6,3.4-0.3c0.8,0.2,1.6,0.3,2.4,0.2c0.7-0.1,1.5-0.2,2.2-0.3
					c0.8-0.1,1.5-0.5,2.1-1c0.3-0.3,0.4-0.8,0.1-1.2c-0.4-0.3-0.9-0.7-1.3-1c-0.7-0.6-1.6-0.7-2.4-0.3c-0.1,0-0.2,0-0.4,0
					c-0.1,0-0.1-0.1-0.1-0.1c0,0,0-0.1,0.1-0.1c0.2-0.1,0.3-0.1,0.5-0.2c0.4-0.2,0.6-0.8,0.3-1.2c0,0,0,0,0-0.1
					c-0.1-0.2-0.4-0.4-0.6-0.3c-1.1,0.4-2.4,0.4-3.4-0.1c-0.4-0.1-0.7-0.2-1.1-0.1c-0.4,0-0.9,0.1-1.3,0.2c-0.6,0.2-1.2,0.2-1.8,0.1
					c-0.4-0.1-0.9,0-1.2,0.3c-0.2,0.1-0.4,0.1-0.5,0.1c0,0-0.1,0-0.1-0.1c0,0,0-0.1,0-0.1c0.2-0.1,0.4-0.3,0.7-0.3
					c0.5,0,1,0,1.5-0.1c0.9-0.2,1.8-0.3,2.7-0.3c0.7-0.1,1.5,0,2.2,0.2c0.7,0.2,1.4,0,1.9-0.4c0.1-0.1,0.1-0.2,0.1-0.3
					c-0.4-0.7-1-1.1-1.7-1.3c-1.3-0.3-2.6-0.8-3.9-1.2c-0.6-0.2-1.2-0.3-1.8-0.3c-0.7-0.1-1.3,0.3-2,0.2c-0.5,0.3-0.9,0.7-1.1,1.2
					c0,0-0.1,0.1-0.1,0.1c0,0,0,0,0,0c0,0,0,0,0,0.1l0,0c0,0.1,0,0.2-0.1,0.3h0l0.1,0.1l-0.1-0.1c0,0,0,0,0,0
					c-0.4,0-0.8-0.2-1.1-0.5c-0.1-0.1-0.2-0.1-0.3,0c0,0,0,0.1-0.1,0.1c0,0.1,0,0.1-0.1,0.2c0,0.2,0.1,0.4,0.1,0.5
					c0,0.1,0,0.3-0.1,0.3c-0.1,0-0.2,0.1-0.3,0.1c-0.5-0.2-1-0.4-1.5-0.8c-0.3-0.2-0.7-0.2-1,0c-0.3,0.2-0.6,0.4-1,0.4
					c-0.2,0-0.3,0.1-0.4,0.3c0,0,0,0,0,0c0,0.4,0,0.9-0.1,1.3c0,0.2-0.1,0.5-0.4,0.6c-0.2,0.1-0.3,0.4-0.5,0.5
					c-0.1,0.1-0.2,0.1-0.3,0.1c-0.4-0.2-0.8-0.4-1.2-0.4c-0.2,0-0.3,0.2-0.4,0.3c0,0.2,0,0.4,0,0.6c0.1,0.7,0.2,1.3,0.4,2
					c0.1,0.9,0.3,1.7,0.6,2.5c0.1,0.2-0.1,0.3-0.3,0.3c-0.3,0-0.6,0.1-0.7-0.4c-0.1-0.3-0.3-0.6-0.6-0.6c-0.1,0,0-0.1,0.1-0.2
					c0.3-0.3,0.3-0.5,0.1-0.7c-0.3-0.2-0.6-0.5-0.7-0.8c-0.2-0.6-0.4-1.2-0.7-1.7c-0.2-0.3-0.4-0.6-0.8-0.8
					c-0.3-0.2-0.6-0.1-0.8,0.2c0,0,0,0,0,0c0,0.1-0.1,0.2-0.1,0.3c-0.2,0.7-0.3,1.5-0.2,2.2c0,0.3,0,0.6-0.2,0.9
					c-0.2,0.3-0.6,0.1-0.9,0.1c-0.1,0-0.1,0-0.2,0c-0.1,0.1-0.2,0.1-0.3,0.2c-0.1,0.1-0.3-0.1-0.3-0.3c-0.1-0.4,0.3-0.6,0.2-0.8
					c-0.1-0.6-0.2-1.2-0.1-1.8c0-0.2-0.1-0.4-0.2-0.5c0,0-0.1-0.1-0.1-0.1c-0.1,0-0.2,0.1-0.3,0.1c-0.2,0.3-0.2,0.6-0.2,0.9
					c0,0.3,0,0.6,0,0.9c-0.1,0.3-0.3,0.5-0.6,0.7c0,0-0.1,0.1-0.1,0.1c0,0,0,0,0,0.1c-0.1,0.1-0.3,0.2-0.4,0.3
					c-0.1,0.1-0.3,0.3-0.4,0.4c0,0,0,0.1-0.1,0.1c0,0.1,0,0.1,0,0.2c-0.1-0.1,0-0.1,0-0.2c0,0,0-0.1,0-0.1c0.1-0.1,0.3-0.3,0.4-0.4
					c0.1-0.1,0.3-0.2,0.4-0.3c0,0,0,0,0,0c-0.1-0.2-0.2-0.4-0.1-0.6c0.1-0.4,0.3-0.8,0.4-1.2c0.1-0.4,0.2-0.9,0.1-1.3
					c-0.1-0.2-0.4-0.4-0.5-0.4c-0.3,0.1-0.6,0.1-0.9,0.2c-0.6,0.2-1.2,0.4-1.8,0.4c-0.9,0.1-1.7,0.2-2.6,0.3c-0.3,0-0.6,0.3-0.6,0.6
					c0,0.2,0,0.4,0,0.5c0,0.1-0.1,0.1-0.1,0.1c-0.1,0-0.1,0-0.2-0.1c-0.2-0.2-0.3-0.4-0.5-0.5c-0.3-0.2-0.6,0-0.9,0.1
					c-0.3,0.1-0.5,0.4-0.6,0.7c-0.1,0.2-0.1,0.4-0.1,0.5c0,0.4-0.1,0.7-0.2,1.1c-0.2,0.3-0.4,0.6-0.7,0.8c-0.1,0.1-0.1,0.2-0.2,0.3
					c-0.1,0.2-0.4,0.3-0.6,0.1c0,0,0,0,0,0c-0.4-0.4-0.9-0.5-1.3-0.3c-0.6,0.1-1.2,0.4-1.6,0.8c-0.4,0.5-1,0.8-1.6,0.8c0,0,0,0,0,0
					C143.2,19.5,143.1,19.5,143.1,19.5 M142.4,55.5c0-0.1,0-0.2,0-0.3l0,0v0c0.1,0,0.2,0,0.4,0.1c0,0,0,0,0,0l0.1-0.1l0,0.1
					c0,0,0,0-0.1,0C142.7,55.4,142.6,55.5,142.4,55.5C142.4,55.6,142.4,55.6,142.4,55.5 M145,57.8v-0.3h0l0,0c0.1,0,0.3,0.1,0.3,0.1
					C145.4,57.8,145.2,57.8,145,57.8C145,57.8,145.1,57.8,145,57.8C145,57.8,145,57.8,145,57.8 M39.2,42.1c0,0,0-0.1,0-0.1
					c-0.1,0-0.2-0.1-0.3-0.1c-0.1,0-0.1,0.1-0.2,0.2h0c0,0,0,0,0,0c-0.4-0.4-0.9-0.8-1.5-1.1c-0.8-0.4-1.5-1.1-1.9-2
					c-0.1-0.1-0.1-0.2-0.2-0.3c-0.1-0.2-0.4-0.3-0.6-0.4c-0.2,0-0.5,0-0.7,0c-0.5,0-1-0.2-1.4-0.5c-0.5-0.5-1.2-0.9-1.9-1.2
					c-0.3-0.2-0.6-0.4-0.9-0.7c-0.3-0.3-0.6-0.7-0.7-1.1c-0.2-0.4-0.7-0.6-1.1-0.5c-0.3,0.1-0.6,0.1-0.9,0.2c-0.2,0-0.4-0.1-0.5-0.2
					c-0.3-0.5-0.3-1-0.6-1.5c0-0.1,0.1-0.2,0.1-0.3c0.1-0.1,0.2-0.3,0.1-0.5c-0.1-0.2-0.2-0.3-0.4-0.4c-0.3-0.1-0.6-0.2-0.9-0.3
					c-0.2,0-0.4-0.1-0.5-0.1c-0.3-0.1-0.3-0.1-0.3-0.5c0-0.3,0.1-0.6-0.3-0.7c0,0,0,0,0,0c0,0-0.1,0-0.1,0c-0.2,0.1-0.4,0.1-0.5,0.2
					c-0.1,0-0.1,0.1-0.2,0.1H23c0,0.1,0,0.2-0.1,0.3c-0.1,0.2-0.3,0.3-0.4,0.3c-0.1,0-0.1,0-0.1-0.1c-0.1-0.1-0.1-0.2-0.2-0.3
					c0,0,0.1-0.1,0.1-0.1c0.2,0,0.5,0,0.7-0.1c0,0,0,0,0,0l0.2-0.1c0.2-0.1,0.3-0.2,0.5-0.2c0,0,0.1,0,0.1,0c0,0,0,0,0,0
					c-0.1-0.5-0.4-0.9-0.7-1.2c-0.2-0.2-0.4-0.2-0.7-0.2c-0.4,0.1-0.8,0.3-1.2,0.6c-0.5,0.4-1.2,0.5-1.8,0.3
					c-0.4-0.1-0.7-0.2-1.1-0.3c-0.6-0.2-1.1,0-1.5,0.5c-0.1,0.1-0.2,0.3-0.3,0.5c-0.1,0.2-0.2,0.3-0.4,0.3c-0.5,0.2-1,0.2-1.5,0.2
					c-0.7-0.2-1.4,0-1.9,0.4c-1.1,0.6-2.2,1.4-3.2,2.2c-0.1,0.1-0.3,0.3-0.4,0.4c-1.2,0.7-2.4,1.3-3.8,0.5c-0.1,0-0.1,0-0.2-0.1
					c-0.5-0.2-1-0.1-1.3,0.4c-0.2,0.4-0.5,0.7-0.8,1c-0.5,0.3-0.6,0.9-0.4,1.5C2.9,37.2,3,37.6,3.1,38c0.5,1.1,0.5,2.3-0.1,3.4
					c-0.1,0.3,0,0.6,0.3,0.8c0.3,0.2,0.6,0.3,0.9,0.5c0.1,0,0.1,0.2,0.1,0.3c0,0-0.1,0-0.2,0.1c-0.2,0-0.4,0.1-0.4,0.3
					c-0.1,0.5-0.1,1-0.1,1.5c0,0.1,0.2,0.2,0.3,0.2c0.2,0,0.3,0,0.5,0c0,0,0,0,0-0.1l0.1,0c0-0.1,0-0.2,0.1-0.3h0l-0.1-0.1l0.1,0v0
					C5,44.7,5.6,44.7,6,45c0.2,0.1,0.2,0.3,0.1,0.5c-0.1,0.1-0.2,0.2-0.3,0.2c-0.5-0.1-1-0.2-1.5-0.5c0,0,0,0,0,0H4.4
					c-0.1,0.2,0,0.5-0.3,0.5c-0.4,0-0.7,0.2-1,0.4c-0.3,0.2-0.7,0.2-1.1,0c-0.4-0.2-0.8-0.4-1.1-0.6c-0.2-0.1-0.3-0.3-0.2-0.5
					c0,0,0-0.1,0-0.1c0.1-0.2,0.3-0.4,0.4-0.6c0.2-0.3,0-0.7-0.3-0.9c-0.1,0-0.2-0.1-0.3-0.1c-0.5,0-1,0-1.5,0.1
					c-0.3,0-0.6,0.2-0.8,0.4c-0.3,0.4-0.6,0.3-1,0.3c-0.3,0-0.6,0.1-0.9,0.1c-0.8,0.3-1.6,0.6-2.4,1c-0.3,0.1-0.4,0.4-0.3,0.7
					c0,0,0,0.1,0.1,0.1c0.3,0.4,0.6,0.8,0.9,1.2c0.1,0.1,0,0.2-0.3,0.4c-0.1,0-0.3,0.1-0.3,0.2c-0.1,0.6-0.5,1.1-0.6,1.7
					c-0.1,0.2,0,0.5,0.1,0.7c0.3,0.7,1.1,1.1,1.8,1c0.7-0.2,1.4,0,1.9,0.4c0.3,0.3,0.7,0.3,1,0.1c0.6-0.3,1.2-0.5,1.9-0.8
					c0.2,0,0.4,0,0.5,0c0.1,0,0.1,0.1,0.1,0.1c0,0.1,0,0.1,0,0.2c-0.1,0.1-0.2,0.1-0.3,0.2C0.2,51.5,0,51.6,0,52.1
					c0,0.2,0,0.4,0,0.5c-0.3,0.5-0.5,1-0.6,1.6c-0.3,0.7-0.9,1.2-1.7,1.2c-0.1,0-0.2,0-0.3-0.1C-2.8,55.1-3,55-3.2,54.8
					c-0.1-0.1-0.2-0.4-0.4-0.4c-0.2,0-0.2,0.3-0.2,0.4C-4,55.5-4.6,56-5.3,56c-0.1,0-0.2,0-0.3-0.1c-0.1-0.1-0.2-0.2-0.2-0.3
					c-0.3-0.5-0.7-0.6-1.1-0.4c-0.7,0.4-1.4,0.8-1.7,1.7c0,0.1-0.1,0.2-0.2,0.3c-1,0.7-1.9,1.5-2.8,2.3c-0.6,0.4-0.9,1.2-0.7,2
					c0.1,0.3,0.1,0.6,0.2,0.9c0.1,0.3,0,0.6-0.2,0.9c-0.5,0.5-0.7,1.2-0.4,1.9c0.1,0.4,0.2,0.8,0.3,1.3c0.1,0.2,0.3,0.4,0.5,0.5
					c0.2,0.1,0.5,0.1,0.7,0.1c0.5-0.1,0.9-0.2,1.4-0.2c0,0,0,0,0,0c0,0,0-0.1,0-0.1c0-0.1,0-0.3,0-0.4c0-0.1,0-0.2,0-0.2
					c0.1-0.1,0.2,0,0.1,0.2c0,0.1-0.1,0.3-0.2,0.4c0,0.1,0,0.1,0,0.2h0c-0.1,0.3-0.1,0.6-0.1,0.9c0,0.4-0.2,0.8-0.6,1.1
					c-0.2,0.2-0.3,0.6-0.1,0.8c0.1,0.2,0.1,0.5,0,0.7c-0.1,0.2-0.2,0.3-0.3,0.5c-0.1,0.2-0.1,0.4,0.1,0.4c0.5,0.2,1.1,0.3,1.4-0.3
					c0,0,0.1-0.1,0.2-0.1c0.5,0.5,1.1,0.8,1.3,1.5c0,0.2,0.3,0.2,0.4,0.1c0,0,0.1-0.1,0.1-0.1c0.3-0.4,0.3-0.4,0.9-0.1
					c0.2,0.1,0.3,0.1,0.5,0.1c0.2,0,0.4-0.1,0.5-0.1c0.1,0,0.1,0,0.2,0c0.1,0.1,0.1,0.2,0,0.3c-0.5,0.4-0.9,0.9-1.1,1.4
					C-7,75.1-8,76.2-9.2,76.9c-0.4,0.2-0.8,0.6-1.3,0.8c-0.7,0.3-1.4,0.8-2.1,1.1c-0.4,0.2-0.8,0.5-1.1,1c-0.1,0.2-0.4,0.3-0.7,0.2
					c-0.5-0.2-1.1-0.1-1.6,0.2c-0.4,0.3-0.8,0.5-1.2,0.9c-0.6,0.6-1.4,0.9-2.2,0.9c-0.3,0-0.6,0.1-0.9,0.1c-0.6,0-1,0.5-1.3,0.9
					c0,0.1,0,0.2,0,0.3c0.1,0.1,0.2,0.2,0.3,0.2c0.2,0,0.4,0,0.5-0.1c0.4-0.2,0.7,0,1.1-0.1c0.3,0,0.5-0.1,0.7-0.3
					c0.4-0.4,0.9-0.6,1.5-0.6c0.8,0,1.4-0.4,1.8-1.1c0,0,0,0,0,0l0.1,0l-0.1,0.1c0,0,0,0,0,0c0.2,0.3,0.3,0.5,0.5,0.7
					c0.1,0.2,0.1,0.2,0.3-0.2c0.1-0.1,0.1-0.3,0.2-0.3c0.5-0.2,1.1-0.3,1.6-0.3c0.2,0,0.5,0.1,0.7-0.1c0.3-0.2,0.6-0.4,1-0.5
					c0.5-0.2,1.2-0.3,1.5-1c0.4-0.2,0.8-0.5,1.3-0.7c0.1-0.1,0.3,0,0.5,0c0.1-0.1,0.2-0.4,0.3-0.4c0.4-0.2,0.8-0.3,1.2-0.5
					c0.4-0.1,0.8-0.4,0.9-0.8c0.1-0.2,0.2-0.3,0.4-0.4c0.8-0.6,1.7-1,2.6-1.3c0.7-0.1,1.3-0.5,1.6-1.1c0.2-0.2,0.5-0.4,0.7-0.5
					c0.2-0.1,0.4-0.2,0.7-0.4c0.3-0.2,0.5-0.6,0.3-1c-0.1-0.2-0.2-0.3-0.3-0.5c-0.1-0.2-0.1-0.5,0.1-0.7c0.3-0.4,0.8-0.6,1.3-0.5
					c0.3,0.1,0.6,0,0.9-0.2c0.4-0.3,0.8-0.5,0.9-1.1c0.1-0.3,0.4-0.5,0.7-0.5c0.2,0,0.5-0.1,0.6-0.3c0.7-0.9,1.7-1.6,2.8-2
					c0.3-0.1,0.6,0.1,0.7,0.4c0,0.1,0,0.1,0,0.2c0,0.2,0,0.4,0,0.5c0,0.1-0.2,0.2-0.3,0.2c-0.7-0.4-1.5-0.3-2.1,0.1
					c-0.2,0.1-0.3,0.2-0.4,0.4c-0.4,0.8-1,1.6-1.6,2.2c-0.2,0.2-0.2,0.5,0,0.8c0,0,0,0,0.1,0.1c0.1,0.1,0.1,0.2,0,0.3
					c-0.3,0.2-0.7,0.3-1,0.5c-0.2,0.1-0.2,0.3-0.1,0.5c0.1,0.1,0.3,0.3,0.4,0.3c0.3,0,0.6-0.1,0.9-0.2c0.5-0.3,1.1-0.5,1.7-0.7
					c0.2-0.1,0.5-0.2,0.7-0.3c0.5-0.4,1.1-0.5,1.8-0.5c0.1,0,0.3-0.1,0.5-0.2C9,71.2,9.3,71,9.4,70.7c0.2-0.2,0.4-0.2,0.6,0h0.4
					c0.1-0.3,0.2-0.5-0.1-0.7c-0.2-0.2-0.3-0.4-0.4-0.6c-0.1-0.3,0-0.8,0.3-1c0.2-0.1,0.4-0.2,0.4,0c0.1,0.4,0.3,0.6,0.8,0.5
					c0.3,0,0.6-0.1,0.9-0.1v0l0.1-0.1L12.3,69h0c0,0.2,0,0.3,0,0.5c0.1,0.7,0.5,1.3,1.2,1.5c0.4,0.2,0.7,0.5,0.9,0.9
					c0.1,0.2,0.1,0.4,0.2,0.5c0.1,0.2,0.3,0.4,0.6,0.4c0.2,0,0.5,0.1,0.7,0.1c0.6,0,1.1,0.2,1.5,0.6c0.1,0.1,0.3,0.2,0.5,0.3
					c0,0,0,0,0,0l0.1,0l0,0.1c0,0,0,0,0,0c0.1,0.1,0.2,0.3,0.3,0.4c0.3,0.5,0.9,0.7,1.5,0.5c0.1,0,0.1,0,0.2,0
					c0.1,0.1,0.2,0.2,0.1,0.3c-0.3,0.2-0.4,0.6-0.2,1c0,0.1,0.1,0.1,0.2,0.2c0.2,0.2,0.3,0.4,0.5,0.5c0.3,0.2,0.5,0.3,0.5,0.7
					c0,0.2,0,0.5,0.1,0.7c0.1,0.6,0.3,1.1,0.7,1.5c0.2,0.2,0.5,0.4,0.8,0.3c0.3,0,0.4-0.2,0.4-0.5c0,0,0,0,0,0
					c0-0.2-0.1-0.3-0.2-0.5c0-0.1,0-0.1,0-0.2c0.1-0.1,0.2-0.1,0.2,0.1c0.1,0.2,0.2,0.4,0.3,0.7c0.1,0.4,0.2,0.7,0.5,1
					c0,0,0,0.1,0,0.2c-0.1,0.1-0.2,0.1-0.3,0.1c-0.1-0.1-0.2-0.1-0.3-0.2c-0.4-0.1-0.8,0.1-0.9,0.4c-0.2,0.3-0.2,0.7-0.2,1.1
					c0.1,0.4,0.1,0.7,0.2,1.1l0,0c0,0,0,0.1,0,0.1c0,0,0,0,0-0.1c0.2,0.3,0.3,0.6,0.2,1c-0.2,0.6-0.3,1.2-0.2,1.8
					c0,0.1,0.1,0.1,0.1,0.1c0.1,0,0.3,0,0.3-0.1c0.2-0.4,0.4-0.8,0.6-1.2c0-0.1,0-0.1,0-0.2h0.1c0.2-0.2,0.4-0.3,0.7-0.3
					c0,0,0,0,0,0c0,0,0,0,0,0c0,0,0-0.1,0-0.1c2.7-3.7,5.2,0.4,0,0.1c0,0,0,0,0,0h-0.1c-0.2,0.2-0.4,0.3-0.7,0.3c0,0,0,0,0,0.1
					c0,0,0,0.1-0.1,0.1c0,0.5-0.1,1.1-0.2,1.6c-0.1,0.2,0.1,0.4,0.4,0.5c0.1,0,0.2,0,0.3,0c0,0,0,0,0,0c0,0,0.1-0.1,0.1-0.1
					c0-0.1,0.1-0.2,0.1-0.3c0,0,0,0.1,0,0.1c0,0-0.1,0.1-0.1,0.1c0,0,0,0.1-0.1,0.1c0,0,0,0-0.1,0c0,0.2-0.1,0.4,0,0.5
					c0.2,0.2,0.3,0.5,0.2,0.8c-0.1,0.2-0.1,0.5-0.2,0.7c0,0.2-0.1,0.4,0,0.5c0.3,0.4,0.2,1,0.5,1.4c0.1,0.1,0.2,0.1,0.3,0.1
					c0.1,0,0.2-0.1,0.3-0.2c0.6-1.4,0.2-2.8,1.3-1c0,0,0,0,0,0c0,0,0,0.1,0,0.1c0.1,0.1,0.1,0.1,0.1,0.2c0,0.2-0.1,0.2-0.1,0
					c0-0.1,0-0.1,0-0.2c0,0,0,0,0,0c0,0,0-0.1-0.1-0.1c0,0,0,0,0,0c-0.3,0.2-0.4,0.5-0.3,0.7c0,0.3,0.2,0.5,0.4,0.6
					c0.2,0.1,0.3,0.1,0.5,0.1c0.2,0.1,0.3,0.2,0.2,0.4c-0.4,0.3-0.6,0.8-0.6,1.3c0,0.2-0.3,0.2-0.4,0.3c-0.2,0.1-0.3,0.2-0.1,0.4
					c0.4,0.5,0.4,0.7-0.1,0.9c-0.1,0.1-0.2,0.1-0.2,0.2c0.1,0.4,0.5,0.7,0.8,0.6c0.4-0.2,0.8-0.3,1.2-0.3c0.1,0,0.2,0,0.2,0.1
					c0,0.1,0,0.3,0,0.3c-0.2,0.2-0.3,0.3-0.5,0.5c-0.3,0.3-0.5,0.7-0.5,1.2c0,0.1,0.1,0.2,0.2,0.3c0,0,0,0,0,0c0,0,0.1,0,0.1,0
					c0,0,0-0.1,0.1-0.1c0.1,0.1,0,0.1-0.1,0.1l0,0.1c0.3,0.3,0.6,0.7,0.9,1c0.1,0.1-0.5,2.5,0.2,3.9c0.3,0.1,0.6,0.4,0.9,0.7
					c0.2,0.3,0.5,0.5,0.9,0.6c0.3,0.1,0.6,0.3,0.8,0.4c0.2,0.1,0.3,0.3,0.2,0.5c-0.2,0.3-0.2,0.7-0.1,1.1c0.1,0.1,0.2,0.3,0.3,0.4
					l0.1,0l-0.1,0.1c0,0,0,0,0,0l0,0c0,0.1,0.1,0.2,0.1,0.4c0.2,0,0.3,0,0.5,0.1c0.2,0,0.5,0.2,0.5,0.4c0.1,0.4,0.3,0.8,0.5,1.2
					c0.2,0.4,0,0.7-0.1,1c0,0.1-0.1,0.2-0.2,0.3c-0.2,0.1-0.4,0.2-0.5,0.2c-0.5-0.1-1.1-0.3-1.5-0.7l0.1,0c0,0,0,0,0,0
					c0.2,0,0.3,0.1,0.5,0.1c0.3,0,0.6-0.2,0.6-0.5c0,0,0,0,0-0.1c0-0.7-0.1-1.4-0.4-2.1c-0.3-0.1-0.5-0.3-0.6-0.6
					c-0.1-0.3-0.2-0.6-0.3-0.9c-0.1-0.6-0.6-1.1-1.2-1.3c-0.5-0.1-0.9-0.4-1.3-0.7c-0.2-0.2-0.5-0.4-0.7-0.6
					c-0.2-0.1-0.3-0.1-0.5-0.1c-0.2,0-0.4,0.2-0.4,0.3c0.1,0.4,0.1,0.7,0.1,1.1c0,0.2,0.1,0.4,0.2,0.5c0.3,0.3,0.6,0.6,0.8,1
					c0.7,1.1,1.7,2,2.4,3.1c0.1,0.1,0.3,0.3,0.4,0.4l-0.1,0c0,0,0,0,0,0c-0.5,0.2-0.8,0.6-0.8,1.1c0,0.8,0,1.6,0,2.4
					c0,1-0.1,2-0.5,2.9c-0.4,1-0.8,1.9-1.1,3c-0.2,1-0.6,1.9-1.1,2.7c-0.5,0.7-0.7,1.6-0.6,2.5c0,0.2,0,0.4,0,0.5
					c0.1,1-0.1,2-0.7,2.8c-0.2,0.3-0.2,0.6-0.1,0.9c0.3,0.6,0.4,1.3,0.2,2c0,0.3-0.1,0.6,0,0.9c0,0.2,0,0.4,0.1,0.5
					c0.2,0.5,0.4,1,0.7,1.5c0.1,0.1,0.2,0.3,0.4,0.4c0.3,0.2,0.4,0.2,0.2,0.5c-0.1,0.2-0.2,0.3-0.2,0.5c-0.1,0.2-0.1,0.4,0,0.5
					c0.2,0.5,0.5,1,0.2,1.6c0,0.2,0,0.4,0.1,0.5c0.3,0.7,0.6,1.4,0.9,2c0.2,0.3,0.2,0.7,0.2,1.1c0,0.4,0.1,0.7,0.4,0.7
					c1,0.3,2,0.8,2.8,1.4c0.7,0.4,1.2,1.1,1.2,1.9c0.1,0.7,0.2,1.3,0.4,2c0.4,1.1,0.8,2.2,1,3.4c0.1,0.4,0.3,0.7,0.6,0.9
					c0.5,0.5,1,1.1,1.3,1.8c0.2,0.3,0.2,0.7-0.1,1.1c-0.1,0.2-0.4,0.3-0.6,0.3c-0.1,0-0.1,0-0.2,0c-0.2,0.1-0.3,0.3-0.2,0.4
					c0.3,0.6,0.7,1,1.3,1.3c0.7,0.4,1.3,0.9,1.9,1.5c0.2,0.2,0.4,0.5,0.3,0.8c0,0.3,0,0.6-0.1,0.9c-0.1,0.4,0,0.7,0.3,1
					c1,0.8,1.9,1.8,2.6,2.9c0.1,0.2,0.4,0.2,0.7,0c0.3-0.2,0.4-0.5,0.3-0.8c-0.1-0.4-0.3-0.8-0.6-1.1c-0.4-0.6-0.8-1.2-1.1-1.9
					c-0.1-0.3-0.2-0.6-0.3-0.9c-0.1-0.5-0.1-1-0.2-1.5c-0.1-0.6-0.7-0.8-0.9-1.4c-0.3-0.8-0.6-1.6-1.1-2.3c-0.4-0.8-0.9-1.6-1.4-2.4
					c-0.1-0.1-0.2-0.3-0.2-0.5c-0.2-0.9-0.2-1.8,0-2.8c0-0.1,0.1-0.2,0.3-0.2c0.3,0.2,0.7,0.3,1,0.5c0.3,0.1,0.6,0.5,0.7,0.8
					c0.1,0.8,0.3,1.6,0.5,2.3c0.4,1.2,1.1,2.2,1.8,3.2c0.2,0.2,0.4,0.4,0.4,0.6c0.2,0.5,0.5,1,1,1.3c0.3,0.2,0.6,0.5,0.8,0.7
					c0.1,0.1,0.2,0.3,0.1,0.5c-0.1,0.1-0.1,0.2-0.2,0.3c-0.2,0.3-0.1,0.6,0.1,0.8c0.3,0.3,0.7,0.5,1.1,0.7c0.4,0.2,0.7,0.5,0.7,1
					c0,0.2,0.2,0.4,0.4,0.6c1.5,1.4,2.6,3.2,3,5.2c0,0.2,0,0.4,0,0.5c-0.1,0.2-0.2,0.5-0.3,0.7c-0.4,0.5-0.3,1.2,0.1,1.7
					c0.2,0.5,0.7,0.9,1.2,1.1c0.5,0.2,1,0.5,1.3,1c0.3,0.4,0.8,0.8,1.4,0.9c0.2,0.1,0.5,0.1,0.7,0.1c0.2,0.1,0.5,0.2,0.7,0.3
					c0.8,0.7,1.7,1.2,2.7,1.5c0.5,0.2,1,0.4,1.5,0.7c0.5,0.3,1.1,0.5,1.7,0.7c1.3,0.6,2.8,0.6,4.1-0.1c0.5-0.2,1.1-0.1,1.6,0.3
					c1,0.8,2,1.7,2.9,2.6c0.4,0.4,0.9,0.7,1.4,0.8c0.8,0.1,1.6,0.3,2.3,0.6c0.9,0.4,1.8,0.6,2.7,0.6c0.2,0,0.4,0.1,0.4,0.3
					c0.2,0.5,0.6,0.9,1,1.3c0.4,0.5,0.8,0.9,1.2,1.4c0.3,0.3,0.3,0.7,0.2,1c-0.2,0.6,0.1,0.9,0.7,1.1c0.2,0.1,0.5,0.1,0.7,0.2
					c0.2,0,0.4,0,0.5,0.1c0.4,0.3,0.9,0.6,1.1,1.2c0.1,0.7,0.7,0.8,1.2,0.9c0.2,0,0.4,0,0.5-0.1c0.5-0.2,1.2,0,1.5,0.4
					c0.4,0.3,0.8,0.6,1.2,0.9c0.4,0.4,0.6,0.3,1.1-0.1c0.2-0.1,0.3-0.4,0.2-0.6c-0.1-0.2-0.2-0.4,0-0.5c0.4-0.3,0.8-0.8,1.1-1.2
					c0.1-0.1,0.4-0.1,0.5,0c0.5,0.2,0.9,0.7,1,1.3c0,0.4,0.2,0.8,0.5,1.2c0.2,0.2,0.3,0.5,0.4,0.7c0.4-0.9,0.7-1.8,0.9-2.8
					c-0.2-0.2-0.4-0.4-0.6-0.6c-1-0.9-2.4-1.1-3.7-0.5c-0.2,0.1-0.4,0.2-0.7,0.3c-0.4,0.4-1.1,0.4-1.6,0.1c-0.9-0.2-1.7-0.7-2.2-1.5
					c-0.3-0.4-0.6-0.9-0.9-1.4c-0.1-0.2-0.1-0.3-0.1-0.5c-0.1-0.6,0.1-1.2,0.4-1.8c0.1-0.2,0.2-0.4,0.2-0.7c0-0.6,0.2-1.2,0.4-1.8
					c0.1-0.6,0.2-1.2,0.2-1.8c0-0.1-0.1-0.2-0.2-0.3c-0.2-0.1-0.4-0.2-0.7-0.3l0,0c0,0,0,0,0,0l-0.1,0l0.1-0.1
					c-0.4-0.4-0.9-0.6-1.4-0.7c-0.6,0-1.1-0.1-1.7-0.2c-0.6-0.1-1.2,0.2-1.8,0.2c-0.5,0-1,0.1-1.5,0.1c-0.3,0-0.6-0.1-0.9-0.1
					c-0.1,0-0.2-0.2-0.1-0.3c0.6-0.5,0.8-1.3,0.8-2c0-0.4,0-0.7,0.1-1.1c0-0.2,0.1-0.4,0.3-0.4c0.4,0,0.7-0.3,0.7-0.7
					c0.1-0.4,0.2-0.8,0.2-1.3c0-0.6,0.2-1.1,0.5-1.5c0.2-0.3,0.5-0.6,0.7-0.9c0.1-0.2,0.2-0.3,0.2-0.5c0.1-0.4-0.2-0.7-0.6-0.8
					c-0.7-0.1-1.5-0.1-2.2,0.2c-0.6,0.2-1.2,0.3-1.8,0.3c-0.5,0-1,0.3-1.1,0.8c-0.1,0.3-0.2,0.6-0.3,0.9c-0.2,0.9-0.6,1.7-1.3,2.4
					c-0.2,0.7-0.7,0.7-1.3,0.5c-0.3-0.1-0.6-0.1-0.9,0c-0.6,0.2-1.2,0.4-1.8,0.5c-0.5,0.2-1,0.1-1.4-0.3c-0.3-0.3-0.7-0.5-1.1-0.7
					c-0.5-0.2-0.9-0.5-1-1c-0.3-0.6-0.6-1.2-1.1-1.7c-0.2-0.2-0.3-0.5-0.4-0.8c-0.1-0.5-0.2-1.1-0.3-1.6c-0.1-0.4-0.1-0.7-0.1-1.1
					c0.1-1.3,0.2-2.6,0.5-3.9c0-0.2,0.1-0.5,0.3-0.7c0.4-0.5,0.6-1.1,0.5-1.7c-0.1-0.9,0.1-1.7,0.4-2.5c0.2-0.7,0.8-1.3,1.5-1.5
					c0.9-0.1,1.7-0.5,2.3-1.1c0.5-0.3,1.1-0.6,1.7-0.7c0.5-0.2,1-0.1,1.5,0.1c0.3,0.2,0.7,0.2,1.1,0.1c0.3-0.2,0.8-0.1,1,0.2
					c0,0,0,0,0,0c0.4,0.6,1.1,0.8,1.8,0.6c0.3-0.1,0.7-0.2,1-0.4c0.1-0.3,0.2-0.7,0.3-1c0-0.4,0.3-0.5,0.6-0.6
					c0.2-0.1,0.5-0.1,0.7-0.1c0.9,0,1.7,0,2.6,0c0.9-0.1,1.9,0.2,2.5,0.9c0.2,0.2,0.6,0.3,0.9,0.1c0.2-0.1,0.5-0.2,0.7-0.3
					c0.2-0.1,0.5,0,0.7,0.2c0.4,0.5,0.8,1,1.2,1.5c0.2,0.2,0.2,0.6,0.1,0.9c-0.1,0.2-0.1,0.4-0.2,0.5c-0.2,0.3-0.1,0.8,0.1,1
					c0.3,1,0.8,1.9,1.2,2.9c0.2,0.4,0.5,0.8,0.9,1.2c0.3,0.3,0.8,0.3,1.1,0c0,0,0.1-0.1,0.1-0.1c0.5-0.7,0.7-1.6,0.8-2.4
					c0-0.1,0-0.3,0-0.4c-0.1-0.5-0.3-0.9-0.5-1.4c-0.1-0.5-0.1-1-0.2-1.5c0-0.1,0-0.1-0.1-0.2c-0.5-1.4-0.6-2.9-0.4-4.4
					c0-0.2,0.1-0.5,0.2-0.7c0.6-0.8,1.4-1.5,2.3-1.8c0.1,0,0.2-0.1,0.4-0.1c0.4-0.1,0.7-0.4,0.9-0.7c0.2-0.2,0.4-0.5,0.6-0.7
					c0.2-0.2,0.3-0.3,0.6-0.4c0.4-0.1,0.8-0.4,1.1-0.7c0.5-0.5,1.1-0.8,1.8-1c0.3-0.1,0.6-0.3,0.5-0.7c0-0.2,0.2-0.3,0.3-0.4
					c0.2-0.1,0.4-0.3,0.6-0.4c0.2-0.1,0.2-0.3,0.1-0.5c-0.2-0.2-0.3-0.6-0.1-0.8c0.3-0.4,0.3-1,0-1.4c-0.1-0.2-0.1-0.3-0.1-0.5
					c0-0.5,0.1-1.1,0.1-1.6c0,0,0.1-0.1,0.1-0.1c0.1,0,0.1,0,0.2,0.1c0.3,0.2,0.2,0.5,0.2,0.8c0,0.1,0.1,0.2,0.2,0.3
					c0,0,0.1,0,0.2-0.1c0.3-0.4,0.7-0.9,0.9-1.4c0.1-0.2,0.2-0.5,0.2-0.7c0-0.2,0-0.4,0-0.5c0-0.1,0.1-0.2,0.3-0.2
					c0.3,0,0.6-0.2,0.8-0.4c0.5-0.5,0.9-1.2,1-1.9c0.1-0.7,0.5-0.8,1-0.8c0.4,0,0.7-0.1,1.1-0.2c0.2-0.1,0.3-0.1,0.5-0.2
					c0.1,0,0.1-0.1,0.1-0.1c0-0.1,0-0.1-0.1-0.2c-0.1,0-0.2-0.1-0.4-0.1c-0.2,0-0.3-0.1-0.2-0.2c0,0,0.1,0,0.2,0c0.1,0,0.1,0,0.2,0
					c1,0,2.1-0.2,3.1-0.4c0.2,0,0.3-0.2,0.5-0.3c0.4-0.3,0.4-0.4-0.1-0.7c-0.3-0.2-0.5-0.5-0.5-0.9c0.1-0.4,0.3-0.8,0.4-1.2
					c0.3-0.7,0.8-1.3,1.5-1.5c0.4-0.1,0.8-0.3,1.1-0.6c0.2-0.2,0.5-0.3,0.9-0.3c0.8,0,1.6-0.2,2.4-0.5c0.3-0.1,0.3-0.3,0.4-0.5
					c0.1-0.2,0.2-0.3,0.4-0.4c0.6-0.2,1.2-0.3,1.8-0.4c0.1,0,0.1,0,0.1,0.1c0,0.1,0,0.3-0.1,0.3c-0.2,0.1-0.5,0.2-0.7,0.3
					c-0.5,0.2-0.9,0.7-1.1,1.2c-0.1,0.2-0.1,0.5-0.1,0.7c0.1,0.4,0.3,0.7,0.6,0.9c0.1,0.1,0.2,0.1,0.3,0.1c0.8-0.3,1.4-0.8,1.9-1.4
					c0.2-0.4,0.7-0.6,1.1-0.5c0.9-0.3,1.9-0.6,2.8-0.9c0.3-0.1,0.6-0.2,0.9-0.3c0.1-0.7,0.8-0.5,1.2-0.7c0.2-0.1,0.3-0.2,0.5-0.2
					c0.1-0.1,0.2-0.1,0.3-0.2c0.1-0.1,0.2-0.4,0.1-0.5c-0.4-0.3-0.7-0.7-0.5-1.3c0,0,0-0.1-0.1-0.2c0-0.2-0.4-0.3-0.5-0.2
					c-0.6,0.5-1.1,1.2-1.5,1.8c-0.2,0.3-0.3,0.3-0.6,0.2c-0.2,0-0.4-0.1-0.5-0.1c-0.1,0.1-0.2,0.2-0.3,0.2c-0.1,0-0.3-0.1-0.4-0.2
					c-0.2,0-0.3-0.1-0.5-0.1c-0.4,0-0.6-0.3-0.6-0.7c-0.6,0-1.1-0.5-1.1-1.1c-0.1-0.6-0.1-1.2,0.2-1.8c0.1-0.2,0-0.4-0.3-0.5
					c-0.1,0-0.2,0-0.4,0c-0.1,0-0.1,0-0.2-0.1c0.1,0,0.2-0.1,0.3-0.1c0.5-0.2,0.9-0.4,1.3-0.7c0.2-0.2,0.3-0.6,0.2-0.8
					c-0.1-0.2-0.3-0.4-0.4-0.6c-0.5-0.4-1.1-0.6-1.7-0.4c-1.7,0.3-3.3,0.9-4.8,1.7c0,0,0,0,0,0.1c0,0-0.1,0-0.1,0
					c-0.2,0.2-0.4,0.4-0.6,0.6c0,0,0,0.1,0,0.1c-0.3,0.1-0.5,0.2-0.8,0.3c-0.1,0.1-0.3,0.2-0.4,0.3l0,0.1l0-0.1
					c0.1-0.1,0.3-0.2,0.4-0.3c0.3-0.1,0.5-0.2,0.8-0.3c0,0,0,0,0.1-0.1c0.1-0.5,0.1-0.5,0.6-0.6l0.1-0.1c0,0,0,0,0,0
					c0-0.3,0.1-0.6,0.3-0.7c0.6-0.5,1.3-0.9,2.1-1.2c0.5-0.1,0.9-0.4,1.1-0.9c0-0.1,0.1-0.2,0.2-0.3c0.4-0.3,0.7-0.7,1.1-0.9
					c0.4-0.2,0.8,0,1.3,0c1.7,0.1,3.4,0.2,5.2,0.5c0.8,0.1,1.5-0.2,2.2-0.1c0.2,0,0.4,0,0.5-0.1c0.2-0.1,0.3-0.1,0.5-0.2
					c0.5-0.3,0.9-0.6,1.2-1.1c0.3-0.4,0.7-0.6,1.1-0.6c0.3-0.1,0.6-0.1,0.9-0.1c0.9-0.1,1.7-0.4,2.3-1c0.4-0.2,0.6-0.7,0.4-1.1
					c-0.2-0.3-0.2-0.6,0-0.9c0.1-0.2,0.2-0.5,0.2-0.7c0-0.2,0-0.4-0.1-0.5c-0.2-0.5-0.8-0.8-1.3-0.8v0l-0.1,0.1l0.1-0.1c0,0,0,0,0,0
					c0-0.2,0-0.4-0.1-0.5c-0.1-0.3-0.3-0.6-0.6-0.6c-0.2,0-0.4,0-0.5,0c-0.1,0-0.1,0-0.2,0c0.1-0.1,0.1-0.1,0.2-0.2
					c0.2-0.1,0.3-0.1,0.5-0.2c0.2-0.1,0.3-0.4,0.1-0.6c0,0,0,0,0-0.1c-0.2-0.3-0.4-0.5-0.7-0.5c-0.1,0-0.3,0-0.4,0
					c-0.5-0.5-1.1-0.8-1.7-1c-0.1-0.1-0.2-0.1-0.2-0.3c-0.2-0.6-0.6-1.1-1.1-1.5c-0.2-0.2-0.4-0.5-0.6-0.7c-0.2-0.2-0.2-0.5,0-0.7
					c0,0,0,0,0,0c0.2-0.2,0.4-0.4,0.6-0.7c0.2-0.2,0.2-0.5,0.1-0.7c-0.3-0.4-0.4-0.9-0.3-1.4c0-0.1-0.1-0.4-0.3-0.5
					c-0.2-0.2-0.1-0.6-0.4-0.8c-0.2-0.2,0-0.5-0.1-0.7c-0.1-0.3-0.1-0.6-0.1-0.9c-0.1-0.4-0.1-0.7-0.3-1.1c-0.3-0.8-0.5-1.7-0.6-2.5
					c0-0.2-0.1-0.5-0.1-0.7c0-0.1-0.2-0.1-0.3-0.2c-0.1,0-0.1,0-0.2,0c-0.5,0.7-1,1.4-1.4,2.1c-0.3,0.8-0.9,1.5-1.7,1.9
					c-0.2,0.1-0.4,0.3-0.6,0.4c-0.3,0.2-0.5,0.3-0.8,0.4c-0.3,0.1-0.6,0-0.9-0.2c-0.2-0.2-0.3-0.4-0.4-0.6c-0.1-0.3-0.3-0.5-0.6-0.7
					c-0.3-0.2-0.5-0.6-0.4-1c0-0.6,0.4-1.2,0.2-1.8c-0.1-0.1,0.1-0.3,0.2-0.5c0.2-0.6,0.4-1.1,0.8-1.7c0.1-0.2,0-0.4-0.2-0.4
					c0,0,0,0,0,0c-0.5-0.1-0.9-0.6-1.5-0.6c-0.2,0-0.4-0.2-0.7-0.3c-0.2-0.1-0.3-0.3-0.2-0.5c0-0.2,0.1-0.4-0.1-0.5
					c-0.3-0.4-0.6-0.8-0.7-1.3c-0.1-0.3-0.3-0.5-0.5-0.8c-0.2-0.5-0.8-0.7-1.3-0.4c-0.2,0.1-0.5,0.1-0.7,0.1c-0.7,0-1.5-0.3-2.1-0.6
					c-0.3-0.2-0.6-0.3-0.9-0.3c-0.8-0.2-1.5,0.2-1.8,1c-0.2,0.4-0.2,0.9,0,1.2c0.2,0.3,0.2,0.6,0,0.9c-0.3,0.4-0.6,0.8-0.9,1.2
					c-0.2,0.5,0.3,1.1,0.1,1.6c0,0.2,0,0.5,0.1,0.7c0.1,0.4-0.1,0.7-0.4,0.9c-0.2,0.1-0.4,0.2-0.4,0.3c-0.4,0.7-1,1.3-1.6,1.8
					c-0.3,0.3-0.3,0.7,0,1c0.2,0.3,0.4,0.5,0.6,0.7c0.1,0.2,0.2,0.4,0.3,0.7c0.1,0.7,0.2,1.4,0.3,2c0.1,0.7-0.4,1.4-0.1,2.2
					c0,0.1-0.1,0.2-0.2,0.3c-0.3,0.2-0.5,0.3-0.8,0.5c-0.8,0.7-1.7,1.3-2.7,1.7c-0.5,0.2-0.9,0.4-1.4,0.5c-0.3,0.1-0.5,0.4-0.5,0.7
					c0.1,0.7,0.1,1.5,0,2.2c-0.1,0.5-0.1,1-0.2,1.5c0,0.5,0.1,1,0.1,1.5c0,0.2,0,0.4-0.1,0.5c-0.2,0.3-0.3,0.7-0.5,1
					c-0.1,0.1-0.2,0.2-0.3,0.2c-0.5-0.1-0.7,0.2-1,0.5c-0.2,0.1-0.5,0.1-0.6-0.1c-0.1-0.2-0.1-0.3-0.2-0.5c-0.1-0.3-0.2-0.6-0.4-0.8
					c-0.5-0.6-0.9-1.3-1.2-2c-0.1-0.2-0.1-0.5,0-0.7c0.5-0.8,0.7-1.7,0.8-2.6c0-0.3,0.1-0.6,0.3-0.9c0.1-0.3,0.2-0.6,0.3-0.9
					c0-0.1-0.1-0.4-0.2-0.5c-1-0.2-1.9-0.4-2.9-0.5c-0.3,0-0.5-0.1-0.7-0.3c-0.4-0.6-1-1.1-1.7-1.4c-0.6-0.3-1.1-0.8-1.4-1.4
					c-0.4-0.7-0.9-1.2-1.5-1.6c-0.6-0.3-1.2-0.7-1.8-1c-0.3-0.2-0.6-0.2-0.9-0.1c-0.5,0.2-1,0.3-1.6,0.3c0,0,0,0,0,0l-0.1,0l0-0.1
					c0,0,0,0,0.1,0c0.3-0.4,0.5-1,0.4-1.5c-0.1-0.7,0-1.4-0.1-2c0-0.2,0-0.5-0.1-0.7c0-0.1-0.1-0.2-0.3-0.2c-0.2,0-0.5-0.1-0.7-0.1
					c-0.3,0-0.5-0.2-0.5-0.4c-1-4.6,9.1-11.1,9.1-11.2c0-0.3,0-0.6-0.1-0.9h-0.1c0,0-0.1,0-0.1-0.1l0.1,0v0c0.8,0.2,1.6-0.3,1.9-1
					c0.1-0.2,0.3-0.2,0.5-0.2c0.3,0.1,0.6,0.2,0.9,0.3c0.3,0.1,0.6,0.1,0.9-0.1c0.9-0.9,1.9-1.7,2.8-2.6c0.1-0.1,0.1-0.2,0.1-0.3
					c0-0.2,0.1-0.5,0.3-0.6c0.4-0.3,0.9-0.7,1.3-1c0.1-0.1,0.2-0.2,0.3-0.3c0,0,0,0,0,0c0.1-0.1,0.2-0.1,0.2-0.2
					c0.5-0.5,0.5-0.5,0.2-1.1c0-0.1-0.1-0.1-0.1-0.2c-0.1-0.1,0-0.2,0.1-0.3c0,0,0,0,0.1,0c0.6-0.1,1.1-0.1,1.3,0.6
					c0,0,0.1,0.1,0.1,0.1c0.8,0.4,1.8,0.4,2.7,0.1c0.6-0.3,1.2-0.7,1.7-1.1c0.2-0.2,0.4-0.3,0.6-0.4c0.5-0.1,0.7-0.5,0.9-0.8
					c0.2-0.3,0.2-0.6,0.1-0.9c-0.1-0.2-0.1-0.5-0.2-0.7c-0.2-0.3-0.2-0.7-0.1-1.1c0.1-0.4,0.2-0.7,0.2-1.1h0l-0.1,0l0.1,0v0
					c0.2,0.1,0.4,0.1,0.7,0.1c0.7-0.1,0.9-0.3,1-1c0-0.2,0.1-0.5,0.2-0.7c0.3-0.4,0.1-0.7-0.1-0.9c-0.5-0.1-0.8-0.6-0.7-1.1
					c0-0.4-0.2-0.7-0.6-0.6c-0.4,0-0.5-0.3-0.5-0.6c-0.4,0-0.8-0.1-1.1-0.4c0,0,0,0,0,0c0.4,0,0.8,0.1,1.1,0.4
					c0.2-0.1,0.4-0.1,0.5-0.1c0.7,0.1,1.3,0.7,2.1,0.6c0.1,0,0.1,0,0.2,0.1c0.1,0.1,0.2,0.1,0.3,0.2c0.3,0.2,0.6,0.5,0.9,0.7
					c0.2,0.1,0.3,0.1,0.5,0.1c0.1,0,0.2-0.2,0.3-0.3c-0.1-0.2-0.2-0.3-0.4-0.5c0,0,0,0,0,0c-0.3,0-0.5,0-0.6-0.3H110l-0.1-0.1l0.1,0
					c0,0,0,0,0,0c0.3,0,0.5,0.1,0.6,0.3h0.1c0.1,0.2,0.2,0.3,0.4,0.4c0,0,0,0,0,0c0.3-0.1,0.6-0.1,0.9-0.2c0.5-0.1,0.8-0.6,0.7-1.1
					c0-0.2,0-0.4-0.1-0.6c0,0,0,0-0.1,0c0,0,0-0.1,0-0.1c-0.3-0.3-0.3-0.3,0.1-0.7v-0.1c0-0.1,0-0.1,0.1,0c0,0-0.1,0.1-0.1,0.1v0
					c0,0.2,0,0.4-0.1,0.7c0,0,0,0,0,0c0,0,0,0,0,0.1c0.4,0.2,0.8,0.3,1.1,0.5c0.1,0,0.1,0.2,0.2,0.3c0,0,0,0.1,0,0.2
					c-0.1,0.3-0.2,0.6-0.3,0.9c0,0.3,0.3,0.5,0.4,0.8c0.1,0.6,0.4,1.2,0.8,1.6c0.1,0.1,0.1,0.3,0,0.4c0,0-0.1,0-0.1,0
					c-0.2,0-0.4,0.1-0.5,0.2c-0.1,0.1-0.2,0.3-0.3,0.5c0,0.1,0.1,0.2,0.2,0.3c0.5,0.1,1-0.3,1.5,0c0.1,0,0.1,0.1,0.1,0.1
					c0.1,0.1,0.1,0.2,0,0.3c0,0,0,0,0,0c-0.2,0.1-0.3,0.2-0.5,0.2c-0.1,0.1-0.2,0.3-0.1,0.5c0.1,0.1,0.2,0.1,0.3,0.2
					c0.1,0,0.2,0,0.4-0.1c0.5-0.1,0.9,0,1,0.5c0,0.1,0.1,0.2,0.2,0.3c0.6,0.2,0.6,0.7,0.5,1.2c-0.1,0.6-0.1,1.2-0.1,1.8
					c0,0.3-0.2,0.5-0.4,0.6c-0.4,0.1-0.7,0.3-0.9,0.6c-0.4,0.5-0.9,0.9-1.4,1.2c-1,0.7-1.4,0.8-0.7,2.2c0,0.1,0,0.2-0.1,0.3
					c-0.6,0-1.2,0.1-1.8,0.4c-0.6,0.2-1.2,0.2-1.8-0.2c-0.3-0.2-0.7-0.3-1-0.5c-0.1,0-0.2,0-0.3,0.1c-0.3,0.4-0.7,0.7-1.1,1
					c-0.2,0.2-0.3,0.4-0.4,0.6c-0.2,0.3-0.1,0.7,0.1,1c0.5,0.7,1.4,0.9,2.1,0.6c0.2-0.1,0.5-0.2,0.7-0.2c0.1,0,0.2,0,0.3,0
					c0.6,0.4,1.3,0.1,2,0.3c0.3,0,0.6,0.2,0.7,0.5c0.3,0.6,0.6,1.1,0.9,1.6c0.2,0.3,0.4,0.6,0.2,1c-0.1,0.2-0.1,0.5,0.1,0.7
					c0.3,0.5,0.8,0.9,1.3,1.2c0,0,0,0,0,0h0l0,0c0.4,0.2,0.7,0.4,1,0.8c0.5,0.6,1.1,1,1.8,1.2c0.3,0.1,0.6,0.4,0.9,0.5
					c0.3,0.1,0.7,0.3,1,0.4c0.1,0,0.2-0.1,0.3-0.2c0.2-0.3,0.2-0.7,0-1c-0.4-1-1-1.8-1.8-2.6c-0.3-0.2-0.4-0.6-0.3-0.9c0,0,0,0,0,0
					c0,0,0-0.1,0-0.1c0,0-0.1,0-0.1-0.1c0,0,0.1,0,0.1,0s0,0,0,0c0,0,0,0,0.1,0V79c0.6,0.2,1.1,0.5,1.5,1c0.3,0.4,0.7,0.7,1.2,0.9
					c0.3,0.2,0.6,0.4,0.8,0.8c0.2,0.3,0.3,0.7,0.5,1c0.1,0.1,0.2,0.2,0.3,0.1c0.1,0,0.2-0.1,0.2-0.2c0,0,0-0.1,0-0.1
					c-0.3-0.4-0.2-1,0.1-1.4c0.2-0.3,0.4-0.6,0.7-0.8c0.2-0.2,0.3-0.5,0.2-0.8c0-0.2-0.1-0.4-0.1-0.5c-0.3-0.6-0.4-1.3-0.3-2
					c0-0.4-0.2-0.7-0.5-0.9c-0.3-0.3-0.7-0.5-1-0.8c-0.2-0.2-0.3-0.4-0.3-0.7c0-0.5-0.1-1.1-0.5-1.5c-0.1-0.1-0.1-0.2-0.1-0.3
					c0,0,0,0,0,0l-0.1-0.1l0.1,0c0,0,0,0,0,0c0.1,0,0.2,0,0.3,0c0.5,0,0.6-0.1,0.7-0.6c0-0.2,0.1-0.3,0.2-0.5
					c0.1-0.1,0.3-0.2,0.4-0.1c0,0,0,0,0,0c0.3,0.3,0.5,0.7,0.8,1.1c0.3,0.4,0.6,1,0.7,1.5c0,0.2,0.1,0.5,0.1,0.7
					c0,0.1,0.1,0.2,0.2,0.3c0.3,0.4,0.8,0.6,1.2,0.8c0.1,0,0.2,0,0.3-0.1c0.1-0.3,0.2-0.7,0.3-1.1c0-0.3,0.2-0.5,0.5-0.5
					c0.2,0,0.4-0.1,0.5-0.1c0.8-0.3,1.2-1.2,2-1.6c0.2-0.2,0.4-0.4,0.6-0.7c0.1-0.2,0.1-0.3,0.1-0.5c-0.1-0.4-0.4-0.8-0.9-0.9
					c-0.2,0-0.5-0.1-0.6-0.3l0.1,0V70c0,0,0,0,0,0c-0.2-0.1-0.1-0.2,0-0.4c0,0,0,0,0,0v-0.1l-0.1,0c-0.1-0.1-0.1-0.2-0.2-0.3
					c-0.1,0-0.2,0-0.4,0c-0.1,0-0.2,0-0.4,0c-0.2-0.1-0.4-0.3-0.3-0.6c0,0,0,0,0,0c0.2-0.6,0.2-0.6-0.1-0.8
					c-0.3-0.2-0.6-0.4-0.6-0.8c-0.3-0.1-0.7-0.2-1-0.4c-0.3-0.1-0.5-0.4-0.6-0.7c-0.1-0.6-0.6-1-1.1-1.1c-0.1,0-0.2-0.1-0.2-0.3
					c0-0.1,0-0.1,0.1-0.2c0.4-0.4,0.8-0.8,0.6-1.4c0-0.1,0.1-0.2,0.2-0.1c0.3,0.1,0.6,0.2,0.9,0.2c0.2,0,0.3-0.1,0.5-0.2
					c0.1-0.1,0-0.3,0-0.5c0-0.1,0-0.1-0.1-0.1c-0.3-0.3-0.4-0.6-0.1-0.9c0.3-0.3,0.3-0.7,0.2-1c-0.2-0.5-0.4-1-0.6-1.5
					c-0.1-0.8-0.7-1.5-1.5-1.6c-0.4,0-0.7-0.3-0.7-0.7c0-0.1-0.2-0.2-0.4-0.3v0l-0.1,0.1l0.1-0.1c0,0,0,0,0,0
					c0.2-0.4,0.2-0.9-0.1-1.2c-0.2-0.3-0.3-0.5-0.5-0.8c-0.2-0.3-0.7-0.4-1-0.2c0,0,0,0,0,0c-0.4,0.2-0.5,0.2-0.6-0.1
					c-0.2-0.5-0.5-0.4-0.9-0.4c-0.1,0-0.1,0-0.2,0c-0.1-0.1-0.1-0.2,0-0.3c0.2-0.2,0.3-0.4,0.4-0.6c0-0.1,0-0.2,0-0.3
					c-0.1-0.1-0.3-0.2-0.4-0.4c-0.1-0.2,0.1-0.4,0.1-0.7c0-0.3-0.1-0.6-0.4-0.8c-0.6-0.4-1.2-0.9-1.8-1.3c0,0,0,0,0,0
					c0.4,0,0.9,0.1,1.3,0.1c0.2,0,0.3-0.2,0.4-0.3c0-0.7-0.1-1.4-0.3-2c-0.1-0.7-0.7-1.2-1.4-1.4c-0.7-0.1-1.3-0.3-1.9-0.7
					c-0.2-0.1-0.5,0-0.6,0.2c-0.1,0.2-0.3,0.5-0.4,0.7c0,0.2-0.1,0.5-0.1,0.7c0.1,0.4,0.1,0.8,0,1.2c-0.2,0.7,0.6,1.3,1.2,1.3
					c0.4,0,0.7-0.1,1.1-0.2c0.3,0,0.6,0.1,0.7,0.3h0l0.1,0c-0.6,0-1.1,0.1-1.6,0.5c-0.4,0.3-1,0.3-1.4,0.1c-0.3-0.2-0.8-0.2-1.1,0.1
					c0,0,0,0.1,0,0.1c-0.1,0-0.2,0.1-0.2,0.1c0.1-0.1,0.1-0.1,0.2-0.2c0,0,0,0,0.1,0c0.1-0.3,0.1-0.6,0.2-1c0.3-0.8,0.5-1.6,0.6-2.4
					c0-0.2,0.1-0.4,0.3-0.6c0-0.1,0-0.2,0-0.4c0-0.7-0.3-0.8-0.9-1c-0.3-0.1-0.6-0.1-0.9,0c-0.7,0.3-1.4,0.5-2.1,0.6
					c-0.6,0-1.2,0.3-1.6,0.8c-0.2,0.2-0.5,0.4-0.7,0.6c-0.6,0.6-0.8,1.4-0.5,2.2c0.1,0.2,0.1,0.4-0.1,0.4c-0.3,0.1-0.6,0.3-0.8,0.5
					c-0.3,0.1-0.4,0.5-0.3,0.8c0.1,0.4,0.2,0.7,0.3,1.1c0,0.1,0.1,0.2,0.1,0.4c0,0.1,0,0.1-0.1,0.2c-0.1,0-0.3,0.1-0.3,0.1
					c-0.6-0.6-0.8-1.4-0.6-2.2c0-0.1,0-0.1,0.1-0.2c0.1-0.2,0.2-0.5,0.3-0.7c0.3-0.4,0.4-0.9,0.4-1.4c0-0.3,0.1-0.6,0.3-0.8
					c0.2-0.2,0.4-0.3,0.5-0.5c0.7-0.8,1.5-1.5,2.5-1.9c0.1-0.1,0.2-0.1,0.3-0.3c0-0.1,0.1-0.3,0-0.3c-0.1-0.2-0.3-0.4-0.5-0.5
					c-1.2-0.5-2.5-0.3-3.5,0.4c-0.5,0.3-1,0.7-1.5,1.1c-0.7,0.6-1.1,1.5-1.9,2c-0.1,0.1-0.2,0.2-0.2,0.3c-0.1,0.2-0.3,0.4-0.4,0.6
					c-0.1,0.2-0.2,0.5-0.3,0.7c-0.6,0.7-1.1,1.5-1.4,2.4c-0.2,0.4,0,0.8,0.3,1c0,0,0.1,0,0.1,0c0.5,0.2,0.9,0.4,1.4,0.6
					c0.2,0.1,0.3,0.2,0.4,0.4c0,0.1,0,0.2,0,0.3c-0.1,0.1-0.2,0.1-0.3,0.1c-0.3-0.2-0.6-0.4-1-0.5c-0.4-0.2-0.8,0-1,0.4
					c0,0.1-0.1,0.2-0.1,0.3c0,0.3,0,0.6,0,0.9c0.1,0.4,0.3,0.8,0.6,1.1c0.2,0.3,0.5,0.3,0.8,0.3c0.2,0,0.4,0,0.5,0.1
					c0.3,0.1,0.5,0.3,0.6,0.6c0.2,0.4,0.7,0.6,1.2,0.5c0.4-0.1,0.6,0.2,0.7,0.5h0l0.1,0c-0.1,0-0.2,0.1-0.4,0.1
					c-0.5,0-1,0.3-1.1,0.8c-0.1,0.5-0.5,1-0.3,1.6c0.1,0.1,0,0.2-0.1,0.3c-0.2,0.2-0.4,0.4-0.6,0.6c-0.6,0.1-0.8,0.5-1,0.9
					c-0.1,0.3-0.3,0.5-0.4,0.8c-0.1,0.2-0.4,0.3-0.6,0.3c0,0,0,0,0,0c0,0,0,0.1-0.1,0.1c0,0,0-0.1,0-0.1h0c-0.1-0.2-0.1-0.4-0.4-0.5
					c-0.2-0.1-0.4,0.2-0.5,0.7c-0.1,0.2-0.1,0.5,0,0.7c0.1,0.2,0,0.5-0.1,0.7c-0.2,0.2-0.4,0.3-0.7,0.2c-0.2-0.1-0.3-0.2-0.4-0.4
					c-0.1-0.4-0.2-0.7-0.2-1.1c-0.1-0.7,0.1-1.4,0.6-1.8c0.2-0.2,0.3-0.4,0.3-0.7c0.1-0.8-0.1-1.6-0.5-2.3c-0.1-0.1-0.4-0.1-0.5,0
					c-0.4,0.4-0.7,0.8-0.9,1.4c-0.1,0.3-0.3,0.5-0.6,0.7c0,0-0.1,0.1-0.2,0.1c-0.1,0-0.2-0.1-0.2-0.2c0.2-0.6,0.3-1.2,0.3-1.8
					c0-0.3,0.2-0.3,0.5-0.4c0.2-0.1,0.3-0.3,0.3-0.5c0-0.1-0.1-0.2-0.2-0.2c-0.3-0.3-0.6-0.5-1-0.5c-0.3,0-0.6-0.2-0.8-0.4
					c-0.1-0.1-0.2-0.2-0.1-0.3c0.3-0.4,0.7-0.7,1-1.1c0.1-0.1,0.2-0.1,0.3-0.1c0.5-0.2,0.6-0.3,0.5-0.6c-0.4-1.1-0.4-2.3,0-3.5
					c0.1-0.2,0.1-0.4,0-0.5c-0.1-0.7-0.3-1.4-0.5-2.1c-0.1-0.3,0-0.4,0.2-0.6c0.5-0.3,0.9-0.7,1.3-1c0.3-0.2,0.5-0.6,0.5-0.9
					c0-0.1,0.1-0.2,0.1-0.3c0.1-0.1,0.2-0.2,0.3-0.2c0.3,0.1,0.6,0.2,0.8,0.4c0.3,0.2,0.7,0.1,1-0.1c0.2-0.1,0.4-0.3,0.6-0.5
					c0.9-0.8,1.7-1.6,2.6-2.4c0.2-0.2,0.3-0.4,0.4-0.6c0.2-0.3,0-0.8-0.3-1c-0.1,0-0.1-0.1-0.2-0.1c-0.7-0.1-1.4-0.4-2-0.9
					c-0.2-0.1-0.4-0.2-0.7-0.3c-4-0.8-4.7,4.7-5.7,7.3c-0.1,0.2-0.2,0.3-0.3,0.4c-0.4,0.2-0.7,0.5-1.1,0.7c-0.3,0.2-0.3,0.5-0.2,0.8
					c0,0,0,0,0.1,0c0,0,0,0.1,0,0.1c0,0,0,0,0.1,0c0,0.1-0.1,0-0.1,0c0,0,0,0-0.1,0c0,0,0,0,0,0c-0.3,0-0.6,0.1-0.8,0.3
					c-0.8,0.5-1.3,1.3-1.4,2.2c0,0.4-0.2,0.7-0.4,1c-0.1,0.1-0.2,0.2-0.3,0.3c-0.3,0.3-0.4,0.8-0.4,1.2c0,0.4,0.2,0.8,0.4,1.2
					c0.1,0.2,0.2,0.4,0.3,0.6c0.2,0,0.3,0.1,0.5,0.2c0.4,0.2,0.7,0.5,1.1,0.7c0,0,0.1,0.1,0.1,0.1c0,0.1-0.1,0.1-0.2,0.2
					c-0.2,0-0.3,0.1-0.5,0.2c-0.3,0.3-0.5,0.7-0.8,1c-0.2,0.2-0.1,0.4,0.2,0.6c0.1,0,0.2,0.1,0.3,0.1c0,0,0,0,0,0l0.1,0l-0.1,0.1
					c0,0,0,0,0,0c0.1,0.2,0,0.5-0.1,0.7c-0.3,0.3-0.6,0.6-1,0.9C91,60.8,90.5,61,90,61c-0.7,0-1,0.5-1.1,1c-0.1,0.4-0.1,0.9-0.2,1.3
					c0,0.1-0.1,0.2-0.2,0.2c0,0-0.1-0.1-0.1-0.1c-0.1-0.2-0.3-0.4-0.4-0.6c-0.2-0.2-0.2-0.6,0-0.8c0,0,0,0,0,0
					c0.3-0.4,0.7-0.9,1-1.3c0.1-0.1,0-0.4-0.2-0.4c-0.6-0.1-0.8-0.5-0.9-1c0-0.1-0.1-0.1-0.2-0.2c0.1,0,0.1,0.1,0.2,0.2
					c0,0,0,0,0.1,0.1L88,59.3c0.2,0.1,0.5,0.1,0.7,0.2c0.2,0.1,0.5,0.1,0.7,0c0.4-0.2,0.8-0.3,1.2-0.5c0.1-0.1,0.2-0.2,0.2-0.3
					c0-0.4,0-0.9-0.1-1.3c0-0.3,0-0.4,0.4-0.5c0.6-0.1,0.6-0.5,0.6-0.9c-0.1,0-0.2,0-0.3,0c-0.8,0.1-1.5-0.3-1.7-1.1
					c0-0.1-0.1-0.2-0.2-0.3c-0.1-0.1-0.3-0.2-0.5-0.1c-0.2,0.2-0.5,0.4-0.7,0.6c-0.4,0.7-1.1,1.2-1.9,1.3c-0.1,0-0.2,0.1-0.3,0.2
					c0,0-0.1,0.1-0.1,0.1c-0.1,0.1-0.1,0.4,0,0.5c0.7,0.4,1.3,1,1.7,1.7l-0.1,0c0,0,0,0,0,0c-0.3,0.1-0.6,0.1-0.9,0.2
					c-0.3,0-0.6,0-0.7,0.4c-0.1,0.2-0.3,0.4-0.5,0.5c-0.2,0.1-0.3,0.3-0.3,0.5c0,0.2,0,0.4-0.2,0.5c-0.2,0.1-0.5,0.1-0.7,0
					c-0.2-0.1-0.4-0.2-0.7-0.3c-0.4-0.2-0.9-0.2-1.3,0c-0.2,0.1-0.4,0.1-0.5,0.1c-0.2,0-0.5,0-0.7-0.1c-0.4-0.2-0.8-0.4-1-0.8
					c-0.2-0.5-0.7-0.9-1.3-1c-0.2-0.1-0.4-0.2-0.5-0.5c-0.3-0.6-0.4-1.2-0.4-1.8c0-0.2,0-0.4,0-0.5c-0.1-0.4-0.5-0.8-0.9-0.8
					c-0.9,0.1-1.7,0.3-2.6,0.3c-0.4,0.1-0.7,0.3-0.8,0.7c-0.1,0.3,0,0.6,0.3,0.8c0.1,0.1,0.3,0.2,0.5,0.1c0.1-0.1,0.2-0.2,0.3-0.2
					c0.4-0.1,0.7-0.1,1.1-0.1c0.4-0.1,0.7-0.2,1-0.3c0.1,0,0.2,0.1,0.2,0.2c0,0.1,0,0.1-0.1,0.1c-0.4,0.1-0.7,0.2-1,0.4
					c-0.4,0.3-0.9,0.5-1.3,0.6c-0.2,0.1-0.5,0.1-0.7,0.2c-0.4,0.1-0.6,0.4-0.7,0.8c-0.2,0.6-0.3,1.2-0.4,1.8c0,0.2-0.1,0.3-0.3,0.5
					c-0.1,0.1-0.4,0.3-0.5,0.2c-0.2-0.1-0.1-0.3,0-0.5c0.2-0.3,0.2-0.6,0-0.9c-0.2-0.4-0.4-0.8-0.5-1.2c-0.2-0.3-0.3-0.7-0.5-1
					c-0.1-0.2-0.4-0.3-0.6-0.3c-0.2,0.1-0.5,0.1-0.7,0.2c-0.5,0.1-8.6-6.2-8.9-8.6c-0.1-0.7-0.6-1.2-1.3-1.4
					c-0.5-0.3-1.1-0.2-1.5,0.3c-0.2,0.2-0.3,0.4-0.6,0.5c-0.2,0.1-0.4,0.1-0.5,0.1c-0.2,0-0.4-0.2-0.3-0.4c0.4-0.6,0.7-1.3,0.7-2
					c0,0-0.1-0.1-0.1-0.1c0,0-0.1-0.1-0.1-0.1c-0.2,0.1-0.3,0.2-0.5,0.3c-0.5,0.4-1,0.9-1.6,1.3c-0.1,0.1-0.2,0.1-0.3,0.1
					c-0.1,0-0.2-0.1-0.2-0.3c-0.1-0.5-0.1-1,0.1-1.5c0.2-0.8,0.3-1.7,0.2-2.6c0-0.2-0.1-0.4-0.2-0.5c0-0.1-0.2-0.1-0.3,0
					c-0.3,0.2-0.4,0.5-0.4,0.8c0,0.3-0.2,0.6-0.4,0.8c-0.4,0.2-0.7,0.5-1.1,0.7c-0.2,0.1-0.5,0.1-0.7-0.1c-0.1-0.1-0.2-0.1-0.2-0.2
					v0c0,0-0.1,0-0.1,0c-0.1,0.1-0.2,0.1-0.3,0.2c-0.1,0-0.1,0-0.2,0c-0.1-0.1-0.1-0.1,0.1-0.2c0.1,0,0.2,0,0.4,0c0,0,0.1,0,0.1-0.1
					c0,0,0,0,0,0c0.1-0.2,0.1-0.3,0.1-0.5c0.1-0.2,0-0.4-0.2-0.4c-0.4-0.2-0.8-0.2-1.3,0c-0.9,0.4-1.9,0.6-2.8,0.7
					c-0.3,0-0.6,0.1-0.9,0.3c-0.5,0.4-1.1,0.5-1.7,0.3c0,0,0,0,0,0l-0.1,0.1l0-0.1h0c0,0,0.1-0.1,0.1-0.1c0.2-0.2,0.2-0.5,0-0.7
					c-0.2-0.2-0.3-0.2-0.6-0.1c-0.2,0.1-0.4,0.2-0.7,0.3c-0.4,0-0.8,0.1-1.2,0.3c-0.5,0.1-0.9,0.5-0.9,1c0,0.2-0.2,0.3-0.4,0.2
					c-0.3-0.2-0.5-0.3-0.8-0.5c-0.4-0.2-0.6-0.6-0.7-1c-0.1-0.4-0.2-0.8-0.4-1.2c-0.1-0.3-0.2-0.5-0.4-0.8c0,0,0,0,0,0c0,0,0,0,0,0
					c0.1,0,0.2,0,0.3,0C39.1,42.2,39.2,42.1,39.2,42.1 M143.8,59c0,0.1-0.1,0.2-0.2,0.2c0,0-0.1,0-0.1,0c-0.1,0-0.1-0.1-0.1-0.2
					c0,0,0,0,0-0.1c0.1-0.1,0.2-0.1,0.3-0.1C143.8,58.8,143.8,58.9,143.8,59 M89.8,169.4c0.7-0.1,1.3,0.1,1.8,0.6
					c0.1,0.2,0,0.4-0.1,0.5c-0.2,0.1-0.3,0.1-0.5,0.2c-0.8,0.3-1.8,0-2.2-0.8c-0.1-0.1,0-0.2,0.1-0.3c0,0,0,0,0.1,0
					C89.2,169.5,89.5,169.5,89.8,169.4 M109.1,27.4c0.3-0.1,0.6-0.2,0.8-0.4c0.1-0.1,0.1-0.3,0-0.5c-0.7-0.7-2.9-2.2-3.5-0.7
					c-0.1,0.2,0,0.5,0.2,0.7c0.7,0.5,1.5,0.8,2.4,0.9C109,27.4,109,27.4,109.1,27.4 M95.4,170.1c-0.3,0-0.6-0.2-0.7-0.5
					c0-0.1,0.1-0.3,0.1-0.3c0.5-0.1,1-0.1,1.4-0.2c0.2,0,0.3-0.3,0.6-0.2s0.4,0.1,0.3-0.1c-0.1-0.4-0.1-0.9-0.5-1.1
					c-0.1-0.1-0.2-0.3-0.1-0.5c0,0,0,0,0,0c0.2-0.3,0.5-0.5,0.8-0.4c0.1,0.1,0.2,0.1,0.3,0.2c0.2,0.2,0.6,0.3,0.9,0.2
					c0.8-0.2,1.7-0.2,2.5,0.1c0.2,0,0.5,0.1,0.7,0.3c0.6,0.5,1.3,1,1.9,1.4c0.1,0.1,0.1,0.2,0.1,0.3c-0.1,0.2-0.2,0.3-0.3,0.4
					c-0.1,0.1-0.2,0.1-0.4,0.1c-0.7-0.2-1.5-0.2-2.1,0.1c-0.2,0.1-0.4,0.1-0.5,0.1c-0.5-0.1-1,0.1-1.3,0.6c-0.1,0.1-0.2,0.2-0.3,0.2
					c-0.1,0-0.2,0-0.3,0c-0.3-0.2-0.5-0.6-0.9-0.7c-0.4-0.1-0.9-0.1-1.3-0.1C96.2,170.1,95.8,170.1,95.4,170.1 M94.7,166.9
					c-1,0.3-2,0.8-2.8,0.4c-0.7,0-1.2,0-1.6,0c-0.2,0-0.3-0.1-0.3-0.3c0-0.1,0-0.2,0.1-0.2c0.1-0.1,0.1-0.2,0.2-0.3
					c0.1-0.2,0.1-0.4-0.1-0.5c-0.1,0-0.1,0-0.2-0.1c-0.6,0-1.2-0.4-1.4-1c-0.1-0.3-0.4-0.5-0.7-0.5c-0.6-0.1-1.2-0.2-1.8-0.5
					c-0.3-0.1-0.6-0.2-0.9-0.3c-0.4-0.1-0.9-0.2-1.3-0.3c-0.3-0.1-0.6-0.3-0.7-0.6c-0.1-0.2-0.4-0.3-0.6-0.2
					c-0.9,0.4-1.8,0.8-2.7,1.2c-0.2,0.1-0.5,0.1-0.7,0.1c0,0-0.1-0.1-0.1-0.1c0.5-0.6,0.9-1.3,1.7-1.7c0.8-0.3,1.7-0.5,2.5-0.6
					c0.3,0,0.6,0,0.9,0.1c0.4,0.2,0.9,0.3,1.4,0.3c0.7-0.1,1.4,0.2,1.9,0.7c0.2,0.2,0.4,0.3,0.6,0.3c0.5,0.2,0.9,0.4,1.3,0.6
					c0.4,0.2,0.8,0.4,1.2,0.5c1.3,0.5,2.5,1.1,3.7,1.7c0.2,0.1,0.4,0.3,0.5,0.5C95,166.5,94.9,166.9,94.7,166.9 M94.5,23.4
					c0.2-0.2,0.4-0.2,0.6,0c0,0,0,0,0,0c0.1,0.2,0.2,0.3,0.2,0.5c0.1,0.1,0.1,0.2,0.1,0.4c0,0.5,0,1,0.2,1.4
					c0.1,0.1-0.1,0.4-0.1,0.5c-0.1,0.3-0.1,0.7,0.2,1c0,0,0,0,0,0l-0.1,0l0.1,0c0,0,0,0,0-0.1c0.2-0.5,0.5-1.1,0.7-1.6
					c0.1-0.1,0.2-0.1,0.3-0.1c0.1,0,0.3,0.1,0.3,0.1c0.2,0.4,0.4,0.9,0.5,1.4c0.1,0.1,0.1,0.2,0.2,0.2c0,0,0.1-0.1,0.1-0.2
					c0-0.4,0-0.9,0-1.3c0-2.1,3.4-0.3,3.4-0.3c0.1,0.2,0.2,0.4,0.3,0.7c0,0.1,0,0.2,0,0.4c-0.3,0.5-0.6,1.1-0.8,1.6
					c0,0-0.1,0.1-0.1,0.1c-0.3,0.3-0.5,0.7-0.8,1c-0.2,0.4-0.3,0.7-0.4,1.1c-0.4,0-0.8,0.3-1,0.7c0,0.1-0.1,0.2-0.1,0.3
					c-0.2,0.5-0.7,0.7-1.2,0.6c-0.5-0.1-1-0.3-1.4-0.4c-0.2-0.1-0.4-0.3-0.4-0.6c0-0.2,0-0.5,0.1-0.7c0-0.3,0.3-0.6,0.6-0.7
					c0.2-0.1,0.5-0.1,0.7-0.2c0.1,0,0.1-0.2,0.2-0.3c0,0-0.1-0.1-0.1-0.1c-0.5-0.1-1.1-0.1-1.7-0.2c-0.4-0.1-0.9-0.2-0.7-0.8
					c0-0.1-0.1-0.2-0.2-0.2s-0.3-0.2-0.2-0.2c0.1-0.6,0.1-1.2-0.1-1.8c0-0.1,0-0.2,0.1-0.3c0.2-0.4,0.4-0.8,0.4-1.2
					C94.3,23.8,94.4,23.6,94.5,23.4 M74.6,23.5c0.5,0.1,0.9,0.3,1.3,0.5c0.3,0.2,0.5,0.4,0.7,0.6c0.2,0.2,0.6,0.3,0.9,0.1
					c0.3-0.2,0.6-0.5,0.9-0.7c0.1,0,0.2,0,0.3,0c0.2,0.1,0.4,0.1,0.5-0.1c0.3-0.4,0.5-0.8,0.8-1.2c0.3-0.4,0.7-0.7,1-1
					c0.1-0.1,0.2-0.1,0.3-0.1c0.2,0,0.2,0.2,0,0.5c-0.3,0.4-0.5,0.8-0.8,1.3c-0.1,0.2-0.1,0.5,0,0.7c0.1,0.2,0.4,0.3,0.6,0.2
					c0,0,0,0,0,0c0.2-0.1,0.3-0.2,0.4-0.3c0.2-0.4,0.6-0.7,1-0.7c0.2,0,0.4-0.1,0.5-0.2c0.2-0.1,0.4-0.2,0.4-0.3
					c0.3-0.7,1.1-1,1.2-1.8c0-0.1,0.2-0.3,0.4-0.4c0.2-0.1,0.3-0.2,0.5-0.2c0.5-0.3,0.3-1.8-0.1-1.8c-0.2,0-0.3,0.1-0.5,0.2
					c-0.2,0.3-0.5,0.4-0.6,0.3c-0.5-0.3-1-0.5-1.6-0.5c-0.4-0.1-0.8,0-1.1,0.2c-1.2,0.9-2.6,1.7-4.1,2.1c-0.3,0.2-0.7,0.3-1,0.4
					c-0.6,0.1-1.2,0.4-1.7,0.7c-0.4,0.3-0.7,0.8-0.6,1.2C74.4,23.4,74.5,23.5,74.6,23.5 M131.8,114.4c0,0.2-0.2,0.3-0.3,0.5
					s-0.2,0.3-0.1,0.5c0.1,0.2,0.3,0.1,0.5,0c0.2,0,0.3,0,0.3,0.2c0,0.1,0,0.1,0,0.2c-0.2,0.2-0.4,0.3-0.5,0.5
					c-0.1,0.1-0.2,0.3-0.2,0.5c0,0.1,0,0.3,0.2,0.3c0.3-0.1,0.6,0,0.8,0.2c0,0,0,0,0,0.1c0,0,0,0,0,0c0,0,0,0.1,0,0.1
					c0,0,0.1-0.1,0.1-0.1c0,0,0.1,0,0.1,0c0,0,0,0,0,0c0,0,0,0,0,0l0,0c0.2,0.2,0.3,0.5,0.2,0.8c-0.2,0.4-0.3,0.8-0.5,1.2
					c-0.1,0.2-0.4,0.3-0.6,0.3c-0.4-0.1-0.8-0.3-1.1-0.6c-0.1-0.1-0.1-0.2-0.1-0.3c0-0.3,0.1-0.6,0.2-0.9c0,0-0.1-0.1-0.1-0.1
					c-0.4,0.4-1,0.5-1.3,1c-0.1,0.2-0.4,0.3-0.6,0.3c-0.1,0-0.2-0.1-0.3-0.1c-0.1-0.1-0.1-0.2,0-0.3c0.2-0.2,0.3-0.4,0.5-0.5
					c0,0,0-0.1,0-0.2c-0.5-0.1-0.9-0.5-1.4-0.4c-0.5,0.1-1,0.1-1.5,0c-0.6-0.1-1.2-0.2-1.8-0.1c-0.2,0-0.4-0.1-0.5-0.1
					c-0.2-0.1-0.2-0.3-0.2-0.5c0.2-0.2,0.4-0.5,0.6-0.7c0.2-0.1,0.2-0.4,0.1-0.6c0,0,0,0,0,0c-0.1-0.2-0.1-0.4,0.1-0.4
					c0.6-0.2,1.1-0.7,1.4-1.3c0.6-1.2,1.4-2.3,2.3-3.4c0.4-0.5,1-0.8,1.6-0.9c0.2,0,0.5,0,0.5,0.1c0,0.1,0,0.2,0,0.3
					c-0.2,0.4-0.5,0.9-0.8,1.2c-0.4,0.3-0.7,0.8-0.9,1.3h-0.1l0,0.1l0.1-0.1c0,0,0,0,0,0c0.2,0,0.3,0,0.5,0c0.3,0,0.5,0.3,0.5,0.6
					c0,0,0,0,0,0c0,0.1,0,0.1,0,0.2c0,0.3,0.1,0.5,0.3,0.6c0.4,0.2,0.9,0.1,1.2-0.1c0.2-0.1,0.3-0.2,0.5-0.3c0.2-0.1,0.4,0,0.5,0.1
					c0.2,0.1,0.3,0.2,0.4,0.4C131.8,114.1,131.9,114.2,131.8,114.4 M87.4,29.6c0.2,0,0.4-0.3,0.4-0.5c0-0.1-0.1-0.2-0.1-0.4
					c-0.1-0.3,0-0.6,0.2-0.8c0.1,0,0.1-0.1,0.2-0.1c0.3-0.2,0.5-0.4,0.4-0.8c-0.1-0.2-0.1-0.4-0.1-0.5c-0.1-0.3,0-0.6,0.3-0.8
					c0.5-0.4,1-0.7,1.5-1.1c0.2-0.2,0.5-0.2,0.7,0c0.2,0.1,0.2,0.3,0.1,0.5c-0.3,0.5-0.4,1-0.3,1.6c0,0.3-0.1,0.5-0.2,0.7
					c-0.3,0.3-0.1,0.5,0.1,0.8c-0.2,0.5,0.3,0.6,0.5,0.8c0.1,0.1,0.2,0.1,0.3-0.1c0.1-0.2,0.3-0.4,0.6-0.4c0.1,0,0.2,0,0.3,0
					c0.5,0.3,0.7,0.9,0.4,1.5c-0.1,0.2-0.2,0.4-0.4,0.6c-2.3,1.9-2.1,2.7-4.3,2.1c-0.3-0.1-0.7-0.2-1.2-0.4c-0.1,0-0.2-0.1-0.3,0
					c-0.5,0.2-1.1,0.2-1.7,0.2c-0.2,0-0.5,0.1-0.7,0.3c-0.6,0.4-1.3,0.5-2,0.4c-0.4,0-0.7,0-1.1,0c-0.2,0-0.5-0.1-0.7-0.2
					c-0.5-0.2-0.7-0.7-0.6-1.2c0-0.2,0.2-0.5,0.4-0.5c0.8-0.1,1.6-0.3,2.4-0.4c0.1,0,0.1,0,0.2-0.1c0,0-0.1-0.1-0.1-0.1
					c-0.5,0-1-0.1-1.4-0.3c-0.1-0.1-0.2-0.1-0.3,0c-0.8,0.4-1.4,0-2-0.5c-0.2-0.2-0.5-0.4-0.7-0.6c-0.3-0.2-0.4-0.5-0.3-0.8
					c0.2-0.5,0.5-0.8,0.9-0.8c0.4,0,0.9,0.1,1.3,0.2c0.1,0,0.1,0,0.2,0c0.1-0.1,0.1-0.2-0.1-0.3c-0.2-0.1-0.4-0.3-0.6-0.4
					c-0.1-0.1-0.1-0.2,0-0.3c0,0,0,0,0,0c0.2-0.2,0.4-0.4,0.7-0.6c0.4-0.2,0.7-0.3,0.6-0.8c0.1-0.2,0.3-0.4,0.5-0.5
					c0.5-0.4,1.1-0.4,1.6-0.9c0.3-0.3,0.7-0.2,1.1-0.1c0.5,0.1,0.7,0.4,0.7,0.9c0,0.4,0,0.4,0.4,0.5c0.4,0,0.7,0.3,0.8,0.7
					c0.1,0.4,0.1,0.9,0.1,1.3c-0.1,0.5,0.2,1.1-0.1,1.6c0,0,0.1,0.2,0.2,0.3C86.3,29.4,86.9,29.5,87.4,29.6 M118.8,37.7
					c0.6,0.4,0.8,1.1,0.4,1.7c0,0.1-0.1,0.1-0.1,0.2c-0.2,0.2-0.2,0.4-0.2,0.7c0.1,0.3-0.1,0.5-0.3,0.6c-0.4,0.2-0.8,0.4-1.1,0.7
					c-0.1,0.1-0.3,0.2-0.5,0.2c-0.4,0-0.7,0-1.1,0.1c-0.5,0.1-1,0-1.4-0.3c-0.2-0.1-0.4-0.3-0.7-0.3c-1.2,0-2.3-0.6-3.5-0.6
					c-0.6,0-1.2-0.2-1.8-0.4c-0.3,0-0.5-0.2-0.5-0.5c0-0.2,0-0.4,0.1-0.5c0-0.2,0-0.3-0.2-0.2c-0.1,0-0.2,0.1-0.3,0.1
					c-0.4,0.3-1,0.2-1.4-0.1c0,0-0.1-0.1-0.1-0.1c-0.3-0.4-1-0.4-1.1-0.9c-0.1-0.9,0.1-1.7,0.5-2.5c0.2-0.3,0.4-0.6,0.7-0.8
					c0.4-0.2,0.6-0.7,0.5-1.1c0-0.4,0-0.7,0-1.1c0-0.4,0-0.4-0.5-0.6c-0.5-0.2-1-0.4-1.5-0.6c-0.1-0.1-0.2-0.2-0.2-0.3
					c-0.1-0.7-0.2-1.5-0.4-2.1c-0.1-0.3,0.1-0.6,0.4-0.8c0.4-0.3,0.9-0.4,1.4-0.2c0.5,0.3,1,0.7,1.5,1.1c0.1,0.1,0.2,0.3,0.2,0.5
					c0.1,0.2,0.1,0.5,0.2,0.7c0.1,0.2,0.3,0.4,0.6,0.4c0.3,0,0.6,0,0.9,0.1c0.3,0,0.7,0.4,0.7,0.8c-0.1,0.4,0,0.9,0.4,1.1
					c0.1,0.1,0.2,0.2,0.2,0.3c0.1,0.1-0.1,0.4-0.2,0.5c-0.4,0.1-0.7,0.1-1.1,0c0,0,0,0,0,0l-0.1,0l0.1,0h0c-0.2,0.2-0.3,0.3-0.5,0.4
					c-0.2,0.1-0.2,0.1,0,0.2c0.3,0.1,0.6,0.2,0.6,0.6c0.2,0.7,0.8,1.3,1.5,1.4c0.2,0.1,0.5,0.1,0.7,0.3c0.3,0.6,0.8,0.4,1.3,0.3
					c0.8-0.1,1.6-0.2,2.4-0.3c0.2,0,0.4,0,0.5,0c0.5,0.3,1.1,0.4,1.6,0.3c0.4,0,0.8,0.2,0.9,0.5C118.4,37.4,118.6,37.6,118.8,37.7
					 M61.5,40.3c0-0.4-0.1-0.9-0.3-1.2c-0.1-0.3-0.5-0.4-0.4-0.8c0.1-0.2,0.4-0.3,0.5-0.5c0.9-0.8,1.8-1.5,2.8-2.2
					c0.1-0.1,0.2-0.2,0.2-0.3c0-0.4,0.2-0.7,0.5-0.9c0.6-0.5,1.1-1,1.7-1.4c0.3-0.2,0.5-0.6,0.5-0.9c0-0.4,0.1-0.7,0.2-1.1
					c0.1-0.3,0.3-0.4,0.5-0.5c0.3-0.1,0.6-0.1,0.9-0.1c0.6,0,1.1,0,1.7,0c0.7-0.2,1.4,0.1,1.7,0.7c0.2,0.2,0.4,0.4,0.7,0.6
					c0.4,0.3,0.9,0.5,1.4,0.5c0.3,0,0.6,0.1,0.9,0.3c0.4,0.3,0.6,0.8,0.7,1.3c0.1,1,0.1,1.9,0,2.9h0.1l-0.1,0.1
					c0.1,0.1,0.2,0.1,0.3,0.2c0.3,0.2,0.4,0.6,0.3,1c-0.3,0.4-0.5,0.8-0.8,1.2c-0.2,0.3-0.3,0.4-0.1,0.4c0.2,0,0.4,0,0.5-0.1
					c0.2-0.2,0.3-0.3,0.5-0.5c0.3-0.3,0.8-0.3,1.1,0.1c0,0,0,0,0,0.1c0.4,0.3,0.7,0.7,0.9,1.1c0.1,0.2,0,0.5-0.1,0.7
					c-0.3,0.2-0.5,0.3-0.8,0.4c-0.1,0-0.1,0-0.2,0.1c-0.1,0.1,0,0.1,0.2,0.1c0.6,0,1.1,0,1.6,0.2c0.2,0.1,0.3-0.1,0.4-0.3
					c0.1-0.4,0.1-0.8,0.2-1.3c0.1-0.2,0.3-0.3,0.5-0.2c0,0,0.1,0,0.1,0.1c0.1,0.1,0.2,0.3,0.3,0.4c0.3,0.9,0.3,1.8-0.1,2.7
					c-0.2,0.6-0.4,1.3-0.6,1.9c0,0.1,0.1,0.4,0.3,0.4c0.2,0,0.4,0,0.5-0.2c0-0.1,0.1-0.1,0.1-0.2c0-0.1,0-0.1,0.1-0.2
					c0.2-0.8,0.4-1.5,0.7-2.3c0.3-0.7,0.6-1.5,0.8-2.2c0.1-0.3,0.3-0.6,0.4-0.8c0.2-0.4,0.5-0.6,1.1-0.3c0.2,0.1,0.3,0.1,0.5,0.2
					c0.3,0.1,0.5,0.3,0.6,0.6c0,0.1,0.1,0.2,0.1,0.3c0,0,0,0.1,0,0.1l0.1,0.1l-0.1-0.1l0-0.1c0-0.4,0-0.8-0.1-1.2
					c-0.1-0.3-0.2-0.6,0.1-0.8c0.3-0.3,0.7-0.5,1.2-0.5c3.6,0.7,1.6,2.6-0.4,3.7c-0.3,0.2-0.5,0.4-0.6,0.7c-0.3,0.9-0.7,1.7-1,2.6
					c-0.1,0.3-0.2,0.6-0.2,0.9c0.1,0.7-0.2,1.5-0.8,2c-0.2,0.2-0.3,0.6-0.2,0.9c0.2,0.5,0.2,1,0.6,1.3c0.4,0.2,0.6,0.6,0.6,1.1
					c0.1,0.4,0.2,0.7,0.5,1c0.2,0.2,0.3,0.4,0.5,0.6c0.2,0.3,0.2,0.7,0.1,1.1c-0.2,0.5-0.6,0.8-1.1,0.9c-0.2-0.4-0.7-0.4-0.9-0.8
					c-0.1-0.1-0.4-0.1-0.5,0c-0.1,0.1-0.2,0.3-0.3,0.4l0,0c0,0,0,0,0-0.1c0,0,0,0,0,0.1l-0.5,0c-0.2,0-0.2,0.1-0.1,0.2
					c0.1,0,0.1,0,0.2,0c0.2,0,0.3-0.1,0.4-0.3h0.1c0.4,0.5,0.5,1.1,0.2,1.7c-0.1,0.3-0.4,0.5-0.7,0.6c-0.6,0.2-1.2,0.2-1.8,0
					c-0.6-0.2-1.2-0.3-1.8-0.5c-0.1,0-0.1-0.1-0.1-0.1c-0.3-0.3-0.1-0.7-0.5-1c-0.3-0.1-0.6-0.3-0.6-0.6c0-0.1,0-0.1-0.1-0.2
					c0-0.1-0.2-0.2-0.3-0.1c0,0,0,0,0,0c-0.2,0.1-0.4,0.2-0.6,0.4c-0.4,0.3-0.9,0.4-1.4,0.4c-0.4-0.1-0.9,0-1.2,0.2
					c-0.3,0.1-0.6,0.3-0.8,0.4c-0.4,0.2-1,0.3-1.4,0.1c-0.9-0.2-1.7-0.2-2.6-0.2c-0.2,0-0.4,0-0.5-0.1c-0.1,0-0.2-0.1-0.3-0.2
					c-0.1-0.3-0.2-0.7-0.3-1.1c0-0.2,0-0.4,0.1-0.5c0.1-0.3,0.3-0.5,0.4-0.8c0-0.2-0.1-0.4-0.2-0.5c-0.4-0.2-0.8-0.3-1.2-0.4
					c-0.8-0.2-1.4-1-1.4-1.8c-0.1-0.5,0-1,0.2-1.5c0.1-0.4,0.4-0.6,0.8-0.7c0.9,0,1.7,0,2.6,0.1c0.4,0.1,0.7,0.2,1,0.4
					c0.8,0.4,1.7,0.7,2.6,0.8c0.1,0,0.1,0,0.2,0c0.1-0.1,0.1-0.2,0-0.3c-0.3-0.5-0.6-0.9-1.1-1.3c-0.2-0.2-0.5-0.4-0.7-0.5
					c-0.2-0.1-0.3-0.1-0.5-0.1c-1.1,0-2.1-0.2-3.1-0.5c-0.9-0.2-1-0.4-1-1.1c0-0.2-0.1-0.5,0-0.7c0-0.2,0.1-0.3,0.3-0.5
					c0.3-0.2,0.7-0.4,1-0.4c0.6-0.1,1.2-0.1,1.9-0.2c0.1,0,0.2-0.1,0.2-0.2c0-0.1,0-0.1-0.1-0.2c-0.6-0.1-1.1-0.1-1.7-0.2
					c-0.3,0-0.5-0.2-0.5-0.4c0-0.1,0-0.1-0.1-0.2c-0.1-0.3-0.2-0.6-0.3-0.9c0-0.5,0.4-0.7,0.8-1c0.3-0.2,0.5-0.3,0.8-0.5
					c0.2-0.1,0.3-0.2,0.4-0.4c0.1-0.5,0.4-0.7,0.8-0.9c0.9-0.3,1.7-0.7,2.5-1.1c0.1-0.1,0.1-0.1,0.2-0.2h0l0.1-0.1
					c-0.2,0-0.5,0.1-0.7,0.1c-0.6,0.2-1.3,0.4-2,0.5c-0.2,0-0.5,0.2-0.6,0.3c-0.3,0.2-0.5,0.5-0.8,0.8c-0.2,0.2-0.5,0.4-0.8,0.4
					c-0.6,0-1.1,0.3-1.4,0.8c-0.2,0.3-0.4,0.6-0.6,0.9c-0.2,0.2-0.3,0.4-0.5,0.5c-0.2,0.2-0.5,0.3-0.9,0.3c-0.3,0-0.6-0.2-0.7-0.4
					l0.1-0.1l-0.1,0.1c0,0,0,0,0,0c-0.6,0.4-1.2,0.6-1.9,0.6c-0.2,0-0.3-0.2-0.4-0.4C61.4,41.2,61.5,40.8,61.5,40.3 M72.7,37.4
					C72.7,37.4,72.7,37.4,72.7,37.4c0.3-0.3,0.7-0.4,1.1-0.4c0.3,0,0.5,0,0.8,0c0,0,0,0,0,0h0c-0.2,0.2-0.5,0.3-0.8,0.3
					C73.4,37.3,73,37.4,72.7,37.4 M74.6,37c0.3-0.3,0.7-0.4,1.1-0.4c0,0,0,0,0,0C75.4,37,74.9,36.9,74.6,37C74.6,37,74.6,37,74.6,37
					L74.6,37z M113.2,24.8c-0.7-0.4-1.1-1.2-1-2c0-0.6,0.2-1.2,0.4-1.8c0.2-0.7,0.9-1.1,1.6-0.9c0,0,0,0,0,0c0.1,0,0.2,0,0.4,0
					c0.1-0.1,0.2-0.2,0.2-0.3c0-0.1,0-0.2-0.1-0.3c-0.1-0.1-0.3-0.2-0.5-0.2c-0.4,0-0.7-0.2-1-0.4c-0.3-0.2-0.5-0.6-0.3-1
					c0.5-1,0.7-2.1,1.3-3.1c0.1-0.1,0.3-0.2,0.5-0.1c0.3,0.2,0.6,0.4,1,0.4c0,0,0,0,0,0.1c0.1,0,0.1,0,0.2,0c0.1,0.1,0.2,0.1,0.3,0
					c-0.1,0-0.2,0-0.3,0c0,0-0.1,0-0.1-0.1c0,0,0,0-0.1,0c0-0.4-0.2-0.7-0.4-0.9c-0.2-0.2-0.4-0.5-0.4-0.8c-0.1-0.3,0-0.7,0.4-0.6
					c3.2,0.4,0.9-2,3.3-2.3c0.3,0,0.6,0,0.9,0c0,0,0.1-0.1,0.1-0.1c0.1-0.1,0.1-0.2,0-0.3c0,0,0,0,0,0c-0.2-0.1-0.4-0.2-0.7-0.3
					c-0.2-0.1-0.3-0.2-0.3-0.4c0-0.3,0.2-0.5,0.5-0.5c0.4-0.1,0.9,0,1.2,0.3c0.5,0.4,0.8,1,0.7,1.6c-0.1,0.4-0.2,0.8-0.2,1.3
					c-0.3,2.7,0.2,1.4,1.1,2.6c0.2,0.3,0.8,0.3,0.8,0.7c0,0.3-0.1,0.6-0.2,0.9c-0.1,0.4-0.1,0.8,0,1.2c0,0,0,0,0.1,0c0,0,0,0,0,0
					c0.4-0.4,0.7-0.8,1.1-1.1c0.2-0.2,0.6-0.3,0.9-0.1c0.1,0,0.1,0.1,0.2,0.1c1.1,0.5,1.8,1.5,2,2.7c0,0.1,0,0.1,0.1,0.1
					c0.1,0,0.1,0,0.2-0.2c0-0.5,0.1-1,0.1-1.5c0.1-0.2,0.3-0.4,0.5-0.4c0.4,0,0.7,0.1,1.1,0.2c0.5,0.2,1.1,0.2,1.6-0.1
					c0.6-0.3,3.5-0.9,3.8-0.5l0.1,0.1c0-0.1,0-0.1-0.1-0.1c-0.3-0.3-0.7-0.2-1.1-0.4c-0.2-0.1-0.3-0.4-0.2-0.6c0-0.1,0-0.1,0.1-0.1
					c0-0.1,0.1-0.2,0.1-0.3c0,0,0,0,0.1,0l0,0c0,0,0,0,0,0.1c-0.2,0-0.4,0.1-0.5,0.3c-0.5,0.7-1.3,1.1-2.2,1.1
					c-0.8,0.2-1.6,0-2.2-0.5c-0.2-0.1-0.2-0.4-0.2-0.6c0,0,0,0,0,0c0.1-0.1,0-0.1,0,0c0,0,0,0,0,0.1c-0.4,0.3-0.9,0.4-1.3,0.3
					c-0.7-0.1-1.3-0.4-1.7-0.9c-0.1-0.2-0.2-0.4-0.3-0.6h0c0,0,0-0.1,0.1-0.1c0,0-0.1,0.1-0.1,0.1c0,0,0,0,0,0
					c-0.4,0.1-0.8-0.1-1.1-0.4c-0.3-0.3-0.6-0.8-0.6-1.3c-0.1-0.3,0.1-0.6,0.4-0.7c0,0,0,0,0.1,0c0.1,0,0.2,0,0.4,0
					c0.1,0,0.1,0,0.2-0.1c-0.1,0-0.2-0.1-0.3-0.1c-0.5-0.2-0.6-0.6-0.3-1c0.1-0.1,0.2-0.3,0.4-0.4c0.1-0.2,0.1-0.2,0-0.6
					C123,9.6,123,9.4,123,9.2c0,0,0,0,0,0c0,0,0,0,0.1-0.1c0.1,0,0.3-0.1,0.4-0.1c0.1,0,0.1-0.2,0-0.3c-0.1,0-0.1,0-0.2,0
					c-0.1,0.1-0.2,0.2-0.3,0.3c0,0-0.1,0-0.1,0c0,0,0,0,0,0c-0.1,0-0.2-0.1-0.3-0.1c-0.3-0.2-0.4-0.6-0.2-0.9c0,0,0,0,0-0.1
					c0.1-0.1,0.3-0.3,0.4-0.4c0.6-0.3,1.2-0.6,1.9-0.7c0.3-0.1,0.6,0,0.8,0.2c0.1,0.1,0.2,0.1,0.3,0c0.2-0.2,0.3-0.4,0.5-0.5
					c0.2-0.2,0.4-0.1,0.6,0c0,0,0,0,0.1,0.1c0.1,0.2,0.2,0.3,0.3,0.4c0.1,0.1,0.3,0.2,0.5,0.1c3-1.9,2.6,2.3,4.5-1
					c1.5-0.9,3.2,1.9,3.8-1c0-0.2-0.1-0.5-0.1-0.7c0-0.3,0.2-0.6,0.5-0.7c0.3-0.2,0.6-0.1,0.9,0.1c0.3,0.3,0.5,0.7,1,0.6
					c0.1,0,0.2,0.1,0.3,0.2c0,0,0,0.1,0,0.2c0,0.2,0,0.4,0,0.6c0,0.1,0.1,0.2,0.2,0.2c0,0,0,0,0,0c0,0,0.1-0.1,0.1-0.1
					c0.1-0.4,0.1-0.9,0.1-1.3c0-0.2,0.2-0.4,0.5-0.5c0.2,0,0.5,0,0.7,0c0.7,0.1,1.3,0.3,2,0.5c0.1,0,0.1,0.2,0.1,0.3
					c0,0.5,0.2,0.6,0.5,0.4c0.4-0.3,0.9-0.3,1.4-0.1c0.5,0.1,0.9,0.2,1.4,0.3c0.2,0,0.5,0.2,0.5,0.4c0.1,0.3,0.3,0.5,0.7,0.6
					c0.5,0.1,0.9,0.5,1.4,0.5c0.1,0,0.1,0,0.2,0.1l0.3,0.2c0.3,0.2,0.3,0.3,0,0.6c-0.2,0.2-0.4,0.4-0.6,0.6l-0.1,0l-0.1,0.1
					c-0.1,0-0.2,0-0.3,0.1c0,0,0.1,0,0.1,0c0.1-0.1,0.1-0.1,0.2-0.2c0,0,0.1,0,0.1,0c0,0,0-0.1,0.1-0.1c0.1,0,0.3-0.1,0.4-0.1
					c0.3-0.2,0.7-0.2,1.1-0.1c0.4,0.1,0.8,0.2,1.2,0.4c0.1,0.1,0.2,0.2,0.2,0.3c0,0.4,0,0.9-0.1,1.3c0,0.2,0.1,0.5,0.4,0.5
					c0.4,0.1,0.6,0.5,0.6,0.8c0,0.4-0.1,0.7-0.2,1.1c-0.1,0.3-0.3,0.5-0.5,0.7c-0.1,0.1-0.2,0.1-0.3,0.2c-0.9,0.4-1.8,0.9-2.6,1.3
					c-0.9,0.1-1.8,0.2-2.7,0.2c-0.3,0-0.4,0.2-0.5,0.4c0,0,0,0,0,0l-0.1,0.1l0.1-0.1c0,0,0,0,0,0c0.2,0.1,0.4,0.2,0.7,0.3
					c0.4,0.1,0.5,0.2,0.5,0.4c-0.1,0.2-0.1,0.4-0.2,0.5c-0.8,0.5-1.7,1-2.5,1.5c-1,0.3-1.9,0.6-2.8,1c-0.3,0.1-0.6,0.2-0.8,0.5
					c-0.3,0.4-0.7,0.6-1.2,0.8c-0.8,0.5-1.6,1.2-2.2,1.9c-0.4,0.6-1.2,0.8-1.9,0.4c0,0,0,0,0,0c-0.1-0.1-0.2-0.1-0.3-0.2
					c-0.1-0.1-0.2-0.1-0.3-0.2c0,0.1-0.1,0.2-0.1,0.3c0,0.3-0.3,0.6-0.7,0.5c-0.6,0.1-1.1,0-1.7-0.1c-0.2,0-0.4,0-0.5,0.1
					c-0.1,0-0.2,0.2-0.2,0.3c0.1,0,0.1,0.1,0.2,0.1c0.2,0.1,0.5,0.2,0.7,0.3c0.3,0.2,0.4,0.5,0.3,0.8c0,0.3-0.2,0.5-0.5,0.5
					c-0.1,0-0.1,0-0.2,0c-0.3-0.1-0.5-0.2-0.8-0.3v-0.1l-0.1,0c0,0,0.1,0,0.1,0.1c0,0,0,0,0,0c0,0.3,0.1,0.6,0.3,0.8
					c0.3,0.3,0.3,0.7,0,1c-0.2,0.2-0.4,0.5-0.6,0.7c-0.2,0.2-0.4,0.4-0.6,0.7c-0.3,0.5-0.8,0.7-1.3,0.6c0,0,0,0,0,0c0,0-0.1,0-0.1,0
					c-0.1-0.1-0.1-0.1-0.2,0l0.2,0c0,0,0,0.1,0.1,0.1h0.1c0,0.1,0.1,0.2,0.1,0.3c0.1,0.3,0,0.7-0.3,0.7c-0.6,0.1-1.2,0.1-1.8-0.1
					c-0.3-0.1-0.5,0-0.6,0.3c0,0.1-0.1,0.1-0.1,0.2c0,0.1-0.1,0.2-0.1,0.4c-0.2,0.5-0.5,0.9-1,1.1c-0.4,0.2-0.8,0.4-1.2,0.6
					c-0.2,0.1-0.3,0.2-0.4,0.3c-0.2,0.2-0.3,0.4-0.2,0.7c0,0.2,0.2,0.3,0.4,0.3c0.6,0.3,0.7,0.6,0.4,1.2c0,0.1-0.1,0.1-0.1,0.2
					c-0.4,0.4-0.8,0.9-1.5,0.9c-0.3,0-0.6,0.2-0.9,0.3c-0.4,0.1-0.8,0.2-1.2,0.3c-0.2,0-0.5-0.1-0.5-0.4c0,0,0,0,0,0
					c0-0.1,0-0.1,0-0.2c0-0.4-0.2-0.6-0.5-0.6c-0.1,0-0.2-0.1-0.4-0.1c-0.7,0.1-1.5-0.1-2-0.5c-0.2-0.1-1-0.2-0.9-0.1
					c0,0-0.1,0.2-0.2,0.3c-0.2,0.3-0.5,0.4-0.8,0.3c-0.2-0.1-0.3-0.2-0.5-0.3c-0.7-0.4-1.4-0.8-2.1-1.1c-0.7-0.3-1.3-0.7-1.9-1.2
					c-0.3-0.4-0.3-0.8-0.1-1.2c0.1-0.2,0.3-0.2,0.6,0c0.1,0.1,0.2,0.3,0.4,0.1c0.1-0.1,0.3-0.2,0.4-0.4c0.1,0,0.1-0.1,0.2-0.1
					c0.9-0.6,1.9-0.8,3-0.7c1.2,0.2,0.2-0.8,0.2-2.2c0-0.2,0.1-0.4,0.1-0.5c0.1-0.1,0.1-0.2,0.3-0.2c0.4-0.2,0.9-0.2,1.2,0
					c0.2,0.1,0.4,0.3,0.5,0.5c0.1,0.4,0.2,0.8,0.2,1.2c0,0,0.1,0.1,0.2,0.1c0.1,0,0.1,0,0.2,0c0.2-0.2,0.4-0.5,0.4-0.8
					c0-0.2,0-0.5,0-0.7c0-0.5-0.2-0.7-0.7-0.8c-0.1,0-0.2,0-0.4,0c-0.2-0.1-0.4-0.3-0.4-0.5c0-0.4,0.2-0.8,0.6-1.1
					c0.6-0.4,1-0.9,1.1-1.5c0.4,0,0.8-0.1,1.2-0.1c0.6-0.1,1.1-0.3,1.6-0.5c0,0,0.7-0.2,0.5-0.7c0.1,0,0.2-0.1,0.2-0.2
					c0.1-0.4,0.1-0.8,0.3-1.3c0.2-0.5,0.1-1-0.1-1.4c-0.2-0.3-0.1-0.7,0.1-1.1c0.1-0.2,0-0.5-0.1-0.7l-0.1,0.1c0,0,0,0,0,0
					c-0.3,0.2-0.6,0.5-0.8,0.9c-0.1,0.1-0.1,0.3,0,0.5c0.1,0.1,0.1,0.2,0.2,0.3c0.4,0.5,0.5,1.1,0.4,1.7c0,0.5-0.4,0.7-0.8,1
					c-0.5,0.4-0.4,1.2-1,1.1c-0.3-0.1-0.6-1.6-1.3-0.2c-0.1,0.2-0.2,0.4-0.3,0.5c-0.4,0.2-0.7,0.4-1,0.7c-1.3,1.6-2.7,0.9-3.7,1.1
					C113.6,25,113.4,24.9,113.2,24.8 M106.5,52.7l0.1,0.1l-0.1,0L106.5,52.7z M113.3,50.3c0.1-0.1,0.1-0.1,0.2-0.2
					C113.4,50.2,113.4,50.3,113.3,50.3C113.4,50.3,113.2,50.5,113.3,50.3 M124.9,59.4c0.1,0,0.2,0,0.2,0.1c0,0,0,0.1,0,0.1
					c0,0.2-0.1,0.3-0.3,0.4c0,0,0,0,0,0.1l-0.1,0.1l0.1-0.1c0,0,0,0,0,0c0-0.1-0.1-0.3-0.1-0.4C124.8,59.5,124.9,59.4,124.9,59.4
					 M116.3,75.5c-0.1,0-0.2,0-0.3-0.1c0,0,0-0.1,0-0.1c0.2-0.3,0.3-0.6,0.5-1c0.1-0.1,0.1-0.2,0.3-0.1c0.1,0,0.1,0.1,0.1,0.1
					c0.1,0.2,0.1,0.3,0.2,0.4C117,75.2,116.7,75.5,116.3,75.5 M130.2,23l-0.1,0l0.1,0.1L130.2,23z M124.6,14L124.6,14L124.6,14
					c-0.1,0-0.1,0-0.1,0.1C124.5,14,124.5,14,124.6,14 M174.9,60L174.9,60L174.9,60L174.9,60L174.9,60z M174.3,63l0-0.1l0.1,0
					L174.3,63z M169.4,13.6c-0.2-0.1-0.2-0.2-0.1-0.3c0,0,0,0,0,0c0-0.1-0.1-0.1-0.1-0.2l0.2,0.1v0.1c0.1,0,0.1,0.1,0.2,0.1
					C169.5,13.5,169.4,13.6,169.4,13.6 M168.8,12.9C168.8,12.9,168.7,12.7,168.8,12.9c0.1,0,0.2,0,0.2,0.1
					C169,13,168.9,12.9,168.8,12.9 M159.2,76.3c0,0-0.1-0.1-0.1-0.1c0,0,0.1-0.1,0.1-0.1c0,0,0.1,0.1,0.1,0.1
					C159.3,76.2,159.3,76.2,159.2,76.3 M77.8,180.8c0,0-0.1,0.1-0.1,0.1c-0.3,0.1-0.6-0.1-0.7-0.4c0-0.1,0-0.1,0-0.2
					c0-0.1,0.1-0.1,0.1-0.1c0.3,0,0.6,0.1,0.7,0.4C77.8,180.7,77.8,180.8,77.8,180.8 M49.1,45.4c0,0-0.1,0.1-0.2,0.1
					c-0.6,0-1.2,0-1.8,0c0,0-0.1,0-0.1,0c-0.1,0.1-0.3,0.3-0.4,0.4c0,0-0.1,0-0.1,0c0,0.1-0.1,0.1-0.2,0.2c0,0-0.1,0-0.1,0
					c0.1-0.2,0.2-0.1,0.3-0.2c0,0,0,0,0.1-0.1c0.1-0.1,0.3-0.3,0.4-0.4c0.1,0,0.1,0,0.2,0c0.6-0.3,1.3-0.3,1.9-0.2
					C49.1,45.3,49.1,45.4,49.1,45.4 M45.1,46.7c0,0-0.1,0.1-0.1,0.1C45,46.7,45.1,46.7,45.1,46.7L45.1,46.7L45.1,46.7z M42.5,47.5
					c0,0-0.1-0.1-0.1-0.1c0-0.2,0-0.3,0-0.3c0-0.4,0-0.5,0-0.6c0-0.1,0.1-0.1,0.1-0.1c0,0,0.1,0,0.1,0.1c0,0.3,0,0.6,0,0.9
					C42.7,47.4,42.7,47.5,42.5,47.5 M86.9,102C86.9,102,86.9,101.9,86.9,102c0-0.2,0-0.3,0-0.5c0-0.2,0.1-0.2,0.2-0.1
					c0,0,0,0.1,0,0.2C87.1,101.7,87,101.8,86.9,102C86.9,101.9,86.9,102,86.9,102l-0.1,0.1L86.9,102z M93.9,69.3c0.1,0,0.1,0,0.2,0
					c0.4,0.4,0.8,0.9,1,1.5c0,0,0,0.1,0,0.1c0,0-0.1,0.1-0.1,0.1c-0.2,0-0.3-0.1-0.5-0.2c-0.4-0.3-0.6-0.8-0.7-1.2
					C93.7,69.4,93.8,69.3,93.9,69.3C93.9,69.3,93.9,69.3,93.9,69.3 M125.6,104c0,0,0.1,0.1,0.1,0.1c-0.2,0.5-0.6,0.5-1,0.7
					c-0.1-0.1-0.2-0.2-0.1-0.2C124.8,104.3,125.1,104.1,125.6,104"/>
			</g>
		</g>
	</g>
</g>
</svg>
